<?xml version="1.0" standalone="no"?>
<!DOCTYPE svg PUBLIC "-//W3C//DTD SVG 20010904//EN"
 "http://www.w3.org/TR/2001/REC-SVG-20010904/DTD/svg10.dtd">
<svg version="1.0" xmlns="http://www.w3.org/2000/svg"
 width="500.000000pt" height="357.000000pt" viewBox="0 0 500.000000 357.000000"
 preserveAspectRatio="xMidYMid meet">

<g transform="translate(0.000000,357.000000) scale(0.100000,-0.100000)"
fill="#000000" stroke="none">
<path d="M1529 2065 c-9 -19 -14 -72 -14 -140 0 -105 2 -113 34 -180 43 -88
118 -162 208 -207 l68 -33 600 -3 c422 -2 616 0 655 8 58 12 181 68 187 85 6
19 -44 34 -70 20 -97 -50 -85 -49 -676 -53 -583 -3 -654 1 -739 40 -65 31
-148 116 -179 185 -22 48 -27 74 -28 153 -1 66 -6 104 -17 125 l-16 30 -13
-30z"/>
<path d="M2860 909 c0 -355 3 -362 131 -376 l60 -6 -3 54 c-3 51 -5 54 -30 57
l-28 3 0 275 0 274 -65 0 -65 0 0 -281z"/>
<path d="M4450 1058 l0 -132 -33 36 c-83 91 -226 48 -263 -80 -23 -78 -16
-212 15 -270 50 -97 179 -119 245 -41 14 16 27 29 30 29 3 0 6 -16 6 -35 l0
-36 63 3 62 3 3 328 2 327 -65 0 -65 0 0 -132z m-25 -183 c23 -22 25 -32 25
-110 0 -78 -2 -88 -25 -110 -32 -33 -84 -33 -122 -1 -27 23 -28 29 -28 109 0
77 3 88 24 111 33 35 92 36 126 1z"/>
<path d="M2446 1150 c-112 -34 -176 -146 -176 -308 0 -113 19 -177 70 -234 89
-102 258 -114 363 -27 33 27 74 87 65 93 -2 1 -25 15 -51 30 l-48 27 -38 -42
c-35 -40 -41 -43 -88 -43 -101 0 -133 48 -133 200 0 147 32 194 135 194 37 0
52 -5 74 -28 15 -15 30 -33 32 -41 4 -10 17 -7 57 14 29 15 54 31 57 35 10 16
-60 94 -104 117 -35 18 -59 23 -115 22 -39 0 -84 -5 -100 -9z"/>
<path d="M442 1123 c3 -25 7 -28 46 -31 l42 -3 0 -244 0 -244 -42 -3 c-40 -3
-43 -5 -43 -33 l0 -30 123 -3 122 -3 0 36 c0 34 -1 35 -40 35 l-40 0 0 245 0
245 40 0 c38 0 40 2 40 30 l0 30 -126 0 -125 0 3 -27z"/>
<path d="M830 840 l0 -310 143 0 c78 0 158 5 177 10 76 21 132 120 116 205 -8
42 -62 105 -90 105 -23 0 -20 14 6 25 62 28 84 122 46 194 -37 72 -65 81 -245
81 l-153 0 0 -310z m316 217 c34 -40 34 -108 -1 -142 -23 -24 -31 -25 -135
-25 l-110 0 0 93 c0 52 3 97 8 101 4 4 54 6 110 4 99 -3 105 -4 128 -31z m15
-266 c25 -25 29 -37 29 -81 0 -44 -4 -56 -29 -81 -29 -29 -31 -29 -145 -29
l-116 0 0 110 0 110 116 0 c114 0 116 0 145 -29z"/>
<path d="M1410 840 l0 -310 35 0 35 0 2 262 3 263 95 -177 c52 -97 99 -178
105 -179 5 -1 54 79 107 177 l98 179 2 -260 3 -260 33 -3 32 -3 0 310 0 311
-47 0 c-54 0 -34 26 -157 -205 -32 -60 -62 -114 -66 -118 -4 -4 -46 67 -94
158 l-88 165 -49 0 -49 0 0 -310z"/>
<path d="M3237 996 c-77 -29 -126 -100 -134 -197 -15 -165 71 -274 218 -273
120 0 196 73 214 205 8 55 -15 157 -45 199 -48 68 -167 98 -253 66z m116 -97
c36 -16 47 -50 47 -138 0 -99 -20 -131 -81 -131 -65 0 -79 23 -79 131 0 97 9
125 43 139 30 12 42 12 70 -1z"/>
<path d="M3630 820 c0 -197 7 -230 55 -268 61 -48 162 -33 200 31 l20 32 3
-43 3 -43 62 3 62 3 3 233 2 232 -64 0 -65 0 -3 -166 c-3 -160 -4 -166 -27
-185 -33 -27 -86 -25 -105 3 -13 18 -16 54 -16 185 l0 163 -65 0 -65 0 0 -180z"/>
</g>
</svg>
