<svg id="Layer_1" data-name="Layer 1" xmlns="http://www.w3.org/2000/svg" xmlns:xlink="http://www.w3.org/1999/xlink" viewBox="0 0 500.77 456.95"><defs><style>.cls-1{fill:url(#linear-gradient);}.cls-2{fill:url(#linear-gradient-2);}.cls-3{fill:url(#linear-gradient-3);}.cls-4{fill:url(#linear-gradient-4);}.cls-5{fill:url(#linear-gradient-5);}.cls-6{fill:url(#linear-gradient-6);}.cls-7{fill:url(#linear-gradient-7);}.cls-8{fill:#497bbe;}.cls-9{fill:url(#linear-gradient-8);}</style><linearGradient id="linear-gradient" x1="2006.6" y1="-2144.67" x2="2228.1" y2="-2373.98" gradientTransform="translate(3290.28 432.47) rotate(-135)" gradientUnits="userSpaceOnUse"><stop offset="0.33" stop-color="#151425"/><stop offset="0.78" stop-color="#497bbe"/></linearGradient><linearGradient id="linear-gradient-2" x1="2006.6" y1="-2144.67" x2="2228.1" y2="-2373.98" gradientTransform="translate(3182.71 149.93) rotate(-135)" xlink:href="#linear-gradient"/><linearGradient id="linear-gradient-3" x1="2006.6" y1="-2144.67" x2="2228.1" y2="-2373.98" gradientTransform="translate(292.03 3396.35) rotate(-45)" xlink:href="#linear-gradient"/><linearGradient id="linear-gradient-4" x1="2006.6" y1="-2144.67" x2="2228.1" y2="-2373.98" gradientTransform="translate(350.84 3182.71) rotate(-45)" xlink:href="#linear-gradient"/><linearGradient id="linear-gradient-5" x1="2006.6" y1="-2144.67" x2="2228.1" y2="-2373.98" gradientTransform="translate(-2671.85 398.09) rotate(45)" xlink:href="#linear-gradient"/><linearGradient id="linear-gradient-6" x1="2006.6" y1="-2144.67" x2="2228.1" y2="-2373.98" gradientTransform="translate(-2681.95 350.84) rotate(45)" xlink:href="#linear-gradient"/><linearGradient id="linear-gradient-7" x1="2006.6" y1="-2144.67" x2="2228.1" y2="-2373.98" gradientTransform="translate(326.4 -2565.78) rotate(135)" xlink:href="#linear-gradient"/><linearGradient id="linear-gradient-8" x1="313.08" y1="347.28" x2="313.08" y2="709.69" gradientUnits="userSpaceOnUse"><stop offset="0.29" stop-color="#151425"/><stop offset="0.35" stop-color="#181928"/><stop offset="0.42" stop-color="#1f2932"/><stop offset="0.5" stop-color="#2b4242"/><stop offset="0.58" stop-color="#3d6558"/><stop offset="0.67" stop-color="#529274"/><stop offset="0.75" stop-color="#6ac393"/></linearGradient></defs><g id="_Radial_Repeat_" data-name="&lt;Radial Repeat&gt;"><ellipse class="cls-1" cx="191.56" cy="532.94" rx="84" ry="48.5" transform="translate(-379.57 126.65) rotate(-45)"/></g><g id="_Radial_Repeat_2" data-name="&lt;Radial Repeat&gt;"><ellipse class="cls-2" cx="84" cy="250.38" rx="84" ry="48.5"/></g><g id="_Radial_Repeat_3" data-name="&lt;Radial Repeat&gt;"><ellipse class="cls-3" cx="191.56" cy="297.63" rx="48.5" ry="84" transform="translate(-213.18 57.73) rotate(-45)"/></g><g id="_Radial_Repeat_4" data-name="&lt;Radial Repeat&gt;"><ellipse class="cls-4" cx="250.38" cy="84" rx="48.5" ry="84"/></g><g id="_Radial_Repeat_5" data-name="&lt;Radial Repeat&gt;"><ellipse class="cls-5" cx="426.87" cy="297.63" rx="84" ry="48.5" transform="translate(-144.26 224.12) rotate(-45)"/></g><g id="_Radial_Repeat_6" data-name="&lt;Radial Repeat&gt;"><ellipse class="cls-6" cx="416.77" cy="250.38" rx="84" ry="48.5"/></g><g id="_Radial_Repeat_7" data-name="&lt;Radial Repeat&gt;"><ellipse class="cls-7" cx="426.87" cy="532.94" rx="48.5" ry="84" transform="translate(-310.65 293.04) rotate(-45)"/></g><circle class="cls-8" cx="250.38" cy="250.38" r="58.48"/><path class="cls-9" d="M423.89,419.47a146.53,146.53,0,0,1-16.71,16.34,51.77,51.77,0,0,0-18.08,31.05,174.43,174.43,0,0,1-76,116.31,174.35,174.35,0,0,1-76-116.33,51.77,51.77,0,0,0-18.06-31,145.86,145.86,0,0,1-16.7-16.37c-.61,6.17-.88,12.36-.88,18.63a207.47,207.47,0,0,0,103.37,179l8.31,4.8,8.31-4.8a207.52,207.52,0,0,0,103.33-179C424.74,431.83,424.47,425.63,423.89,419.47Z" transform="translate(-58.84 -164.9)"/></svg>