<svg id="Layer_1" data-name="Layer 1" xmlns="http://www.w3.org/2000/svg" xmlns:xlink="http://www.w3.org/1999/xlink" viewBox="0 0 291.61 266.09"><defs><style>.cls-1{fill:url(#linear-gradient);}.cls-2{fill:url(#linear-gradient-2);}.cls-3{fill:url(#linear-gradient-3);}.cls-4{fill:url(#linear-gradient-4);}.cls-5{fill:url(#linear-gradient-5);}.cls-6{fill:url(#linear-gradient-6);}.cls-7{fill:url(#linear-gradient-7);}.cls-8{fill:#f4f4f4;}.cls-9{fill:url(#linear-gradient-8);}</style><linearGradient id="linear-gradient" x1="1997.62" y1="-2159.39" x2="2126.6" y2="-2292.92" gradientTransform="translate(3259.68 362.41) rotate(-135)" gradientUnits="userSpaceOnUse"><stop offset="0.33" stop-color="#497bbe"/><stop offset="0.78" stop-color="#6ac393"/></linearGradient><linearGradient id="linear-gradient-2" x1="1997.62" y1="-2159.39" x2="2126.6" y2="-2292.92" gradientTransform="translate(3083.47 29.76) rotate(-135)" xlink:href="#linear-gradient"/><linearGradient id="linear-gradient-3" x1="1997.62" y1="-2159.39" x2="2126.6" y2="-2292.92" gradientTransform="translate(341.17 3375.99) rotate(-45)" xlink:href="#linear-gradient"/><linearGradient id="linear-gradient-4" x1="1997.62" y1="-2159.39" x2="2126.6" y2="-2292.92" gradientTransform="translate(261.84 3083.47) rotate(-45)" xlink:href="#linear-gradient"/><linearGradient id="linear-gradient-5" x1="1997.62" y1="-2159.39" x2="2126.6" y2="-2292.92" gradientTransform="translate(-2672.41 457.48) rotate(45)" xlink:href="#linear-gradient"/><linearGradient id="linear-gradient-6" x1="1997.62" y1="-2159.39" x2="2126.6" y2="-2292.92" gradientTransform="translate(-2791.87 261.84) rotate(45)" xlink:href="#linear-gradient"/><linearGradient id="linear-gradient-7" x1="1997.62" y1="-2159.39" x2="2126.6" y2="-2292.92" gradientTransform="translate(246.1 -2556.1) rotate(135)" xlink:href="#linear-gradient"/><linearGradient id="linear-gradient-8" x1="295.89" y1="370.34" x2="295.89" y2="581.38" gradientUnits="userSpaceOnUse"><stop offset="0.37" stop-color="#497bbe"/><stop offset="0.39" stop-color="#628dc7"/><stop offset="0.43" stop-color="#8babd6"/><stop offset="0.47" stop-color="#afc5e2"/><stop offset="0.51" stop-color="#ccdaed"/><stop offset="0.56" stop-color="#e3eaf5"/><stop offset="0.61" stop-color="#f3f6fb"/><stop offset="0.67" stop-color="#fcfdfe"/><stop offset="0.75" stop-color="#fff"/></linearGradient></defs><g id="_Radial_Repeat_" data-name="&lt;Radial Repeat&gt;"><ellipse class="cls-1" cx="225.12" cy="478.46" rx="48.91" ry="28.24" transform="translate(-420.22 35.18) rotate(-45)"/></g><g id="_Radial_Repeat_2" data-name="&lt;Radial Repeat&gt;"><ellipse class="cls-2" cx="48.91" cy="145.8" rx="48.91" ry="28.24"/></g><g id="_Radial_Repeat_3" data-name="&lt;Radial Repeat&gt;"><ellipse class="cls-3" cx="225.12" cy="341.43" rx="28.24" ry="48.91" transform="translate(-323.33 -4.95) rotate(-45)"/></g><g id="_Radial_Repeat_4" data-name="&lt;Radial Repeat&gt;"><ellipse class="cls-4" cx="145.8" cy="48.91" rx="28.24" ry="48.91"/></g><g id="_Radial_Repeat_5" data-name="&lt;Radial Repeat&gt;"><ellipse class="cls-5" cx="362.15" cy="341.43" rx="48.91" ry="28.24" transform="translate(-283.19 91.94) rotate(-45)"/></g><g id="_Radial_Repeat_6" data-name="&lt;Radial Repeat&gt;"><ellipse class="cls-6" cx="242.69" cy="145.8" rx="48.91" ry="28.24"/></g><g id="_Radial_Repeat_7" data-name="&lt;Radial Repeat&gt;"><ellipse class="cls-7" cx="362.15" cy="478.46" rx="28.24" ry="48.91" transform="translate(-380.08 132.07) rotate(-45)"/></g><circle class="cls-8" cx="145.8" cy="145.8" r="34.06"/><path class="cls-9" d="M360.41,412.38a84.94,84.94,0,0,1-9.73,9.52A30.2,30.2,0,0,0,340.15,440a101.59,101.59,0,0,1-44.25,67.73A101.52,101.52,0,0,1,251.62,440,30.08,30.08,0,0,0,241.1,421.9a85.87,85.87,0,0,1-9.72-9.54,108.58,108.58,0,0,0-.52,10.85,120.8,120.8,0,0,0,60.2,104.23l4.84,2.79,4.83-2.79a120.82,120.82,0,0,0,60.18-104.23C360.91,419.58,360.75,416,360.41,412.38Z" transform="translate(-147.83 -264.14)"/></svg>