<svg width="2965" height="2592" viewBox="0 0 2965 2592" fill="none" xmlns="http://www.w3.org/2000/svg">
<g filter="url(#filter0_d_4_3)">
<path d="M1369.46 382.493L1257.71 401.507C1221.71 362.801 1179.16 329.284 1131.21 303.038C1121.98 194.882 1128.97 186.62 1117.2 183.255L985.727 145.968C981.878 144.904 977.81 146.283 975.562 149.463L911.341 240.577C856.751 237.754 803.1 243.882 752.182 257.947L666.88 183.085C663.852 180.416 659.576 180.006 656.062 181.824L537.51 246.326C534.007 248.242 532.237 252.072 532.985 255.911L553.801 365.844C514.857 400.668 481.301 442.013 455.215 488.733L341.794 494.249C337.787 494.413 334.476 497.113 333.401 500.861L297.182 629.396C296.107 633.145 297.585 637.201 300.864 639.438L394.508 703.768C392.375 757.372 399.404 810.113 414.394 860.32C342.708 942.636 332.098 943.163 338.146 953.635C406.236 1067.54 403.072 1077.57 415.32 1075.55L527.073 1056.53C563.077 1095.24 605.626 1128.76 653.573 1155C662.795 1263.06 655.813 1271.42 667.579 1274.79C798.768 1309.59 802.301 1318.34 809.221 1308.58L873.443 1217.46C928.032 1220.29 981.684 1214.16 1032.6 1200.09C1116.4 1270.7 1118.03 1282.09 1128.62 1276.23C1244.79 1210.29 1253.99 1214.06 1251.8 1202.13L1230.98 1092.2C1269.93 1057.37 1303.48 1016.03 1329.57 969.309C1437.72 961.786 1448.02 968.947 1451.38 957.18C1484.97 829.355 1494.09 825.577 1483.92 818.604L1390.28 754.274C1392.41 700.67 1385.38 647.929 1370.39 597.722C1441.8 515.64 1452.68 514.879 1446.64 504.407C1378.65 390.488 1381.71 380.467 1369.46 382.493Z" fill="url(#paint0_linear_4_3)"/>
<path d="M2358.89 351.755L2261.01 345.617C2238.36 305.882 2209.17 269.221 2173.99 237.612C2187.65 144.693 2195.18 139.121 2185.93 133.954L2082.6 76.4898C2079.57 74.8315 2075.87 75.186 2073.34 77.4189L2001.19 141.425C1955.78 128.226 1909.38 122.752 1863.71 124.505L1806.71 44.5476C1804.69 41.6999 1801.17 40.5074 1797.85 41.3414L1685.22 72.1652C1681.89 73.0852 1679.64 75.9596 1679.5 79.3414L1675.25 176.053C1635.54 197.661 1599.09 225.831 1567.86 260.008L1471.24 242.171C1467.83 241.514 1464.51 243.132 1462.86 246.076L1406.88 347.148C1405.23 350.093 1405.67 353.802 1407.99 356.336L1474.11 429.077C1461.68 473.799 1457.15 519.611 1459.82 564.865C1383.13 619.982 1374.09 618.323 1377.11 628.342C1411.88 737.771 1407.22 745.593 1417.94 746.315L1515.83 752.453C1538.48 792.188 1567.67 828.849 1602.84 860.458C1589.19 953.291 1581.66 958.949 1590.9 964.116C1694.49 1019.43 1695.73 1027.5 1703.49 1020.65L1775.64 956.645C1821.05 969.844 1867.45 975.318 1913.12 973.565C1969.71 1049.64 1968.82 1059.55 1978.9 1056.72C2089.81 1024.21 2096.81 1029.21 2097.33 1018.73L2101.59 922.017C2141.29 900.409 2177.74 872.239 2208.98 838.062C2301.55 853.165 2308.8 861.236 2313.97 851.994C2367.59 750.996 2376.03 749.624 2368.84 741.734L2302.73 668.993C2315.15 624.271 2319.68 578.46 2317.01 533.205C2393.42 478.23 2402.74 479.747 2399.72 469.728C2365.04 360.309 2369.61 352.477 2358.89 351.755Z" fill="url(#paint1_linear_4_3)"/>
<g opacity="0.3">
<path d="M760.963 709.346C770.863 638.046 837.863 589.046 910.363 600.046C982.863 611.046 1033.86 677.946 1023.96 749.146C1014.06 820.446 947.063 869.446 874.563 858.446C801.963 847.546 751.063 780.646 760.963 709.346ZM907.163 623.146C848.263 614.246 792.663 653.546 784.463 712.946C776.363 771.446 818.163 826.446 877.763 835.446C937.363 844.446 992.363 804.146 1000.46 745.646C1008.56 686.946 966.563 632.146 907.163 623.146Z" fill="url(#paint2_linear_4_3)"/>
</g>
<g opacity="0.3">
<path d="M755.063 1031.15C737.163 1022.95 720.063 1013.15 703.863 1002.15C699.063 998.846 697.363 992.646 699.663 987.646C699.963 987.046 700.263 986.446 700.663 985.946C704.363 980.646 711.763 979.446 717.163 983.146C735.663 995.846 755.763 1006.65 776.663 1015.35C934.563 1080.65 1114.16 1011.55 1183.46 861.246C1185.26 857.446 1186.96 853.546 1188.56 849.546C1254.16 690.146 1174.76 507.746 1013.06 440.746C851.663 373.946 666.663 447.646 601.163 606.546C562.263 701.146 585.663 768.146 581.163 777.846C576.363 788.346 560.463 785.946 558.663 774.546C548.663 712.046 556.563 645.946 584.663 584.946C705.963 321.646 1092.16 332.446 1207.96 602.046C1243.56 685.046 1244.56 776.146 1210.56 858.646C1208.76 862.946 1206.96 867.146 1205.06 871.346C1169.86 947.746 1107.56 1006.85 1028.26 1038.75C944.663 1072.45 852.163 1071.75 767.863 1036.85C763.563 1034.95 759.363 1033.15 755.063 1031.15Z" fill="url(#paint3_linear_4_3)"/>
</g>
<g opacity="0.3">
<path d="M1804.16 547.529C1810.87 499.214 1856.27 466.011 1905.39 473.465C1954.52 480.919 1989.08 526.252 1982.37 574.498C1975.66 622.812 1930.26 656.016 1881.14 648.562C1831.94 641.176 1797.45 595.843 1804.16 547.529ZM1903.23 489.118C1863.31 483.087 1825.64 509.718 1820.08 549.968C1814.59 589.609 1842.92 626.878 1883.3 632.977C1923.69 639.075 1960.96 611.767 1966.45 572.126C1971.94 532.35 1943.48 495.217 1903.23 489.118Z" fill="url(#paint4_linear_4_3)"/>
</g>
<g opacity="0.3">
<path d="M1800.16 765.587C1788.03 760.031 1776.44 753.39 1765.47 745.936C1762.21 743.7 1761.06 739.499 1762.62 736.111C1762.82 735.704 1763.03 735.297 1763.3 734.959C1765.8 731.367 1770.82 730.554 1774.48 733.061C1787.01 741.667 1800.63 748.985 1814.8 754.881C1921.79 799.129 2043.49 752.306 2090.45 650.459C2091.67 647.884 2092.82 645.242 2093.91 642.531C2138.36 534.519 2084.56 410.921 1974.99 365.52C1865.62 320.255 1740.26 370.196 1695.87 477.87C1669.51 541.972 1685.37 587.373 1682.32 593.946C1679.07 601.061 1668.29 599.435 1667.07 591.71C1660.3 549.359 1665.65 504.568 1684.69 463.233C1766.89 284.816 2028.58 292.134 2107.05 474.82C2131.18 531.063 2131.85 592.794 2108.82 648.698C2107.6 651.611 2106.38 654.457 2105.09 657.303C2081.24 709.074 2039.02 749.121 1985.29 770.737C1928.64 793.573 1865.96 793.098 1808.83 769.449C1805.92 768.162 1803.07 766.942 1800.16 765.587Z" fill="url(#paint5_linear_4_3)"/>
</g>
<path d="M725.962 1843.95C726.162 1843.95 726.462 1843.95 726.662 1843.95L1041.26 1843.65C1049.06 1843.65 1055.36 1837.35 1055.36 1829.55C1055.36 1821.75 1049.06 1815.35 1041.26 1815.55L726.662 1815.85C718.862 1815.85 712.562 1822.15 712.562 1829.95C712.562 1837.45 718.462 1843.55 725.962 1843.95Z" fill="url(#paint6_linear_4_3)"/>
<path d="M1163.16 1535.85C1163.06 1536.05 1162.96 1536.25 1162.86 1536.45L1030.46 1821.85C1027.16 1828.95 1030.26 1837.25 1037.26 1840.55C1044.26 1843.85 1052.76 1840.75 1055.96 1833.65L1188.36 1548.25C1191.66 1541.15 1188.56 1532.85 1181.56 1529.55C1174.66 1526.45 1166.56 1529.25 1163.16 1535.85Z" fill="url(#paint7_linear_4_3)"/>
<path d="M566.163 2525.45C564.563 2525.45 563.063 2525.15 561.463 2524.35C555.463 2521.55 552.663 2513.95 555.263 2507.35L803.763 1876.85C806.363 1870.25 813.263 1867.24 819.363 1870.04C825.363 1872.84 828.163 1880.44 825.563 1887.04L577.063 2517.65C575.063 2522.55 570.763 2525.45 566.163 2525.45Z" fill="url(#paint8_linear_4_3)"/>
<path d="M846.063 2525.45C841.463 2525.45 837.063 2522.55 835.163 2517.65L586.663 1887.15C584.063 1880.55 586.863 1872.95 592.863 1870.15C598.863 1867.35 605.863 1870.35 608.463 1876.95L856.963 2507.45C859.563 2514.05 856.763 2521.65 850.763 2524.45C849.263 2525.15 847.663 2525.45 846.063 2525.45Z" fill="url(#paint9_linear_4_3)"/>
<path d="M2252.56 2525.45C2250.96 2525.45 2249.46 2525.15 2247.86 2524.35C2241.86 2521.55 2239.06 2513.95 2241.66 2507.35L2490.16 1876.85C2492.76 1870.25 2499.66 1867.24 2505.76 1870.04C2511.76 1872.84 2514.56 1880.44 2511.96 1887.04L2263.46 2517.54C2261.56 2522.54 2257.16 2525.44 2252.56 2525.44V2525.45Z" fill="url(#paint10_linear_4_3)"/>
<path d="M2532.46 2525.45C2527.86 2525.45 2523.46 2522.55 2521.56 2517.65L2273.06 1887.15C2270.46 1880.55 2273.26 1872.95 2279.26 1870.15C2285.26 1867.35 2292.26 1870.35 2294.86 1876.95L2543.36 2507.45C2545.96 2514.05 2543.16 2521.65 2537.16 2524.45C2535.66 2525.15 2534.06 2525.45 2532.46 2525.45Z" fill="url(#paint11_linear_4_3)"/>
<path d="M2216.46 1832.45H2576.36V1795.35H2216.46C2224.16 1795.25 2224.16 1832.45 2216.46 1832.45Z" fill="url(#paint12_linear_4_3)"/>
<path d="M2573.06 1832.45C2574.96 1832.45 2576.46 1830.95 2576.46 1829.05V1798.65C2576.46 1796.75 2574.96 1795.25 2573.06 1795.25H2208.96C2207.06 1795.25 2205.56 1793.75 2205.56 1791.85V1790.25C2205.56 1788.35 2207.06 1786.85 2208.96 1786.85H2597.06C2605.66 1786.85 2612.56 1793.85 2612.56 1802.35V1826.05C2612.56 1834.15 2605.96 1840.75 2597.86 1840.75H2208.86C2206.96 1840.75 2205.46 1839.25 2205.46 1837.35V1835.75C2205.46 1833.85 2206.96 1832.35 2208.86 1832.35H2573.06V1832.45Z" fill="url(#paint13_linear_4_3)"/>
<path d="M1823.76 758.759C1823.46 755.059 1819.66 751.859 1813.36 749.359C1820.26 745.559 1824.16 741.459 1823.76 737.459C1822.76 725.259 1784.26 718.459 1737.66 722.259C1691.16 726.059 1654.16 738.959 1655.16 751.059C1655.46 754.759 1659.26 757.959 1665.56 760.459C1658.66 764.259 1654.76 768.359 1655.16 772.359C1655.46 776.059 1659.26 779.259 1665.56 781.759C1658.66 785.559 1654.76 789.659 1655.16 793.659C1655.46 797.359 1659.26 800.559 1665.56 803.059C1658.66 806.859 1654.76 810.959 1655.16 814.959C1655.56 820.359 1663.36 824.659 1675.96 827.559C1675.76 831.559 1675.86 835.859 1676.26 840.659C1678.06 863.059 1703.26 880.659 1736.66 880.659C1770.06 880.659 1798.86 856.659 1799.16 834.159C1799.26 828.659 1798.96 823.759 1798.46 819.459C1814.46 814.159 1824.16 807.659 1823.66 801.259C1823.36 797.559 1819.56 794.359 1813.26 791.859C1820.16 788.059 1824.06 783.959 1823.66 779.959C1823.36 776.259 1819.56 773.059 1813.26 770.559C1820.26 766.859 1824.16 762.759 1823.76 758.759Z" fill="url(#paint14_linear_4_3)"/>
<path d="M1716.16 832.559C1702.36 832.559 1689.66 831.559 1679.26 829.559C1678.66 829.459 1678.26 828.859 1678.36 828.259C1678.46 827.659 1679.06 827.259 1679.66 827.359C1696.06 830.459 1717.86 831.159 1741.16 829.259C1760.26 827.759 1778.06 824.659 1792.76 820.359C1793.36 820.159 1793.96 820.559 1794.16 821.159C1794.36 821.759 1793.96 822.359 1793.36 822.559C1778.56 826.859 1760.56 829.959 1741.36 831.559C1732.76 832.159 1724.26 832.559 1716.16 832.559Z" fill="url(#paint15_linear_4_3)"/>
<path d="M1716.46 811.059C1698.46 811.059 1682.46 809.359 1671.16 806.159C1670.56 805.959 1670.26 805.359 1670.36 804.759C1670.56 804.159 1671.16 803.859 1671.76 803.959C1687.86 808.559 1713.86 809.959 1741.26 807.759C1768.36 805.559 1793.56 800.059 1808.86 793.059C1809.46 792.759 1810.06 793.059 1810.36 793.559C1810.66 794.159 1810.36 794.759 1809.86 795.059C1794.36 802.159 1768.86 807.759 1741.56 809.959C1732.86 810.759 1724.46 811.059 1716.46 811.059Z" fill="url(#paint16_linear_4_3)"/>
<path d="M1716.16 789.759C1696.76 789.759 1679.76 787.759 1668.36 783.959C1667.76 783.759 1667.46 783.159 1667.66 782.559C1667.86 781.959 1668.46 781.659 1669.06 781.859C1684.96 787.059 1711.86 788.859 1741.16 786.459C1768.26 784.259 1793.46 778.759 1808.76 771.759C1809.36 771.459 1809.96 771.759 1810.26 772.259C1810.56 772.859 1810.26 773.459 1809.76 773.759C1794.26 780.859 1768.76 786.459 1741.46 788.659C1732.76 789.359 1724.26 789.759 1716.16 789.759Z" fill="url(#paint17_linear_4_3)"/>
<path d="M1716.36 768.359C1700.96 768.359 1686.96 767.159 1676.06 764.659C1675.46 764.559 1675.06 763.959 1675.26 763.359C1675.36 762.759 1675.96 762.359 1676.56 762.559C1692.96 766.159 1716.46 767.159 1741.16 765.159C1767.96 762.959 1793.16 757.559 1808.36 750.659C1808.96 750.359 1809.56 750.659 1809.86 751.259C1810.16 751.859 1809.86 752.459 1809.26 752.759C1793.76 759.759 1768.36 765.359 1741.26 767.459C1732.86 767.959 1724.36 768.359 1716.36 768.359Z" fill="url(#paint18_linear_4_3)"/>
<path d="M1623.96 650.759C1618.26 630.759 1608.66 612.059 1595.76 595.759C1568.06 560.859 1522.86 489.859 1517.26 392.859C1509.16 251.859 1634.26 181.259 1748.36 190.859C1862.46 200.459 1975.06 285.359 1962.76 416.559C1955.16 497.259 1909.96 558.459 1876.36 593.659C1854.96 615.959 1839.76 643.359 1831.56 673.059C1821.46 709.459 1797.46 754.959 1740.36 757.659C1666.46 761.259 1635.76 692.459 1623.96 650.759Z" fill="url(#paint19_linear_4_3)"/>
<path d="M1759.16 729.559L1799.06 469.859C1799.86 464.459 1802.56 460.859 1804.96 461.859C1807.36 462.759 1808.66 467.859 1807.86 473.259C1807.86 473.359 1807.76 473.559 1807.76 473.759L1762.26 731.059C1761.96 732.959 1760.96 734.259 1760.06 733.759C1759.36 733.259 1758.86 731.459 1759.16 729.559Z" fill="url(#paint20_linear_4_3)"/>
<path d="M1717.76 731.659L1677.86 471.959C1677.06 466.559 1674.36 462.959 1671.96 463.959C1669.56 464.859 1668.26 469.959 1669.06 475.359C1669.06 475.459 1669.16 475.659 1669.16 475.859L1714.66 733.159C1714.96 735.059 1715.96 736.359 1716.86 735.859C1717.56 735.359 1718.06 733.559 1717.76 731.659Z" fill="url(#paint21_linear_4_3)"/>
<path d="M1798.86 447.659C1797.86 446.059 1795.46 445.459 1793.66 446.259L1771.46 456.659L1763.76 434.659C1763.36 433.559 1762.36 432.459 1761.06 431.959C1758.46 430.859 1755.46 431.859 1754.26 434.059V434.159L1735.96 467.459L1718.96 419.959V419.859C1718.56 418.659 1717.66 417.659 1716.36 416.959C1713.56 415.359 1709.76 416.159 1707.96 418.659L1682.36 453.859C1681.36 455.259 1681.66 457.259 1683.26 458.259C1684.96 459.359 1687.36 459.159 1688.66 457.659L1711.16 432.559L1731.46 477.659C1731.76 478.359 1732.36 479.059 1733.26 479.359C1735.16 480.259 1737.56 479.659 1738.56 477.959L1758.16 446.559L1765.56 462.459L1765.66 462.559C1765.76 462.659 1765.76 462.759 1765.86 462.859C1766.86 464.459 1769.26 465.059 1771.06 464.259L1797.46 451.959C1799.16 451.259 1799.86 449.259 1798.86 447.659Z" fill="white"/>
<path d="M1877.26 560.159C1876.16 560.159 1875.16 559.859 1874.26 559.159C1872.06 557.459 1871.56 554.359 1873.26 552.059C1880.06 542.859 1886.26 533.459 1891.76 523.959C1893.16 521.559 1896.26 520.659 1898.66 522.059C1901.06 523.459 1901.96 526.559 1900.56 528.959C1894.86 538.759 1888.46 548.559 1881.36 558.059C1880.36 559.459 1878.76 560.159 1877.26 560.159Z" fill="white"/>
<path d="M1910.06 503.759C1909.36 503.759 1908.66 503.659 1908.06 503.359C1905.46 502.259 1904.36 499.259 1905.46 496.659C1947.66 399.459 1911.26 317.959 1910.86 317.159C1909.66 314.659 1910.76 311.559 1913.36 310.459C1915.96 309.259 1918.96 310.459 1920.06 312.959C1921.66 316.459 1958.66 399.459 1914.76 500.759C1913.86 502.659 1912.06 503.759 1910.06 503.759Z" fill="white"/>
<path d="M1106.78 2399.65C1106.78 2399.65 1100.18 2434.95 1096.78 2469.95C1095.48 2483.65 1105.88 2495.65 1119.58 2496.35C1166.18 2498.75 1265.88 2503.45 1301.68 2502.25C1307.08 2502.05 1310.68 2496.55 1308.68 2491.55C1307.08 2487.35 1303.88 2483.94 1299.78 2481.94L1135.68 2404.64L1106.78 2399.65Z" fill="url(#paint22_linear_4_3)"/>
<path d="M1101.78 2378.85L1106.38 2421.25C1106.38 2421.25 1135.08 2434.95 1154.98 2420.05L1143.48 2372.75L1101.78 2378.85Z" fill="url(#paint23_linear_4_3)"/>
<path d="M1113.18 1583.35C1110.88 1594.35 1096.28 2134.65 1151.78 2377.35C1152.68 2381.35 1150.68 2385.35 1146.88 2386.85C1137.98 2390.35 1120.58 2395.45 1099.78 2395.95C1093.38 2396.15 1087.58 2391.85 1085.88 2385.65C1069.88 2329.35 993.483 2047.05 985.683 1778.05C976.983 1477.45 985.783 1767.85 985.783 1767.85L994.283 1582.15L1113.18 1583.35Z" fill="url(#paint24_linear_4_3)"/>
<path d="M916.983 2416.25C916.983 2416.25 906.883 2434.05 896.783 2481.35C894.983 2489.95 900.883 2498.15 909.583 2499.15C924.983 2500.85 948.683 2502.95 967.683 2503.05C976.483 2503.05 983.383 2495.55 982.383 2486.85C980.483 2469.55 974.183 2441.05 954.083 2418.65L916.983 2416.25Z" fill="url(#paint25_linear_4_3)"/>
<path d="M908.782 2361.75L919.882 2425.85C919.882 2425.85 931.382 2434.55 954.382 2428.55L949.482 2359.65L908.782 2361.75Z" fill="url(#paint26_linear_4_3)"/>
<path d="M884.383 1597.75C834.383 1882.45 887.883 2302.55 906.483 2384.85C907.583 2389.85 911.683 2393.75 916.683 2394.65C925.283 2396.15 939.583 2397.45 953.683 2393.55C958.583 2392.15 961.983 2387.85 962.183 2382.85C965.383 2316.45 964.583 1908.85 1010.18 1748.25C1012.48 1740.15 1017.58 1733.05 1024.48 1728.15L1110.48 1668.25L1117.98 1570.15L884.383 1597.75Z" fill="url(#paint27_linear_4_3)"/>
<path d="M1184.3 1060.3C1183.47 1060.29 1182.66 1060.31 1181.83 1060.29C1036.38 1059.74 892.483 1094.74 892.483 1094.74C847.882 1340.54 880.082 1624.94 880.082 1624.94C989.382 1654.74 1113.48 1609.64 1113.48 1609.64C1132.68 1506.94 1220.48 1218.04 1220.48 1218.04C1225.03 1217.52 1229.39 1216.82 1233.83 1216.21C1319.43 1201.93 1266.64 1058.33 1184.3 1060.3Z" fill="url(#paint28_linear_4_3)"/>
<path d="M1195.14 1047.94C1105.27 1064.33 1158.91 1263.31 1267.46 1194.68C1328.69 1176.53 1378.23 1150.42 1418.19 1119.8C1376.93 1083.77 1352.79 1033.83 1341.18 1003.93C1294.55 1026.02 1246.36 1041.15 1195.14 1047.94Z" fill="url(#paint29_linear_4_3)"/>
<path d="M1586.21 781.942C1570.13 767.283 1553.78 777.546 1553.78 777.546C1545.47 867.605 1447.34 953.566 1341.06 1003.84C1352.67 1033.74 1376.81 1083.59 1418.08 1119.72C1587.86 989.938 1586.21 781.942 1586.21 781.942Z" fill="url(#paint30_linear_4_3)"/>
<path d="M1582.39 782.071C1585.92 785.337 1574.81 799.82 1556.76 788.358C1551.91 780.652 1527.89 749.638 1528.95 740.56C1534.44 692.069 1558.61 621.432 1558.61 621.432C1571.47 624.806 1569.24 636.649 1569.24 636.649L1559.7 674.647C1569.73 680.715 1579.99 684.797 1588.98 694.026C1595.79 700.932 1599.45 710.373 1599.56 720.271C1599.7 730.031 1599.52 742.995 1598.55 753.635C1596.73 773.697 1582.39 782.071 1582.39 782.071Z" fill="url(#paint31_linear_4_3)"/>
<path d="M1558.49 696.552L1547.43 726.986L1551.01 748.981L1582.3 759.31C1582.3 759.31 1568.15 719.629 1568.49 709.12C1568.84 698.61 1564.25 696.31 1558.49 696.552Z" fill="url(#paint32_linear_4_3)"/>
<path d="M951.191 1229.87C1015.07 1191.62 959.028 1077.84 887.562 1096.85C887.562 1096.85 761.821 1195.62 748.009 1310.76C773.097 1310.89 818.898 1314.21 864.858 1333.56C870.823 1279.33 951.191 1229.87 951.191 1229.87L951.191 1229.87Z" fill="url(#paint33_linear_4_3)"/>
<path d="M1075.34 1350.61C1075.34 1350.61 932.974 1444.56 878.071 1376.56C866.626 1362.41 863.173 1347.84 864.758 1333.57C818.799 1314.22 772.997 1310.9 747.91 1310.77C743.721 1345.5 749.674 1381.64 772.431 1417.17C871.025 1571.31 1097.47 1385.78 1097.47 1385.78L1075.34 1350.61Z" fill="url(#paint34_linear_4_3)"/>
<path d="M1048.28 944.046L1001.98 1073.85C1001.18 1076.05 1002.08 1078.35 1004.08 1079.55C1016.28 1086.45 1060.38 1106.55 1113.98 1073.25C1119.58 1069.75 1123.38 1064.05 1124.28 1057.55L1139.98 944.946L1048.28 944.046Z" fill="url(#paint35_linear_4_3)"/>
<path d="M1158.28 830.308C1158.28 830.308 1198.01 928.005 1187.86 964.724C1177.71 1001.54 1116.98 992.581 1066.89 956.689L1039.99 852.852L1158.28 830.308Z" fill="url(#paint36_linear_4_3)"/>
<path d="M1074.24 907.86C1076.51 907.167 1077.56 904.553 1076.45 902.441C1073.13 896.006 1067.01 882.984 1065.73 871.918C1065.73 871.918 1057.51 865.328 1089.64 861.084C1121.77 856.841 1169.71 849.95 1182.34 824.309C1194.61 799.238 1176.13 731.235 1130.59 779.225C1128.81 781.068 1125.83 780.79 1124.52 778.66C1118.85 769.395 1103.29 749.871 1078.22 758.185C1054.7 765.941 1050.47 782.219 1049.9 790.502C1049.77 793.001 1047.41 794.589 1044.96 793.96C1033.82 790.614 1006.73 785.986 991.098 812.653C978.206 834.654 983.755 848.427 989.227 855.464C991.024 857.74 989.813 861.042 986.951 861.579C979.279 863.075 968.938 868.441 968.105 886.04C966.941 910.437 994.2 911.063 1002.07 910.69C1003.38 910.611 1004.53 911.22 1005.34 912.2C1011.23 920.179 1037.79 954.284 1069.67 961.366C1072.42 962.024 1074.87 959.439 1074.22 956.668L1064.47 914.684C1064.05 912.737 1065.14 910.729 1067 910.099L1074.24 907.86Z" fill="url(#paint37_linear_4_3)"/>
<path d="M1079.18 914.144C1079.18 914.144 1046.6 886.509 1041.93 906.462C1037.26 926.416 1070.44 939.041 1088.15 933.256L1079.18 914.144Z" fill="url(#paint38_linear_4_3)"/>
<path d="M1065.05 1485.93L1099.94 1192.59C1100.32 1189.28 1102.7 1186.47 1105.9 1185.55C1120.14 1181.52 1161.52 1169.96 1209.52 1157.94C1267.36 1143.52 1334.72 1128.47 1375.95 1125.34C1381.85 1124.89 1386.3 1130.45 1384.58 1136.1C1369.05 1186.63 1304.68 1392.35 1267.09 1462.45C1265.85 1464.78 1263.57 1466.37 1261.01 1466.78L1074.44 1495.14C1069.11 1496.01 1064.41 1491.4 1065.05 1485.93Z" fill="url(#paint39_linear_4_3)"/>
<path d="M1073.44 1415.08C1073.44 1415.08 1054.84 1370.88 1056.65 1353.87C1058.55 1336.85 1063.84 1314.42 1093.73 1314.44C1123.6 1314.37 1159.95 1321.15 1159.95 1321.15C1159.95 1321.15 1161.61 1342.67 1138.39 1339.43L1153.84 1347.87C1153.84 1347.87 1154.61 1365.17 1134.48 1359.11L1149.5 1371.16C1149.5 1371.16 1143.78 1386.48 1128.5 1379.73C1113.39 1372.75 1113.43 1414.28 1073.44 1415.08Z" fill="url(#paint40_linear_4_3)"/>
<path d="M1217.73 1242.52C1219.84 1255.55 1232.11 1264.4 1245.14 1262.29C1258.17 1260.18 1267.03 1247.91 1264.92 1234.88C1262.81 1221.85 1250.54 1213 1237.51 1215.1C1224.49 1217.31 1215.64 1229.58 1217.73 1242.52Z" fill="url(#paint41_linear_4_3)"/>
<path d="M1122.43 1273.94L1116.12 1273.14L1123.53 1215.01C1124.74 1205.59 1130.94 1197.6 1139.72 1194.26C1189.79 1175.01 1325.86 1150.77 1331.57 1149.74L1332.68 1155.94C1331.3 1156.17 1191.39 1181.13 1141.98 1200.07C1135.39 1202.55 1130.79 1208.57 1129.82 1215.71L1122.43 1273.94Z" fill="white"/>
<path d="M738.832 2407.25C741.732 2409.85 769.632 2466.15 769.632 2466.15C769.632 2466.15 822.563 2478.35 807.032 2439.75L779.032 2388.95L738.832 2407.25Z" fill="url(#paint42_linear_4_3)"/>
<path d="M386.23 1339.35C386.23 1339.35 346.93 1408.75 306.93 1442.35L389.63 1488.55C389.63 1488.55 408.23 1415.05 450.83 1393.55L386.23 1339.35Z" fill="url(#paint43_linear_4_3)"/>
<path d="M406.005 1495.06C331.667 1446.79 314.101 1600.05 395.132 1685.15C395.132 1685.15 476.632 1813.85 658.132 1832.05L668.231 1809.45C668.231 1809.45 523.731 1742.85 479.231 1640.55C447.113 1566.71 428.879 1523.48 406.005 1495.06Z" fill="url(#paint44_linear_4_3)"/>
<path d="M56.2016 2087.35C47.5016 2100.15 13.1016 2390.55 7.70164 2497.85C7.30164 2505.15 13.1016 2511.15 20.4016 2511.15C26.7016 2511.15 32.0016 2506.55 33.0016 2500.35L96.0016 2096.55L56.2016 2087.35Z" fill="url(#paint45_linear_4_3)"/>
<path d="M333.1 2087.35C341.8 2100.15 376.2 2390.55 381.6 2497.85C382 2505.15 376.2 2511.15 368.9 2511.15C362.6 2511.15 357.3 2506.55 356.3 2500.35L293.3 2096.55L333.1 2087.35Z" fill="url(#paint46_linear_4_3)"/>
<path d="M4.00152 2064.65V2067.85C3.80152 2090.65 23.4015 2109.35 48.0015 2109.75L339.302 2114.75C363.502 2115.15 383.702 2097.65 384.902 2075.25L385.102 2072.35C386.302 2048.95 366.502 2029.25 341.202 2028.75L49.8015 2023.55C24.8015 2023.05 4.30152 2041.55 4.00152 2064.65Z" fill="url(#paint47_linear_4_3)"/>
<path d="M542.53 2487.25C490.73 2487.25 467.83 2482.85 457.63 2478.75C459.63 2487.25 467.23 2493.95 476.73 2493.95H659.93C666.13 2493.95 670.03 2488.05 668.53 2482.75C647.63 2484.45 603.23 2487.25 542.53 2487.25Z" fill="url(#paint48_linear_4_3)"/>
<path d="M668.431 2482.75C668.131 2481.65 667.731 2480.65 666.931 2479.65C652.931 2461.85 624.931 2433.85 586.831 2434.35C530.931 2435.15 511.531 2441.15 468.131 2434.65L457.931 2468.55C456.931 2472.05 456.831 2475.45 457.631 2478.65C467.831 2482.75 490.831 2487.15 542.531 2487.15C603.231 2487.25 647.631 2484.45 668.431 2482.75Z" fill="url(#paint49_linear_4_3)"/>
<path d="M480.731 2398.15L468.131 2440.85C468.131 2440.85 495.931 2453.55 520.431 2443.35L525.231 2406.35L480.731 2398.15Z" fill="url(#paint50_linear_4_3)"/>
<path d="M211.83 1911.15C211.83 1911.15 521.83 1936.45 585.43 1966.35C649.03 1996.25 533.53 2415.85 533.53 2415.85C533.53 2415.85 516.23 2424.15 477.73 2412.25C477.73 2412.25 517.23 2102.65 487.83 2035.55L152.23 1980.65L211.83 1911.15Z" fill="url(#paint51_linear_4_3)"/>
<path d="M25.1315 1908.55C25.1315 1908.55 15.0315 1932.85 15.4315 1965.15C16.0315 2009.85 51.9315 2046.05 96.5315 2048.25L462.931 2064.95C470.631 2065.35 477.231 2070.65 479.132 2078.15C487.731 2111.45 529.831 2213.75 735.531 2417.85C741.031 2423.25 749.531 2424.25 756.031 2420.05L785.331 2401.55C788.431 2399.65 789.431 2395.55 787.531 2392.45L574.131 2028.15C562.931 2009.65 544.931 1996.25 523.931 1990.95L211.632 1911.15L25.1315 1908.55Z" fill="url(#paint52_linear_4_3)"/>
<path d="M321.043 1430.84C318.455 1430.67 315.831 1431.3 313.531 1432.75C270.631 1458.85 68.5305 1597.25 18.5305 1911.15C18.5305 1911.15 117.432 1935.25 211.932 1911.15C211.932 1911.15 344.031 1733.55 395.131 1685.15C450.659 1620.38 444.62 1547.71 406.004 1495.06C397.186 1484.1 387.701 1475.28 376.432 1467.85C351.232 1451.25 336.132 1439.85 328.332 1433.65C326.182 1431.95 323.63 1431 321.043 1430.84Z" fill="url(#paint53_linear_4_3)"/>
<path d="M647.231 1797.65L667.631 1792.25L729.631 1777.85C737.131 1776.15 744.931 1777.45 751.431 1781.55L804.731 1815.15L657.431 1814.95L647.231 1797.65Z" fill="url(#paint54_linear_4_3)"/>
<path d="M857.682 2483.64C809.754 2503.26 786.909 2507.88 775.905 2508.06C780.991 2515.2 790.467 2518.42 799.36 2514.79L968.818 2445.28C974.526 2442.9 975.935 2436.01 972.527 2431.67C953.773 2441.14 913.814 2460.61 857.682 2483.64Z" fill="url(#paint55_linear_4_3)"/>
<path d="M972.527 2431.67C971.863 2430.74 971.045 2429.98 969.98 2429.35C950.328 2418.22 913.802 2403.15 878.72 2418.12C827.392 2440.07 811.572 2453.02 769.058 2463.5L772.447 2498.6C772.758 2502.13 774.102 2505.34 776.029 2508C787.033 2507.81 809.879 2503.2 857.806 2483.58C913.814 2460.61 953.773 2441.14 972.527 2431.67Z" fill="url(#paint56_linear_4_3)"/>
<path d="M484.336 1255.92C484.336 1255.92 505.029 1326.93 502.566 1362.58C500.007 1398.2 504.679 1422.08 463.008 1424.03C421.24 1425.95 389.389 1401.22 375.284 1363.69C375.284 1363.69 353.02 1305.71 362.36 1284.38C371.655 1262.84 484.336 1255.92 484.336 1255.92Z" fill="url(#paint57_linear_4_3)"/>
<path d="M392.391 1339.97L397.598 1340.61C397.598 1340.61 381.883 1294.28 401.572 1289.02C421.261 1283.77 497.228 1278.03 516.525 1253.85C535.18 1230.53 525.549 1196.04 506.22 1184.22C504.968 1183.48 503.411 1183.9 502.57 1185.13L500.447 1188.08C498.966 1190.17 495.749 1189.43 495.393 1186.85C494.987 1184.47 492.014 1183.59 490.487 1185.46C484.55 1192.68 469.736 1203.78 433.424 1205.79C381.797 1208.64 345.89 1224.82 340.674 1259.54C340.307 1261.72 337.797 1262.61 336.092 1261.23C332.683 1258.47 326.861 1256.62 318.008 1262.36C302.675 1272.28 304.469 1303.15 331.662 1331.83C332.954 1333.2 332.684 1335.41 330.999 1336.31C325.068 1339.19 315.757 1346.66 335.518 1360.76C355.833 1375.11 368.756 1375.52 373.785 1374.88C375.169 1374.73 376.177 1373.65 376.218 1372.31L378.211 1341.19C378.329 1339.57 379.775 1338.4 381.373 1338.61L392.391 1339.97Z" fill="url(#paint58_linear_4_3)"/>
<path d="M392.817 1346.59C392.817 1346.59 387.143 1302.18 366.308 1311.79C345.472 1321.4 370.148 1361.2 385.432 1364.81L392.817 1346.59Z" fill="url(#paint59_linear_4_3)"/>
<path d="M1776.52 1102.59C1927.86 1081.85 1994.77 1206.87 1988.74 1232.49C1987.93 1235.87 1991.04 1238.87 1994.47 1238.08C2011.91 1233.94 2050.28 1229.37 2073.01 1259.72C2093.06 1286.58 2076.67 1310.76 2063.44 1323.94C2060.23 1327.14 2062.66 1332.52 2067.18 1332.07C2099.09 1329.1 2168.19 1330.32 2177.4 1395.35C2185.95 1455.96 2143.42 1471.7 2118.38 1475.69C2114.15 1476.36 2112.98 1481.92 2116.5 1484.34C2128.64 1492.63 2142.51 1509.39 2135.67 1541.28C2124.96 1591.36 2026.34 1584.08 2014.77 1583.01C2014.07 1582.99 2013.38 1582.67 2012.69 1582.34L1857.48 1487C1856.3 1486.26 1855.44 1485.03 1855.29 1483.62L1829.35 1298.19C1829.09 1296.68 1829.64 1295.2 1830.78 1294.14L1732.32 1145.29C1695.11 1138.69 1774.71 1102.83 1776.52 1102.59Z" fill="url(#paint60_linear_4_3)"/>
<path d="M1944.84 1449.45C1871.72 1421.42 1882.9 1545.15 1931.35 1639.41C1964.85 1703.1 1991.01 1795.99 1991.01 1795.99L2078.4 1792.59C2066.14 1640.59 1990.55 1513.6 1944.84 1449.45Z" fill="url(#paint61_linear_4_3)"/>
<path d="M1898.24 1407.91C1898.24 1407.91 1802.42 1399.38 1796.32 1415.03C1792.38 1425.14 1752.72 1489.43 1728.19 1552.64C1714.73 1587.16 1718.77 1626.12 1739.11 1657.18C1776.76 1714.53 1852.2 1844.81 1852.2 1844.81L2048.62 1856.25C2049.35 1810.46 1961.84 1635.15 1961.84 1635.15C1981.73 1572.9 1985.17 1491.9 1940.84 1445.87C1916.3 1420.37 1898.24 1407.91 1898.24 1407.91Z" fill="url(#paint62_linear_4_3)"/>
<path d="M1786.76 1328.03C1787.65 1331.37 1809.14 1386.44 1812 1417.19C1814.84 1447.73 1904.47 1432.77 1892.46 1407.28L1834.4 1284.05L1786.76 1328.03Z" fill="url(#paint63_linear_4_3)"/>
<path d="M1689.56 1217.85C1689.56 1217.85 1675.93 1265.13 1707.35 1330.28C1738.87 1395.43 1776.85 1396.65 1798.3 1376.73C1819.75 1356.91 1846.46 1322.86 1842.36 1260.69C1838.26 1198.63 1709.01 1157.74 1689.56 1217.85Z" fill="url(#paint64_linear_4_3)"/>
<path d="M1795.87 1262.69C1795.87 1262.69 1742.94 1175.74 1688.61 1241.13L1686.93 1265.49C1686.93 1265.49 1625.99 1256.22 1638.49 1200.49C1650.99 1144.77 1705 1111.39 1772.28 1137.87C1839.56 1164.35 1877.74 1190.49 1880.57 1239.41C1883.39 1288.33 1844.96 1276.38 1844.96 1276.38C1844.96 1276.38 1833.37 1241.59 1815.49 1237.51C1797.62 1233.34 1801.45 1260.27 1801.45 1260.27L1795.87 1262.69Z" fill="url(#paint65_linear_4_3)"/>
<path d="M1810.09 1262.45C1810.09 1262.45 1782.61 1217.94 1812.4 1212.4C1842.19 1206.86 1836.02 1255.68 1832.24 1273.67L1810.09 1262.45Z" fill="url(#paint66_linear_4_3)"/>
<path d="M1827.64 1846.05C1827.34 1846.05 1827.04 1846.05 1826.84 1846.05L1461.14 1845.65C1452.14 1845.65 1444.74 1838.35 1444.74 1829.25C1444.74 1820.25 1452.14 1812.75 1461.14 1812.85L1826.84 1813.25C1835.84 1813.25 1843.24 1820.55 1843.24 1829.65C1843.14 1838.55 1836.24 1845.65 1827.64 1846.05Z" fill="url(#paint67_linear_4_3)"/>
<path d="M1132.34 1514.05H1436.84C1459.34 1514.05 1479.74 1527.05 1489.34 1547.35L1630.14 1845.85H1251.64C1237.14 1845.85 1224.14 1837.05 1218.84 1823.55L1109.64 1547.25C1103.44 1531.35 1115.14 1514.05 1132.34 1514.05Z" fill="url(#paint68_linear_4_3)"/>
<path d="M1346.84 1667.15C1353.44 1687.65 1348.54 1707.55 1335.94 1711.65C1323.34 1715.75 1307.74 1702.35 1301.14 1681.85C1294.54 1661.35 1299.44 1641.45 1312.04 1637.35C1324.74 1633.35 1340.24 1646.65 1346.84 1667.15Z" fill="url(#paint69_linear_4_3)"/>
<path d="M1770.88 1799.38C1851.01 1828.17 2020.2 1888.18 2032.33 1885.88C2040.16 1884.39 2052.97 1879.54 2063.97 1874.98C2076.44 1869.84 2083.96 1857.21 2082.42 1843.82L2076.41 1791.34L1959.13 1800.32L1907.69 1802.25C1861.26 1804 1793.33 1778.8 1779.93 1773.66C1760.81 1767.52 1753.82 1792.64 1770.88 1799.38Z" fill="url(#paint70_linear_4_3)"/>
<path d="M2628.56 1857.45C2629.76 1853.35 2628.16 1849.05 2624.06 1845.75C2619.96 1842.45 2613.96 1840.65 2607.56 1840.65H451.162C442.762 1840.65 434.962 1843.45 430.462 1848.15C425.962 1852.85 425.362 1858.75 428.862 1863.75L452.262 1897.25C457.662 1904.95 469.162 1909.85 481.962 1909.85H2592.86C2604.76 1909.85 2614.96 1904.25 2617.16 1896.55L2628.56 1857.45Z" fill="url(#paint71_linear_4_3)"/>
<path d="M1774.18 1801.09C1794.12 1802.38 1794.08 1775.74 1776.5 1773.92C1774.96 1773.75 1770.89 1773.34 1770.89 1773.34C1770.89 1773.34 1718.53 1753.38 1687.42 1758.64C1645.34 1765.75 1620.31 1782.06 1621.41 1801.48L1728.88 1796.86C1728.88 1796.86 1747.97 1798.68 1774.18 1801.09Z" fill="url(#paint72_linear_4_3)"/>
<path d="M2524.78 1408.57C2561.27 1286.31 2537.72 1093.26 2493.43 1124.07L2399.21 1512.8L2490.1 1540.71L2524.78 1408.57Z" fill="url(#paint73_linear_4_3)"/>
<path d="M2035.68 1361.86L2039.25 1343.28C2041.24 1332.61 2048.01 1323.35 2057.63 1318.31L2151.53 1268.58C2151.53 1268.58 2151.7 1255.89 2128.62 1249.68C2105.54 1243.47 2108.09 1218.06 2108.09 1218.06C2108.09 1218.06 2139.88 1228.68 2186.55 1245.98C2213.23 1255.83 2229.89 1276.5 2239.12 1292.42L2489.87 1539.76L2465.7 1560.41C2433.88 1587.6 2385.53 1581.04 2362.15 1546.3L2217.45 1328.19C2158.89 1352.57 2098.1 1362.51 2035.68 1361.86Z" fill="url(#paint74_linear_4_3)"/>
<path d="M2494.44 2451.55C2494.44 2451.55 2498.24 2472.85 2499.84 2498.15C2500.44 2508.95 2492.54 2518.25 2481.74 2519.35C2444.34 2522.95 2359.14 2529.65 2304.74 2521.85C2297.14 2520.75 2294.14 2511.35 2299.74 2506.15C2322.14 2485.25 2376.34 2444.55 2465.54 2435.75L2494.44 2451.55Z" fill="url(#paint75_linear_4_3)"/>
<path d="M2513.04 2403.55L2494.14 2449.95C2491.54 2456.35 2485.14 2460.25 2478.24 2459.55C2473.64 2459.05 2468.14 2458.15 2462.74 2456.55C2452.04 2453.35 2446.04 2441.95 2449.24 2431.25L2463.54 2383.45L2513.04 2403.55Z" fill="url(#paint76_linear_4_3)"/>
<path d="M2836.54 2488.55C2836.54 2488.55 2798.64 2520.25 2783.84 2560.95C2779.74 2572.15 2788.34 2583.95 2800.24 2583.95H2878.24C2889.64 2583.95 2898.44 2573.65 2896.44 2562.45C2891.54 2534.25 2877.24 2488.65 2836.54 2488.55Z" fill="url(#paint77_linear_4_3)"/>
<path d="M2883.54 2447.25C2883.54 2447.25 2875.84 2481.15 2870.04 2503.55C2868.94 2507.65 2864.64 2509.85 2860.64 2508.45C2848.84 2504.25 2839.24 2502.35 2832.24 2503.35C2829.04 2503.75 2826.24 2501.05 2826.14 2497.85L2825.44 2441.55L2883.54 2447.25Z" fill="url(#paint78_linear_4_3)"/>
<path d="M2681.94 1684.85L2451.44 2388.05C2451.44 2388.05 2495.64 2417.05 2516.74 2415.75L2790.54 1850.65C2790.54 1850.65 2838.44 2198.85 2815.24 2448.85L2893.64 2454.85C2893.64 2454.85 3021.14 1815.95 2924.54 1597.15L2681.94 1684.85Z" fill="url(#paint79_linear_4_3)"/>
<path d="M2789.04 1844.55C2789.14 1844.55 2789.24 1844.55 2789.34 1844.55C2790.54 1844.35 2791.44 1843.25 2791.24 1842.05L2782.34 1771.05C2782.14 1769.85 2781.04 1768.95 2779.84 1769.15C2778.64 1769.35 2777.74 1770.45 2777.94 1771.65L2786.84 1842.65C2786.94 1843.75 2787.94 1844.55 2789.04 1844.55Z" fill="url(#paint80_linear_4_3)"/>
<path d="M2638.74 1066.04C2502.64 1068.54 2491.84 1125.74 2491.84 1125.54C2490.14 1233.59 2514.69 1322.39 2535.34 1408.44L2609.64 1695.65C2611.74 1704.05 2620.04 1709.44 2628.64 1707.94L2939.64 1654.75C2947.14 1653.45 2952.14 1646.15 2950.54 1638.75C2902.24 1409.95 2799.04 1215.65 2799.04 1215.65C2825.54 1082.65 2638.74 1066.04 2638.74 1066.04Z" fill="url(#paint81_linear_4_3)"/>
<path d="M2533.74 1395.75C2533.94 1395.75 2534.04 1395.75 2534.24 1395.65C2535.44 1395.35 2536.24 1394.15 2536.04 1392.85L2510.14 1273.85C2509.84 1272.65 2508.64 1271.85 2507.34 1272.05C2506.14 1272.35 2505.34 1273.55 2505.54 1274.85L2531.44 1393.85C2531.74 1395.05 2532.64 1395.75 2533.74 1395.75Z" fill="url(#paint82_linear_4_3)"/>
<path d="M2552.54 1749.95C2562.34 1744.55 2573.84 1743.05 2584.64 1745.75L2606.24 1751.15C2610.84 1752.25 2615.44 1749.15 2615.94 1744.45L2638.34 1545.15C2666.34 1558.45 2706.74 1556.85 2720.04 1555.85L2668.54 1790.85H2488.24L2552.54 1749.95Z" fill="url(#paint83_linear_4_3)"/>
<path d="M2701.94 1558.85C2714.64 1558.85 2723.74 1557.85 2724.74 1557.75L2726.44 1557.55L2794.44 1240.55C2794.74 1239.25 2793.94 1238.05 2792.64 1237.85C2791.34 1237.55 2790.14 1238.35 2789.94 1239.65L2722.64 1553.45C2712.54 1554.35 2658.44 1557.95 2629.94 1537.75L2688.84 1262.25L2676.54 1239.05C2675.94 1237.95 2674.54 1237.45 2673.44 1238.05C2672.34 1238.65 2671.84 1240.05 2672.44 1241.15L2683.94 1262.85L2624.74 1539.55L2625.94 1540.45C2646.54 1555.95 2679.74 1558.85 2701.94 1558.85Z" fill="url(#paint84_linear_4_3)"/>
<path d="M2546.91 943.702C2546.91 943.702 2601.39 1039.36 2622.61 1075.44C2638.13 1101.83 2573.57 1164.7 2540.7 1117L2505.27 1047.69C2505.27 1047.69 2506.95 932.95 2546.91 943.702Z" fill="url(#paint85_linear_4_3)"/>
<path d="M2367.95 917.368C2368.4 919.828 2450.27 1061.61 2450.27 1061.61L2530.21 1013.09L2472.57 867.122C2472.59 867.22 2360.58 876.631 2367.95 917.368Z" fill="url(#paint86_linear_4_3)"/>
<path d="M2464.22 906.846L2500.56 981.262C2501.04 982.192 2501.33 983.257 2501.51 984.241C2502.67 990.637 2505.08 1012.96 2482.1 1013.98C2461.23 1014.91 2442.24 1016.11 2431.45 1023.86C2426.58 1027.28 2425.14 1033.94 2428.11 1039.1C2435.52 1051.98 2452.93 1080.74 2471.76 1103.35C2475.54 1107.95 2482.29 1108.76 2487.17 1105.43C2501.97 1095.13 2532.65 1072.61 2553.02 1048.69C2555.78 1045.45 2556.61 1041.03 2555.07 1037.04C2547.7 1017.64 2525.43 958.668 2521.77 941.242C2518.3 924.899 2534.54 909.052 2541.75 902.868C2544.12 900.812 2545.53 897.915 2545.78 894.821C2546.43 883.829 2544.25 859.427 2512.8 859.736C2506.21 859.812 2500.97 854.459 2501.09 847.832C2501.37 834.773 2497.2 816.22 2471.96 813.778C2446.29 811.211 2433.6 828.652 2427.87 841.376C2425.54 846.472 2419.91 849.017 2414.38 847.681C2411.29 846.918 2407.73 847.461 2404.57 851.287C2400.31 856.427 2392.41 856.538 2387.69 851.803C2378.71 842.655 2363.82 834.479 2343.26 845.519C2306.67 865.153 2316.65 909.586 2335.32 931.307C2353.98 953.028 2392.43 929.604 2408.99 909.938C2421.62 894.947 2445.59 898.229 2456.39 900.643C2459.89 901.432 2462.73 903.661 2464.22 906.846Z" fill="url(#paint87_linear_4_3)"/>
<path d="M2534.75 968.567C2534.75 968.567 2503.85 929.244 2516.62 912.805C2529.3 896.383 2555.49 893.978 2560.95 928.051C2567.82 970.505 2534.75 968.567 2534.75 968.567Z" fill="url(#paint88_linear_4_3)"/>
<path d="M1891.06 2132.75H1924.26V2491.85H1891.06V2132.75Z" fill="url(#paint89_linear_4_3)"/>
<path d="M2053.16 2498.85H1762.36C1762.36 2486.95 1772.06 2477.25 1783.96 2477.25H2031.56C2043.46 2477.25 2053.16 2486.85 2053.16 2498.85Z" fill="url(#paint90_linear_4_3)"/>
<path d="M2096.26 2120.35C2096.26 2139.95 2080.16 2156.05 2060.56 2156.05H1766.26C1746.66 2156.05 1730.56 2139.95 1730.56 2120.35V2088.05C1730.56 2068.45 1746.66 2052.35 1766.26 2052.35H2060.56C2080.16 2052.35 2096.26 2068.45 2096.26 2088.05V2120.35Z" fill="url(#paint91_linear_4_3)"/>
<path d="M1662.56 1893.35C1662.56 1893.35 1613.26 1900.95 1557.76 1938.05C1549.06 1943.85 1544.26 1954.05 1545.56 1964.45C1552.16 2017.05 1579.56 2187.35 1669.56 2353.75C1674.26 2362.55 1675.66 2372.75 1673.56 2382.45L1657.96 2455.25L1628.96 2482.45H1703.66L1753.36 2347.85L1732.06 2341.15C1715.56 2335.95 1704.26 2320.75 1703.96 2303.45L1701.46 2158.95C1703.56 2094.55 1661.96 2050.15 1661.96 2050.15L1781.36 2044.35L1662.56 1893.35Z" fill="url(#paint92_linear_4_3)"/>
<path d="M1599.66 2495.65C1592.86 2504.55 1672.96 2516.35 1713.36 2496.85C1713.36 2496.85 1769.46 2399.25 1769.46 2349.05C1769.46 2349.05 1764.96 2338.85 1732.06 2341.15C1732.06 2341.15 1713.26 2456.65 1693.36 2469.65C1673.46 2482.55 1637.76 2470.95 1637.76 2470.95C1637.76 2470.95 1609.76 2482.55 1599.66 2495.65Z" fill="url(#paint93_linear_4_3)"/>
<path d="M1766.26 2052.35C1765.66 2051.25 1637.76 2036.95 1637.76 2036.95C1637.76 2036.95 1641.96 2075.85 1628.86 2129.35C1615.76 2182.85 1428.06 2414.75 1428.06 2414.75L1447.76 2477.15C1386.86 2498.35 1326.96 2501.75 1268.06 2487.95L1390.06 2414.75C1390.06 2414.75 1504.26 2025.65 1574.16 1956.15L1702.36 1911.85L1766.26 2052.35Z" fill="url(#paint94_linear_4_3)"/>
<path d="M2053.16 1825.85C2053.16 1825.85 2126.86 1935.45 2132.86 1985.45C2138.86 2035.45 2112.66 2055.75 2035.36 2059.15C1958.06 2062.45 1751.66 2062.45 1751.66 2062.45L1575.46 1911.85C1575.46 1911.85 1703.86 1866.05 1737.16 1853.05C1770.66 1840.15 2053.16 1825.85 2053.16 1825.85Z" fill="url(#paint95_linear_4_3)"/>
<path d="M1440.26 2456.15C1440.26 2456.15 1461.46 2476.65 1447.16 2499.55C1447.16 2499.55 1279.26 2529.35 1233.66 2515.85C1233.66 2515.85 1243.16 2494.25 1294.46 2469.65L1290.66 2472.55C1285.86 2476.25 1288.66 2483.85 1294.76 2483.55C1328.56 2481.55 1398.56 2475.45 1440.26 2456.15Z" fill="url(#paint96_linear_4_3)"/>
</g>
<defs>
<filter id="filter0_d_4_3" x="0" y="41.0806" width="2964.7" height="2550.86" filterUnits="userSpaceOnUse" color-interpolation-filters="sRGB">
<feFlood flood-opacity="0" result="BackgroundImageFix"/>
<feColorMatrix in="SourceAlpha" type="matrix" values="0 0 0 0 0 0 0 0 0 0 0 0 0 0 0 0 0 0 127 0" result="hardAlpha"/>
<feOffset dy="4"/>
<feGaussianBlur stdDeviation="2"/>
<feComposite in2="hardAlpha" operator="out"/>
<feColorMatrix type="matrix" values="0 0 0 0 0 0 0 0 0 0 0 0 0 0 0 0 0 0 0.25 0"/>
<feBlend mode="normal" in2="BackgroundImageFix" result="effect1_dropShadow_4_3"/>
<feBlend mode="normal" in="SourceGraphic" in2="effect1_dropShadow_4_3" result="shape"/>
</filter>
<linearGradient id="paint0_linear_4_3" x1="830.863" y1="187.328" x2="536.055" y2="1159.67" gradientUnits="userSpaceOnUse">
<stop stop-color="#4A90E2"/>
<stop offset="0.5" stop-color="#0076FF"/>
<stop offset="1" stop-color="#00408A"/>
</linearGradient>
<linearGradient id="paint1_linear_4_3" x1="1943.97" y1="80.6266" x2="1502.95" y2="841.092" gradientUnits="userSpaceOnUse">
<stop stop-color="#FF5267"/>
<stop offset="0.5" stop-color="#D0021B"/>
<stop offset="1" stop-color="#970214"/>
</linearGradient>
<linearGradient id="paint2_linear_4_3" x1="759.063" y1="-178.253" x2="1024.52" y2="-178.253" gradientUnits="userSpaceOnUse">
<stop stop-color="#B37CFF"/>
<stop offset="0.5" stop-color="#D588F3"/>
<stop offset="1" stop-color="white"/>
</linearGradient>
<linearGradient id="paint3_linear_4_3" x1="554.063" y1="-180.794" x2="1234.92" y2="-180.794" gradientUnits="userSpaceOnUse">
<stop stop-color="white"/>
<stop offset="0.5" stop-color="white"/>
<stop offset="1" stop-color="white"/>
</linearGradient>
<linearGradient id="paint4_linear_4_3" x1="1802.87" y1="-53.9261" x2="1982.75" y2="-53.9261" gradientUnits="userSpaceOnUse">
<stop stop-color="#B37CFF"/>
<stop offset="0.5" stop-color="#D588F3"/>
<stop offset="1" stop-color="#F895E7"/>
</linearGradient>
<linearGradient id="paint5_linear_4_3" x1="1663.96" y1="-55.6477" x2="2125.32" y2="-55.6477" gradientUnits="userSpaceOnUse">
<stop stop-color="white"/>
<stop offset="0.5" stop-color="white"/>
<stop offset="1" stop-color="white"/>
</linearGradient>
<linearGradient id="paint6_linear_4_3" x1="-28978" y1="-32317.7" x2="1462.06" y2="1183.85" gradientUnits="userSpaceOnUse">
<stop stop-color="#2B3582"/>
<stop offset="0.5" stop-color="#202162"/>
<stop offset="1" stop-color="#150E42"/>
</linearGradient>
<linearGradient id="paint7_linear_4_3" x1="39249.2" y1="-7491.17" x2="38665.8" y2="-7433.83" gradientUnits="userSpaceOnUse">
<stop stop-color="#2B3582"/>
<stop offset="0.5" stop-color="#202162"/>
<stop offset="1" stop-color="#150E42"/>
</linearGradient>
<linearGradient id="paint8_linear_4_3" x1="203.063" y1="5961.6" x2="761.186" y2="7951.89" gradientUnits="userSpaceOnUse">
<stop stop-color="#18459F"/>
<stop offset="0.5" stop-color="#205DAA"/>
<stop offset="1" stop-color="#2874B5"/>
</linearGradient>
<linearGradient id="paint9_linear_4_3" x1="232.063" y1="5969.7" x2="790.187" y2="7959.99" gradientUnits="userSpaceOnUse">
<stop stop-color="#18459F"/>
<stop offset="0.5" stop-color="#205DAA"/>
<stop offset="1" stop-color="#2874B5"/>
</linearGradient>
<linearGradient id="paint10_linear_4_3" x1="1766.06" y1="6399.6" x2="2324.19" y2="8389.89" gradientUnits="userSpaceOnUse">
<stop stop-color="#18459F"/>
<stop offset="0.5" stop-color="#205DAA"/>
<stop offset="1" stop-color="#2874B5"/>
</linearGradient>
<linearGradient id="paint11_linear_4_3" x1="1796.06" y1="6408.7" x2="2354.19" y2="8398.99" gradientUnits="userSpaceOnUse">
<stop stop-color="#18459F"/>
<stop offset="0.5" stop-color="#205DAA"/>
<stop offset="1" stop-color="#2874B5"/>
</linearGradient>
<linearGradient id="paint12_linear_4_3" x1="11532.8" y1="3044.95" x2="11847.1" y2="3248.69" gradientUnits="userSpaceOnUse">
<stop stop-color="#53D8FF"/>
<stop offset="0.5" stop-color="#468CFB"/>
<stop offset="1" stop-color="#3840F7"/>
</linearGradient>
<linearGradient id="paint13_linear_4_3" x1="11614" y1="3279.75" x2="11615.5" y2="3187.22" gradientUnits="userSpaceOnUse">
<stop stop-color="#FDF53F"/>
<stop offset="0.33" stop-color="#F1B84B"/>
<stop offset="0.66" stop-color="#E57A58"/>
<stop offset="0.83" stop-color="#DF5B5F"/>
<stop offset="1" stop-color="#D93C65"/>
</linearGradient>
<linearGradient id="paint14_linear_4_3" x1="1744.06" y1="74.5049" x2="1709.82" y2="-151.492" gradientUnits="userSpaceOnUse">
<stop stop-color="#2B3582"/>
<stop offset="0.5" stop-color="#202162"/>
<stop offset="1" stop-color="#150E42"/>
</linearGradient>
<linearGradient id="paint15_linear_4_3" x1="1752.06" y1="31.5071" x2="1692.93" y2="-620.646" gradientUnits="userSpaceOnUse">
<stop stop-color="#53D8FF"/>
<stop offset="0.5" stop-color="#468CFB"/>
<stop offset="1" stop-color="#3840F7"/>
</linearGradient>
<linearGradient id="paint16_linear_4_3" x1="1754.06" y1="-17.3608" x2="1694.93" y2="-669.516" gradientUnits="userSpaceOnUse">
<stop stop-color="#53D8FF"/>
<stop offset="0.5" stop-color="#468CFB"/>
<stop offset="1" stop-color="#3840F7"/>
</linearGradient>
<linearGradient id="paint17_linear_4_3" x1="1750.06" y1="-59.9606" x2="1690.93" y2="-712.114" gradientUnits="userSpaceOnUse">
<stop stop-color="#53D8FF"/>
<stop offset="0.5" stop-color="#468CFB"/>
<stop offset="1" stop-color="#3840F7"/>
</linearGradient>
<linearGradient id="paint18_linear_4_3" x1="1752.06" y1="-102.459" x2="1692.93" y2="-754.614" gradientUnits="userSpaceOnUse">
<stop stop-color="#53D8FF"/>
<stop offset="0.5" stop-color="#468CFB"/>
<stop offset="1" stop-color="#3840F7"/>
</linearGradient>
<linearGradient id="paint19_linear_4_3" x1="1734.06" y1="169.431" x2="1759.7" y2="737.279" gradientUnits="userSpaceOnUse">
<stop stop-color="#FDF53F"/>
<stop offset="0.5" stop-color="#EB9852"/>
<stop offset="1" stop-color="#D93C65"/>
</linearGradient>
<linearGradient id="paint20_linear_4_3" x1="1781.06" y1="-528.801" x2="1797.46" y2="-1049.75" gradientUnits="userSpaceOnUse">
<stop stop-color="#FDF53F"/>
<stop offset="0.5" stop-color="#EB9852"/>
<stop offset="1" stop-color="#D93C65"/>
</linearGradient>
<linearGradient id="paint21_linear_4_3" x1="1691.06" y1="-522.601" x2="1707.46" y2="-1043.55" gradientUnits="userSpaceOnUse">
<stop stop-color="#FDF53F"/>
<stop offset="0.5" stop-color="#EB9852"/>
<stop offset="1" stop-color="#D93C65"/>
</linearGradient>
<linearGradient id="paint22_linear_4_3" x1="8149.37" y1="4838.47" x2="7545.99" y2="4182.17" gradientUnits="userSpaceOnUse">
<stop stop-color="#2B3582"/>
<stop offset="0.5" stop-color="#202162"/>
<stop offset="1" stop-color="#150E42"/>
</linearGradient>
<linearGradient id="paint23_linear_4_3" x1="7953.34" y1="4785.28" x2="8006.92" y2="4785.28" gradientUnits="userSpaceOnUse">
<stop stop-color="#F9B776"/>
<stop offset="0.5" stop-color="#F7986B"/>
<stop offset="1" stop-color="#F47960"/>
</linearGradient>
<linearGradient id="paint24_linear_4_3" x1="8184.92" y1="3169.75" x2="7671.47" y2="2473.83" gradientUnits="userSpaceOnUse">
<stop stop-color="#2B3582"/>
<stop offset="0.5" stop-color="#202162"/>
<stop offset="1" stop-color="#150E42"/>
</linearGradient>
<linearGradient id="paint25_linear_4_3" x1="8012.26" y1="4729.47" x2="7408.86" y2="4073.14" gradientUnits="userSpaceOnUse">
<stop stop-color="#2B3582"/>
<stop offset="0.5" stop-color="#202162"/>
<stop offset="1" stop-color="#150E42"/>
</linearGradient>
<linearGradient id="paint26_linear_4_3" x1="7760.26" y1="4772.8" x2="7806.49" y2="4772.8" gradientUnits="userSpaceOnUse">
<stop stop-color="#F9B776"/>
<stop offset="0.5" stop-color="#F7986B"/>
<stop offset="1" stop-color="#F47960"/>
</linearGradient>
<linearGradient id="paint27_linear_4_3" x1="8093.23" y1="3091.05" x2="7579.79" y2="2395.15" gradientUnits="userSpaceOnUse">
<stop stop-color="#2B3582"/>
<stop offset="0.5" stop-color="#202162"/>
<stop offset="1" stop-color="#150E42"/>
</linearGradient>
<linearGradient id="paint28_linear_4_3" x1="996.329" y1="2016.56" x2="1045.59" y2="1090.03" gradientUnits="userSpaceOnUse">
<stop stop-color="#FF4158"/>
<stop offset="0.5" stop-color="#A10115"/>
<stop offset="1" stop-color="#D0021B"/>
</linearGradient>
<linearGradient id="paint29_linear_4_3" x1="1417.76" y1="1241.84" x2="1257.95" y2="1032.89" gradientUnits="userSpaceOnUse">
<stop stop-color="#5A000B"/>
<stop offset="0.5" stop-color="#860000"/>
<stop offset="1" stop-color="#FF0043"/>
</linearGradient>
<linearGradient id="paint30_linear_4_3" x1="8011" y1="-451.374" x2="8281.75" y2="-492.37" gradientUnits="userSpaceOnUse">
<stop stop-color="#F9B776"/>
<stop offset="0.5" stop-color="#F7986B"/>
<stop offset="1" stop-color="#F47960"/>
</linearGradient>
<linearGradient id="paint31_linear_4_3" x1="-4421.4" y1="3429.76" x2="-4369.16" y2="3883.41" gradientUnits="userSpaceOnUse">
<stop stop-color="#F9B776"/>
<stop offset="0.5" stop-color="#F7986B"/>
<stop offset="1" stop-color="#F47960"/>
</linearGradient>
<linearGradient id="paint32_linear_4_3" x1="7036.04" y1="-3380.62" x2="7161.7" y2="-3317.52" gradientUnits="userSpaceOnUse">
<stop stop-color="#F9B776"/>
<stop offset="0.5" stop-color="#F7986B"/>
<stop offset="1" stop-color="#F47960"/>
</linearGradient>
<linearGradient id="paint33_linear_4_3" x1="795.48" y1="1397.95" x2="921.97" y2="1102.6" gradientUnits="userSpaceOnUse">
<stop stop-color="#6B020F"/>
<stop offset="0.5" stop-color="#FF001F"/>
<stop offset="1" stop-color="#D0021B"/>
</linearGradient>
<linearGradient id="paint34_linear_4_3" x1="7580.91" y1="1225.8" x2="7899.56" y2="1195.55" gradientUnits="userSpaceOnUse">
<stop stop-color="#F9B776"/>
<stop offset="0.5" stop-color="#F8A971"/>
<stop offset="1" stop-color="#F79A6C"/>
</linearGradient>
<linearGradient id="paint35_linear_4_3" x1="1127.09" y1="1072.98" x2="992.129" y2="1024.98" gradientUnits="userSpaceOnUse">
<stop stop-color="#F9B776"/>
<stop offset="0.5" stop-color="#F7986B"/>
<stop offset="1" stop-color="#F47960"/>
</linearGradient>
<linearGradient id="paint36_linear_4_3" x1="1158.86" y1="972.724" x2="1138.77" y2="851.104" gradientUnits="userSpaceOnUse">
<stop stop-color="#F9B776"/>
<stop offset="0.5" stop-color="#F7986B"/>
<stop offset="1" stop-color="#F47960"/>
</linearGradient>
<linearGradient id="paint37_linear_4_3" x1="2161.7" y1="1391.44" x2="2053.17" y2="1168.46" gradientUnits="userSpaceOnUse">
<stop stop-color="#2B3582"/>
<stop offset="0.5" stop-color="#202162"/>
<stop offset="1" stop-color="#150E42"/>
</linearGradient>
<linearGradient id="paint38_linear_4_3" x1="1089.34" y1="934.442" x2="1070.52" y2="893.164" gradientUnits="userSpaceOnUse">
<stop stop-color="#F9B776"/>
<stop offset="0.5" stop-color="#F7986B"/>
<stop offset="1" stop-color="#F47960"/>
</linearGradient>
<linearGradient id="paint39_linear_4_3" x1="1229.95" y1="1185.42" x2="1178.34" y2="1478.74" gradientUnits="userSpaceOnUse">
<stop stop-color="#2B3582"/>
<stop offset="0.5" stop-color="#202162"/>
<stop offset="1" stop-color="#150E42"/>
</linearGradient>
<linearGradient id="paint40_linear_4_3" x1="7681.04" y1="654.987" x2="7573.81" y2="631.22" gradientUnits="userSpaceOnUse">
<stop stop-color="#F9B776"/>
<stop offset="0.5" stop-color="#F8AA71"/>
<stop offset="1" stop-color="#F79C6D"/>
</linearGradient>
<linearGradient id="paint41_linear_4_3" x1="-7939.51" y1="2887.23" x2="-7948.7" y2="3009.33" gradientUnits="userSpaceOnUse">
<stop stop-color="#53D8FF"/>
<stop offset="0.5" stop-color="#468CFB"/>
<stop offset="1" stop-color="#3840F7"/>
</linearGradient>
<linearGradient id="paint42_linear_4_3" x1="3120.06" y1="4916.25" x2="3188.26" y2="4916.25" gradientUnits="userSpaceOnUse">
<stop stop-color="#F9B776"/>
<stop offset="0.5" stop-color="#F7986B"/>
<stop offset="1" stop-color="#F47960"/>
</linearGradient>
<linearGradient id="paint43_linear_4_3" x1="403.062" y1="1417.55" x2="333.195" y2="1436.86" gradientUnits="userSpaceOnUse">
<stop stop-color="#F9B776"/>
<stop offset="0.5" stop-color="#F7986B"/>
<stop offset="1" stop-color="#F47960"/>
</linearGradient>
<linearGradient id="paint44_linear_4_3" x1="398.063" y1="1410.06" x2="674.164" y2="1833.64" gradientUnits="userSpaceOnUse">
<stop stop-color="#53D8FF"/>
<stop offset="0.5" stop-color="#468CFB"/>
<stop offset="1" stop-color="#3840F7"/>
</linearGradient>
<linearGradient id="paint45_linear_4_3" x1="2466.06" y1="4264.65" x2="2167.05" y2="3587.93" gradientUnits="userSpaceOnUse">
<stop stop-color="#FDF53F"/>
<stop offset="0.33" stop-color="#F1B84B"/>
<stop offset="0.66" stop-color="#E57A58"/>
<stop offset="0.83" stop-color="#DF5B5F"/>
<stop offset="1" stop-color="#D93C65"/>
</linearGradient>
<linearGradient id="paint46_linear_4_3" x1="2713.06" y1="4373.65" x2="2414.05" y2="3696.93" gradientUnits="userSpaceOnUse">
<stop stop-color="#FDF53F"/>
<stop offset="0.33" stop-color="#F1B84B"/>
<stop offset="0.66" stop-color="#E57A58"/>
<stop offset="0.83" stop-color="#DF5B5F"/>
<stop offset="1" stop-color="#D93C65"/>
</linearGradient>
<linearGradient id="paint47_linear_4_3" x1="217.063" y1="2161.44" x2="213.522" y2="2045.24" gradientUnits="userSpaceOnUse">
<stop stop-color="#FDF53F"/>
<stop offset="0.33" stop-color="#F1B84B"/>
<stop offset="0.66" stop-color="#E57A58"/>
<stop offset="0.83" stop-color="#DF5B5F"/>
<stop offset="1" stop-color="#D93C65"/>
</linearGradient>
<linearGradient id="paint48_linear_4_3" x1="2839.06" y1="5092.85" x2="3050.28" y2="5092.85" gradientUnits="userSpaceOnUse">
<stop stop-color="#CB236D"/>
<stop offset="0.5" stop-color="#8B236D"/>
<stop offset="1" stop-color="#4C246D"/>
</linearGradient>
<linearGradient id="paint49_linear_4_3" x1="3001.06" y1="4635.64" x2="2943.36" y2="4236.96" gradientUnits="userSpaceOnUse">
<stop stop-color="#CB236D"/>
<stop offset="0.5" stop-color="#8B236D"/>
<stop offset="1" stop-color="#4C246D"/>
</linearGradient>
<linearGradient id="paint50_linear_4_3" x1="2849.06" y1="4901.61" x2="2906.16" y2="4901.61" gradientUnits="userSpaceOnUse">
<stop stop-color="#F9B776"/>
<stop offset="0.5" stop-color="#F7986B"/>
<stop offset="1" stop-color="#F47960"/>
</linearGradient>
<linearGradient id="paint51_linear_4_3" x1="597.062" y1="2443.96" x2="385.375" y2="2120.96" gradientUnits="userSpaceOnUse">
<stop stop-color="#CB236D"/>
<stop offset="0.5" stop-color="#8B236D"/>
<stop offset="1" stop-color="#4C246D"/>
</linearGradient>
<linearGradient id="paint52_linear_4_3" x1="2944.06" y1="3941.35" x2="2447.46" y2="3378.29" gradientUnits="userSpaceOnUse">
<stop stop-color="#CB236D"/>
<stop offset="0.5" stop-color="#8B236D"/>
<stop offset="1" stop-color="#4C246D"/>
</linearGradient>
<linearGradient id="paint53_linear_4_3" x1="405.063" y1="1440.82" x2="75.1625" y2="1904.4" gradientUnits="userSpaceOnUse">
<stop stop-color="#53D8FF"/>
<stop offset="0.5" stop-color="#468CFB"/>
<stop offset="1" stop-color="#3840F7"/>
</linearGradient>
<linearGradient id="paint54_linear_4_3" x1="3028.06" y1="3022.42" x2="3185.56" y2="3022.42" gradientUnits="userSpaceOnUse">
<stop stop-color="#F9B776"/>
<stop offset="0.5" stop-color="#F7986B"/>
<stop offset="1" stop-color="#F47960"/>
</linearGradient>
<linearGradient id="paint55_linear_4_3" x1="2362.01" y1="5542.45" x2="2525.56" y2="5590.79" gradientUnits="userSpaceOnUse">
<stop stop-color="#CB236D"/>
<stop offset="0.5" stop-color="#8B236D"/>
<stop offset="1" stop-color="#4C246D"/>
</linearGradient>
<linearGradient id="paint56_linear_4_3" x1="2568.52" y1="5256.6" x2="2626.2" y2="4857.91" gradientUnits="userSpaceOnUse">
<stop stop-color="#CB236D"/>
<stop offset="0.5" stop-color="#8B236D"/>
<stop offset="1" stop-color="#4C246D"/>
</linearGradient>
<linearGradient id="paint57_linear_4_3" x1="499.717" y1="1318.12" x2="386.134" y2="1384.88" gradientUnits="userSpaceOnUse">
<stop stop-color="#F9B776"/>
<stop offset="0.5" stop-color="#F7986B"/>
<stop offset="1" stop-color="#F47960"/>
</linearGradient>
<linearGradient id="paint58_linear_4_3" x1="368.14" y1="1219.71" x2="426.232" y2="1330.44" gradientUnits="userSpaceOnUse">
<stop stop-color="#2B3582"/>
<stop offset="0.5" stop-color="#202162"/>
<stop offset="1" stop-color="#150E42"/>
</linearGradient>
<linearGradient id="paint59_linear_4_3" x1="4407.41" y1="3539.6" x2="4256.16" y2="3390.14" gradientUnits="userSpaceOnUse">
<stop stop-color="#F9B776"/>
<stop offset="0.5" stop-color="#F7986B"/>
<stop offset="1" stop-color="#F47960"/>
</linearGradient>
<linearGradient id="paint60_linear_4_3" x1="1963.65" y1="1167.03" x2="2037.81" y2="1529.81" gradientUnits="userSpaceOnUse">
<stop stop-color="#2B3582"/>
<stop offset="0.5" stop-color="#202162"/>
<stop offset="1" stop-color="#150E42"/>
</linearGradient>
<linearGradient id="paint61_linear_4_3" x1="1914.75" y1="1416.39" x2="2027.8" y2="1811.12" gradientUnits="userSpaceOnUse">
<stop stop-color="#FF001F"/>
<stop offset="0.5" stop-color="#A80317"/>
<stop offset="1" stop-color="#8B0011"/>
</linearGradient>
<linearGradient id="paint62_linear_4_3" x1="1875.75" y1="1399.55" x2="1905.11" y2="1835.17" gradientUnits="userSpaceOnUse">
<stop stop-color="#FF0021"/>
<stop offset="0.5" stop-color="#AD0117"/>
<stop offset="1" stop-color="#7A000F"/>
</linearGradient>
<linearGradient id="paint63_linear_4_3" x1="1825.02" y1="1432.65" x2="1860.61" y2="1333.06" gradientUnits="userSpaceOnUse">
<stop stop-color="#F9B776"/>
<stop offset="0.5" stop-color="#F7986B"/>
<stop offset="1" stop-color="#F47960"/>
</linearGradient>
<linearGradient id="paint64_linear_4_3" x1="1832.69" y1="1243.37" x2="1729.85" y2="1356.36" gradientUnits="userSpaceOnUse">
<stop stop-color="#F9B776"/>
<stop offset="0.5" stop-color="#F7986B"/>
<stop offset="1" stop-color="#F47960"/>
</linearGradient>
<linearGradient id="paint65_linear_4_3" x1="1835.39" y1="1171.63" x2="1797.92" y2="1318.1" gradientUnits="userSpaceOnUse">
<stop stop-color="#2B3582"/>
<stop offset="0.5" stop-color="#202162"/>
<stop offset="1" stop-color="#150E42"/>
</linearGradient>
<linearGradient id="paint66_linear_4_3" x1="1817.71" y1="1265.5" x2="1825.65" y2="1216.47" gradientUnits="userSpaceOnUse">
<stop stop-color="#F9B776"/>
<stop offset="0.5" stop-color="#F7986B"/>
<stop offset="1" stop-color="#F47960"/>
</linearGradient>
<linearGradient id="paint67_linear_4_3" x1="-1382.01" y1="2827.81" x2="-1680.25" y2="2761.58" gradientUnits="userSpaceOnUse">
<stop stop-color="#2B3582"/>
<stop offset="0.5" stop-color="#202162"/>
<stop offset="1" stop-color="#150E42"/>
</linearGradient>
<linearGradient id="paint68_linear_4_3" x1="-1720.94" y1="2548.05" x2="-1930" y2="2327.08" gradientUnits="userSpaceOnUse">
<stop stop-color="#2B3582"/>
<stop offset="0.5" stop-color="#202162"/>
<stop offset="1" stop-color="#150E42"/>
</linearGradient>
<linearGradient id="paint69_linear_4_3" x1="-1847.94" y1="2592.17" x2="-1942.79" y2="2449.33" gradientUnits="userSpaceOnUse">
<stop stop-color="#53D8FF"/>
<stop offset="0.5" stop-color="#468CFB"/>
<stop offset="1" stop-color="#3840F7"/>
</linearGradient>
<linearGradient id="paint70_linear_4_3" x1="-1540.71" y1="2267.68" x2="-1084.54" y2="2372.46" gradientUnits="userSpaceOnUse">
<stop stop-color="#F9B776"/>
<stop offset="0.5" stop-color="#F7986B"/>
<stop offset="1" stop-color="#F47960"/>
</linearGradient>
<linearGradient id="paint71_linear_4_3" x1="891.062" y1="5510.65" x2="1449.19" y2="7500.94" gradientUnits="userSpaceOnUse">
<stop stop-color="#18459F"/>
<stop offset="0.5" stop-color="#205DAA"/>
<stop offset="1" stop-color="#2874B5"/>
</linearGradient>
<linearGradient id="paint72_linear_4_3" x1="-1314.13" y1="3090.88" x2="-846.26" y2="3077.97" gradientUnits="userSpaceOnUse">
<stop stop-color="#F9B776"/>
<stop offset="0.5" stop-color="#F7986B"/>
<stop offset="1" stop-color="#F47960"/>
</linearGradient>
<linearGradient id="paint73_linear_4_3" x1="2495" y1="1538.93" x2="2476.34" y2="1202.44" gradientUnits="userSpaceOnUse">
<stop stop-color="#53D8FF"/>
<stop offset="0.5" stop-color="#468CFB"/>
<stop offset="1" stop-color="#3840F7"/>
</linearGradient>
<linearGradient id="paint74_linear_4_3" x1="9629.09" y1="1011.05" x2="9198.48" y2="1056.51" gradientUnits="userSpaceOnUse">
<stop stop-color="#F9B776"/>
<stop offset="0.5" stop-color="#F7986B"/>
<stop offset="1" stop-color="#F47960"/>
</linearGradient>
<linearGradient id="paint75_linear_4_3" x1="9767.65" y1="5432.37" x2="9764.56" y2="5759.59" gradientUnits="userSpaceOnUse">
<stop stop-color="#2B3582"/>
<stop offset="0.5" stop-color="#202162"/>
<stop offset="1" stop-color="#150E42"/>
</linearGradient>
<linearGradient id="paint76_linear_4_3" x1="10011.4" y1="4949.23" x2="10028.3" y2="4816.49" gradientUnits="userSpaceOnUse">
<stop stop-color="#F9B776"/>
<stop offset="0.5" stop-color="#F7986B"/>
<stop offset="1" stop-color="#F47960"/>
</linearGradient>
<linearGradient id="paint77_linear_4_3" x1="11092.5" y1="5547.65" x2="11089.4" y2="5874.86" gradientUnits="userSpaceOnUse">
<stop stop-color="#2B3582"/>
<stop offset="0.5" stop-color="#202162"/>
<stop offset="1" stop-color="#150E42"/>
</linearGradient>
<linearGradient id="paint78_linear_4_3" x1="11129.9" y1="5101.57" x2="11146.5" y2="4972.22" gradientUnits="userSpaceOnUse">
<stop stop-color="#F9B776"/>
<stop offset="0.5" stop-color="#F7986B"/>
<stop offset="1" stop-color="#F47960"/>
</linearGradient>
<linearGradient id="paint79_linear_4_3" x1="10948.1" y1="3712.15" x2="10438.8" y2="3712.15" gradientUnits="userSpaceOnUse">
<stop stop-color="#2B3582"/>
<stop offset="0.5" stop-color="#202162"/>
<stop offset="1" stop-color="#150E42"/>
</linearGradient>
<linearGradient id="paint80_linear_4_3" x1="11000.1" y1="3195.82" x2="10981.6" y2="3158.78" gradientUnits="userSpaceOnUse">
<stop stop-color="#53D8FF"/>
<stop offset="0.5" stop-color="#468CFB"/>
<stop offset="1" stop-color="#3840F7"/>
</linearGradient>
<linearGradient id="paint81_linear_4_3" x1="2773.53" y1="1707.39" x2="2587.48" y2="1088.01" gradientUnits="userSpaceOnUse">
<stop stop-color="#53D8FF"/>
<stop offset="0.5" stop-color="#468CFB"/>
<stop offset="1" stop-color="#3840F7"/>
</linearGradient>
<linearGradient id="paint82_linear_4_3" x1="2325.06" y1="-414.084" x2="50.6676" y2="-4288.98" gradientUnits="userSpaceOnUse">
<stop stop-color="#53D8FF"/>
<stop offset="0.45" stop-color="#468CFB"/>
<stop offset="1" stop-color="#3840F7"/>
</linearGradient>
<linearGradient id="paint83_linear_4_3" x1="10504.2" y1="2638.15" x2="10272.4" y2="2638.15" gradientUnits="userSpaceOnUse">
<stop stop-color="#F9B776"/>
<stop offset="0.5" stop-color="#F7986B"/>
<stop offset="1" stop-color="#F47960"/>
</linearGradient>
<linearGradient id="paint84_linear_4_3" x1="2486.06" y1="-192.216" x2="211.666" y2="-4067.11" gradientUnits="userSpaceOnUse">
<stop stop-color="#53D8FF"/>
<stop offset="0.45" stop-color="#468CFB"/>
<stop offset="1" stop-color="#3840F7"/>
</linearGradient>
<linearGradient id="paint85_linear_4_3" x1="2532.7" y1="1102.59" x2="2603.76" y2="1044.38" gradientUnits="userSpaceOnUse">
<stop stop-color="#F9B776"/>
<stop offset="0.5" stop-color="#F7986B"/>
<stop offset="1" stop-color="#F47960"/>
</linearGradient>
<linearGradient id="paint86_linear_4_3" x1="2495.83" y1="970.459" x2="2395.01" y2="1003.52" gradientUnits="userSpaceOnUse">
<stop stop-color="#F9B776"/>
<stop offset="0.5" stop-color="#F7986B"/>
<stop offset="1" stop-color="#F47960"/>
</linearGradient>
<linearGradient id="paint87_linear_4_3" x1="9875.73" y1="-869.554" x2="9654.84" y2="-829.554" gradientUnits="userSpaceOnUse">
<stop stop-color="#CB236D"/>
<stop offset="0.5" stop-color="#8B236D"/>
<stop offset="1" stop-color="#4C246D"/>
</linearGradient>
<linearGradient id="paint88_linear_4_3" x1="10214.6" y1="-819.518" x2="10038.8" y2="-944.81" gradientUnits="userSpaceOnUse">
<stop stop-color="#F9B776"/>
<stop offset="0.5" stop-color="#F7986B"/>
<stop offset="1" stop-color="#F47960"/>
</linearGradient>
<linearGradient id="paint89_linear_4_3" x1="-1379.94" y1="4729.75" x2="-1308.16" y2="5181.22" gradientUnits="userSpaceOnUse">
<stop stop-color="#18459F"/>
<stop offset="0.5" stop-color="#205DAA"/>
<stop offset="1" stop-color="#2874B5"/>
</linearGradient>
<linearGradient id="paint90_linear_4_3" x1="-1350.94" y1="5086.25" x2="-1279.16" y2="5537.72" gradientUnits="userSpaceOnUse">
<stop stop-color="#18459F"/>
<stop offset="0.5" stop-color="#205DAA"/>
<stop offset="1" stop-color="#2874B5"/>
</linearGradient>
<linearGradient id="paint91_linear_4_3" x1="-1406.94" y1="4309.55" x2="-1335.16" y2="4761.02" gradientUnits="userSpaceOnUse">
<stop stop-color="#18459F"/>
<stop offset="0.5" stop-color="#205DAA"/>
<stop offset="1" stop-color="#2874B5"/>
</linearGradient>
<linearGradient id="paint92_linear_4_3" x1="1779.06" y1="2477.95" x2="1688.25" y2="1890.68" gradientUnits="userSpaceOnUse">
<stop stop-color="#F9B776"/>
<stop offset="0.5" stop-color="#F7986B"/>
<stop offset="1" stop-color="#F47960"/>
</linearGradient>
<linearGradient id="paint93_linear_4_3" x1="-1571.94" y1="4820.37" x2="-1606.67" y2="4287.87" gradientUnits="userSpaceOnUse">
<stop stop-color="#CB236D"/>
<stop offset="0.5" stop-color="#8B236D"/>
<stop offset="1" stop-color="#4C246D"/>
</linearGradient>
<linearGradient id="paint94_linear_4_3" x1="1408.06" y1="2437.21" x2="1636.3" y2="1901.74" gradientUnits="userSpaceOnUse">
<stop stop-color="#F9B776"/>
<stop offset="0.5" stop-color="#F7986B"/>
<stop offset="1" stop-color="#F47960"/>
</linearGradient>
<linearGradient id="paint95_linear_4_3" x1="-1686.94" y1="3462.45" x2="-1128.71" y2="3462.45" gradientUnits="userSpaceOnUse">
<stop stop-color="#2B3582"/>
<stop offset="0.5" stop-color="#202162"/>
<stop offset="1" stop-color="#150E42"/>
</linearGradient>
<linearGradient id="paint96_linear_4_3" x1="-1906.94" y1="4925.66" x2="-1941.67" y2="4393.15" gradientUnits="userSpaceOnUse">
<stop stop-color="#CB236D"/>
<stop offset="0.5" stop-color="#8B236D"/>
<stop offset="1" stop-color="#4C246D"/>
</linearGradient>
</defs>
</svg>
