<svg width="224" height="213" viewBox="0 0 224 213" fill="none" xmlns="http://www.w3.org/2000/svg">
<path d="M181.182 93.2627V195.936H178.403V93.2627H181.182Z" fill="#33226C"/>
<path d="M45.5473 93.2627V195.936H42.7683V93.2627H45.5473Z" fill="#33226C"/>
<path d="M222.786 95.4893H0.775657C0.347296 95.4893 3.05176e-05 95.1262 3.05176e-05 94.6783V93.7174C3.05176e-05 93.2695 0.347296 92.9062 0.775657 92.9062H222.786C223.215 92.9062 223.562 93.2695 223.562 93.7174V94.6783C223.562 95.1262 223.215 95.4893 222.786 95.4893Z" fill="#33226C"/>
<g style="mix-blend-mode:color-dodge" opacity="0.51">
<path d="M222.786 92.9072H0.775688C0.347327 92.9072 6.10352e-05 93.2703 6.10352e-05 93.7182V94.4366C6.10352e-05 93.9887 0.347327 93.6256 0.775688 93.6256H222.786C223.215 93.6256 223.562 93.9887 223.562 94.4366V93.7182C223.562 93.2703 223.215 92.9072 222.786 92.9072Z" fill="#33226C"/>
</g>
<path d="M216.539 93.2627V195.936H213.76V93.2627H216.539Z" fill="#33226C"/>
<path d="M10.1899 93.2627V195.936H7.41089V93.2627H10.1899Z" fill="#33226C"/>
<path d="M146.324 61.9434C146.324 61.9434 153.159 73.9154 153.159 81.5746C153.159 85.9198 148.321 90.72 148.321 90.72L121.158 90.6791C121.158 90.6791 137.02 86.0334 133.026 75.8449C129.032 65.6564 126.561 61.9434 126.561 61.9434H146.324Z" fill="#471F5E"/>
<path d="M78.4897 63.6179L87.0406 0H193.82L185.27 63.6179H78.4897Z" fill="#471F5E"/>
<path d="M183.894 61.9434H80.316L88.4167 1.67383H191.994L183.894 61.9434Z" fill="url(#paint0_linear_37_4190)"/>
<g style="mix-blend-mode:color-dodge" opacity="0.1">
<path d="M83.3846 40.0208C92.9777 49.077 108.419 54.953 125.834 54.953C154.935 54.953 178.525 38.5478 178.525 18.311C178.525 12.3208 176.458 6.66652 172.793 1.67383H88.5388L83.3846 40.0208Z" fill="url(#paint1_linear_37_4190)"/>
</g>
<path d="M141.401 21.1979C141.004 24.1533 138.391 26.5491 135.564 26.5491C132.738 26.5491 130.768 24.1533 131.166 21.1979C131.563 18.2425 134.176 15.8467 137.003 15.8467C139.829 15.8467 141.799 18.2425 141.401 21.1979Z" fill="#F1F2F2"/>
<path d="M143.897 33.8956H124.653C124.24 33.8956 123.922 33.5134 123.98 33.0855L124.069 32.4218C124.116 32.0708 124.403 31.8096 124.742 31.8096H143.986C144.399 31.8096 144.717 32.1918 144.659 32.6197L144.57 33.2833C144.523 33.6344 144.236 33.8956 143.897 33.8956Z" fill="#F1F2F2"/>
<path d="M143.242 38.8038H123.998C123.585 38.8038 123.267 38.4216 123.324 37.9937L123.414 37.33C123.461 36.979 123.748 36.7178 124.087 36.7178H143.331C143.744 36.7178 144.062 37.1 144.004 37.5279L143.915 38.1915C143.868 38.5426 143.581 38.8038 143.242 38.8038Z" fill="#F1F2F2"/>
<g opacity="0.999139">
<path d="M134.989 46.5616H129.888C129.475 46.5616 129.157 46.1794 129.215 45.7515L129.304 45.0878C129.351 44.7368 129.638 44.4756 129.977 44.4756H135.078C135.491 44.4756 135.809 44.8578 135.751 45.2857L135.662 45.9493C135.615 46.3004 135.328 46.5616 134.989 46.5616Z" fill="#FFB300"/>
</g>
<path d="M30.3116 77.8029C30.3538 76.9655 29.7174 76.2627 28.9154 76.2627H22.8123H19.7331H13.63C12.828 76.2627 12.1916 76.9655 12.2338 77.8029C12.389 80.8863 13.1932 87.9461 17.2096 92.9069H19.7331H22.8123H25.3358C29.3522 87.9461 30.1564 80.8863 30.3116 77.8029Z" fill="#FFB300"/>
<path d="M18.851 76.1576C18.851 76.1576 11.0366 65.4246 13.347 42.6995C25.5025 56.9531 21.273 76.246 21.273 76.246L18.851 76.1576Z" fill="url(#paint2_linear_37_4190)"/>
<g style="mix-blend-mode:multiply" opacity="0.19">
<path d="M13.3469 42.7004C13.3442 42.7271 13.3422 42.7533 13.3394 42.78C22.7795 56.208 19.4643 72.3149 18.5968 75.7758C18.7586 76.0312 18.8511 76.1584 18.8511 76.1584L21.2731 76.2469C21.2731 76.2469 25.5025 56.9541 13.3469 42.7004Z" fill="url(#paint3_linear_37_4190)"/>
</g>
<path d="M28.5709 32.0688C28.5709 32.0688 16.6248 44.9267 21.272 76.3105L22.8109 76.3596C22.8109 76.3596 31.8145 53.1166 28.5709 32.0688Z" fill="url(#paint4_linear_37_4190)"/>
<path d="M36.057 49.5216C36.057 49.5216 26.292 56.69 22.8124 76.2624L24.0291 76.2883C24.0291 76.2883 36.7765 63.3584 36.057 49.5216Z" fill="url(#paint5_linear_37_4190)"/>
<g style="mix-blend-mode:multiply" opacity="0.52">
<path d="M22.8124 92.9068H25.3358C26.2468 91.7816 26.9911 90.5478 27.6016 89.2775C18.3252 88.4894 17.404 81.5056 17.4188 78.6559C17.4222 77.9915 16.9049 77.4531 16.2694 77.4531H12.2574C12.2371 77.5659 12.2278 77.6826 12.2338 77.8027C12.389 80.8861 13.1934 87.946 17.2097 92.9068H19.7331H22.8124Z" fill="#FFB300"/>
</g>
<path d="M161.063 90.7197V92.9065H115.909V90.7197H161.063Z" fill="url(#paint6_linear_37_4190)"/>
<g style="mix-blend-mode:multiply" opacity="0.44">
<path d="M161.063 91.4854V92.9073H115.909V91.4854H161.063Z" fill="url(#paint7_linear_37_4190)"/>
</g>
<path d="M111.009 183.559C111.009 183.559 107.225 193.987 109.633 195.336C112.041 196.685 134.482 195.336 134.482 195.336C134.482 195.336 136.459 191.26 130.441 189.747C124.422 188.234 121.671 184.458 121.671 184.458L111.009 183.559Z" fill="#FFB300"/>
<path d="M71.9369 183.559C71.9369 183.559 68.1536 193.987 70.5612 195.336C72.9687 196.685 95.4099 195.336 95.4099 195.336C95.4099 195.336 97.3875 191.26 91.3687 189.747C85.35 188.234 82.5986 184.458 82.5986 184.458L71.9369 183.559Z" fill="#FFB300"/>
<path d="M57.0888 112.085C57.0888 112.085 86.9353 114.249 97.7418 124.15C101.137 129.531 102.99 129.962 83.6394 184.635C83.6394 184.635 76.0226 188.509 70.8761 183.558C76.846 161.388 79.7281 139.433 79.7281 139.433C79.7281 139.433 63.7242 140.23 58.3099 137.34C48.6313 132.174 47.6245 117.886 57.0888 112.085Z" fill="#31236C"/>
<g style="mix-blend-mode:multiply" opacity="0.3">
<path d="M57.0888 112.085C57.0888 112.085 86.9353 114.249 97.7418 124.15C101.137 129.531 102.99 129.962 83.6394 184.635C83.6394 184.635 76.0226 188.509 70.8761 183.558C76.846 161.388 79.7281 139.433 79.7281 139.433C79.7281 139.433 63.7242 140.23 58.3099 137.34C48.6313 132.174 47.6245 117.886 57.0888 112.085Z" fill="#31236C"/>
</g>
<path d="M96.141 112.085C96.141 112.085 125.987 114.249 136.794 124.15C140.189 129.531 142.042 129.962 122.691 184.635C122.691 184.635 115.075 188.509 109.928 183.558C115.898 161.388 118.78 139.433 118.78 139.433C118.78 139.433 96.1358 142.016 90.7835 139.002C85.4312 135.989 86.6768 117.886 96.141 112.085Z" fill="#31236C"/>
<g style="mix-blend-mode:multiply" opacity="0.3">
<path d="M115.843 186.06C120.607 169.576 126.137 138.242 126.137 138.242L118.78 139.433C118.78 139.433 116.382 157.701 111.43 177.736C111.112 179.811 110.803 181.996 110.553 184.106C112.217 185.44 114.082 185.963 115.843 186.06Z" fill="#31236C"/>
</g>
<path d="M99.6655 24.2301C99.6655 24.2301 100.098 27.467 98.7072 31.8287C97.9895 34.0799 98.0183 36.5246 98.8739 38.7224C98.8802 38.7387 98.8865 38.7549 98.8928 38.7708C99.1436 39.4076 98.8995 40.1385 98.3211 40.468C98.1778 40.5497 98.015 40.6304 97.8303 40.707C97.2997 40.9268 96.8944 41.3885 96.7512 41.9662L95.8859 45.4579L90.2322 44.1027L89.0957 30.8513L94.134 21.8456L99.6655 24.2301Z" fill="#FBB1A6"/>
<path d="M87.3224 44.68C87.3224 44.68 85.3471 46.9743 84.8804 51.6956L71.5705 50.3482L73.6883 44L82.8707 27.0691L87.9224 26.715C87.9224 26.715 89.1221 33.764 87.3224 44.68Z" fill="#FBB1A6"/>
<path d="M95.6101 46.8791C95.3383 48.281 93.98 49.1482 92.6663 48.749C90.1448 47.9826 86.6703 46.2786 87.187 42.7703C87.9862 37.3432 89.0423 28.3358 85.6748 28.4283C82.3072 28.5208 82.7146 32.7713 84.1132 36.1249C85.5117 39.4785 78.9425 44.982 73.6883 44.0004C73.6883 44.0004 74.1817 40.5366 71.6033 36.5297C68.0915 31.0721 67.2937 27.8289 67.1861 24.8814C67.0785 21.934 68.3737 18.1045 72.1176 17.0207C73.3899 13.5145 79.6362 8.0801 96.7723 14.9232C97.2966 15.1326 97.8339 15.3077 98.385 15.4183C101.151 15.9732 103.078 15.1358 103.078 15.1358C103.078 15.1358 103.684 19.8591 101.342 22.9014C100.369 24.1652 98.8256 24.8007 97.2879 24.5845C93.7402 24.0856 91.9229 25.9126 91.1609 28.6286C90.3036 31.6844 88.8638 41.8984 91.5567 43.5043C94.2496 45.1102 95.8859 45.4571 95.8859 45.4571L95.6101 46.8791Z" fill="url(#paint8_linear_37_4190)"/>
<g style="mix-blend-mode:multiply" opacity="0.26">
<path d="M81.6748 51.372L84.8804 51.6965C85.3471 46.9752 87.3224 44.6809 87.3224 44.6809C87.456 43.8704 87.5727 43.0817 87.675 42.3152C86.4114 42.9527 82.3473 45.631 81.6748 51.372Z" fill="#FBB1A6"/>
</g>
<g style="mix-blend-mode:multiply">
<path d="M95.6477 46.6858L95.8859 45.4578C95.8859 45.4578 94.2496 45.1107 91.5568 43.5048C89.2949 42.1558 89.9487 34.7341 90.724 30.5821C89.8178 30.7115 88.8697 31.0952 87.8818 31.7903C88.2485 34.8867 87.6709 39.4849 87.187 42.771C86.6847 46.1828 89.9567 47.8881 92.4562 48.6841C93.8735 49.1354 95.3533 48.2041 95.6477 46.6858Z" fill="url(#paint9_linear_37_4190)"/>
<path d="M71.2953 36.0463C71.3956 36.2059 71.4982 36.3673 71.6034 36.5308C74.1817 40.5377 73.6883 44.0017 73.6883 44.0017C78.9425 44.9832 85.5118 39.4797 84.1132 36.1261C84.0034 35.8627 83.9006 35.5934 83.8043 35.3215C79.5261 38.2891 75.0442 37.7071 71.2953 36.0463Z" fill="url(#paint10_linear_37_4190)"/>
</g>
<path d="M66.301 50.7036C66.301 50.7036 57.4736 50.4891 48.8897 66.9752C40.3057 83.4613 40.5651 85.0507 40.5651 85.0507C40.5651 85.0507 35.7646 102.249 60.7183 95.1909L66.301 50.7036Z" fill="url(#paint11_linear_37_4190)"/>
<g style="mix-blend-mode:multiply" opacity="0.33">
<path d="M64.6166 67.5468C63.6681 63.3799 62.8692 60.582 62.8692 60.582C62.8692 60.582 40.4537 83.6832 48.8279 96.8063C51.7862 97.1205 55.7767 96.7256 61.1455 95.2071L64.6166 67.5468Z" fill="url(#paint12_linear_37_4190)"/>
</g>
<path d="M135.387 80.7485C135.387 80.7485 141.021 78.397 143.911 80.0946C147.15 81.9977 148.658 84.6515 149.539 88.9841C150.244 92.4518 145.624 86.8303 144.687 86.4253C143.75 86.0203 141.903 90.2697 139.199 89.2671C136.496 88.2645 134.984 81.3514 134.984 81.3514" fill="#FBB1A6"/>
<path d="M134.55 80.4584C133.158 80.4158 123.142 81.2402 118.234 81.654C116.581 81.7935 114.992 80.9588 114.114 79.4878C110.39 73.2531 100.502 56.9016 98.3258 55.396C96.0387 53.6919 89.0052 54.074 88.8245 59.8328C88.5617 68.2053 93.153 75.0852 95.991 80.5449C97.5833 81.0521 102.99 95.8742 109.964 97.8189C115.942 99.4854 123.617 96.1532 139.111 89.9153C139.721 85.4845 136.405 80.5153 134.55 80.4584Z" fill="url(#paint13_linear_37_4190)"/>
<g style="mix-blend-mode:multiply" opacity="0.33">
<path d="M138.312 85.1705C136.449 86.4597 116.746 99.6767 108.079 88.3318C103.537 82.3856 100.273 76.323 97.2256 72.8693C91.0401 64.71 88.2916 68.8097 95.9908 80.5455C95.9873 80.5857 95.9835 80.6298 95.9798 80.6732C97.7409 81.9595 103.033 95.9775 109.803 97.865C115.78 99.5316 123.455 96.1993 138.949 89.9615C139.172 88.3479 138.872 86.6638 138.312 85.1705Z" fill="url(#paint14_linear_37_4190)"/>
</g>
<path d="M51.7228 86.9919C51.7228 86.9919 51.8259 77.7344 55.087 66.4384C58.3481 55.1423 59.411 48.1701 78.4959 50.2186C97.5809 52.2671 96.1556 53.5074 98.7365 55.5401C100.821 57.1819 96.0179 74.7144 94.9379 80.4931C94.387 84.2113 92.2118 101.875 95.8326 110.787C99.8297 120.625 69.2474 135.662 50.4838 123.992C51.4758 100.552 51.7228 86.9919 51.7228 86.9919Z" fill="url(#paint15_linear_37_4190)"/>
<g style="mix-blend-mode:multiply" opacity="0.33">
<path d="M87.0297 72.5403C79.1386 81.1305 77.6504 105.409 77.7987 106.401C77.8984 107.069 81.1635 117.824 83.2896 124.791C91.8246 121.18 97.541 115.431 95.6684 110.822C92.0476 101.91 94.2228 84.2467 94.7738 80.5285C94.8197 80.5465 94.8684 80.5779 94.9193 80.6202C94.9256 80.577 94.9319 80.5333 94.9378 80.4934C95.2602 78.7681 95.9146 75.9952 96.6183 72.9103C93.7682 69.2551 90.9825 68.2374 87.0297 72.5403Z" fill="url(#paint16_linear_37_4190)"/>
</g>
<path d="M98.6247 139.328L95.9604 140.25C95.1406 140.534 94.7131 141.476 95.021 142.32L116.897 202.233C117.146 202.915 117.807 203.33 118.5 203.24C119.447 203.117 120.051 202.12 119.752 201.171L100.54 140.335C100.277 139.504 99.4197 139.053 98.6247 139.328Z" fill="url(#paint17_linear_37_4190)"/>
<path d="M76.4163 138.273L79.1691 138.845C80.0162 139.021 80.5515 139.9 80.3453 140.777L65.7018 203.054C65.5352 203.762 64.9278 204.26 64.2303 204.26C63.2754 204.26 62.5584 203.348 62.7437 202.368L74.6345 139.519C74.797 138.66 75.595 138.102 76.4163 138.273Z" fill="url(#paint18_linear_37_4190)"/>
<path d="M58.7904 138.989L61.8222 139.859C62.7551 140.127 63.2858 141.154 62.9883 142.116L41.8581 210.47C41.6178 211.247 40.9009 211.753 40.1216 211.694C39.0547 211.614 38.3235 210.535 38.6057 209.456L56.7042 140.233C56.9515 139.287 57.8858 138.73 58.7904 138.989Z" fill="url(#paint19_linear_37_4190)"/>
<path d="M44.2595 115.971C44.2595 115.971 41.3774 85.1904 66.2863 85.1904C93.4838 85.1904 89.5483 114.249 96.7821 125.227C99.8127 132.069 104.975 137.49 109.922 140.183C114.869 142.877 79.5463 154.95 60.5223 143.63C44.8771 134.321 44.2595 115.971 44.2595 115.971Z" fill="#362478"/>
<path d="M110.014 140.183C105.068 137.49 99.9052 132.069 96.8746 125.227C89.6408 114.249 93.5763 85.1904 66.3788 85.1904C57.867 85.1904 52.6009 88.7852 49.3554 93.5173C52.2624 91.7849 55.9322 90.7203 60.5635 90.7203C87.761 90.7203 83.8255 119.779 91.0593 130.756C93.8439 137.044 98.4286 142.129 102.992 145.003C108.602 143.179 111.73 141.117 110.014 140.183Z" fill="url(#paint20_linear_37_4190)"/>
<path d="M84.5993 138.802C82.7919 139.177 81.6498 141.054 82.0897 142.925L98.1087 211.052C98.2952 211.845 98.9757 212.403 99.757 212.403C100.827 212.403 101.63 211.381 101.422 210.284L88.4013 141.462C88.0545 139.629 86.3517 138.438 84.5993 138.802Z" fill="url(#paint21_linear_37_4190)"/>
<path d="M216.031 64.1133H192.847L181.182 92.8488H204.366L216.031 64.1133Z" fill="#F1F2F2"/>
<g style="mix-blend-mode:color-dodge" opacity="0.46">
<path d="M207.02 64.1133H192.841L183.432 87.2902C185.653 88.5001 188.141 89.1781 190.768 89.1781C200.161 89.1781 207.776 80.5159 207.776 69.8307C207.776 67.8404 207.511 65.9204 207.02 64.1133Z" fill="#F1F2F2"/>
</g>
<path d="M216.031 64.1133L219.857 92.8488H204.366L216.031 64.1133Z" fill="#D1D3D4"/>
<path d="M208.595 75.3781H192.204C191.884 75.3781 191.668 75.037 191.793 74.7295C191.863 74.5572 192.025 74.4453 192.204 74.4453H208.595C208.915 74.4453 209.131 74.7864 209.006 75.0939C208.936 75.2662 208.774 75.3781 208.595 75.3781Z" fill="#D1D3D4"/>
<path d="M207.335 78.4816H190.944C190.624 78.4816 190.408 78.1405 190.533 77.833C190.603 77.6607 190.765 77.5488 190.944 77.5488H207.335C207.655 77.5488 207.871 77.8899 207.746 78.1974C207.676 78.3697 207.514 78.4816 207.335 78.4816Z" fill="#D1D3D4"/>
<path d="M206.076 81.5841H189.684C189.365 81.5841 189.149 81.243 189.274 80.9355C189.343 80.7633 189.505 80.6514 189.684 80.6514H206.076C206.395 80.6514 206.611 80.9924 206.486 81.3C206.416 81.4722 206.255 81.5841 206.076 81.5841Z" fill="#D1D3D4"/>
<path d="M198.868 84.2111H188.618C188.298 84.2111 188.082 83.87 188.207 83.5625C188.277 83.3902 188.439 83.2783 188.618 83.2783H198.868C199.188 83.2783 199.403 83.6194 199.279 83.9269C199.209 84.0992 199.047 84.2111 198.868 84.2111Z" fill="#D1D3D4"/>
<path d="M202.508 90.3741H192.257C191.938 90.3741 191.722 90.0331 191.847 89.7255C191.917 89.5533 192.078 89.4414 192.257 89.4414H202.508C202.827 89.4414 203.043 89.7825 202.918 90.09C202.848 90.2622 202.687 90.3741 202.508 90.3741Z" fill="#D1D3D4"/>
<path d="M196.508 67.3721L194.713 71.7962H193.733L195.529 67.3721H196.508Z" fill="#D1D3D4"/>
<path d="M197.664 67.3721L197.325 68.2063H197.699H199.101L196.127 71.7962H197.191L200.289 68.0357L200.558 67.3721H197.664Z" fill="#D1D3D4"/>
<path d="M207.738 71.3472H204.366L205.797 67.8213H209.169L207.738 71.3472Z" fill="#FFB300"/>
<defs>
<linearGradient id="paint0_linear_37_4190" x1="129.521" y1="-28.3462" x2="143.42" y2="87.8481" gradientUnits="userSpaceOnUse">
<stop stop-color="#6AD0FB"/>
<stop offset="0.77" stop-color="#6783D6"/>
<stop offset="1" stop-color="#6336B2"/>
</linearGradient>
<linearGradient id="paint1_linear_37_4190" x1="83.3507" y1="28.2738" x2="178.491" y2="28.2738" gradientUnits="userSpaceOnUse">
<stop stop-color="#6AD0FB"/>
<stop offset="0.77" stop-color="#6783D6"/>
<stop offset="1" stop-color="#6336B2"/>
</linearGradient>
<linearGradient id="paint2_linear_37_4190" x1="11.903" y1="35.0426" x2="25.4096" y2="92.8843" gradientUnits="userSpaceOnUse">
<stop stop-color="#43295D"/>
<stop offset="0.5" stop-color="#5D3A72"/>
<stop offset="1" stop-color="#774B88"/>
</linearGradient>
<linearGradient id="paint3_linear_37_4190" x1="12.7676" y1="34.7768" x2="26.2742" y2="92.6186" gradientUnits="userSpaceOnUse">
<stop stop-color="#43295D"/>
<stop offset="0.5" stop-color="#5D3A72"/>
<stop offset="1" stop-color="#774B88"/>
</linearGradient>
<linearGradient id="paint4_linear_37_4190" x1="24.8854" y1="28.8621" x2="24.1449" y2="90.8978" gradientUnits="userSpaceOnUse">
<stop stop-color="#6AD0FB"/>
<stop offset="0.77" stop-color="#6783D6"/>
<stop offset="1" stop-color="#6336B2"/>
</linearGradient>
<linearGradient id="paint5_linear_37_4190" x1="34.4174" y1="49.9713" x2="21.3027" y2="83.428" gradientUnits="userSpaceOnUse">
<stop stop-color="#6AD0FB"/>
<stop offset="0.77" stop-color="#6783D6"/>
<stop offset="1" stop-color="#6336B2"/>
</linearGradient>
<linearGradient id="paint6_linear_37_4190" x1="128.096" y1="66.5667" x2="152.655" y2="121.077" gradientUnits="userSpaceOnUse">
<stop stop-color="#965BF1"/>
<stop offset="0.5" stop-color="#A961F6"/>
<stop offset="1" stop-color="#BB68FA"/>
</linearGradient>
<linearGradient id="paint7_linear_37_4190" x1="128.381" y1="67.9084" x2="152.107" y2="120.568" gradientUnits="userSpaceOnUse">
<stop stop-color="#965BF1"/>
<stop offset="0.5" stop-color="#A961F6"/>
<stop offset="1" stop-color="#BB68FA"/>
</linearGradient>
<linearGradient id="paint8_linear_37_4190" x1="62.4539" y1="39.3285" x2="104.503" y2="24.6136" gradientUnits="userSpaceOnUse">
<stop stop-color="#43295D"/>
<stop offset="0.5" stop-color="#5D3A72"/>
<stop offset="1" stop-color="#774B88"/>
</linearGradient>
<linearGradient id="paint9_linear_37_4190" x1="89.6757" y1="14.083" x2="91.6021" y2="43.2231" gradientUnits="userSpaceOnUse">
<stop stop-color="#43295D"/>
<stop offset="0.5" stop-color="#5D3A72"/>
<stop offset="1" stop-color="#774B88"/>
</linearGradient>
<linearGradient id="paint10_linear_37_4190" x1="76.4014" y1="14.4934" x2="78.3942" y2="44.6365" gradientUnits="userSpaceOnUse">
<stop stop-color="#43295D"/>
<stop offset="0.5" stop-color="#5D3A72"/>
<stop offset="1" stop-color="#774B88"/>
</linearGradient>
<linearGradient id="paint11_linear_37_4190" x1="42.363" y1="64.536" x2="89.7954" y2="93.2109" gradientUnits="userSpaceOnUse">
<stop stop-color="#9A72F6"/>
<stop offset="0.5" stop-color="#865FED"/>
<stop offset="1" stop-color="#724CE4"/>
</linearGradient>
<linearGradient id="paint12_linear_37_4190" x1="47.3221" y1="78.2848" x2="64.2244" y2="78.8493" gradientUnits="userSpaceOnUse">
<stop stop-color="#9A72F6"/>
<stop offset="0.5" stop-color="#865FED"/>
<stop offset="1" stop-color="#724CE4"/>
</linearGradient>
<linearGradient id="paint13_linear_37_4190" x1="51.856" y1="73.9797" x2="139.116" y2="78.0617" gradientUnits="userSpaceOnUse">
<stop stop-color="#9A72F6"/>
<stop offset="0.5" stop-color="#865FED"/>
<stop offset="1" stop-color="#724CE4"/>
</linearGradient>
<linearGradient id="paint14_linear_37_4190" x1="85.2125" y1="68.2977" x2="193.707" y2="128.099" gradientUnits="userSpaceOnUse">
<stop stop-color="#9A72F6"/>
<stop offset="0.5" stop-color="#865FED"/>
<stop offset="1" stop-color="#724CE4"/>
</linearGradient>
<linearGradient id="paint15_linear_37_4190" x1="49.6118" y1="86.5683" x2="136.521" y2="95.7443" gradientUnits="userSpaceOnUse">
<stop stop-color="#9A72F6"/>
<stop offset="0.5" stop-color="#865FED"/>
<stop offset="1" stop-color="#724CE4"/>
</linearGradient>
<linearGradient id="paint16_linear_37_4190" x1="77.9882" y1="95.0592" x2="105.688" y2="100.593" gradientUnits="userSpaceOnUse">
<stop stop-color="#9A72F6"/>
<stop offset="0.5" stop-color="#865FED"/>
<stop offset="1" stop-color="#724CE4"/>
</linearGradient>
<linearGradient id="paint17_linear_37_4190" x1="110.283" y1="209.011" x2="104.078" y2="138.942" gradientUnits="userSpaceOnUse">
<stop stop-color="#43295D"/>
<stop offset="0.5" stop-color="#5D3A72"/>
<stop offset="1" stop-color="#774B88"/>
</linearGradient>
<linearGradient id="paint18_linear_37_4190" x1="74.8007" y1="212.14" x2="68.5952" y2="142.072" gradientUnits="userSpaceOnUse">
<stop stop-color="#43295D"/>
<stop offset="0.5" stop-color="#5D3A72"/>
<stop offset="1" stop-color="#774B88"/>
</linearGradient>
<linearGradient id="paint19_linear_37_4190" x1="38.1782" y1="205.734" x2="65.8978" y2="135.671" gradientUnits="userSpaceOnUse">
<stop stop-color="#43295D"/>
<stop offset="0.5" stop-color="#5D3A72"/>
<stop offset="1" stop-color="#774B88"/>
</linearGradient>
<linearGradient id="paint20_linear_37_4190" x1="49.2932" y1="114.992" x2="110.422" y2="114.992" gradientUnits="userSpaceOnUse">
<stop stop-color="#533AA9"/>
<stop offset="0.5" stop-color="#412D8D"/>
<stop offset="1" stop-color="#2F2070"/>
</linearGradient>
<linearGradient id="paint21_linear_37_4190" x1="99.1682" y1="222.571" x2="82.3862" y2="128.278" gradientUnits="userSpaceOnUse">
<stop stop-color="#43295D"/>
<stop offset="0.5" stop-color="#5D3A72"/>
<stop offset="1" stop-color="#774B88"/>
</linearGradient>
</defs>
</svg>
