<svg width="1080" height="594" viewBox="0 0 1080 594" fill="none" xmlns="http://www.w3.org/2000/svg">
<mask id="mask0_4_2296" style="mask-type:luminance" maskUnits="userSpaceOnUse" x="0" y="0" width="1080" height="594">
<path d="M1080 0H0V594H1080V0Z" fill="white"/>
</mask>
<g mask="url(#mask0_4_2296)">
<path d="M455.149 148.471L459.319 162.743L467.447 162.149C468.507 163.978 469.695 165.75 471.02 167.454L466.758 174.38L477.503 184.651L484.955 179.586C486.598 180.53 488.287 181.368 490.007 182.099L489.758 191.011L504.2 194.533L508.383 185.882C510.097 185.891 511.81 185.806 513.516 185.631L517.994 193.914L532.26 189.744L531.546 180.012C533.011 179.206 534.442 178.318 535.833 177.347L543.899 182.31L554.17 171.564L548.845 163.73C549.807 162.209 550.673 160.648 551.446 159.053L560.53 159.306L564.051 144.865L556.114 141.029C556.226 139.035 556.219 137.038 556.081 135.047L563.433 131.071L559.263 116.802L551.354 117.383C550.365 115.361 549.221 113.397 547.928 111.505L551.828 105.169L541.081 94.8977L535.227 98.8733C533.113 97.4435 530.909 96.202 528.642 95.1503L528.827 88.5371L514.386 85.0149L511.568 90.8424C508.88 90.6777 506.182 90.7417 503.506 91.0299L500.591 85.637L486.318 89.8013L486.778 96.0548C484.381 97.2954 482.066 98.7527 479.867 100.427L474.684 97.2356L464.413 107.981L468.099 113.405C466.707 115.663 465.522 118.01 464.543 120.421L458.053 120.239L454.531 134.682L461.066 137.84C461.042 140.24 461.195 142.642 461.534 145.022L455.149 148.471ZM485.912 116.612C497.899 104.065 517.791 103.614 530.335 115.602C542.885 127.596 543.331 147.486 531.341 160.029C519.352 172.575 499.46 173.026 486.912 161.033C474.37 149.045 473.925 129.153 485.912 116.612Z" fill="#A3A3D1"/>
<path d="M468.69 235.61H310.203C298.98 235.61 289.85 226.48 289.85 215.257C289.85 204.035 298.98 194.905 310.203 194.905H468.69C479.913 194.905 489.043 204.035 489.043 215.257C489.043 226.48 479.913 235.61 468.69 235.61ZM310.203 195.988C299.577 195.988 290.933 204.632 290.933 215.257C290.933 225.883 299.577 234.527 310.203 234.527H468.69C479.316 234.527 487.96 225.883 487.96 215.257C487.96 204.632 479.316 195.988 468.69 195.988H310.203Z" fill="white"/>
<path d="M468.116 220.267C467.977 220.267 467.839 220.215 467.733 220.109L465.567 217.942C465.355 217.73 465.355 217.389 465.567 217.177C465.779 216.965 466.121 216.965 466.333 217.177L468.499 219.343C468.711 219.555 468.711 219.897 468.499 220.109C468.393 220.215 468.255 220.267 468.116 220.267Z" fill="white"/>
<path d="M472.449 226.766C472.31 226.766 472.172 226.714 472.066 226.608L466.65 221.192C466.438 220.98 466.438 220.638 466.65 220.426L468.816 218.26C469.028 218.048 469.37 218.048 469.582 218.26L474.998 223.676C475.21 223.888 475.21 224.229 474.998 224.441L472.832 226.608C472.726 226.714 472.588 226.766 472.449 226.766ZM467.799 220.809L472.449 225.459L473.849 224.059L469.199 219.409L467.799 220.809Z" fill="white"/>
<path d="M460.534 220.267C456.054 220.267 452.41 216.624 452.41 212.144C452.41 207.664 456.054 204.02 460.534 204.02C465.014 204.02 468.658 207.664 468.658 212.144C468.658 216.624 465.014 220.267 460.534 220.267ZM460.534 205.103C456.652 205.103 453.493 208.262 453.493 212.144C453.493 216.026 456.652 219.184 460.534 219.184C464.416 219.184 467.574 216.026 467.574 212.144C467.574 208.262 464.416 205.103 460.534 205.103Z" fill="white"/>
<path d="M321.613 221.55C321.613 221.55 321.613 220.987 321.613 220.694C321.613 217.858 319.314 215.559 316.479 215.559C315.543 215.559 312.28 215.559 311.345 215.559C308.508 215.559 306.21 217.858 306.21 220.694C306.21 220.987 306.21 221.55 306.21 221.55H321.613Z" fill="white"/>
<path d="M317.335 209.569C317.335 211.458 315.803 212.991 313.911 212.991C312.021 212.991 310.489 211.458 310.489 209.569C310.489 207.679 312.021 206.145 313.911 206.145C315.803 206.145 317.335 207.679 317.335 209.569Z" fill="white"/>
<path d="M528.177 303.74H490.778V302.379H528.177V303.74Z" fill="white"/>
<path d="M526.552 323.252H503.788V321.89H526.552V323.252Z" fill="white"/>
<path d="M516.796 329.757H503.788V328.396H516.796V329.757Z" fill="white"/>
<path d="M526.552 337.886H503.788V336.524H526.552V337.886Z" fill="white"/>
<path d="M516.796 344.391H503.788V343.03H516.796V344.391Z" fill="white"/>
<path d="M526.552 352.52H503.788V351.159H526.552V352.52Z" fill="white"/>
<path d="M516.796 359.025H503.788V357.664H516.796V359.025Z" fill="white"/>
<path d="M521.673 310.244H490.778V308.882H521.673V310.244Z" fill="white"/>
<path d="M499.45 329.618H491.864V322.03H499.45V329.618ZM492.948 328.535H498.367V323.113H492.948V328.535Z" fill="white"/>
<path d="M499.45 344.252H491.864V336.664H499.45V344.252ZM492.948 343.169H498.367V337.747H492.948V343.169Z" fill="white"/>
<path d="M499.45 358.886H491.864V351.298H499.45V358.886ZM492.948 357.803H498.367V352.381H492.948V357.803Z" fill="white"/>
<path d="M488.071 316.067H466.389V294.386H488.071V316.067Z" fill="#A3A3D1"/>
<path d="M475.332 310.526L470.786 305.979L471.748 305.016L475.332 308.6L484.608 299.326L485.57 300.288L475.332 310.526Z" fill="white"/>
<path d="M524.742 130.344C524.742 136.765 519.538 141.969 513.118 141.969H373.622C367.202 141.969 361.997 136.765 361.997 130.344V129.287C361.997 122.867 367.202 117.663 373.622 117.663H513.118C519.538 117.663 524.742 122.867 524.742 129.287V130.344Z" fill="#A3A3D1"/>
<path d="M540.594 198.494C540.594 204.914 535.389 210.119 528.969 210.119H411.667C405.246 210.119 400.041 204.914 400.041 198.494V168.905C400.041 162.484 405.246 157.279 411.667 157.279H528.969C535.389 157.279 540.594 162.484 540.594 168.905V198.494Z" fill="#A3A3D1"/>
<path d="M420.121 132.978H373.565V126.654H420.121V132.978Z" fill="#D1DBEA"/>
<path d="M518.403 132.978H425.349V126.654H518.403V132.978Z" fill="#D1DBEA"/>
<path d="M325.781 129.817C325.781 136.857 331.49 142.565 338.53 142.565C345.57 142.565 351.279 136.857 351.279 129.817C351.279 122.776 345.57 117.067 338.53 117.067C331.49 117.067 325.781 122.776 325.781 129.817Z" fill="#6A6AA8"/>
<path d="M463.449 173.135H411.609V166.812H463.449V173.135Z" fill="#D1DBEA"/>
<path d="M521.573 173.135H470.847V166.812H521.573V173.135Z" fill="#D1DBEA"/>
<path d="M508.89 186.873H411.609V180.55H508.89V186.873Z" fill="#D1DBEA"/>
<path d="M484.584 200.612H411.609V194.288H484.584V200.612Z" fill="#D1DBEA"/>
<path d="M363.825 169.975C363.825 177.015 369.533 182.722 376.573 182.722C383.614 182.722 389.323 177.015 389.323 169.975C389.323 162.934 383.614 157.226 376.573 157.226C369.533 157.226 363.825 162.934 363.825 169.975Z" fill="#A3A3D1"/>
<path d="M424.486 225.369H415.158V219.047H424.486V225.369Z" fill="#D8E5ED"/>
<path d="M438.836 225.369H429.508V219.047H438.836V225.369Z" fill="#D8E5ED"/>
<path d="M540.594 268.242C540.594 274.662 535.389 279.867 528.969 279.867H411.667C405.246 279.867 400.041 274.662 400.041 268.242V251.333C400.041 244.913 405.246 239.709 411.667 239.709H528.969C535.389 239.709 540.594 244.913 540.594 251.333V268.242Z" fill="#A3A3D1"/>
<path d="M489.868 255.564H411.609V249.241H489.868V255.564Z" fill="#D1DBEA"/>
<path d="M466.619 269.303H411.609V262.979H466.619V269.303Z" fill="#D1DBEA"/>
<path d="M363.825 252.403C363.825 259.444 369.533 265.151 376.573 265.151C383.614 265.151 389.323 259.444 389.323 252.403C389.323 245.361 383.614 239.654 376.573 239.654C369.533 239.654 363.825 245.361 363.825 252.403Z" fill="#6A6AA8"/>
<path d="M424.486 295.117H415.158V288.794H424.486V295.117Z" fill="#D8E5ED"/>
<path d="M438.836 295.117H429.508V288.794H438.836V295.117Z" fill="#D8E5ED"/>
<path d="M528.177 561.54H490.778V560.179H528.177V561.54Z" fill="white"/>
<path d="M526.552 581.052H503.788V579.69H526.552V581.052Z" fill="white"/>
<path d="M516.796 587.557H503.788V586.196H516.796V587.557Z" fill="white"/>
<path d="M521.673 568.044H490.778V566.682H521.673V568.044Z" fill="white"/>
<path d="M499.45 587.418H491.864V579.83H499.45V587.418ZM492.948 586.335H498.367V580.913H492.948V586.335Z" fill="white"/>
<path d="M488.071 573.867H466.389V552.186H488.071V573.867Z" fill="#A3A3D1"/>
<path d="M475.332 568.326L470.786 563.779L471.748 562.816L475.332 566.4L484.608 557.126L485.57 558.088L475.332 568.326Z" fill="white"/>
<path d="M524.742 388.144C524.742 394.565 519.538 399.769 513.118 399.769H373.622C367.202 399.769 361.997 394.565 361.997 388.144V387.087C361.997 380.667 367.202 375.463 373.622 375.463H513.118C519.538 375.463 524.742 380.667 524.742 387.087V388.144Z" fill="#A3A3D1"/>
<path d="M540.594 456.294C540.594 462.714 535.389 467.919 528.969 467.919H411.667C405.246 467.919 400.041 462.714 400.041 456.294V426.705C400.041 420.284 405.246 415.079 411.667 415.079H528.969C535.389 415.079 540.594 420.284 540.594 426.705V456.294Z" fill="#A3A3D1"/>
<path d="M420.121 390.778H373.565V384.454H420.121V390.778Z" fill="#D1DBEA"/>
<path d="M518.403 390.778H425.349V384.454H518.403V390.778Z" fill="#D1DBEA"/>
<path d="M325.781 387.617C325.781 394.657 331.49 400.365 338.53 400.365C345.57 400.365 351.279 394.657 351.279 387.617C351.279 380.576 345.57 374.867 338.53 374.867C331.49 374.867 325.781 380.576 325.781 387.617Z" fill="#6A6AA8"/>
<path d="M463.449 430.935H411.609V424.612H463.449V430.935Z" fill="#D1DBEA"/>
<path d="M521.573 430.935H470.847V424.612H521.573V430.935Z" fill="#D1DBEA"/>
<path d="M508.89 444.673H411.609V438.35H508.89V444.673Z" fill="#D1DBEA"/>
<path d="M484.584 458.412H411.609V452.088H484.584V458.412Z" fill="#D1DBEA"/>
<path d="M363.825 427.775C363.825 434.815 369.533 440.522 376.573 440.522C383.614 440.522 389.323 434.815 389.323 427.775C389.323 420.734 383.614 415.026 376.573 415.026C369.533 415.026 363.825 420.734 363.825 427.775Z" fill="#A3A3D1"/>
<path d="M424.486 483.169H415.158V476.847H424.486V483.169Z" fill="#D8E5ED"/>
<path d="M438.836 483.169H429.508V476.847H438.836V483.169Z" fill="#D8E5ED"/>
<path d="M540.594 526.042C540.594 532.462 535.389 537.667 528.969 537.667H411.667C405.246 537.667 400.041 532.462 400.041 526.042V509.133C400.041 502.713 405.246 497.509 411.667 497.509H528.969C535.389 497.509 540.594 502.713 540.594 509.133V526.042Z" fill="#A3A3D1"/>
<path d="M489.868 513.364H411.609V507.041H489.868V513.364Z" fill="#D1DBEA"/>
<path d="M466.619 527.103H411.609V520.779H466.619V527.103Z" fill="#D1DBEA"/>
<path d="M363.825 510.203C363.825 517.244 369.533 522.951 376.573 522.951C383.614 522.951 389.323 517.244 389.323 510.203C389.323 503.161 383.614 497.454 376.573 497.454C369.533 497.454 363.825 503.161 363.825 510.203Z" fill="#6A6AA8"/>
<path d="M424.486 552.917H415.158V546.594H424.486V552.917Z" fill="#D8E5ED"/>
<path d="M438.836 552.917H429.508V546.594H438.836V552.917Z" fill="#D8E5ED"/>
<path d="M205.94 451.842H167.396C160.94 451.842 155.303 447.473 153.693 441.221L142.125 396.288C142.125 396.288 187.235 381.422 201.539 393.941C215.843 406.46 205.94 451.842 205.94 451.842Z" fill="#C6E0F5"/>
<path d="M157.434 451.842H118.889C112.433 451.842 106.797 447.473 105.187 441.221C105.187 441.221 80.4428 389.961 88.6788 375.026C96.7758 360.341 140.549 360.138 159.758 393.941C169.149 410.467 157.434 451.842 157.434 451.842Z" fill="#C6E0F5"/>
<path d="M104.929 560.478L103 559.494L159.226 449.232L161.155 450.216L104.929 560.478Z" fill="#394277"/>
<path d="M231.448 560.478L175.222 450.216L177.151 449.232L233.378 559.494L231.448 560.478Z" fill="#394277"/>
<path d="M169.272 562.107H167.105V450.078H169.272V562.107Z" fill="#394277"/>
<path d="M117.171 452.606H209.022C213.796 452.606 217.667 448.735 217.667 443.961C217.667 439.187 213.796 435.316 209.022 435.316H117.171C112.397 435.316 108.526 439.187 108.526 443.961C108.526 448.735 112.397 452.606 117.171 452.606Z" fill="white"/>
<path d="M181.747 330.679C181.747 330.679 192.048 311.064 193.322 306.389C194.595 301.714 198.002 292.916 197.095 287.914C196.188 282.911 194.29 279.436 191.114 279.022C187.938 278.608 180.078 278.656 173.502 285.932C166.926 293.208 154.984 309.787 147.106 323.694C138.664 338.597 124.772 363.902 128.625 371.472C132.477 379.041 152.506 369.931 157.324 369.004C162.143 368.078 181.747 330.679 181.747 330.679Z" fill="white"/>
<path d="M228.784 378.012L154.881 336.109L137.49 346.657C129.973 351.218 135.307 362.228 146.279 364.801L218.957 382.53L228.784 378.012Z" fill="#EFAF9B"/>
<path d="M201.289 544.058L209.193 529.039H219.47L230.22 551.805L239.231 555.441V560.974H219.153L201.289 544.058Z" fill="#EFAF9B"/>
<path d="M204.892 535.205L202.047 540.527C200.64 543.161 200.365 546.367 201.3 549.253L201.512 549.907L203.483 563.187H205.314V550.856L221.683 563.187H244.079C245.069 563.187 245.871 562.385 245.871 561.395V560.317C245.871 558.089 244.548 556.134 242.636 555.538L230.662 551.805L225.434 555.033C223.549 556.197 221.198 555.744 219.767 553.941L204.892 535.205Z" fill="#23285C"/>
<path d="M218.61 397.042H274.623C286.241 397.042 293.484 409.641 287.638 419.681L219.787 531.727L205.47 535.812C205.47 535.812 215.449 484.943 225.567 455.221C232.13 435.943 242.641 434.984 242.641 434.984H191.102L218.61 397.042Z" fill="#EFAF9B"/>
<path d="M196.319 397.042H252.331C263.949 397.042 271.192 409.641 265.346 419.681L197.495 531.727L183.498 536.893C183.498 536.893 188.731 494.428 198.849 464.706C205.412 445.428 220.35 434.984 220.35 434.984H168.811L196.319 397.042Z" fill="#FDD7C5"/>
<path d="M116.006 364.79L100.607 403.914C94.2584 418.963 105.307 435.617 121.641 435.617H214.657C214.657 435.617 214.351 423.736 220.981 407.16C226.04 394.513 235.21 391.034 235.21 391.034H176.082L160.747 364.79H116.006Z" fill="#394277"/>
<path d="M179.473 544.058L187.377 529.039H197.654L208.404 551.805L217.415 555.441V560.974H197.337L179.473 544.058Z" fill="#FDD7C5"/>
<path d="M183.075 535.205L180.23 540.527C178.823 543.161 178.548 546.367 179.483 549.253L179.695 549.907L181.666 563.187H183.497V550.856L199.866 563.187H222.262C223.252 563.187 224.054 562.385 224.054 561.395V560.317C224.054 558.089 222.731 556.134 220.819 555.538L208.845 551.805L203.617 555.033C201.732 556.197 199.381 555.744 197.95 553.941L183.075 535.205Z" fill="#394277"/>
<path d="M113.219 376.865L130.867 316.23C136.221 308.508 139.853 282.258 147.122 275.451L158.913 273.686C158.913 273.686 183.461 267.432 192.647 291.807C196.741 302.669 197.136 324.756 192.85 330.485C179.056 348.926 156.22 374.627 156.22 374.627L113.219 376.865Z" fill="#EBF4FB"/>
<path d="M170.667 229.052C163.88 240.589 167.73 255.443 179.267 262.229C190.804 269.015 205.658 265.166 212.444 253.629C219.23 242.092 215.379 227.238 203.842 220.452C192.306 213.666 177.453 217.516 170.667 229.052Z" fill="black"/>
<path d="M207.128 230.537C203.699 236.366 205.645 243.873 211.475 247.301C217.304 250.73 224.81 248.785 228.239 242.955C231.667 237.125 229.723 229.62 223.893 226.191C218.063 222.762 210.557 224.707 207.128 230.537Z" fill="black"/>
<path d="M177.155 272.585C177.155 272.585 162.812 271.046 155.832 264.398C148.852 257.751 138.525 242.599 163.004 231.224C187.484 219.85 192.735 225.118 201.604 226.704C210.472 228.291 229.035 227.593 227.861 234.526C226.687 241.46 218.945 245.981 215.74 247.726C212.535 249.471 177.155 272.585 177.155 272.585Z" fill="black"/>
<path d="M165.89 273.22C171.65 268.984 179.867 257.483 179.867 257.483C179.867 257.483 174.961 250.601 174.279 246.207C173.596 241.813 177.72 234.721 182.375 237.175C186.346 239.269 185.856 245.855 186.262 245.996C191.286 247.741 196.215 234.426 208.378 240.491C216.797 244.69 223.148 241.919 223.148 241.919C223.148 241.919 215.783 272.443 212.359 278.774C207.434 287.882 194.561 278.146 194.561 278.146L184.976 293.704C184.976 293.704 186.639 307.885 175.703 302.85C171.129 300.744 160.131 277.456 165.89 273.22Z" fill="#FFD8C5"/>
<path d="M205.639 257.736C202.913 257.744 200.151 256.451 198.476 254.295C198.11 253.825 198.206 253.139 198.682 252.776C199.159 252.413 199.835 252.505 200.199 252.972C201.681 254.868 204.289 255.886 206.655 255.477C207.239 255.372 207.803 255.767 207.908 256.354C208.016 256.943 207.626 257.507 207.037 257.614C206.574 257.699 206.107 257.735 205.639 257.736Z" fill="#080717"/>
<path d="M218.03 259.304C216.469 259.311 214.887 258.772 213.721 257.736C213.276 257.34 213.241 256.651 213.642 256.207C214.043 255.762 214.728 255.724 215.169 256.119C216.267 257.086 217.932 257.401 219.32 256.912C219.874 256.711 220.5 257 220.708 257.562C220.916 258.123 220.629 258.746 220.067 258.954C219.415 259.194 218.725 259.301 218.03 259.304Z" fill="#080717"/>
<path d="M208.198 248.895C208.027 248.897 207.852 248.858 207.689 248.773C206.669 248.244 205.519 247.998 204.376 248.029C203.758 248.06 203.277 247.583 203.255 246.985C203.234 246.387 203.7 245.885 204.298 245.864C205.817 245.805 207.338 246.15 208.687 246.851C209.218 247.126 209.425 247.78 209.149 248.311C208.958 248.679 208.585 248.891 208.198 248.895Z" fill="#080717"/>
<path d="M219.726 252.236C219.465 252.239 219.202 252.148 218.993 251.961C218.362 251.396 216.443 250.963 215.771 251.048C215.176 251.119 214.634 250.705 214.557 250.113C214.481 249.519 214.901 248.976 215.493 248.9C216.677 248.75 219.253 249.289 220.435 250.345C220.881 250.743 220.92 251.429 220.522 251.875C220.31 252.111 220.02 252.233 219.726 252.236Z" fill="#080717"/>
<path d="M210.093 268.52C209.326 268.528 208.56 268.404 207.829 268.144C207.265 267.944 206.971 267.326 207.17 266.762C207.37 266.198 207.992 265.903 208.552 266.103C209.237 266.346 209.999 266.41 210.722 266.297C210.597 264.617 210.457 261.979 210.44 260.126C210.435 259.528 210.914 259.04 211.512 259.034L211.514 259.034C212.112 259.028 212.601 259.509 212.606 260.107C212.627 262.458 212.839 265.804 212.954 267.016C213.001 267.509 212.708 267.972 212.24 268.139C211.549 268.386 210.821 268.512 210.093 268.52Z" fill="#F0AF9B"/>
<path d="M201.048 275.088C200.971 275.089 200.894 275.082 200.816 275.066C197.837 274.445 195.62 271.49 195.858 268.457C195.904 267.861 196.438 267.416 197.025 267.465C197.621 267.512 198.064 268.034 198.018 268.631C197.859 270.572 199.34 272.548 201.251 272.944C201.836 273.066 202.214 273.637 202.093 274.222C201.99 274.73 201.546 275.081 201.048 275.088Z" fill="#EFAF9B"/>
<path d="M183.36 265.429C185.881 270.072 187.701 274.939 193.086 277.609C193.086 277.609 190.264 282.407 184.749 281.647C179.234 280.887 183.36 265.429 183.36 265.429Z" fill="#F0AF9B"/>
<path d="M177.295 264.667C175.759 264.683 174.291 264.137 173.132 263.113C171.89 262.016 171.152 260.501 171.048 258.848C170.836 255.435 173.44 252.487 176.854 252.275C177.422 252.237 177.965 252.692 178.003 253.289C178.041 253.887 177.587 254.399 176.989 254.436C174.768 254.574 173.073 256.493 173.211 258.714C173.277 259.79 173.758 260.776 174.566 261.49C175.373 262.204 176.411 262.562 177.486 262.493C178.563 262.426 179.55 261.945 180.263 261.137C180.976 260.33 181.333 259.292 181.265 258.216C181.192 257.016 180.592 255.92 179.622 255.209C179.14 254.855 179.035 254.178 179.389 253.696C179.744 253.214 180.42 253.107 180.903 253.462C182.394 254.555 183.314 256.238 183.428 258.082C183.53 259.735 182.984 261.33 181.887 262.571C180.789 263.813 179.274 264.552 177.621 264.654C177.511 264.662 177.404 264.666 177.295 264.667Z" fill="#85BAC6"/>
<path d="M137.233 326.097C137.233 326.097 148.916 307.273 150.52 302.701C152.125 298.129 156.155 289.597 155.608 284.543C155.062 279.488 153.418 275.887 150.28 275.246C147.142 274.606 139.299 274.089 132.218 280.875C125.137 287.662 112.038 303.342 103.183 316.649C93.6941 330.908 78.0236 355.152 81.3236 362.979C84.6236 370.804 105.255 363.152 110.127 362.574C114.999 361.995 137.233 326.097 137.233 326.097Z" fill="white"/>
<path d="M173.244 368.644L186.136 370.652C187.454 370.857 188.625 371.61 189.36 372.723L198.303 386.275L198.202 386.446C197.235 388.065 194.043 392.865 192.37 391.994L163.633 373.231L173.244 368.644Z" fill="#FDD7C5"/>
<path d="M195.297 387.94C195.09 387.878 194.9 387.753 194.757 387.569L187.152 377.814C186.784 377.344 186.869 376.666 187.339 376.298C187.81 375.931 188.487 376.015 188.854 376.486L196.459 386.241C196.827 386.711 196.742 387.39 196.272 387.757C195.985 387.981 195.62 388.036 195.297 387.94Z" fill="#F0AF9B"/>
<path d="M192.743 391.387C192.536 391.325 192.346 391.201 192.203 391.017L184.598 381.262C184.232 380.792 184.316 380.113 184.786 379.747C185.255 379.379 185.934 379.462 186.301 379.934L193.905 389.689C194.272 390.16 194.188 390.839 193.717 391.205C193.431 391.429 193.066 391.484 192.743 391.387Z" fill="#F0AF9B"/>
<path d="M173.244 368.644L98.5282 341.243L83.3888 354.674C76.8451 360.48 83.9326 370.346 95.0682 370.931L163.244 373.691L173.244 368.644Z" fill="#FDD7C5"/>
<path d="M114.725 364.092L125.892 351.387L98.5282 341.243L83.3888 354.674C76.8452 360.479 83.9326 370.346 95.0682 370.931L111.808 371.811C111.773 369.145 112.667 366.433 114.725 364.092Z" fill="white"/>
<path d="M121.645 351.245C121.548 351.238 121.452 351.217 121.357 351.184C114.855 348.858 108.364 346.499 108.364 346.499C107.801 346.294 107.51 345.673 107.715 345.111C107.919 344.548 108.545 344.26 109.103 344.463C109.103 344.463 115.59 346.82 122.086 349.143C122.649 349.345 122.943 349.966 122.741 350.529C122.574 350.997 122.118 351.279 121.645 351.245Z" fill="#C6E0F5"/>
<path d="M164.22 392.966C164.205 392.936 164.187 392.901 164.172 392.873L164.067 389.989H284.414C284.414 389.989 282.984 392.936 282.965 392.966L282.662 393.503C281.136 396.004 280.02 396.453 278.401 396.453H187.227C168.789 396.453 166.057 396.004 164.527 393.503L164.22 392.966Z" fill="#D7DFE2"/>
<path d="M208.396 393.452C208.396 393.452 208.415 393.503 208.396 393.532L208.099 393.968C207.627 394.612 207.034 395.09 206.352 395.436H172.802C169.768 395.436 167.119 395.074 165.643 393.052L165.357 392.612C165.335 392.588 165.32 392.564 165.303 392.538L165.334 391.119H208.396V393.452Z" fill="#B6C2C9"/>
<path d="M224.518 392.695H268.805V390.656H224.518V392.695Z" fill="#B6C2C9"/>
<path d="M210.279 390.195L241.488 331.508C242.314 329.955 244.235 328.701 245.782 328.701H314.186C315.732 328.701 316.321 329.955 315.495 331.508L284.287 390.195H210.279Z" fill="#D7DFE2"/>
<path d="M258.44 362.514C257.649 365.506 259.442 367.938 262.433 367.938C265.432 367.938 268.5 365.506 269.292 362.514C270.081 359.513 268.296 357.082 265.297 357.082C262.301 357.082 259.23 359.513 258.44 362.514Z" fill="#B6C2C9"/>
<path d="M152.1 452.606H113.555C107.099 452.606 101.463 448.237 99.8532 441.985L88.2842 397.053C88.2842 397.053 133.395 382.186 147.699 394.705C162.003 407.224 152.1 452.606 152.1 452.606Z" fill="#C6E0F5"/>
<path d="M153.053 452.816C152.982 452.816 152.911 452.809 152.839 452.795C152.253 452.677 151.873 452.106 151.99 451.519C152.078 451.08 160.654 407.483 146.986 395.52C133.305 383.547 89.0679 397.934 88.6219 398.081C88.0519 398.269 87.4419 397.96 87.2549 397.392C87.0679 396.824 87.3759 396.211 87.9449 396.024C88.0579 395.986 99.4529 392.256 112.451 390.116C130.129 387.205 142.226 388.475 148.412 393.89C154.601 399.307 157.43 410.767 156.822 427.952C156.375 440.586 154.136 451.834 154.114 451.946C154.01 452.46 153.559 452.816 153.053 452.816Z" fill="white"/>
<path d="M1001.18 359.322H571.323V40.9652C571.323 37.2802 573.917 34.2822 577.104 34.2822H995.402C998.589 34.2822 1001.18 37.2802 1001.18 40.9652V359.322ZM572.407 358.239H1000.1V40.9652C1000.1 37.8772 997.991 35.3652 995.402 35.3652H577.104C574.513 35.3652 572.407 37.8772 572.407 40.9652V358.239Z" fill="#D6D6EA"/>
<path d="M587.026 52.5804C584.88 52.5804 583.134 50.8344 583.134 48.6874C583.134 46.5414 584.88 44.7944 587.026 44.7944C589.173 44.7944 590.921 46.5414 590.921 48.6874C590.921 50.8344 589.173 52.5804 587.026 52.5804ZM587.026 45.8784C585.476 45.8784 584.217 47.1384 584.217 48.6874C584.217 50.2374 585.476 51.4974 587.026 51.4974C588.577 51.4974 589.838 50.2374 589.838 48.6874C589.838 47.1384 588.577 45.8784 587.026 45.8784Z" fill="#D6D6EA"/>
<path d="M596.871 52.5804C594.725 52.5804 592.979 50.8344 592.979 48.6874C592.979 46.5414 594.725 44.7944 596.871 44.7944C599.018 44.7944 600.765 46.5414 600.765 48.6874C600.765 50.8344 599.018 52.5804 596.871 52.5804ZM596.871 45.8784C595.322 45.8784 594.063 47.1384 594.063 48.6874C594.063 50.2374 595.322 51.4974 596.871 51.4974C598.421 51.4974 599.682 50.2374 599.682 48.6874C599.682 47.1384 598.421 45.8784 596.871 45.8784Z" fill="#D6D6EA"/>
<path d="M606.715 52.5804C604.568 52.5804 602.82 50.8344 602.82 48.6874C602.82 46.5414 604.568 44.7944 606.715 44.7944C608.861 44.7944 610.607 46.5414 610.607 48.6874C610.607 50.8344 608.861 52.5804 606.715 52.5804ZM606.715 45.8784C605.164 45.8784 603.903 47.1384 603.903 48.6874C603.903 50.2374 605.164 51.4974 606.715 51.4974C608.264 51.4974 609.523 50.2374 609.523 48.6874C609.523 47.1384 608.264 45.8784 606.715 45.8784Z" fill="#D6D6EA"/>
<path d="M948.384 53.877C945.522 53.877 943.193 51.548 943.193 48.687C943.193 45.826 945.522 43.498 948.384 43.498C951.244 43.498 953.571 45.826 953.571 48.687C953.571 51.548 951.244 53.877 948.384 53.877ZM948.384 44.581C946.119 44.581 944.276 46.423 944.276 48.687C944.276 50.951 946.119 52.793 948.384 52.793C950.647 52.793 952.488 50.951 952.488 48.687C952.488 46.423 950.647 44.581 948.384 44.581Z" fill="#D6D6EA"/>
<path d="M948.351 50.5992L945.676 47.9242L946.442 47.1582L948.351 49.0672L950.26 47.1582L951.026 47.9242L948.351 50.5992Z" fill="#D6D6EA"/>
<path d="M636.361 53.3642L631.688 48.6892L636.361 44.0112L637.127 44.7772L633.22 48.6892L637.127 52.5982L636.361 53.3642Z" fill="#D6D6EA"/>
<path d="M645.524 53.3632L644.758 52.5972L648.667 48.6872L644.758 44.7782L645.524 44.0122L650.198 48.6872L645.524 53.3632Z" fill="#D6D6EA"/>
<path d="M843.941 55.4723H676.328C672.587 55.4723 669.542 52.4283 669.542 48.6873C669.542 44.9463 672.587 41.9033 676.328 41.9033H843.941C847.682 41.9033 850.726 44.9463 850.726 48.6873C850.726 52.4283 847.682 55.4723 843.941 55.4723ZM676.328 42.9863C673.183 42.9863 670.625 45.5433 670.625 48.6873C670.625 51.8313 673.183 54.3893 676.328 54.3893H843.941C847.085 54.3893 849.642 51.8313 849.642 48.6873C849.642 45.5433 847.085 42.9863 843.941 42.9863H676.328Z" fill="#D6D6EA"/>
<path d="M964.25 52.5302H963.166V44.8452H964.25V52.5302Z" fill="#D6D6EA"/>
<path d="M967.551 49.229H959.866V48.146H967.551V49.229Z" fill="#D6D6EA"/>
<path d="M978.368 48.2621H974.163V44.0571H978.368V48.2621ZM975.246 47.1791H977.285V45.1401H975.246V47.1791Z" fill="#D6D6EA"/>
<path d="M978.368 53.3183H974.163V49.1133H978.368V53.3183ZM975.246 52.2343H977.285V50.1963H975.246V52.2343Z" fill="#D6D6EA"/>
<path d="M983.469 48.2621H979.264V44.0571H983.469V48.2621ZM980.347 47.1791H982.385V45.1401H980.347V47.1791Z" fill="#D6D6EA"/>
<path d="M983.469 53.3183H979.264V49.1133H983.469V53.3183ZM980.347 52.2343H982.385V50.1963H980.347V52.2343Z" fill="#D6D6EA"/>
<path d="M973.365 340.986H956.432C955.04 340.986 953.907 339.853 953.907 338.46V321.526C953.907 320.134 955.04 319.002 956.432 319.002H973.365C974.758 319.002 975.891 320.134 975.891 321.526V325.356L980.807 321.095C980.976 320.948 981.215 320.912 981.419 321.007C981.621 321.1 981.752 321.303 981.752 321.526V338.46C981.752 338.684 981.621 338.887 981.419 338.98C981.215 339.074 980.976 339.038 980.807 338.893L975.891 334.632V338.46C975.891 339.853 974.758 340.986 973.365 340.986ZM956.432 320.144C955.67 320.144 955.05 320.765 955.05 321.526V338.46C955.05 339.222 955.67 339.843 956.432 339.843H973.365C974.127 339.843 974.747 339.222 974.747 338.46V333.381C974.747 333.157 974.878 332.954 975.082 332.862C975.284 332.767 975.524 332.803 975.693 332.949L980.61 337.21V322.778L975.693 327.038C975.524 327.184 975.284 327.22 975.082 327.126C974.878 327.033 974.747 326.831 974.747 326.607V321.526C974.747 320.765 974.127 320.144 973.365 320.144H956.432Z" fill="white"/>
<path d="M963.596 326.738V333.251L968.155 329.994L963.596 326.738Z" fill="white"/>
<path d="M804.854 333.024H597.264V250.306H804.854V333.024Z" fill="#A3A3D1"/>
<path d="M795.41 264.09L789.646 258.325L790.411 257.559L796.174 263.324L795.41 264.09Z" fill="white"/>
<path d="M790.411 264.09L789.646 263.324L795.41 257.559L796.174 258.325L790.411 264.09Z" fill="white"/>
<path d="M612.376 266.357H606.543C606.244 266.357 606.002 266.115 606.002 265.816V259.983C606.002 259.684 606.244 259.442 606.543 259.442H612.376C612.675 259.442 612.918 259.684 612.918 259.983V265.816C612.918 266.115 612.675 266.357 612.376 266.357ZM607.085 265.274H611.835V260.525H607.085V265.274Z" fill="#394277"/>
<path d="M629.467 263.441H616.741C616.442 263.441 616.199 263.198 616.199 262.899C616.199 262.6 616.442 262.358 616.741 262.358H629.467C629.766 262.358 630.008 262.6 630.008 262.899C630.008 263.198 629.766 263.441 629.467 263.441Z" fill="#394277"/>
<path d="M612.376 276.697H606.543C606.244 276.697 606.002 276.454 606.002 276.155V270.322C606.002 270.023 606.244 269.781 606.543 269.781H612.376C612.675 269.781 612.918 270.023 612.918 270.322V276.155C612.918 276.454 612.675 276.697 612.376 276.697ZM607.085 275.614H611.835V270.864H607.085V275.614Z" fill="white"/>
<path d="M629.467 273.78H616.741C616.442 273.78 616.199 273.538 616.199 273.239C616.199 272.94 616.442 272.697 616.741 272.697H629.467C629.766 272.697 630.008 272.94 630.008 273.239C630.008 273.538 629.766 273.78 629.467 273.78Z" fill="#394277"/>
<mask id="mask1_4_2296" style="mask-type:luminance" maskUnits="userSpaceOnUse" x="0" y="-254" width="1080" height="1080">
<path d="M0 -254H1080V826H0V-254Z" fill="white"/>
</mask>
<g mask="url(#mask1_4_2296)">
<path d="M642.335 345.088C642.036 345.088 641.793 344.846 641.793 344.547V320.432H635.718V344.547C635.718 344.846 635.476 345.088 635.177 345.088C634.878 345.088 634.635 344.846 634.635 344.547V319.89C634.635 319.591 634.878 319.349 635.177 319.349H642.335C642.634 319.349 642.876 319.591 642.876 319.89V344.547C642.876 344.846 642.634 345.088 642.335 345.088Z" fill="white"/>
<path d="M660.927 352.846C660.628 352.846 660.385 352.604 660.385 352.305V309.896H654.31V352.305C654.31 352.604 654.067 352.846 653.768 352.846C653.469 352.846 653.227 352.604 653.227 352.305V309.355C653.227 309.056 653.469 308.813 653.768 308.813H660.927C661.226 308.813 661.468 309.056 661.468 309.355V352.305C661.468 352.604 661.226 352.846 660.927 352.846Z" fill="#394277"/>
<path d="M679.517 361.39C679.218 361.39 678.976 361.148 678.976 360.849V349.46H672.901V360.849C672.901 361.148 672.658 361.39 672.359 361.39C672.06 361.39 671.818 361.148 671.818 360.849V348.918C671.818 348.619 672.06 348.376 672.359 348.376H679.517C679.816 348.376 680.059 348.619 680.059 348.918V360.849C680.059 361.148 679.816 361.39 679.517 361.39Z" fill="white"/>
<path d="M698.11 365.044C697.811 365.044 697.568 364.802 697.568 364.503V336.411H691.493V364.503C691.493 364.802 691.251 365.044 690.952 365.044C690.653 365.044 690.41 364.802 690.41 364.503V335.87C690.41 335.571 690.653 335.328 690.952 335.328H698.11C698.409 335.328 698.652 335.571 698.652 335.87V364.503C698.652 364.802 698.409 365.044 698.11 365.044Z" fill="#394277"/>
<path d="M716.702 365.044C716.403 365.044 716.16 364.802 716.16 364.503V326.469H710.084V364.503C710.084 364.802 709.842 365.044 709.543 365.044C709.244 365.044 709.001 364.802 709.001 364.503V325.927C709.001 325.628 709.244 325.386 709.543 325.386H716.702C717.001 325.386 717.243 325.628 717.243 325.927V364.503C717.243 364.802 717.001 365.044 716.702 365.044Z" fill="white"/>
<path d="M735.293 365.044C734.994 365.044 734.752 364.802 734.752 364.503V359.874H728.676V364.503C728.676 364.802 728.433 365.044 728.134 365.044C727.835 365.044 727.593 364.802 727.593 364.503V359.333C727.593 359.034 727.835 358.791 728.134 358.791H735.293C735.592 358.791 735.835 359.034 735.835 359.333V364.503C735.835 364.802 735.592 365.044 735.293 365.044Z" fill="#394277"/>
<path d="M753.885 365.043C753.586 365.043 753.343 364.801 753.343 364.502V330.445H747.267V364.502C747.267 364.801 747.025 365.043 746.726 365.043C746.427 365.043 746.184 364.801 746.184 364.502V329.903C746.184 329.604 746.427 329.362 746.726 329.362H753.885C754.184 329.362 754.427 329.604 754.427 329.903V364.502C754.427 364.801 754.184 365.043 753.885 365.043Z" fill="white"/>
<path d="M772.476 365.044C772.177 365.044 771.934 364.802 771.934 364.503V343.967H765.858V364.503C765.858 364.802 765.616 365.044 765.317 365.044C765.018 365.044 764.775 364.802 764.775 364.503V343.425C764.775 343.126 765.018 342.884 765.317 342.884H772.476C772.775 342.884 773.017 343.126 773.017 343.425V364.503C773.017 364.802 772.775 365.044 772.476 365.044Z" fill="#394277"/>
<path d="M791.068 365.044C790.769 365.044 790.527 364.802 790.527 364.503V353.114H784.451V364.503C784.451 364.802 784.208 365.044 783.909 365.044C783.61 365.044 783.368 364.802 783.368 364.503V352.572C783.368 352.273 783.61 352.03 783.909 352.03H791.068C791.367 352.03 791.61 352.273 791.61 352.572V364.503C791.61 364.802 791.367 365.044 791.068 365.044Z" fill="white"/>
</g>
<mask id="mask2_4_2296" style="mask-type:luminance" maskUnits="userSpaceOnUse" x="0" y="-254" width="1080" height="1080">
<path d="M0 -254H1080V826H0V-254Z" fill="white"/>
</mask>
<g mask="url(#mask2_4_2296)">
<path d="M805.274 238.089H596.889V101.816H805.274V238.089Z" fill="#6A6AA8"/>
<path d="M717.971 228.124H684.19V139.75H717.971V228.124Z" fill="#505089"/>
<path d="M649.969 228.124H616.187V139.75H649.969V228.124Z" fill="#505089"/>
<path d="M785.578 228.124H751.797V139.75H785.578V228.124Z" fill="#505089"/>
<path d="M658.945 126.758H616.325C616.026 126.758 615.783 126.515 615.783 126.216C615.783 125.917 616.026 125.675 616.325 125.675H658.945C659.244 125.675 659.487 125.917 659.487 126.216C659.487 126.515 659.244 126.758 658.945 126.758Z" fill="white"/>
<path d="M639.31 133.12H616.325C616.026 133.12 615.783 132.878 615.783 132.579C615.783 132.28 616.026 132.037 616.325 132.037H639.31C639.609 132.037 639.851 132.28 639.851 132.579C639.851 132.878 639.609 133.12 639.31 133.12Z" fill="white"/>
<path d="M654.572 133.12H643.895C643.596 133.12 643.353 132.878 643.353 132.579C643.353 132.28 643.596 132.037 643.895 132.037H654.572C654.871 132.037 655.114 132.28 655.114 132.579C655.114 132.878 654.871 133.12 654.572 133.12Z" fill="white"/>
<path d="M785.828 217.827H616.316C616.017 217.827 615.775 217.585 615.775 217.286C615.775 216.987 616.017 216.744 616.316 216.744H785.828C786.127 216.744 786.37 216.987 786.37 217.286C786.37 217.585 786.127 217.827 785.828 217.827Z" fill="white"/>
<path d="M616.332 221.663C616.033 221.663 615.791 221.42 615.791 221.121V217.286C615.791 216.987 616.033 216.744 616.332 216.744C616.631 216.744 616.874 216.987 616.874 217.286V221.121C616.874 221.42 616.631 221.663 616.332 221.663Z" fill="white"/>
<path d="M650.235 221.663C649.936 221.663 649.694 221.42 649.694 221.121V217.286C649.694 216.987 649.936 216.744 650.235 216.744C650.534 216.744 650.777 216.987 650.777 217.286V221.121C650.777 221.42 650.534 221.663 650.235 221.663Z" fill="white"/>
<path d="M684.139 221.663C683.84 221.663 683.597 221.42 683.597 221.121V217.286C683.597 216.987 683.84 216.744 684.139 216.744C684.438 216.744 684.68 216.987 684.68 217.286V221.121C684.68 221.42 684.438 221.663 684.139 221.663Z" fill="white"/>
<path d="M718.04 221.663C717.741 221.663 717.498 221.42 717.498 221.121V217.286C717.498 216.987 717.741 216.744 718.04 216.744C718.339 216.744 718.581 216.987 718.581 217.286V221.121C718.581 221.42 718.339 221.663 718.04 221.663Z" fill="white"/>
<path d="M751.943 221.663C751.644 221.663 751.401 221.42 751.401 221.121V217.286C751.401 216.987 751.644 216.744 751.943 216.744C752.242 216.744 752.485 216.987 752.485 217.286V221.121C752.485 221.42 752.242 221.663 751.943 221.663Z" fill="white"/>
<path d="M785.846 221.663C785.547 221.663 785.305 221.42 785.305 221.121V217.286C785.305 216.987 785.547 216.744 785.846 216.744C786.145 216.744 786.388 216.987 786.388 217.286V221.121C786.388 221.42 786.145 221.663 785.846 221.663Z" fill="white"/>
<path d="M618.997 198.329C618.997 199.761 617.835 200.923 616.403 200.923C614.971 200.923 613.81 199.761 613.81 198.329C613.81 196.897 614.971 195.736 616.403 195.736C617.835 195.736 618.997 196.897 618.997 198.329Z" fill="white"/>
<path d="M787.371 141.085C787.371 142.517 786.209 143.679 784.777 143.679C783.345 143.679 782.183 142.517 782.183 141.085C782.183 139.653 783.345 138.491 784.777 138.491C786.209 138.491 787.371 139.653 787.371 141.085Z" fill="white"/>
<path d="M794.822 136.928L794.057 136.163L815.72 114.499L816.486 115.265L794.822 136.928Z" fill="white"/>
<path d="M798.771 124.089C796.083 124.089 793.897 121.903 793.897 119.215C793.897 116.527 796.083 114.34 798.771 114.34C801.459 114.34 803.646 116.527 803.646 119.215C803.646 121.903 801.459 124.089 798.771 124.089ZM798.771 115.424C796.681 115.424 794.98 117.125 794.98 119.215C794.98 121.305 796.681 123.006 798.771 123.006C800.861 123.006 802.562 121.305 802.562 119.215C802.562 117.125 800.861 115.424 798.771 115.424Z" fill="white"/>
<path d="M810.687 137.087C807.999 137.087 805.812 134.901 805.812 132.213C805.812 129.525 807.999 127.339 810.687 127.339C813.375 127.339 815.562 129.525 815.562 132.213C815.562 134.901 813.375 137.087 810.687 137.087ZM810.687 128.422C808.596 128.422 806.896 130.123 806.896 132.213C806.896 134.303 808.596 136.004 810.687 136.004C812.777 136.004 814.478 134.303 814.478 132.213C814.478 130.123 812.777 128.422 810.687 128.422Z" fill="white"/>
<path d="M816.645 123.547H815.562V115.424H807.438V114.34H816.645V123.547Z" fill="white"/>
<path d="M616.75 199.001C616.75 199.001 629.099 173.385 651.75 174.751C676.625 176.251 678.469 203.126 715.25 203.126C730.514 203.126 742.251 189.9 750.238 177.651C755.659 169.337 759.353 161.473 761.25 158.501C768.75 146.751 785.25 140.501 785.25 140.501" stroke="white"/>
<path d="M716.867 203.583C716.867 205.015 715.705 206.176 714.273 206.176C712.841 206.176 711.679 205.015 711.679 203.583C711.679 202.151 712.841 200.989 714.273 200.989C715.705 200.989 716.867 202.151 716.867 203.583Z" fill="white"/>
<path d="M750.067 181.835C750.067 183.267 748.905 184.428 747.473 184.428C746.04 184.428 744.879 183.267 744.879 181.835C744.879 180.403 746.04 179.241 747.473 179.241C748.905 179.241 750.067 180.403 750.067 181.835Z" fill="white"/>
<path d="M852.643 160.295C860.225 161.766 873.274 163.959 881.599 160.041C889.924 156.122 904.871 154.167 897.221 147.037C889.571 139.907 885.308 139.758 887.195 135.268C889.082 130.778 903.778 107.997 883.524 101.809C863.269 95.6214 838.672 112.982 833.495 127.448C828.318 141.913 842.734 138.612 840.545 143.494C838.356 148.377 834.155 151.401 838.433 154.377C842.711 157.353 847.202 159.239 852.643 160.295Z" fill="#010101"/>
<path d="M877.658 107.314C877.658 107.314 900.829 108.125 905.11 104.835C911.045 100.272 909.395 87.6165 901.265 85.9571C893.135 84.2977 880.759 90.2396 877.658 107.314Z" fill="#010101"/>
<path d="M902.769 150.321C902.725 150.317 902.677 150.308 902.633 150.298C902.051 150.16 901.69 149.577 901.828 148.995C902.133 147.701 900.932 146.328 899.813 145.545C899.366 145.233 898.893 144.95 898.423 144.666C897.259 143.968 896.056 143.245 895.136 142.105C893.71 140.34 893.203 137.756 893.74 135.013C894.109 133.127 894.88 131.39 895.626 129.709L896.074 128.692C898.03 124.174 898.77 120.554 898.402 117.299C898.023 113.942 895.985 109.995 892.288 108.74C891.722 108.548 891.418 107.933 891.61 107.366C891.802 106.8 892.42 106.494 892.984 106.688C896.964 108.039 900.006 112.205 900.555 117.056C901.095 121.847 899.39 126.481 898.062 129.552C897.913 129.898 897.759 130.242 897.607 130.588C896.877 132.231 896.188 133.782 895.865 135.429C895.452 137.542 895.8 139.48 896.822 140.745C897.501 141.587 898.49 142.18 899.537 142.81C900.052 143.119 900.566 143.428 901.053 143.768C902.811 144.997 904.489 147.145 903.936 149.492C903.809 150.029 903.304 150.378 902.769 150.321Z" fill="#010101"/>
<path d="M866.494 242.688L864.647 248.356C861.805 257.077 853.674 262.973 845.177 254.365L843.661 226.22C843.661 226.22 848.563 176.749 850.225 172.841C851.887 168.933 881.708 171.367 866.494 242.688Z" fill="white"/>
<path d="M797.907 256.955L790.439 258.575C789.69 258.355 784.444 256.947 780.979 259.656C777.446 262.416 766.41 271.419 766.298 271.509C766.172 271.611 766.145 271.791 766.232 271.928C766.289 272.015 767.634 274.065 769.577 273.493C771.016 273.069 775.895 271.115 777.673 270.397C777.085 272.042 775.35 276.421 772.725 279.118C772.602 279.244 772.604 279.444 772.731 279.567C772.803 279.636 772.898 279.662 772.991 279.651C772.986 279.693 772.987 279.735 772.999 279.777C773.001 279.784 773.008 279.789 773.011 279.797C772.494 279.699 771.893 279.577 771.264 279.436C769.917 279.131 768.817 279.266 767.997 279.839C766.911 280.595 766.739 281.835 766.731 281.884C766.73 281.895 766.733 281.905 766.734 281.915C766.682 281.899 766.629 281.881 766.581 281.865C763.651 280.887 761.287 284.324 761.187 284.471C761.13 284.556 761.116 284.662 761.153 284.758C761.188 284.854 761.267 284.927 761.366 284.955L765.003 285.971C764.232 286.345 761.448 287.74 760.764 288.677C759.982 289.746 760.047 292.177 760.05 292.281C760.053 292.383 760.106 292.478 760.192 292.536C760.277 292.592 760.385 292.605 760.481 292.568L772.206 288.069C772.24 288.056 772.267 288.031 772.293 288.008L774.68 288.675C774.759 288.697 774.843 288.687 774.915 288.649C774.915 288.649 787.317 282 787.346 281.948L793.382 271.413L799.341 271.532C799.432 271.534 799.518 271.497 799.58 271.43C799.615 271.393 799.64 271.348 799.653 271.3C799.663 271.262 833.098 268.171 833.094 268.132L819.749 253.432C819.74 253.341 798.235 257.062 798.162 257.008C798.089 256.955 797.995 256.936 797.907 256.955Z" fill="#FFD8C5"/>
<path d="M773.394 288.954C773.305 289.274 773.069 289.549 772.734 289.677L760.509 294.318C760.183 294.442 759.816 294.401 759.525 294.208C759.233 294.013 759.055 293.69 759.043 293.341C759.028 292.86 758.995 290.402 759.926 289.134C760.779 287.973 763.879 286.454 764.809 286.016C765.35 285.761 765.995 285.993 766.25 286.534C766.505 287.075 766.274 287.721 765.732 287.976C764.056 288.766 762.026 289.934 761.672 290.417C761.492 290.662 761.369 291.16 761.295 291.703L771.966 287.652C772.525 287.44 773.15 287.72 773.363 288.279C773.448 288.504 773.454 288.74 773.394 288.954Z" fill="#F0AF9B"/>
<path d="M780.532 286.871C780.372 287.445 779.777 287.781 779.203 287.624C778.787 287.51 768.991 284.82 766.14 283.869C765.039 283.501 763.962 284.15 763.203 284.829L775.433 288.246C776.009 288.407 776.346 289.004 776.185 289.581C776.023 290.158 775.426 290.494 774.85 290.333L760.947 286.448C760.611 286.355 760.342 286.104 760.221 285.777C760.101 285.448 760.147 285.082 760.343 284.796C760.459 284.624 763.233 280.615 766.826 281.813C769.622 282.746 779.674 285.506 779.775 285.535C780.352 285.693 780.692 286.289 780.534 286.866C780.534 286.866 780.533 286.869 780.532 286.871Z" fill="#F0AF9B"/>
<path d="M775.996 281.317C775.85 281.838 775.336 282.18 774.789 282.096C774.72 282.084 773.079 281.833 771.157 281.398C770.161 281.173 769.395 281.235 768.879 281.585C768.269 281.998 768.146 282.739 768.146 282.746C768.048 283.321 767.506 283.742 766.92 283.657C766.333 283.572 765.923 283.04 765.999 282.453C766.022 282.283 766.253 280.774 767.622 279.82C768.659 279.097 770.011 278.916 771.637 279.284C773.48 279.702 775.101 279.951 775.117 279.954C775.708 280.044 776.114 280.598 776.023 281.189C776.016 281.233 776.007 281.276 775.996 281.317Z" fill="#F0AF9B"/>
<path d="M786.76 278.178C786.675 278.479 786.461 278.742 786.153 278.878L782.416 280.519C782.156 280.633 781.862 280.641 781.596 280.54C780.636 280.177 777.877 279.223 776.674 279.188C776.258 279.175 775.773 279.498 775.357 279.885L781.672 282.719C782.217 282.964 782.467 283.606 782.217 284.151C781.972 284.697 781.331 284.941 780.785 284.696L773.155 281.273C772.866 281.142 772.649 280.892 772.559 280.588C772.47 280.284 772.519 279.954 772.692 279.691C772.874 279.412 774.542 276.958 776.737 277.022C778.226 277.065 780.885 277.975 781.945 278.36L784.38 277.291C783.888 275.539 783.254 271.826 785.386 268.525C785.71 268.023 786.381 267.877 786.884 268.202C787.387 268.525 787.533 269.195 787.206 269.699C784.984 273.147 786.702 277.431 786.719 277.473C786.814 277.705 786.823 277.952 786.76 278.178Z" fill="#F0AF9B"/>
<path d="M865.065 242.898L868.14 248.005C872.872 255.862 872.006 265.868 859.936 266.656L826.898 268.893C826.898 268.893 812.83 254.99 822.449 252.691C835.194 249.644 837.668 249.377 837.668 249.377C837.668 249.377 854.018 242.293 865.065 242.898Z" fill="white"/>
<path d="M851.207 172.712L843.784 193.181C840.562 199.109 839.548 206.04 840.934 212.681L848.737 250.09L903.685 249.881C903.685 249.881 919.389 203.355 914.944 189.675C912.398 181.837 905.891 174.039 900.797 168.808C896.847 164.752 891.265 162.857 885.744 163.713L851.207 172.712Z" fill="white"/>
<path d="M847.677 250.311L839.875 212.902C838.436 206.007 839.486 198.82 842.831 192.662L844.736 193.698C841.634 199.404 840.661 206.067 841.994 212.459L849.797 249.869L847.677 250.311Z" fill="#C6E0F5"/>
<path d="M872.654 118.036L879 173.928C879 173.928 864.435 189.199 860.381 167.501C860.29 167.014 855.708 147.936 855.708 147.936C855.708 147.936 850.873 119.843 872.654 118.036Z" fill="#FDD7C5"/>
<path d="M873.986 138.007L856.33 132.303C854.344 140.007 855.708 147.936 855.708 147.936C855.708 147.936 857.845 156.834 859.229 162.632C870.854 155.58 873.986 138.007 873.986 138.007Z" fill="#EFAF9B"/>
<path d="M889.924 227.858L887.792 227.469L892.348 202.449L894.48 202.838L889.924 227.858Z" fill="#C6E0F5"/>
<path d="M868.925 145.855C865.698 149.369 858.011 155.945 851.805 154.293C842.155 151.724 840.727 131.243 842.236 123.853C843.745 116.462 844.816 107.443 861.529 108.545C878.242 109.646 868.814 118.116 868.814 118.116C868.814 118.116 869.161 123.96 871.597 125.227C874.032 126.494 886.106 127.14 868.925 145.855Z" fill="#FDD7C5"/>
<path d="M849.619 137.239C849.584 137.235 849.549 137.231 849.513 137.223C847.689 136.851 846.166 134.667 845.879 134.233C845.632 133.859 845.64 133.371 845.9 133.006C845.918 132.982 847.829 130.216 847.58 126.39C847.367 123.117 843.183 122.806 842.989 122.792C842.432 122.753 841.939 122.241 841.977 121.644C842.015 121.048 842.525 120.594 843.121 120.63C845.286 120.763 849.472 122.102 849.741 126.25C849.966 129.693 848.758 132.378 848.086 133.58C848.634 134.26 849.392 134.986 849.947 135.101C850.534 135.22 850.911 135.792 850.792 136.379C850.679 136.929 850.167 137.296 849.619 137.239Z" fill="#010101"/>
<path d="M854.671 140.582C854.372 140.55 854.068 140.489 853.761 140.393C853.19 140.216 852.871 139.61 853.048 139.038C853.224 138.467 853.829 138.145 854.404 138.325C857.154 139.176 860.119 134.84 860.148 134.796C860.475 134.299 861.147 134.158 861.648 134.489C862.146 134.818 862.284 135.489 861.956 135.989C861.811 136.208 858.612 140.992 854.671 140.582Z" fill="#EFAF9B"/>
<path d="M857.254 126.143C857.184 125.029 857.778 124.086 858.579 124.035C859.381 123.985 860.087 124.848 860.158 125.962C860.228 127.076 859.634 128.02 858.832 128.07C858.031 128.12 857.324 127.258 857.254 126.143Z" fill="#010101"/>
<path d="M843.517 127.409C843.415 126.601 843.979 125.936 844.776 125.923C845.574 125.909 846.304 126.553 846.406 127.361C846.508 128.168 845.943 128.833 845.146 128.847C844.348 128.86 843.619 128.216 843.517 127.409Z" fill="#010101"/>
<path d="M881.729 124.026C881.776 124.385 881.805 124.745 881.82 125.103C879.799 125.912 877.609 126.503 875.285 126.807C863.625 128.333 853.219 122.289 852.043 113.307C851.749 111.061 852.061 108.846 852.874 106.761C873.558 102.785 880.491 114.57 881.729 124.026Z" fill="#010101"/>
<path d="M871.983 130.598C872.397 133.765 875.301 135.996 878.469 135.582C881.636 135.168 883.867 132.265 883.453 129.097C883.038 125.929 880.135 123.698 876.967 124.112C873.799 124.526 871.568 127.43 871.983 130.598Z" fill="#FDD7C5"/>
<path d="M946.013 402.313C936.996 323.803 904.721 249.257 904.721 249.257L849.772 249.136C849.772 249.136 842.522 269.85 835.369 316.851C828.217 363.853 846.934 530.569 846.934 530.569C846.934 530.569 846.965 530.722 847.026 531L869.403 530.917C878.139 466.455 873.742 321.451 873.742 321.451L878.914 321.431L937.545 530.562L957.901 528.548C957.901 528.548 955.031 480.823 946.013 402.313Z" fill="#525E8F"/>
<path d="M958.625 529.628C958.105 529.63 957.643 529.256 957.553 528.726C957.36 527.59 938.121 414.52 931.221 363.722C927.475 336.15 895.305 250.532 894.98 249.67C894.77 249.11 895.052 248.486 895.613 248.275C896.166 248.065 896.796 248.347 897.008 248.907C897.333 249.771 929.589 335.617 933.367 363.43C940.262 414.191 959.496 527.227 959.689 528.363C959.789 528.953 959.392 529.512 958.803 529.612C958.743 529.623 958.684 529.628 958.625 529.628Z" fill="#8B8BC4"/>
<path d="M866.977 531.686C866.386 531.688 865.901 531.214 865.89 530.621L862.193 317.305C862.182 316.707 862.66 316.214 863.258 316.203C863.263 316.203 863.268 316.203 863.272 316.203C863.863 316.201 864.349 316.675 864.36 317.268L868.056 530.584C868.067 531.182 867.59 531.676 866.992 531.686C866.987 531.686 866.981 531.686 866.977 531.686Z" fill="#8B8BC4"/>
<path d="M904.832 279.429C904.724 279.43 904.615 279.413 904.507 279.379C885.62 273.492 882.349 250.678 882.319 250.448C882.238 249.856 882.654 249.312 883.247 249.232C883.838 249.148 884.384 249.568 884.465 250.16C884.494 250.376 887.596 271.84 905.15 277.312C905.722 277.49 906.041 278.097 905.862 278.668C905.719 279.131 905.292 279.428 904.832 279.429Z" fill="#8B8BC4"/>
<path d="M897.436 166.71L899.704 167.782C913.167 174.139 920.003 189.346 915.82 203.635L901.162 253.695C898.205 263.792 884.578 265.4 879.353 256.267L883.961 227.422L897.436 166.71Z" fill="white"/>
<path d="M888.121 227.61L886.002 227.159L891.295 202.284L893.415 202.736L888.121 227.61Z" fill="#C6E0F5"/>
<path d="M873.56 219.141L852.035 191.982L844.834 200.04L863.743 232.396L873.56 219.141Z" fill="#FDD7C5"/>
<path d="M834.41 161.543L843.976 163.812L852.924 173.258L852.036 191.982L844.835 200.04L841.669 196.276C839.702 193.938 838.706 190.933 838.89 187.882L839.449 178.607L833.468 177.586C831.931 177.324 830.732 176.114 830.485 174.574L830.427 174.216L837.37 173.367L831.363 171.367C829.698 170.812 828.567 169.266 828.542 167.511L828.532 166.821L830.215 164.074L837.3 165.768L835.152 163.913C834.475 163.328 834.187 162.411 834.41 161.543Z" fill="#FDD7C5"/>
<path d="M826.486 154.896L837.3 165.768L832.173 164.423L824.701 156.731L823.691 153.752L826.486 154.896Z" fill="#394277"/>
<path d="M900.951 253.331C898.458 263.553 884.918 265.78 879.282 256.895L863.743 232.396L873.263 218.392L882.571 227.87C882.571 227.87 888.832 233.203 890.422 235.081C898.877 245.069 900.951 253.331 900.951 253.331Z" fill="white"/>
<path d="M893.517 249.062C892.611 238.615 887.561 231.368 872.729 219.237L874.101 217.56C887.564 228.571 894.597 236.438 895.675 248.874L893.517 249.062Z" fill="#C6E0F5"/>
</g>
<mask id="mask3_4_2296" style="mask-type:luminance" maskUnits="userSpaceOnUse" x="0" y="-254" width="1080" height="1080">
<path d="M0 -254H1080V826H0V-254Z" fill="white"/>
</mask>
<g mask="url(#mask3_4_2296)">
<path d="M307.045 286.873C304.955 286.873 303.254 285.172 303.254 283.082C303.254 280.992 304.955 279.29 307.045 279.29C309.135 279.29 310.836 280.992 310.836 283.082C310.836 285.172 309.135 286.873 307.045 286.873ZM307.045 280.374C305.551 280.374 304.337 281.589 304.337 283.082C304.337 284.575 305.551 285.79 307.045 285.79C308.539 285.79 309.753 284.575 309.753 283.082C309.753 281.589 308.539 280.374 307.045 280.374Z" fill="white"/>
<path d="M307.586 279.832H306.503V276.583H307.586V279.832Z" fill="white"/>
<path d="M307.586 289.581H306.503V286.331H307.586V289.581Z" fill="white"/>
<path d="M313.544 283.623H310.294V282.54H313.544V283.623Z" fill="white"/>
<path d="M303.795 283.623H300.546V282.54H303.795V283.623Z" fill="white"/>
<path d="M311.257 288.06L308.959 285.762L309.725 284.996L312.023 287.294L311.257 288.06Z" fill="white"/>
<path d="M304.363 281.166L302.066 278.868L302.831 278.103L305.129 280.4L304.363 281.166Z" fill="white"/>
<path d="M309.725 281.168L308.959 280.402L311.258 278.105L312.024 278.87L309.725 281.168Z" fill="white"/>
<path d="M302.831 288.061L302.066 287.295L304.363 284.997L305.129 285.763L302.831 288.061Z" fill="white"/>
<path d="M337.945 196.802C337.945 208.514 328.451 218.01 316.738 218.01C305.026 218.01 295.528 208.514 295.528 196.802C295.528 185.089 305.026 175.593 316.738 175.593C328.451 175.593 337.945 185.089 337.945 196.802Z" fill="#A3A3D1"/>
<path d="M326.378 207.074V204.503C326.378 201.664 324.077 199.362 321.237 199.362H312.24C309.399 199.362 307.098 201.664 307.098 204.503V207.074H326.378Z" fill="white"/>
<path d="M321.236 191.007C321.236 188.524 319.223 186.509 316.738 186.509C314.252 186.509 312.239 188.524 312.239 191.007C312.239 193.492 314.252 195.506 316.738 195.506C319.223 195.506 321.236 193.492 321.236 191.007Z" fill="white"/>
<path d="M291.634 309.104C291.634 316.452 285.677 322.41 278.328 322.41C270.98 322.41 265.022 316.452 265.022 309.104C265.022 301.755 270.98 295.798 278.328 295.798C285.677 295.798 291.634 301.755 291.634 309.104Z" fill="#A3A3D1"/>
<path d="M284.376 315.549V313.936C284.376 312.155 282.933 310.71 281.151 310.71H275.506C273.723 310.71 272.28 312.155 272.28 313.936V315.549H284.376Z" fill="white"/>
<path d="M281.151 305.469C281.151 303.911 279.887 302.646 278.328 302.646C276.768 302.646 275.506 303.911 275.506 305.469C275.506 307.028 276.768 308.291 278.328 308.291C279.887 308.291 281.151 307.028 281.151 305.469Z" fill="white"/>
<path d="M286.597 268.214H276.848V265.894C273.498 264.092 271.432 260.654 271.432 256.841C271.432 251.167 276.048 246.551 281.722 246.551C287.396 246.551 292.013 251.167 292.013 256.841C292.013 260.654 289.947 264.092 286.597 265.894V268.214ZM277.931 267.131H285.513V265.229L285.814 265.079C288.969 263.509 290.929 260.352 290.929 256.841C290.929 251.764 286.798 247.634 281.722 247.634C276.646 247.634 272.515 251.764 272.515 256.841C272.515 260.352 274.476 263.509 277.631 265.079L277.931 265.229V267.131Z" fill="white"/>
<path d="M287.138 271.464H276.307V270.381H287.138V271.464Z" fill="white"/>
<path d="M282.264 266.589H281.181V257.924H282.264V266.589Z" fill="white"/>
<path d="M283.889 258.466H279.556V257.382H283.889V258.466Z" fill="white"/>
<path d="M276.848 256.841H275.765C275.765 253.556 278.437 250.883 281.722 250.883V251.967C279.034 251.967 276.848 254.153 276.848 256.841Z" fill="white"/>
</g>
</g>
</svg>
