<svg width="248" height="211" viewBox="0 0 248 211" fill="none" xmlns="http://www.w3.org/2000/svg">
<path d="M105.22 116.809V171.769L107.546 174.095V116.809H105.22Z" fill="#1C0311"/>
<path d="M107.546 174.182C107.524 174.182 107.502 174.173 107.486 174.156L105.159 171.83C105.143 171.814 105.134 171.792 105.134 171.77V116.81C105.134 116.763 105.173 116.725 105.22 116.725H107.546C107.593 116.725 107.631 116.763 107.631 116.81V174.096C107.631 174.13 107.61 174.162 107.579 174.175C107.568 174.179 107.557 174.182 107.546 174.182ZM105.305 171.735L107.46 173.89V116.895H105.305V171.735Z" fill="#1A1A1A"/>
<path d="M117.499 116.809H95.2671C93.4322 116.809 91.9448 115.322 91.9448 113.487C91.9448 111.652 93.4322 110.165 95.2671 110.165H117.499C119.334 110.165 120.821 111.652 120.821 113.487C120.821 115.322 119.334 116.809 117.499 116.809Z" fill="white"/>
<path d="M117.499 116.98H95.2668C93.3409 116.98 91.7735 115.413 91.7735 113.487C91.7735 111.561 93.3409 109.994 95.2668 109.994H117.499C119.425 109.994 120.992 111.561 120.992 113.487C120.992 115.413 119.425 116.98 117.499 116.98ZM95.2668 110.335C93.529 110.335 92.1153 111.749 92.1153 113.487C92.1153 115.225 93.529 116.639 95.2668 116.639H117.499C119.237 116.639 120.65 115.225 120.65 113.487C120.65 111.749 119.237 110.335 117.499 110.335H95.2668Z" fill="#1A1A1A"/>
<path d="M17.4877 180.388C9.4909 171.207 11.473 157.552 19.8731 151.569C28.5118 145.417 42.5358 148.38 48.2966 159.519C49.3604 158.458 52.3501 155.769 55.8501 156.14C60.8127 156.668 65.6295 163.226 64.9939 172.239C49.1583 174.955 33.323 177.672 17.4877 180.388Z" fill="white"/>
<path d="M17.4877 180.558C17.4387 180.558 17.3915 180.537 17.3591 180.5C13.5203 176.093 11.7117 170.242 12.3965 164.448C13.0337 159.061 15.7224 154.316 19.7742 151.43C23.9511 148.455 29.4708 147.505 34.9177 148.822C40.6822 150.217 45.5627 154.006 48.3416 159.236C49.8277 157.796 52.6458 155.628 55.8686 155.971C58.4186 156.241 60.8963 158.045 62.6666 160.918C64.5741 164.014 65.4612 168.038 65.1641 172.251C65.1585 172.329 65.0998 172.394 65.0224 172.407L17.5164 180.556C17.5067 180.557 17.4972 180.558 17.4877 180.558ZM30.1122 148.583C26.3995 148.583 22.8578 149.653 19.9718 151.708C15.9985 154.538 13.361 159.197 12.7355 164.489C12.0656 170.155 13.8213 175.877 17.5539 180.203L64.8326 172.094C65.4025 163.279 60.6562 156.823 55.8325 156.311C52.6229 155.971 49.8106 158.25 48.4177 159.64C48.3794 159.678 48.3251 159.696 48.2706 159.688C48.217 159.679 48.1706 159.646 48.1454 159.597C45.4316 154.35 40.5808 150.544 34.8375 149.154C33.2565 148.772 31.6692 148.583 30.1122 148.583Z" fill="#1A1A1A"/>
<path d="M36.8764 128.912C34.5639 128.912 32.6821 127.031 32.6821 124.718C32.6821 122.406 34.5639 120.524 36.8764 120.524C39.1892 120.524 41.0707 122.406 41.0707 124.718C41.0707 127.031 39.1892 128.912 36.8764 128.912ZM36.8764 120.866C34.752 120.866 33.0236 122.594 33.0236 124.718C33.0236 126.843 34.752 128.571 36.8764 128.571C39.0011 128.571 40.7292 126.843 40.7292 124.718C40.7292 122.594 39.0011 120.866 36.8764 120.866Z" fill="#1A1A1A"/>
<path d="M234.866 192.048C243.854 185.397 245.282 173.792 240.167 167.403C236.606 162.955 229.982 161.17 223.47 162.633C226.463 156.001 224.758 148.267 219.495 143.819C213.571 138.811 204.369 139.006 198.293 144.613C196.85 144.319 185.548 142.211 176.561 149.913C168.848 156.524 165.974 167.672 169.405 178.003C191.225 182.685 213.046 187.366 234.866 192.048Z" fill="white"/>
<path d="M234.866 192.22C234.854 192.22 234.842 192.219 234.83 192.216L169.368 178.171C169.309 178.159 169.262 178.116 169.242 178.058C167.551 172.965 167.342 167.593 168.638 162.522C169.932 157.46 172.633 153.056 176.449 149.785C185.126 142.349 195.934 143.974 198.241 144.431C201.182 141.745 204.98 140.195 208.945 140.066C212.901 139.939 216.688 141.224 219.605 143.69C224.893 148.16 226.577 155.81 223.761 162.397C230.342 161.027 236.806 162.933 240.3 167.298C242.655 170.24 243.686 174.386 243.129 178.673C242.445 183.929 239.47 188.854 234.967 192.187C234.938 192.209 234.902 192.22 234.866 192.22ZM169.536 177.858L234.826 191.866C239.22 188.59 242.122 183.769 242.79 178.629C243.336 174.433 242.331 170.381 240.034 167.511C236.562 163.175 230.076 161.326 223.508 162.801C223.446 162.816 223.379 162.793 223.338 162.743C223.297 162.692 223.288 162.624 223.315 162.565C226.256 156.047 224.64 148.393 219.384 143.951C213.398 138.89 204.38 139.229 198.408 144.741C198.368 144.778 198.312 144.793 198.258 144.782C196.175 144.358 185.341 142.615 176.671 150.045C169.072 156.558 166.211 167.724 169.536 177.858Z" fill="#1A1A1A"/>
<path d="M160.536 170.23C160.536 170.23 161.684 156.009 188.629 156.009C215.573 156.009 225.335 180.269 225.335 180.269L160.536 170.23Z" fill="#1C0311"/>
<path d="M225.335 180.354C225.331 180.354 225.326 180.354 225.322 180.353L160.523 170.315C160.479 170.308 160.447 170.268 160.451 170.223C160.454 170.187 160.783 166.595 164.419 163.058C167.765 159.803 174.681 155.923 188.629 155.923C194.788 155.923 200.554 157.201 205.768 159.722C209.939 161.739 213.768 164.551 217.148 168.08C222.901 174.087 225.39 180.176 225.414 180.237C225.426 180.265 225.421 180.298 225.402 180.322C225.385 180.342 225.361 180.354 225.335 180.354ZM160.63 170.158L225.197 180.161C224.79 179.219 222.269 173.672 217.02 168.193C211.732 162.673 202.514 156.094 188.629 156.094C174.749 156.094 167.873 159.942 164.548 163.17C161.248 166.374 160.7 169.616 160.63 170.158Z" fill="#1A1A1A"/>
<path d="M191.28 124.717C191.28 127.623 188.923 129.979 186.018 129.979C183.111 129.979 180.756 127.623 180.756 124.717C180.756 121.812 183.111 119.456 186.018 119.456C188.923 119.456 191.28 121.812 191.28 124.717Z" fill="#CC4419"/>
<path d="M186.018 130.151C183.022 130.151 180.585 127.715 180.585 124.719C180.585 121.724 183.022 119.287 186.018 119.287C189.014 119.287 191.45 121.724 191.45 124.719C191.45 127.715 189.014 130.151 186.018 130.151ZM186.018 119.628C183.21 119.628 180.926 121.912 180.926 124.719C180.926 127.526 183.21 129.81 186.018 129.81C188.825 129.81 191.109 127.526 191.109 124.719C191.109 121.912 188.825 119.628 186.018 119.628Z" fill="black"/>
<path d="M60.3491 176.22C60.2994 176.219 60.2509 176.195 60.2186 176.153C60.1812 176.103 56.4373 171.099 54.449 163.946C53.2806 159.741 52.9366 155.625 53.427 151.714C54.0405 146.821 55.9678 142.237 59.155 138.09C65.1165 131.523 64.8762 117.854 64.8735 117.717C64.8712 117.622 64.9458 117.544 65.0401 117.542C65.1307 117.541 65.2121 117.615 65.2141 117.709C65.2174 117.847 65.4596 131.653 59.4164 138.309C52.2927 147.58 52.9611 157.319 54.7777 163.855C56.7486 170.946 60.4537 175.898 60.4909 175.947C60.5478 176.022 60.5326 176.129 60.4574 176.186C60.4249 176.21 60.3868 176.222 60.3491 176.22Z" fill="#1A1A1A"/>
<path d="M64.5764 124.539C64.5764 124.539 58.0932 115.502 64.8066 109.306C72.19 115.574 64.5764 124.539 64.5764 124.539Z" fill="#CC4419"/>
<path d="M64.5705 124.713L64.5694 124.713C64.5171 124.711 64.4686 124.684 64.4376 124.642C64.4213 124.619 62.7892 122.321 62.0088 119.291C60.9695 115.257 61.897 111.762 64.6911 109.183C64.7546 109.125 64.8517 109.123 64.9175 109.178C68.8034 112.478 68.5333 116.519 67.6228 119.329C66.643 122.351 64.7258 124.63 64.7065 124.653C64.6727 124.693 64.6227 124.715 64.5705 124.713ZM64.8121 109.538C62.1653 112.047 61.3333 115.299 62.3395 119.206C62.9779 121.683 64.1937 123.657 64.5881 124.255C65.0456 123.672 66.4975 121.698 67.301 119.214C68.5579 115.327 67.7204 112.072 64.8121 109.538Z" fill="black"/>
<path d="M63.4018 130.18C63.4018 130.18 65.991 123.49 74.2695 125.635C70.6291 131.165 67.4148 132.593 63.4018 130.18Z" fill="#CC4419"/>
<path d="M66.7625 131.479C65.6575 131.44 64.5183 131.053 63.3136 130.328C63.2427 130.286 63.2128 130.198 63.2426 130.12C63.2693 130.052 65.9838 123.315 74.3125 125.472C74.3657 125.486 74.4091 125.525 74.4288 125.576C74.4486 125.627 74.4424 125.685 74.412 125.731C71.7933 129.709 69.3752 131.57 66.7625 131.479ZM63.6179 130.112C67.4174 132.328 70.4442 131.055 73.994 125.744C70.7264 124.952 67.9879 125.45 65.8522 127.226C64.4872 128.362 63.8081 129.694 63.6179 130.112Z" fill="black"/>
<path d="M63.5016 130.231C63.5016 130.231 55.1103 130.05 57.041 121.588C62.2222 122.565 63.8273 128.495 63.5016 130.231Z" fill="#CC4419"/>
<path d="M63.4674 130.4C63.0845 130.386 59.6764 130.2 57.7887 127.779C56.5898 126.242 56.2824 124.146 56.8748 121.549C56.8952 121.46 56.9828 121.402 57.0728 121.42C62.305 122.406 64.0233 128.375 63.6692 130.261C63.654 130.343 63.5814 130.402 63.4982 130.4C63.4923 130.4 63.4822 130.4 63.4674 130.4ZM57.1716 121.787C56.6521 124.203 56.9494 126.147 58.0562 127.568C59.6967 129.672 62.6594 130.002 63.356 130.051C63.5814 128.128 61.9294 122.796 57.1716 121.787Z" fill="black"/>
<path d="M60.9624 135.867C60.9624 135.867 65.5894 129.929 73.9428 134.994C69.3907 140.05 61.3731 136.765 60.9624 135.867Z" fill="#CC4419"/>
<path d="M66.8658 137.906C66.3091 137.886 65.8038 137.831 65.3759 137.765C62.925 137.389 61.033 136.432 60.8072 135.938C60.7807 135.88 60.7889 135.812 60.8279 135.762C60.8762 135.7 62.0391 134.231 64.2586 133.372C66.3022 132.582 69.6568 132.196 74.0312 134.848C74.0747 134.875 74.1042 134.919 74.1117 134.969C74.1189 135.019 74.1037 135.071 74.0697 135.109C71.8916 137.528 69.0004 137.98 66.8658 137.906ZM61.1771 135.877C61.5206 136.242 63.1303 137.076 65.4277 137.428C67.3922 137.729 71.0445 137.809 73.6749 135.033C70.3764 133.085 67.1721 132.618 64.3976 133.684C62.5777 134.384 61.4724 135.54 61.1771 135.877Z" fill="black"/>
<path d="M60.8584 136.104C60.6047 135.986 54.1814 137.662 54.0829 129.085C59.2734 129.797 60.8584 136.104 60.8584 136.104Z" fill="#CC4419"/>
<path d="M59.3591 136.332C58.3636 136.297 57.0531 136.047 55.96 135.059C54.6333 133.86 53.9444 131.851 53.9126 129.087C53.912 129.038 53.9333 128.991 53.9705 128.958C54.0077 128.925 54.0558 128.91 54.1067 128.916C59.3507 129.635 61.0081 135.999 61.024 136.063C61.04 136.127 61.018 136.194 60.9671 136.236C60.9236 136.272 60.8656 136.283 60.8124 136.269C60.7752 136.269 60.665 136.278 60.5668 136.286C60.2936 136.311 59.8671 136.349 59.3591 136.332ZM54.2575 129.285C54.318 131.845 54.9674 133.702 56.189 134.806C57.7286 136.198 59.7686 136.015 60.5362 135.946C60.5718 135.943 60.6038 135.94 60.633 135.938C60.3065 134.866 58.5974 130.016 54.2575 129.285Z" fill="black"/>
<path d="M56.7253 142.111C56.7253 142.111 60.7733 136.522 67.8872 141.643C63.6598 144.047 59.8272 145.132 56.7253 142.111Z" fill="#CC4419"/>
<path d="M60.8912 144.126C59.3952 144.074 57.9408 143.534 56.6061 142.233C56.5452 142.174 56.5373 142.079 56.5867 142.011C56.6284 141.953 60.8181 136.344 67.9871 141.505C68.0343 141.539 68.0609 141.594 68.058 141.652C68.0549 141.71 68.0223 141.763 67.9718 141.792C65.7137 143.076 63.2506 144.209 60.8912 144.126ZM56.9555 142.095C59.5044 144.486 62.6985 144.345 67.569 141.627C64.757 139.671 62.1159 139.16 59.7165 140.11C58.1934 140.712 57.2424 141.749 56.9555 142.095Z" fill="black"/>
<path d="M56.1044 142.369C56.1044 142.369 49.0074 141.547 50.2375 134.165C54.6495 135.646 56.0937 140.424 56.1044 142.369Z" fill="#CC4419"/>
<path d="M56.0984 142.539C56.094 142.539 56.0892 142.539 56.0848 142.538C55.9566 142.524 52.9349 142.149 51.1576 139.787C50.0546 138.322 49.6886 136.421 50.069 134.137C50.0772 134.088 50.1069 134.044 50.1498 134.019C50.1923 133.993 50.244 133.987 50.2918 134.003C54.7856 135.511 56.2634 140.289 56.2747 142.368C56.2753 142.416 56.2549 142.464 56.2182 142.496C56.1853 142.526 56.1423 142.541 56.0984 142.539ZM50.3744 134.394C50.0634 136.491 50.4176 138.235 51.4286 139.58C52.8639 141.489 55.2334 142.043 55.9277 142.168C55.8237 140.172 54.364 135.851 50.3744 134.394Z" fill="black"/>
<path d="M54.2855 148.19C54.2855 148.19 61.0401 142.497 66.9331 150.304C63.8137 152.935 55.2029 150.614 54.2855 148.19Z" fill="#CC4419"/>
<path d="M62.3606 151.636C61.2009 151.596 60.0202 151.402 58.9699 151.129C56.4401 150.472 54.5384 149.342 54.1257 148.251C54.1001 148.183 54.1201 148.107 54.1754 148.06C54.2918 147.962 57.0726 145.659 60.6684 146.064C63.0442 146.331 65.1977 147.724 67.069 150.202C67.1238 150.275 67.1121 150.377 67.043 150.436C65.9088 151.392 64.16 151.699 62.3606 151.636ZM54.4943 148.243C54.9574 149.187 56.7588 150.202 59.0555 150.798C61.4761 151.427 64.8915 151.655 66.6964 150.276C64.9087 147.959 62.8696 146.656 60.6338 146.403C57.5494 146.054 55.0172 147.843 54.4943 148.243Z" fill="black"/>
<path d="M54.1852 148.582C54.1852 148.582 46.3484 150.603 46.2944 142.028C51.6664 142.614 53.6411 147.328 54.1852 148.582Z" fill="#CC4419"/>
<path d="M51.9797 148.959C50.8678 148.921 49.5264 148.652 48.3981 147.784C46.9059 146.635 46.1407 144.699 46.124 142.029C46.1235 141.98 46.1441 141.934 46.1802 141.901C46.2163 141.868 46.2655 141.853 46.3129 141.858C49.8965 142.249 52.5901 144.471 54.3194 148.463L54.3414 148.514C54.3613 148.559 54.36 148.612 54.3381 148.656C54.3163 148.701 54.2758 148.734 54.2275 148.747C54.1541 148.766 53.2065 149.002 51.9797 148.959ZM46.4678 142.22C46.5184 144.678 47.2368 146.458 48.6044 147.512C50.5258 148.992 53.2025 148.604 53.945 148.459C52.298 144.747 49.7835 142.649 46.4678 142.22Z" fill="black"/>
<path d="M64.1224 173.111C64.1224 173.111 51.2285 174.724 42.05 164.409C51.5361 161.101 63.8588 159.974 76.1788 170.899C71.5593 175.398 64.1224 173.111 64.1224 173.111Z" fill="#CC4419"/>
<path d="M69.014 173.842C66.468 173.931 64.4018 173.37 64.1078 173.286C63.7386 173.326 60.5968 173.628 56.4945 172.796C52.4812 171.982 46.6949 169.886 41.9226 164.523C41.8847 164.48 41.8706 164.422 41.8847 164.367C41.8992 164.311 41.9399 164.267 41.9938 164.248C47.7303 162.249 52.9896 161.561 58.0716 162.148C64.5526 162.896 70.6826 165.798 76.292 170.772C76.3275 170.803 76.3484 170.848 76.3498 170.896C76.3508 170.943 76.332 170.989 76.2979 171.022C74.1456 173.118 71.3736 173.759 69.014 173.842ZM64.1167 172.942C64.1357 172.941 64.1545 172.944 64.1726 172.949C64.2453 172.971 71.4242 175.11 75.9264 170.904C66.0595 162.226 55.0716 160.125 42.3492 164.487C47.0258 169.64 52.6479 171.668 56.5623 172.462C60.8561 173.332 64.0696 172.947 64.1011 172.943C64.1064 172.942 64.1114 172.942 64.1167 172.942Z" fill="black"/>
<path d="M74.1032 172.141C74.068 172.142 74.0321 172.133 74.0006 172.111C65.7409 166.427 43.0416 164.878 42.8132 164.863C42.7193 164.856 42.6479 164.775 42.6541 164.681C42.6604 164.587 42.7402 164.518 42.8357 164.522C43.065 164.537 65.8573 166.093 74.1941 171.83C74.2718 171.883 74.2914 171.989 74.2379 172.067C74.2062 172.113 74.1554 172.139 74.1032 172.141Z" fill="#1A1A1A"/>
<path d="M84.2046 171.504C84.2046 171.504 61.0213 173.361 68.4904 154.363C75.2465 155.453 84.2046 171.504 84.2046 171.504Z" fill="#1C0311"/>
<path d="M83.6325 171.619C81.2739 171.701 72.3505 171.66 68.6148 166.622C66.4313 163.678 66.3624 159.543 68.411 154.333C68.4259 154.295 68.4649 154.273 68.504 154.28C75.2237 155.364 83.9129 170.806 84.2795 171.463C84.2935 171.488 84.2938 171.52 84.2801 171.545C84.2665 171.571 84.2405 171.588 84.2115 171.59C84.1967 171.591 83.99 171.606 83.6325 171.619ZM68.5447 154.46C66.5449 159.581 66.6148 163.639 68.7516 166.521C72.7427 171.903 82.7807 171.501 84.0635 171.428C83.2315 169.969 74.8709 155.574 68.5447 154.46Z" fill="#1A1A1A"/>
<path d="M82.0507 170.576C82.0507 170.576 72.6198 156.181 83.2828 134.985C91.7346 146.658 93.3749 164.72 89.9532 169.789C85.6834 170.822 82.0507 170.576 82.0507 170.576Z" fill="white"/>
<path d="M84.0402 170.754C82.8174 170.796 82.0558 170.748 82.0393 170.747C81.9857 170.743 81.9375 170.715 81.908 170.67C81.884 170.634 79.5188 166.969 78.4998 160.757C77.561 155.031 77.6017 145.899 83.1305 134.909C83.1572 134.856 83.2099 134.82 83.2693 134.815C83.3281 134.809 83.3861 134.837 83.4211 134.885C91.9254 146.631 93.5693 164.737 90.0947 169.885C90.0708 169.92 90.0347 169.945 89.9934 169.955C87.6698 170.517 85.5181 170.702 84.0402 170.754ZM82.1484 170.411C82.719 170.439 86.0416 170.549 89.8481 169.639C91.5017 167.115 91.9162 161.341 90.902 154.89C90.2275 150.6 88.3471 142.392 83.3091 135.314C77.9519 146.101 77.9136 155.055 78.8337 160.683C79.7608 166.355 81.8175 169.873 82.1484 170.411Z" fill="#1A1A1A"/>
<path d="M86.4296 170.67C86.3612 170.673 86.2952 170.634 86.2669 170.567C80.2561 156.593 83.1209 136.826 83.1504 136.628C83.1645 136.535 83.2506 136.471 83.3445 136.485C83.4375 136.499 83.5018 136.586 83.488 136.679C83.4585 136.876 80.6086 156.548 86.5804 170.433C86.6176 170.519 86.5777 170.619 86.4912 170.657C86.4708 170.665 86.4503 170.67 86.4296 170.67Z" fill="#1A1A1A"/>
<path d="M89.3207 168.661C89.3207 168.661 82.1277 149.997 99.1688 141.845C105.941 156.06 94.5882 169.119 94.5882 169.119L89.3207 168.661Z" fill="#CC4419"/>
<path d="M94.5944 169.291C94.5874 169.291 94.5807 169.291 94.5737 169.29L89.306 168.832C89.2409 168.826 89.1852 168.784 89.1618 168.723C89.1436 168.676 87.354 163.958 87.6842 158.302C87.8787 154.973 88.7564 151.974 90.294 149.389C92.2162 146.156 95.1772 143.567 99.095 141.693C99.1354 141.674 99.1828 141.671 99.2259 141.686C99.2686 141.701 99.3036 141.733 99.3229 141.773C102.848 149.172 101.406 156.245 99.5769 160.877C97.5971 165.887 94.7459 169.199 94.7174 169.232C94.6859 169.268 94.6413 169.289 94.5944 169.291ZM89.4438 168.502L94.5148 168.942C94.9207 168.456 97.4585 165.314 99.2634 160.741C101.052 156.207 102.465 149.303 99.0876 142.075C90.4931 146.257 88.3262 153.203 88.0257 158.31C87.7232 163.444 89.1912 167.797 89.4438 168.502Z" fill="black"/>
<path d="M92.423 168.902C92.3425 168.904 92.2687 168.85 92.2502 168.768C90.2696 159.91 98.6183 143.099 98.7027 142.93C98.7451 142.846 98.8477 142.812 98.9319 142.854C99.0162 142.897 99.0502 142.999 99.0079 143.083C98.9239 143.251 90.6291 159.954 92.5835 168.694C92.604 168.786 92.546 168.877 92.4541 168.898C92.4436 168.9 92.4333 168.901 92.423 168.902Z" fill="#1A1A1A"/>
<path d="M211.583 178.836C211.583 178.836 211.442 159.121 228.084 149.41C238.459 158.908 225.32 180.173 225.32 180.173L211.583 178.836Z" fill="#CC4419"/>
<path d="M225.326 180.342C225.319 180.343 225.311 180.342 225.304 180.342L211.566 179.005C211.48 178.996 211.413 178.923 211.412 178.836C211.412 178.786 211.4 173.808 213.431 167.709C215.306 162.077 219.356 154.304 227.998 149.261C228.063 149.224 228.144 149.232 228.2 149.283C230.599 151.48 231.945 154.484 232.199 158.211C232.402 161.177 231.916 164.605 230.756 168.402C228.785 174.852 225.498 180.208 225.466 180.261C225.435 180.31 225.383 180.341 225.326 180.342ZM211.755 178.68L225.23 179.992C225.668 179.263 228.614 174.247 230.431 168.296C232.218 162.446 233.249 154.473 228.061 149.62C219.59 154.609 215.608 162.257 213.758 167.806C211.942 173.257 211.771 177.8 211.755 178.68Z" fill="black"/>
<path d="M217.521 178.069C217.477 178.07 217.432 178.054 217.397 178.021C217.329 177.956 217.327 177.848 217.392 177.78C225.072 169.73 227.519 151.11 227.543 150.923C227.555 150.829 227.639 150.763 227.734 150.775C227.827 150.787 227.893 150.872 227.882 150.966C227.857 151.154 225.397 169.884 217.638 178.016C217.607 178.049 217.564 178.067 217.521 178.069Z" fill="#1A1A1A"/>
<path d="M223.795 178.225C223.795 178.225 229.079 160.512 243.118 160.752C243.016 169.155 231.576 181.422 231.576 181.422L223.795 178.225Z" fill="#CC4419"/>
<path d="M231.582 181.595C231.558 181.596 231.534 181.591 231.511 181.582L223.73 178.384C223.649 178.351 223.607 178.262 223.632 178.178C223.645 178.134 224.996 173.672 228.052 169.302C230.882 165.255 235.792 160.457 243.121 160.582C243.215 160.584 243.289 160.661 243.288 160.755C243.187 169.127 231.816 181.417 231.701 181.54C231.669 181.574 231.626 181.593 231.582 181.595ZM224.005 178.128L231.531 181.221C232.54 180.116 242.703 168.79 242.944 160.922C235.859 160.876 231.097 165.547 228.337 169.49C225.621 173.372 224.265 177.325 224.005 178.128Z" fill="black"/>
<path d="M227.745 178.624C227.715 178.625 227.684 178.618 227.655 178.602C227.573 178.556 227.544 178.451 227.591 178.369C231.042 172.291 241.597 162.196 241.703 162.095C241.771 162.03 241.879 162.032 241.944 162.1C242.009 162.169 242.007 162.277 241.938 162.342C241.832 162.442 231.314 172.503 227.888 178.538C227.857 178.591 227.802 178.622 227.745 178.624Z" fill="#1A1A1A"/>
<path d="M246.116 188.882C246.116 200.465 191.059 209.855 123.143 209.855C55.2274 209.855 0.170776 200.465 0.170776 188.882C0.170776 177.3 55.2274 167.91 123.143 167.91C191.059 167.91 246.116 177.3 246.116 188.882Z" fill="white"/>
<path d="M123.143 210.025C90.2869 210.025 59.3957 207.843 36.1601 203.88C12.842 199.903 0 194.577 0 188.882C0 183.187 12.842 177.861 36.1601 173.884C59.3957 169.922 90.2866 167.739 123.143 167.739C156 167.739 186.891 169.922 210.126 173.884C233.445 177.861 246.286 183.187 246.286 188.882C246.286 194.577 233.445 199.903 210.126 203.88C186.891 207.843 155.999 210.025 123.143 210.025ZM123.143 168.081C90.3054 168.081 59.4343 170.261 36.2171 174.221C24.9355 176.145 16.0807 178.384 9.89841 180.877C3.55679 183.434 0.341541 186.127 0.341541 188.882C0.341541 191.637 3.55679 194.33 9.89841 196.887C16.0807 199.38 24.9355 201.619 36.2171 203.544C59.4346 207.503 90.3054 209.684 123.143 209.684C155.981 209.684 186.852 207.503 210.069 203.544C221.35 201.619 230.206 199.38 236.388 196.887C242.73 194.33 245.945 191.637 245.945 188.882C245.945 186.127 242.73 183.434 236.388 180.877C230.206 178.384 221.35 176.145 210.069 174.221C186.852 170.261 155.981 168.081 123.143 168.081Z" fill="#1A1A1A"/>
<path d="M59.6956 39.9048C59.6956 30.9773 52.4574 23.7402 43.5288 23.7402C34.6 23.7402 27.3623 30.9773 27.3623 39.9048C27.3623 48.8323 34.6 56.0694 43.5288 56.0694C52.4574 56.0694 59.6956 48.8323 59.6956 39.9048Z" fill="white"/>
<path d="M43.5291 56.239C34.5209 56.239 27.1918 48.9111 27.1918 39.9037C27.1918 30.8963 34.5209 23.5684 43.5291 23.5684C52.5373 23.5684 59.8664 30.8963 59.8664 39.9037C59.8664 48.9111 52.5373 56.239 43.5291 56.239ZM43.5291 23.9096C34.709 23.9096 27.5331 31.0844 27.5331 39.9037C27.5331 48.7227 34.709 55.8978 43.5291 55.8978C52.3492 55.8978 59.5251 48.7227 59.5251 39.9037C59.5251 31.0844 52.3492 23.9096 43.5291 23.9096Z" fill="#1A1A1A"/>
<path d="M44.5227 39.904C44.5227 39.3551 44.0777 38.9102 43.5288 38.9102C42.9799 38.9102 42.535 39.3551 42.535 39.904C42.535 40.4527 42.9799 40.8979 43.5288 40.8979C44.0777 40.8979 44.5227 40.4527 44.5227 39.904Z" fill="#1C0311"/>
<path d="M43.5291 40.9834C42.9341 40.9834 42.45 40.4991 42.45 39.904C42.45 39.3093 42.9341 38.8252 43.5291 38.8252C44.1242 38.8252 44.6082 39.3093 44.6082 39.904C44.6082 40.4991 44.1242 40.9834 43.5291 40.9834ZM43.5291 38.9957C43.0283 38.9957 42.6205 39.4032 42.6205 39.904C42.6205 40.4049 43.0283 40.8124 43.5291 40.8124C44.03 40.8124 44.4375 40.4049 44.4375 39.904C44.4375 39.4032 44.03 38.9957 43.5291 38.9957Z" fill="#1A1A1A"/>
<path d="M44.5227 27.1176C44.5227 26.569 44.0778 26.124 43.5288 26.124C42.9799 26.124 42.535 26.569 42.535 27.1176C42.535 27.6665 42.9799 28.1118 43.5288 28.1118C44.0778 28.1118 44.5227 27.6665 44.5227 27.1176Z" fill="#1C0311"/>
<path d="M43.5291 28.1953C42.9341 28.1953 42.45 27.7113 42.45 27.1162C42.45 26.5212 42.9341 26.0371 43.5291 26.0371C44.1241 26.0371 44.6082 26.5212 44.6082 27.1162C44.6082 27.7113 44.1241 28.1953 43.5291 28.1953ZM43.5291 26.2079C43.0283 26.2079 42.6205 26.6154 42.6205 27.1162C42.6205 27.6171 43.0283 28.0246 43.5291 28.0246C44.03 28.0246 44.4374 27.6171 44.4374 27.1162C44.4374 26.6154 44.03 26.2079 43.5291 26.2079Z" fill="#1A1A1A"/>
<path d="M30.7413 38.9102C30.1924 38.9102 29.7475 39.3554 29.7475 39.9043C29.7475 40.4529 30.1924 40.8979 30.7413 40.8979C31.2902 40.8979 31.7352 40.4529 31.7352 39.9043C31.7352 39.3554 31.2902 38.9102 30.7413 38.9102Z" fill="#1C0311"/>
<path d="M30.7414 40.9834C30.1463 40.9834 29.6622 40.4991 29.6622 39.904C29.6622 39.3093 30.1463 38.8252 30.7414 38.8252C31.3364 38.8252 31.8205 39.3093 31.8205 39.904C31.8205 40.4991 31.3364 40.9834 30.7414 40.9834ZM30.7414 38.9957C30.2405 38.9957 29.833 39.4032 29.833 39.904C29.833 40.4049 30.2405 40.8124 30.7414 40.8124C31.2422 40.8124 31.65 40.4049 31.65 39.904C31.65 39.4032 31.2422 38.9957 30.7414 38.9957Z" fill="#1A1A1A"/>
<path d="M42.5352 52.6879C42.5352 53.2368 42.9802 53.6821 43.5291 53.6821C44.078 53.6821 44.523 53.2368 44.523 52.6879C44.523 52.1393 44.078 51.6943 43.5291 51.6943C42.9802 51.6943 42.5352 52.1393 42.5352 52.6879Z" fill="#1C0311"/>
<path d="M43.5291 53.7686C42.9341 53.7686 42.45 53.2845 42.45 52.6895C42.45 52.0944 42.9341 51.6104 43.5291 51.6104C44.1242 51.6104 44.6082 52.0944 44.6082 52.6895C44.6082 53.2845 44.1242 53.7686 43.5291 53.7686ZM43.5291 51.7811C43.0283 51.7811 42.6205 52.1886 42.6205 52.6895C42.6205 53.1903 43.0283 53.5978 43.5291 53.5978C44.03 53.5978 44.4375 53.1903 44.4375 52.6895C44.4375 52.1886 44.03 51.7811 43.5291 51.7811Z" fill="#1A1A1A"/>
<path d="M56.3163 40.8973C56.8652 40.8973 57.3102 40.4527 57.3102 39.9037C57.3102 39.3548 56.8652 38.9102 56.3163 38.9102C55.7674 38.9102 55.3224 39.3548 55.3224 39.9037C55.3224 40.4527 55.7674 40.8973 56.3163 40.8973Z" fill="#1C0311"/>
<path d="M56.3166 40.9834C55.7216 40.9834 55.2369 40.4991 55.2369 39.904C55.2369 39.3093 55.7216 38.8252 56.3166 38.8252C56.9113 38.8252 57.3957 39.3093 57.3957 39.904C57.3957 40.4991 56.9113 40.9834 56.3166 40.9834ZM56.3166 38.9957C55.8157 38.9957 55.408 39.4032 55.408 39.904C55.408 40.4049 55.8157 40.8124 56.3166 40.8124C56.8174 40.8124 57.2249 40.4049 57.2249 39.904C57.2249 39.4032 56.8174 38.9957 56.3166 38.9957Z" fill="#1A1A1A"/>
<path d="M37.036 34.7361L43.1979 39.9036L44.059 39.6386L37.7277 34.0757C37.1984 33.5212 36.5064 34.1816 37.036 34.7361Z" fill="#1C0311"/>
<path d="M43.9942 40.0127L51.948 35.714C53.31 34.9779 52.9004 34.2201 51.5385 34.9562L43.3515 39.3809L43.9942 40.0127Z" fill="#1C0311"/>
<path d="M72.6216 93.9763L69.1605 93.3416C68.2701 93.7687 67.6348 94.0731 66.7446 94.4999L65.0715 97.5955C62.8996 97.1972 62.9788 97.2117 60.8072 96.8136L60.3414 93.3261C59.6601 92.6109 59.1742 92.1009 58.4933 91.3863L55.0323 90.7515C54.74 88.5629 54.7505 88.6429 54.4583 86.4543L57.631 84.9332L58.905 82.576L58.4392 79.0885C60.4301 78.1341 60.3575 78.1689 62.3486 77.2143L64.7758 79.7619C65.7466 79.94 66.4395 80.067 67.411 80.2451L70.5837 78.7241C72.1066 80.3227 72.0511 80.2644 73.5742 81.863L71.9012 84.9586C72.0319 85.9372 72.1252 86.6358 72.2558 87.6144L74.683 90.162L72.6216 93.9763Z" fill="#1C0311"/>
<path d="M54.3829 86.413C54.3913 86.3975 54.4046 86.3847 54.4212 86.3769L57.5692 84.8682L58.8169 82.5594L58.3544 79.0994C58.3496 79.0625 58.3687 79.0271 58.4021 79.0111L62.3117 77.137C62.3449 77.1209 62.3847 77.1284 62.4103 77.155L64.8179 79.6825L67.3986 80.1556L70.5467 78.6467C70.5801 78.6308 70.62 78.638 70.6455 78.6649L73.6356 81.8039C73.6612 81.8307 73.6667 81.8706 73.649 81.9033L71.9892 84.9743L72.3366 87.5752L74.7442 90.1027C74.7697 90.1296 74.7752 90.1694 74.7575 90.2021L72.6962 94.0161C72.6785 94.0488 72.6422 94.0661 72.6058 94.0594L69.1723 93.4301L66.8061 94.5645L65.1464 97.6355C65.1289 97.668 65.0924 97.6854 65.056 97.6788L60.7917 96.8972C60.7553 96.8905 60.7274 96.8611 60.7224 96.8244L60.26 93.3642L58.4503 91.4645L55.0168 90.8352C54.9805 90.8282 54.9526 90.7988 54.9477 90.7625L54.3735 86.4651C54.3711 86.4467 54.3746 86.4285 54.3829 86.413ZM58.9803 82.6162L57.7062 84.9737C57.6977 84.9894 57.6839 85.002 57.6677 85.0097L54.5511 86.5039L55.1086 90.6783L58.5084 91.3018C58.5263 91.3051 58.5423 91.3137 58.5546 91.3267L60.4029 93.2667C60.4152 93.2797 60.4236 93.2966 60.426 93.3144L60.8834 96.7405L65.0259 97.4998L66.6693 94.4591C66.678 94.4431 66.6911 94.4305 66.7075 94.4225L69.1234 93.2642C69.1399 93.2566 69.1583 93.2538 69.1758 93.2572L72.5757 93.8805L74.578 90.1756L72.1939 87.6729C72.1816 87.6598 72.1737 87.6432 72.171 87.6252L71.8164 84.9695C71.8141 84.9514 71.8175 84.9335 71.8261 84.9176L73.4695 81.8768L70.5647 78.8273L67.448 80.3218C67.4317 80.3295 67.413 80.3318 67.3954 80.3286L64.7598 79.8452C64.7422 79.8421 64.7262 79.8334 64.7136 79.8203L62.3294 77.3178L58.532 79.1382L58.9894 82.5642C58.9918 82.5821 58.9888 82.6005 58.9803 82.6162Z" fill="#1A1A1A"/>
<path d="M62.6298 91.9001C65.1033 93.2369 68.1923 92.3152 69.5292 89.8415C70.8661 87.3679 69.9449 84.2786 67.4714 82.9418C64.9978 81.605 61.9085 82.5268 60.5717 85.0003C59.2347 87.4741 60.1563 90.5633 62.6298 91.9001Z" fill="white"/>
<path d="M60.4214 84.9187C61.8009 82.3662 64.9997 81.4118 67.5522 82.7913C70.1046 84.1707 71.0587 87.3697 69.6792 89.9221C68.2996 92.4748 65.1008 93.4293 62.5484 92.0498C59.9959 90.6703 59.0418 87.4714 60.4214 84.9187ZM69.3793 89.76C70.6693 87.373 69.7765 84.3816 67.3898 83.0917C65.0031 81.8018 62.0117 82.694 60.7217 85.0809C59.4316 87.4679 60.324 90.4594 62.7108 91.7493C65.0975 93.0392 68.0892 92.147 69.3793 89.76Z" fill="#1A1A1A"/>
<path d="M195.076 40.1868H161.815L160.026 37.6991L169.898 12.0738L201.47 9.68555L203.159 12.0738L195.076 40.1868Z" fill="#1C0311"/>
<path d="M195.076 40.2726H161.815C161.787 40.2726 161.762 40.2595 161.746 40.2371L159.957 37.7491C159.94 37.7256 159.936 37.6955 159.946 37.6686L169.819 12.0433C169.831 12.0126 169.859 11.9914 169.892 11.9888L201.464 9.60088C201.493 9.59837 201.522 9.61206 201.54 9.63666L203.229 12.0246C203.244 12.0456 203.249 12.0724 203.241 12.0973L195.158 40.2109C195.147 40.2475 195.114 40.2726 195.076 40.2726ZM161.859 40.1019H195.012L203.066 12.0895L201.428 9.77472L169.959 12.1549L160.122 37.6868L161.859 40.1019Z" fill="#1A1A1A"/>
<path d="M193.416 37.6992H160.155L168.238 9.58594H201.499L193.416 37.6992Z" fill="white"/>
<path d="M193.416 37.8683H160.155C160.101 37.8683 160.051 37.8432 160.019 37.8004C159.986 37.7577 159.976 37.702 159.991 37.6506L168.074 9.53704C168.095 9.46381 168.162 9.41406 168.238 9.41406H201.499C201.553 9.41406 201.603 9.43894 201.635 9.48198C201.668 9.52474 201.678 9.58008 201.663 9.63178L193.579 37.7451C193.558 37.8186 193.492 37.8683 193.416 37.8683ZM160.382 37.5271H193.287L201.273 9.75532H168.366L160.382 37.5271Z" fill="#1A1A1A"/>
<path d="M173.046 22.2373H188.748C190.571 23.5305 189.937 24.5783 187.887 25.4839L172.184 25.2189C171.388 24.189 171.589 23.192 173.046 22.2373Z" fill="white"/>
<path d="M187.887 25.653H187.884L172.181 25.3877C172.129 25.3869 172.081 25.3626 172.049 25.3215C171.651 24.8061 171.49 24.2949 171.573 23.8016C171.674 23.2018 172.138 22.6272 172.952 22.0934C172.979 22.0752 173.012 22.0654 173.045 22.0654H188.748C188.784 22.0654 188.818 22.0763 188.847 22.0967C189.672 22.682 190.045 23.2407 189.989 23.8041C189.922 24.4637 189.257 25.0635 187.956 25.6381C187.934 25.6479 187.911 25.653 187.887 25.653ZM172.27 25.0479L187.852 25.3109C188.992 24.8025 189.597 24.284 189.649 23.77C189.691 23.3542 189.369 22.8958 188.693 22.4067H173.097C172.392 22.8776 171.992 23.3656 171.91 23.8578C171.846 24.2396 171.964 24.6295 172.27 25.0479Z" fill="#1A1A1A"/>
<path d="M185.881 15.7163C185.881 17.436 184.398 18.8301 182.568 18.8301C180.739 18.8301 179.255 17.436 179.255 15.7163C179.255 13.9966 180.739 12.6025 182.568 12.6025C184.398 12.6025 185.881 13.9966 185.881 15.7163Z" fill="#CC4419"/>
<path d="M182.568 19.0012C180.647 19.0012 179.084 17.5277 179.084 15.7169C179.084 13.9058 180.647 12.4326 182.568 12.4326C184.489 12.4326 186.052 13.9058 186.052 15.7169C186.052 17.5277 184.489 19.0012 182.568 19.0012ZM182.568 12.7739C180.835 12.7739 179.426 14.0942 179.426 15.7169C179.426 17.3396 180.835 18.6599 182.568 18.6599C184.301 18.6599 185.71 17.3396 185.71 15.7169C185.71 14.0942 184.301 12.7739 182.568 12.7739Z" fill="black"/>
<path d="M241.472 63.8223H189.274C186.265 63.8223 183.764 65.983 183.229 68.8363H247.516C246.981 65.983 244.481 63.8223 241.472 63.8223Z" fill="#1C0311"/>
<path d="M247.517 68.9231H183.229C183.204 68.9231 183.18 68.9114 183.164 68.8918C183.147 68.8725 183.141 68.8468 183.145 68.8219C183.698 65.8764 186.275 63.7383 189.274 63.7383H241.472C244.47 63.7383 247.048 65.8764 247.6 68.8219C247.605 68.8468 247.598 68.8725 247.582 68.8918C247.566 68.9114 247.542 68.9231 247.517 68.9231ZM183.333 68.752H247.412C246.836 65.9393 244.354 63.9088 241.472 63.9088H189.274C186.391 63.9088 183.91 65.9393 183.333 68.752Z" fill="#1A1A1A"/>
<path d="M183.229 68.8379C183.16 69.2077 183.119 69.5878 183.119 69.9776V95.7315C183.119 99.1301 185.875 101.885 189.274 101.885H241.472C244.87 101.885 247.626 99.1301 247.626 95.7315V69.9776C247.626 69.5878 247.586 69.2077 247.516 68.8379H183.229Z" fill="white"/>
<path d="M241.472 102.056H189.274C185.787 102.056 182.949 99.2193 182.949 95.7321V69.9782C182.949 69.5995 182.987 69.2057 183.062 68.8072C183.076 68.7264 183.147 68.668 183.229 68.668H247.516C247.598 68.668 247.669 68.7264 247.684 68.8072C247.759 69.2057 247.797 69.5995 247.797 69.9782V95.7321C247.797 99.2193 244.959 102.056 241.472 102.056ZM183.373 69.0092C183.318 69.3393 183.29 69.6646 183.29 69.9782V95.7321C183.29 99.0312 185.975 101.715 189.274 101.715H241.472C244.771 101.715 247.455 99.0312 247.455 95.7321V69.9782C247.455 69.6646 247.428 69.3393 247.373 69.0092H183.373Z" fill="#1A1A1A"/>
<path d="M233.837 89.3777C233.837 93.044 230.864 96.0161 227.198 96.0161C223.531 96.0161 220.558 93.044 220.558 89.3777C220.558 85.7114 223.531 82.7393 227.198 82.7393C230.864 82.7393 233.837 85.7114 233.837 89.3777Z" fill="#1C0311"/>
<path d="M227.198 96.1026C223.489 96.1026 220.473 93.0864 220.473 89.379C220.473 85.6715 223.489 82.6553 227.198 82.6553C230.906 82.6553 233.923 85.6715 233.923 89.379C233.923 93.0864 230.906 96.1026 227.198 96.1026ZM227.198 82.8258C223.584 82.8258 220.644 85.7654 220.644 89.379C220.644 92.9922 223.584 95.9321 227.198 95.9321C230.812 95.9321 233.751 92.9922 233.751 89.379C233.751 85.7654 230.812 82.8258 227.198 82.8258Z" fill="#1A1A1A"/>
<path d="M240.476 89.3777C240.476 93.044 237.504 96.0161 233.837 96.0161C230.17 96.0161 227.198 93.044 227.198 89.3777C227.198 85.7114 230.17 82.7393 233.837 82.7393C237.504 82.7393 240.476 85.7114 240.476 89.3777Z" fill="#CC4419"/>
<path d="M233.837 96.1887C230.082 96.1887 227.027 93.1339 227.027 89.3795C227.027 85.6249 230.082 82.5703 233.837 82.5703C237.592 82.5703 240.647 85.6249 240.647 89.3795C240.647 93.1339 237.592 96.1887 233.837 96.1887ZM233.837 82.9116C230.27 82.9116 227.368 85.813 227.368 89.3795C227.368 92.9458 230.27 95.8472 233.837 95.8472C237.404 95.8472 240.306 92.9458 240.306 89.3795C240.306 85.813 237.404 82.9116 233.837 82.9116Z" fill="black"/>
<path d="M217.481 81.3725H187.393V77.9541H217.481V81.3725Z" fill="white"/>
<path d="M217.481 81.5444H187.393C187.299 81.5444 187.223 81.4679 187.223 81.3734V77.9552C187.223 77.8608 187.299 77.7842 187.393 77.7842H217.481C217.575 77.7842 217.652 77.8608 217.652 77.9552V81.3734C217.652 81.4679 217.575 81.5444 217.481 81.5444ZM187.564 81.2029H217.31V78.1257H187.564V81.2029Z" fill="#1A1A1A"/>
<path d="M217.481 94.8774H187.393V91.459H217.481V94.8774Z" fill="white"/>
<path d="M217.481 95.0493H187.393C187.299 95.0493 187.223 94.9727 187.223 94.8785V91.4601C187.223 91.3656 187.299 91.2891 187.393 91.2891H217.481C217.575 91.2891 217.652 91.3656 217.652 91.4601V94.8785C217.652 94.9727 217.575 95.0493 217.481 95.0493ZM187.564 94.7081H217.31V91.6306H187.564V94.7081Z" fill="#1A1A1A"/>
<path d="M140.062 169.557L143.237 185.853C143.237 185.853 163.051 182.773 164.585 177.603C163.748 175.715 160.554 174.276 157.639 175.036C154.724 175.796 148.156 177.434 148.156 177.434L147.288 168.845L140.062 169.557Z" fill="white"/>
<path d="M140.062 169.557L143.237 185.853C143.237 185.853 163.051 182.773 164.585 177.603C163.748 175.715 160.554 174.276 157.639 175.036C154.724 175.796 148.156 177.434 148.156 177.434L147.288 168.845L140.062 169.557Z" stroke="black" stroke-width="2" stroke-miterlimit="10"/>
<path d="M134.804 115.837C134.804 115.837 133.084 151.68 137.821 169.013C139.346 175.368 148.764 171.978 148.764 171.978C148.764 171.978 158.987 104.465 156.4 92.9067C153.813 81.3483 115.388 77.4825 115.388 77.4825L98.5418 83.5284L134.804 115.837Z" fill="#CC4419"/>
<path d="M134.804 115.837C134.804 115.837 133.084 151.68 137.821 169.013C139.346 175.368 148.764 171.978 148.764 171.978C148.764 171.978 158.987 104.465 156.4 92.9067C153.813 81.3483 115.388 77.4825 115.388 77.4825L98.5418 83.5284L134.804 115.837Z" stroke="black" stroke-width="2" stroke-miterlimit="10"/>
<path d="M96.076 159.502C96.076 159.502 90.7202 165.844 90.7202 167.209C90.7202 168.573 93.1056 182.28 101.52 183.81C106.521 183.958 101.919 174.03 101.237 173.063C100.554 172.097 98.3944 168.63 98.3944 168.63L101.578 162.377L96.076 159.502Z" fill="white"/>
<path d="M96.076 159.502C96.076 159.502 90.7202 165.844 90.7202 167.209C90.7202 168.573 93.1056 182.28 101.52 183.81C106.521 183.958 101.919 174.03 101.237 173.063C100.554 172.097 98.3944 168.63 98.3944 168.63L101.578 162.377L96.076 159.502Z" stroke="black" stroke-width="2" stroke-miterlimit="10"/>
<path d="M110.957 86.1591C110.957 86.1591 135.969 88.7734 140.062 100.255C145.732 116.159 101.748 164.141 101.748 164.141C101.748 164.141 98.622 163.516 94.5291 159.935C94.5291 156.525 112.947 115.772 117.892 111.876C84.4496 117.016 75.1588 105.134 80.9702 83.7896C80.9702 83.7896 82.6354 83.5061 85.0972 83.0869" fill="#CC4419"/>
<path d="M110.957 86.1591C110.957 86.1591 135.969 88.7734 140.062 100.255C145.732 116.159 101.748 164.141 101.748 164.141C101.748 164.141 98.622 163.516 94.5291 159.935C94.5291 156.525 112.947 115.772 117.892 111.876C84.4496 117.016 75.1588 105.134 80.9702 83.7896C80.9702 83.7896 82.6354 83.5061 85.0972 83.0869" stroke="black" stroke-width="2" stroke-miterlimit="10"/>
<path d="M92.7322 100.731C92.6786 100.731 92.6257 100.706 92.5925 100.659C92.5383 100.582 92.5564 100.476 92.6333 100.421C95.6059 98.3261 97.2656 96.1184 97.5654 93.8599C97.8648 91.6061 96.6543 90.1175 96.642 90.103C96.5816 90.0306 96.592 89.9227 96.6644 89.8626C96.737 89.8023 96.8444 89.8126 96.9047 89.8847C96.9587 89.9501 98.2228 91.5046 97.9039 93.9052C97.5909 96.2618 95.8838 98.5478 92.8301 100.7C92.8001 100.721 92.7663 100.731 92.7322 100.731Z" fill="#1A1A1A"/>
<path d="M117.535 30.4285C127.101 30.6911 133.375 41.263 140.302 43.9845C147.228 46.7058 169.537 22.1085 169.537 22.1085C169.537 22.1085 171.667 23.2564 173.485 26.5994C169.243 46.6532 146.892 57.0604 139.118 56.8296C134.262 56.6854 120.478 48.0458 120.478 48.0458L117.535 30.4285Z" fill="white"/>
<path d="M117.535 30.4285C127.101 30.6911 133.375 41.263 140.302 43.9845C147.228 46.7058 169.537 22.1085 169.537 22.1085C169.537 22.1085 171.667 23.2564 173.485 26.5994C169.243 46.6532 146.892 57.0604 139.118 56.8296C134.262 56.6854 120.478 48.0458 120.478 48.0458L117.535 30.4285Z" stroke="black" stroke-width="2" stroke-miterlimit="10"/>
<path d="M170.338 21.794C170.338 21.794 168.589 22.8087 169.654 25.5637C170.718 28.3186 173.47 27.7638 173.888 26.152C174.305 24.54 171.995 21.6197 170.338 21.794Z" fill="#1C0311"/>
<path d="M170.338 21.794C170.338 21.794 168.589 22.8087 169.654 25.5637C170.718 28.3186 173.47 27.7638 173.888 26.152C174.305 24.54 171.995 21.6197 170.338 21.794Z" stroke="black" stroke-width="2" stroke-miterlimit="10"/>
<path d="M170.865 22.1729C170.865 22.1729 176.308 13.2799 182.937 15.4816C183.385 15.7736 182.136 16.8226 180.079 17.085C179.583 17.148 178.719 17.3551 178.486 17.8313C178.254 18.3076 180.399 21.4175 178.905 23.1706C177.411 24.9234 173.965 24.9873 173.361 25.872C171.577 25.2966 170.865 22.1729 170.865 22.1729Z" fill="white"/>
<path d="M170.865 22.1729C170.865 22.1729 176.308 13.2799 182.937 15.4816C183.385 15.7736 182.136 16.8226 180.079 17.085C179.583 17.148 178.719 17.3551 178.486 17.8313C178.254 18.3076 180.399 21.4175 178.905 23.1706C177.411 24.9234 173.965 24.9873 173.361 25.872C171.577 25.2966 170.865 22.1729 170.865 22.1729Z" stroke="black" stroke-width="2" stroke-miterlimit="10"/>
<path d="M80.0356 87.6121C80.0356 87.6121 101.824 86.3247 110.91 82.2835L119.995 78.2425L118.803 76.4656L81.1104 83.2955C81.1104 83.2955 79.8232 85.6248 80.0356 87.6121Z" fill="#1C0311"/>
<path d="M80.0356 87.6121C80.0356 87.6121 101.824 86.3247 110.91 82.2835L119.995 78.2425L118.803 76.4656L81.1104 83.2955C81.1104 83.2955 79.8232 85.6248 80.0356 87.6121Z" stroke="black" stroke-width="2" stroke-miterlimit="10"/>
<path d="M117.963 30.5462C112.152 28.7352 99.689 27.1266 93.6467 30.7777C93.6467 30.7777 71.581 82.4667 80.7488 84.9734C89.9164 87.4801 119.594 77.5686 119.594 77.5686C119.594 77.5686 119.605 60.2839 121.011 47.2211" fill="white"/>
<path d="M117.963 30.5462C112.152 28.7352 99.689 27.1266 93.6467 30.7777C93.6467 30.7777 71.581 82.4667 80.7488 84.9734C89.9164 87.4801 119.594 77.5686 119.594 77.5686C119.594 77.5686 119.605 60.2839 121.011 47.2211" stroke="black" stroke-width="2" stroke-miterlimit="10"/>
<path d="M117.051 59.2103C117.051 59.2103 123.448 58.2072 125.731 55.4985C128.015 52.7898 128.495 56.1751 127.284 57.1598C126.073 58.1444 131.322 57.6544 132.556 55.2989C133.789 52.943 134.313 55.2252 134.386 58.0747C134.459 60.924 130.89 63.7712 127.686 64.0693C124.483 64.3671 120.755 64.2043 118.183 65.0275C116.009 64.1585 117.051 59.2103 117.051 59.2103Z" fill="white"/>
<path d="M117.051 59.2103C117.051 59.2103 123.448 58.2072 125.731 55.4985C128.015 52.7898 128.495 56.1751 127.284 57.1598C126.073 58.1444 131.322 57.6544 132.556 55.2989C133.789 52.943 134.313 55.2252 134.386 58.0747C134.459 60.924 130.89 63.7712 127.686 64.0693C124.483 64.3671 120.755 64.2043 118.183 65.0275C116.009 64.1585 117.051 59.2103 117.051 59.2103Z" stroke="black" stroke-width="2" stroke-miterlimit="10"/>
<path d="M93.7004 30.7591C93.7004 30.7591 76.7744 49.9884 81.7176 65.2313C85.5407 77.0218 118.755 67.1556 118.798 65.5636C120.207 63.1033 119.671 58.1404 116.777 57.4561C100.522 58.8731 95.2281 57.3813 95.2281 57.3813C95.2281 57.3813 90.4858 54.7612 99.5216 46.0209" fill="white"/>
<path d="M93.7004 30.7591C93.7004 30.7591 76.7744 49.9884 81.7176 65.2313C85.5407 77.0218 118.755 67.1556 118.798 65.5636C120.207 63.1033 119.671 58.1404 116.777 57.4561C100.522 58.8731 95.2281 57.3813 95.2281 57.3813C95.2281 57.3813 90.4858 54.7612 99.5216 46.0209" stroke="black" stroke-width="2" stroke-miterlimit="10"/>
<path d="M113.899 37.0312L116.33 26.4522C116.33 26.4522 121.52 29.0195 122.644 26.5101C123.767 24.0009 132.355 10.7867 121.636 6.76671C114.588 4.12359 108.516 10.6009 108.662 18.5802C108.808 26.5597 106.234 31.4786 106.234 31.4786C106.234 31.4786 110.428 38.4666 113.899 37.0312Z" fill="white"/>
<path d="M113.899 37.0312L116.33 26.4522C116.33 26.4522 121.52 29.0195 122.644 26.5101C123.767 24.0009 132.355 10.7867 121.636 6.76671C114.588 4.12359 108.516 10.6009 108.662 18.5802C108.808 26.5597 106.234 31.4786 106.234 31.4786C106.234 31.4786 110.428 38.4666 113.899 37.0312Z" stroke="black" stroke-width="2" stroke-miterlimit="10"/>
<path d="M108.484 20.3302C108.484 20.3302 110.08 23.451 111.937 21.4557C113.046 20.5478 112.67 14.7523 114.444 15.2947C116.218 15.8371 115.73 18.1125 115.73 18.1125L117.222 18.0145C117.222 18.0145 116.729 13.984 118.694 13.1992C120.66 12.4144 128.347 18.09 130.21 13.81C132.072 9.53036 129.723 6.11045 129.723 6.11045C129.723 6.11045 126.627 7.17289 122.564 3.92155C118.5 0.670131 111.06 3.10661 112.079 7.43609C108.058 7.17629 105.288 16.097 108.484 20.3302Z" fill="#1C0311"/>
<path d="M108.484 20.3302C108.484 20.3302 110.08 23.451 111.937 21.4557C113.046 20.5478 112.67 14.7523 114.444 15.2947C116.218 15.8371 115.73 18.1125 115.73 18.1125L117.222 18.0145C117.222 18.0145 116.729 13.984 118.694 13.1992C120.66 12.4144 128.347 18.09 130.21 13.81C132.072 9.53036 129.723 6.11045 129.723 6.11045C129.723 6.11045 126.627 7.17289 122.564 3.92155C118.5 0.670131 111.06 3.10661 112.079 7.43609C108.058 7.17629 105.288 16.097 108.484 20.3302Z" stroke="black" stroke-width="2" stroke-miterlimit="10"/>
<path d="M116.189 26.3586L112.387 25.1963L115.871 28.4506L116.189 26.3586Z" fill="#1C0311"/>
<path d="M115.846 28.5321C115.834 28.5283 115.823 28.5216 115.813 28.5128L112.329 25.2586C112.3 25.2316 112.293 25.1881 112.313 25.1536C112.333 25.1193 112.374 25.1033 112.412 25.1149L116.214 26.2771C116.254 26.2895 116.28 26.3295 116.274 26.3714L115.956 28.4632C115.951 28.4944 115.929 28.5206 115.899 28.5311C115.882 28.5372 115.863 28.5372 115.846 28.5321ZM112.715 25.3858L115.811 28.2775L116.093 26.4186L112.715 25.3858Z" fill="#1A1A1A"/>
</svg>
