<svg width="904" height="753" viewBox="0 0 904 753" fill="none" xmlns="http://www.w3.org/2000/svg">
<mask id="mask0_4_2298" style="mask-type:luminance" maskUnits="userSpaceOnUse" x="0" y="0" width="904" height="652">
<path d="M0 0H904V652H0V0Z" fill="white"/>
</mask>
<g mask="url(#mask0_4_2298)">
<path d="M311.497 639.285C213.661 632.92 10.7625 658.078 0.718486 391.552C-5.44253 228.075 200.341 142.36 248.333 116.52C296.325 90.6799 363.79 -25.6891 535.236 5.41989C687.84 33.1099 710.154 132.418 749.724 298.617C773.72 399.401 912.646 410.281 902.542 520.441C893.141 622.927 730.704 666.558 311.497 639.285Z" fill="#EBF2FF"/>
<path d="M599.739 113.678C599.739 113.678 631.361 128.674 648.495 97.7763C665.63 66.8788 653.869 48.1217 653.869 48.1217C653.869 48.1217 585.596 55.5081 599.739 113.678Z" fill="#C7D9F8"/>
<path d="M585.412 124.316C585.424 124.401 585.447 124.485 585.481 124.568C585.697 125.082 586.288 125.325 586.803 125.11C610.393 115.233 642.041 71.9834 643.376 70.1466C643.704 69.6951 643.605 69.0644 643.155 68.737C642.703 68.4096 642.072 68.5082 641.744 68.9589C641.42 69.4031 609.092 113.588 586.022 123.247C585.591 123.428 585.351 123.873 585.412 124.316Z" fill="url(#paint0_linear_4_2298)"/>
<path d="M702.644 169.064C688.795 170.863 668.594 166.331 666.317 165.525C663.289 164.452 663.995 160.847 665.999 159.414C668.003 157.98 673.923 160.293 687.846 158.255C695.037 157.202 701.651 152.278 706.382 147.757C705.659 136.556 703.855 122.319 707.101 113.741C707.101 113.741 697.069 112.635 687.947 109.584C682.172 118.285 668.001 138.396 663.473 133.388C659.539 129.037 668.657 112.907 674.776 103.198C671.215 101.377 667.062 99.7861 661.589 99.1859C658.597 103.601 652.828 112.535 651.447 117.741C649.563 124.845 647.977 136.374 647.977 136.374C647.977 136.374 643.044 140.718 644.996 122.241C645.978 112.928 650.552 104.775 654.847 98.9736C646.819 99.2838 636.409 101.504 622.247 107.056C621.233 107.454 620.269 107.871 619.331 108.297C616.346 113.398 613.655 119.942 614.657 125.957C616.644 137.887 624.024 146.963 624.024 146.963C624.024 146.963 625.197 155.446 619.271 150.061C613.715 145.014 602.482 135.83 611.554 112.692C589.063 128.454 599.359 154.707 603.942 162.38C609.131 171.065 623.897 165.255 629.383 170.838C634.869 176.421 622.486 187.517 627.924 198.634C633.361 209.752 652.77 213.296 671.902 202.125C686.88 193.378 697.286 179.746 702.644 169.064ZM693.458 137.313C695.963 135.914 703.558 135.289 698.996 139.751C694.435 144.213 687.931 147.724 688.573 143.049C689.214 138.373 690.952 138.713 693.458 137.313ZM676.765 185.156C665.015 188.247 655.324 183.982 656.654 181.498C657.984 179.014 664.003 181.428 668.94 181.476C673.878 181.524 683.637 173.834 687.167 176.541C687.167 176.541 688.515 182.065 676.765 185.156Z" fill="#B5CAF4"/>
<path d="M263.068 506.8C263.068 506.8 333.834 416.502 246.357 340.754C158.879 265.006 90.0664 289.531 90.0664 289.531C90.0664 289.531 65.4896 511.821 263.068 506.8Z" fill="#B5CAF4"/>
<g opacity="0.5">
<path d="M174.265 409.396C116.898 349.607 99.2825 306.28 94.0669 288.414C91.4766 289.039 90.0665 289.53 90.0665 289.53C90.0665 289.53 89.8455 291.541 89.6134 295.159C96.5519 316.051 115.981 357.506 169.782 413.581C217.208 463.01 245.967 491.865 261.143 506.814C261.791 506.803 262.415 506.817 263.068 506.8C263.068 506.8 264.147 505.421 265.871 502.869C250.851 488.081 222.051 459.2 174.265 409.396Z" fill="#B5CAF4"/>
</g>
<path d="M624.115 396.635C624.115 396.635 697.444 411.732 716.272 338.602C735.1 265.473 700.767 232.398 700.767 232.398C700.767 232.398 563.747 282.657 624.115 396.635Z" fill="#B5CAF4"/>
<g opacity="0.5">
<path d="M655.21 316.436C673.467 265.538 693.66 242.651 702.582 234.411C701.465 233.078 700.767 232.398 700.767 232.398C700.767 232.398 699.529 232.853 697.347 233.769C687.158 243.896 668.584 267.298 651.462 315.033C636.369 357.111 627.87 382.303 623.546 395.516C623.741 395.891 623.915 396.259 624.115 396.635C624.115 396.635 625.235 396.865 627.226 397.131C631.501 384.056 640.003 358.834 655.21 316.436Z" fill="#628CD2"/>
</g>
<path d="M609.179 427.913C609.179 427.913 593.23 329.227 691.862 308.29C790.493 287.352 832.656 335.042 832.656 335.042C832.656 335.042 757.779 514.959 609.179 427.913Z" fill="#C7D9F8"/>
<g opacity="0.5">
<path d="M717.943 391.013C786.884 369.567 818.571 343.936 830.074 332.505C831.787 334.072 832.655 335.042 832.655 335.042C832.655 335.042 831.978 336.667 830.63 339.525C816.539 352.539 784.258 375.98 719.601 396.094C662.604 413.824 628.513 423.722 610.64 428.734C610.15 428.452 609.67 428.2 609.179 427.912C609.179 427.912 608.937 426.405 608.696 423.733C626.382 418.778 660.514 408.878 717.943 391.013Z" fill="#628CD2"/>
</g>
<path d="M153.676 432.05C153.676 432.05 166.326 374.027 108.679 357.566C51.0321 341.105 24.5438 367.744 24.5438 367.744C24.5438 367.744 62.9577 477.756 153.676 432.05Z" fill="#C7D9F8"/>
<g opacity="0.5">
<path d="M90.5578 405.686C50.4856 390.131 32.5827 373.605 26.1531 366.34C25.0889 367.202 24.5437 367.743 24.5437 367.743C24.5437 367.743 24.8915 368.737 25.5951 370.491C33.5044 378.801 51.8309 394.051 89.412 408.64C122.54 421.5 142.378 428.77 152.785 432.478C153.084 432.33 153.376 432.2 153.676 432.049C153.676 432.049 153.868 431.163 154.098 429.584C143.8 425.919 123.937 418.644 90.5578 405.686Z" fill="#628CD2"/>
</g>
<path d="M183.167 251.223C197.885 277.309 222.674 286.146 236.325 276.627C249.976 267.109 243.012 245.647 253.053 242.718C263.095 239.789 276.316 256.589 288.069 249.785C298.451 243.775 327.746 219.589 312.186 185.811C307.347 219.314 288.274 222.647 278.508 224.895C268.09 227.293 275.066 218.035 275.066 218.035C275.066 218.035 289.609 212.239 299.811 199.441C304.954 192.988 306.178 183.428 306.107 175.38C305.304 174.245 304.467 173.103 303.557 171.951C290.862 155.861 280.299 146.239 271.222 140.48C272.344 150.238 272.23 162.966 267.197 174.66C257.212 197.859 254.387 189.401 254.387 189.401C254.387 189.401 260.191 174.678 262.719 164.996C264.571 157.902 263.821 143.443 263.287 136.204C256.563 133.238 250.707 132.332 245.383 132.098C246.025 147.71 245.879 172.943 238.449 175.455C229.898 178.346 226.836 145.003 225.926 130.817C213.357 128.303 201.026 122.876 201.026 122.876C199.097 135.219 187.577 150.872 179.322 163.656C181.796 172.189 186.182 182.467 193.798 188.544C208.544 200.31 216.92 201.546 218.288 204.59C219.654 207.635 218.083 212.379 213.872 211.616C210.704 211.043 184.348 202.842 169.529 191.409C168.647 207.663 171.645 230.802 183.167 251.223ZM203.031 170.042C200.676 176.011 195.483 167.483 193.165 159.133C190.848 150.784 199.213 156.624 201.182 159.965C203.151 163.307 205.387 164.072 203.031 170.042ZM182.467 210.663C188.342 209.827 194.531 225.492 200.27 228.751C206.01 232.01 214.569 233.195 214.461 237.031C214.352 240.866 200.322 239.411 188.787 227.856C177.251 216.302 182.467 210.663 182.467 210.663Z" fill="#B5CAF4"/>
<path d="M586.968 579.854C587.92 580.349 589.108 580.05 589.705 579.132C639.214 503.084 692.069 485.909 727.691 484.893C763.477 483.873 794.136 499.566 805.924 515.595C806.615 516.538 807.935 516.734 808.872 516.045C809.811 515.355 810.012 514.035 809.323 513.098C797.265 496.702 766.541 479.567 727.571 480.678C690.941 481.721 636.675 499.251 586.171 576.832C585.535 577.807 585.81 579.114 586.787 579.749C586.846 579.788 586.907 579.822 586.968 579.854Z" fill="#A7C1FF"/>
<path d="M852.563 565.274C852.563 565.274 813.119 503.977 802.231 506.636C791 509.379 852.563 565.274 852.563 565.274Z" fill="#A7C1FF"/>
<path d="M867.86 532.028C867.86 532.028 798.505 500.086 798.634 503.649C798.763 507.211 835.464 522.718 867.86 532.028Z" fill="#A7C1FF"/>
<path d="M863.126 503.028C863.126 503.028 843.257 506.962 820.355 503.775C797.452 500.588 787.719 497.976 787.719 497.976C787.719 497.976 807.454 494.298 822.049 495.941C836.643 497.584 863.126 503.028 863.126 503.028Z" fill="#A7C1FF"/>
<path d="M854.237 477.416C854.237 477.416 824.32 486.427 811.21 487.931C798.098 489.436 778.051 492.951 778.051 492.951C778.051 492.951 798.09 484.748 809.886 481.931C821.682 479.114 854.237 477.416 854.237 477.416Z" fill="#A7C1FF"/>
<path d="M841.559 454.587C841.559 454.587 818.836 470.109 805.229 475.714C791.622 481.318 771.219 486.277 771.219 486.277C771.219 486.277 790.45 472.901 801.711 468.001C812.972 463.1 841.559 454.587 841.559 454.587Z" fill="#A7C1FF"/>
<path d="M824.829 438.762C824.829 438.762 798.786 463.72 787.77 470.438C776.753 477.155 759.338 483.227 759.338 483.227C759.338 483.227 769.616 471.07 783.098 463.42C796.58 455.77 824.829 438.762 824.829 438.762Z" fill="#A7C1FF"/>
<path d="M805.492 428.714C805.492 428.714 790.513 449.915 774.047 463.306C757.58 476.699 747.118 482.352 747.118 482.352C747.118 482.352 762.667 463.102 774.278 454.479C785.888 445.857 805.492 428.714 805.492 428.714Z" fill="#A7C1FF"/>
<path d="M785.146 422.893C785.146 422.893 777.491 439.909 756.903 459.709C736.315 479.509 732.522 480.708 732.522 480.708C732.522 480.708 747.696 455.32 754.624 449.613C761.552 443.904 785.146 422.893 785.146 422.893Z" fill="#A7C1FF"/>
<path d="M765.263 417.71C765.263 417.71 755.44 442.71 744.092 454.637C732.744 466.565 718.815 482.696 718.815 482.696C718.815 482.696 729.861 459.916 738.608 448.42C747.355 436.924 765.263 417.71 765.263 417.71Z" fill="#A7C1FF"/>
<path d="M743.656 412.027C743.656 412.027 741.753 433.22 727.913 453.755C714.073 474.289 709.307 484.488 709.307 484.488C709.307 484.488 718.086 458.946 722.324 449.266C726.563 439.585 743.656 412.027 743.656 412.027Z" fill="#A7C1FF"/>
<path d="M724.287 414.24C724.287 414.24 720.786 436.98 714.105 452.124C707.423 467.269 697.249 484.56 697.249 484.56C697.249 484.56 699.74 466.049 705.486 450.418C711.232 434.788 724.287 414.24 724.287 414.24Z" fill="#A7C1FF"/>
<path d="M705.226 415.855C705.226 415.855 707.651 432.53 698.464 457.067C689.278 481.605 684.715 491.909 684.715 491.909C684.715 491.909 688.089 467.124 691.916 453.664C695.742 440.204 705.226 415.855 705.226 415.855Z" fill="#A7C1FF"/>
<path d="M684.341 420.219C684.341 420.219 687.931 436.939 683.583 453.691C679.234 470.444 672.205 497.688 672.205 497.688C672.205 497.688 672.38 471.437 674.999 457.252C677.618 443.066 684.341 420.219 684.341 420.219Z" fill="#A7C1FF"/>
<path d="M667.947 428.137C667.947 428.137 671.429 436.681 668.031 463.038C664.632 489.395 659.372 504.09 659.372 504.09C659.372 504.09 659.915 479.417 659.917 464.168C659.919 448.919 667.947 428.137 667.947 428.137Z" fill="#A7C1FF"/>
<path d="M648.004 436.786C648.004 436.786 652.159 442.51 651.305 467.021C650.45 491.531 647.574 514.596 647.574 514.596C647.574 514.596 645.897 491.145 645.419 471.488C644.939 451.83 648.004 436.786 648.004 436.786Z" fill="#A7C1FF"/>
<path d="M631.394 453.504C631.394 453.504 639.179 458.342 638.175 482.379C637.171 506.416 638.322 523.254 638.322 523.254C638.322 523.254 630.606 493.893 630.628 482.418C630.65 470.943 631.394 453.504 631.394 453.504Z" fill="#A7C1FF"/>
<path d="M616.13 464.585C616.13 464.585 625.002 480.287 628.037 497.312C631.072 514.337 630.03 530.827 630.03 530.827C630.03 530.827 620.17 507.879 617.777 494.95C615.385 482.022 616.13 464.585 616.13 464.585Z" fill="#A7C1FF"/>
<path d="M621.699 540.759C621.699 540.759 622.819 529.457 617.325 508.778C611.832 488.098 603.747 482.312 603.747 482.312C603.747 482.312 606.37 495.559 611.426 514.031C616.482 532.502 621.699 540.759 621.699 540.759Z" fill="#A7C1FF"/>
<path d="M613.008 553.671C613.008 553.671 612.891 531.032 604.73 520.058C596.569 509.083 592.14 500.839 592.14 500.839C592.14 500.839 597.283 523.714 600.677 527.854C604.071 531.995 613.008 553.671 613.008 553.671Z" fill="#A7C1FF"/>
<path d="M796.927 506.869C796.927 506.869 800.367 535.376 803.663 545.802C806.959 556.229 817.773 583.437 817.773 583.437C817.773 583.437 811.995 554.095 809.136 541.716C806.277 529.337 796.927 506.869 796.927 506.869Z" fill="#A7C1FF"/>
<path d="M787.719 497.976C787.719 497.976 793.206 530.861 794.506 538.271C795.805 545.68 797.831 566.934 795.63 571.93C793.43 576.927 787.139 541.969 786.25 535.961C785.361 529.954 787.719 497.976 787.719 497.976Z" fill="#A7C1FF"/>
<path d="M779.61 493.761C779.61 493.761 782.123 505.693 780.52 527.834C778.916 549.974 776.713 570.22 776.713 570.22C776.713 570.22 771.509 534.503 773.269 525.781C775.029 517.058 779.61 493.761 779.61 493.761Z" fill="#A7C1FF"/>
<path d="M765.647 487.854C765.647 487.854 770.165 499.739 770.15 524.159C770.136 548.579 765.897 566.578 765.897 566.578C765.897 566.578 761.211 526.116 762.68 517.572C764.15 509.028 765.647 487.854 765.647 487.854Z" fill="#A7C1FF"/>
<path d="M749.923 483.811C753.106 491.406 758.025 508.619 758.064 516.165C758.104 523.711 759.248 561.144 759.248 561.144C759.248 561.144 752.947 531.348 751.069 515.905C749.192 500.463 749.923 483.811 749.923 483.811Z" fill="#A7C1FF"/>
<path d="M735.953 482.492C735.953 482.492 742.917 499.578 746.178 522.266C749.44 544.955 750.502 556.598 750.502 556.598C750.502 556.598 740.683 521.408 738.595 509.421C736.506 497.434 735.953 482.492 735.953 482.492Z" fill="#A7C1FF"/>
<path d="M718.814 482.695C718.814 482.695 728.834 495.428 733.878 514.686C738.923 533.943 744.529 557.455 744.529 557.455C744.529 557.455 724.4 517.682 722.339 508.689C720.278 499.696 718.814 482.695 718.814 482.695Z" fill="#A7C1FF"/>
<path d="M700.68 486.342C700.68 486.342 712.481 495.644 719.989 513.21C727.497 530.778 736.758 556.782 736.758 556.782C736.758 556.782 716.917 523.695 712.499 514.666C708.081 505.637 700.68 486.342 700.68 486.342Z" fill="#A7C1FF"/>
<path d="M688.76 491.239C688.76 491.239 702.504 500.363 711.502 518.11C720.5 535.857 731.3 553.947 731.3 553.947C731.3 553.947 703.071 524.423 701.099 519.834C699.127 515.245 688.76 491.239 688.76 491.239Z" fill="#A7C1FF"/>
<path d="M674.511 498.588C674.511 498.588 692.41 512.928 698.316 522.143C704.221 531.358 721.116 556.775 721.116 556.775C721.116 556.775 697.065 531.699 691.791 524.552C686.518 517.405 674.511 498.588 674.511 498.588Z" fill="#A7C1FF"/>
<path d="M714.028 559.824C714.028 559.824 695.191 531.418 684.287 522.186C673.382 512.955 662.18 505.549 662.18 505.549C662.18 505.549 670.865 518.776 680.802 528.891C690.739 539.007 714.028 559.824 714.028 559.824Z" fill="#A7C1FF"/>
<path d="M706.598 560.321C706.598 560.321 683.462 535.227 674.812 528.751C666.162 522.275 651.598 513.715 651.598 513.715C651.598 513.715 671.118 537.129 706.598 560.321Z" fill="#A7C1FF"/>
<path d="M701.233 562.682C701.233 562.682 677.664 543.542 657.857 530.633C638.05 517.724 639.882 524.065 639.882 524.065C639.882 524.065 669.72 548.285 701.233 562.682Z" fill="#A7C1FF"/>
<path d="M690.222 562.108C690.222 562.108 674.034 550.321 662.061 542.617C650.087 534.914 631.252 533.048 631.252 533.048C631.252 533.048 650.285 545.711 658.453 549.56C666.62 553.408 690.222 562.108 690.222 562.108Z" fill="#A7C1FF"/>
<path d="M682.004 566.553C682.004 566.553 669.435 557.645 652.141 551.034C634.847 544.424 619.754 544.502 619.754 544.502C619.754 544.502 647.249 555.621 652.887 556.967C658.526 558.313 682.004 566.553 682.004 566.553Z" fill="#A7C1FF"/>
<path d="M665.875 570.846C665.875 570.846 652.675 560.422 641.897 556.009C631.119 551.596 615.248 553.173 615.248 553.173C615.248 553.173 634.713 560.027 640.78 561.588C650.854 564.18 665.875 570.846 665.875 570.846Z" fill="#A7C1FF"/>
<path d="M275.91 378.615C275.91 378.615 282.82 333.504 241.633 296.459C200.447 259.415 176.96 254.848 173.391 253.294C169.823 251.74 149.013 226.4 127.983 224.317C106.953 222.235 53.3415 197.471 41.3487 223.385C29.3558 249.299 59.2982 271.538 69.9759 281.143C80.6537 290.747 91.207 292.512 102.816 303.229C114.424 313.946 135.311 296.859 148.599 311.846C161.886 326.832 143.97 348.474 233.869 385.78C257.24 395.478 275.481 386.848 275.91 378.615Z" fill="#C7D9F8"/>
<path d="M38.8854 239.922C39.0982 241.351 39.4089 242.761 39.812 244.148C46.5471 240.16 52.5856 235.857 51.9498 233.545C51.3208 231.256 45.2912 235.07 38.8854 239.922Z" fill="#E0EAFF"/>
<path d="M77.3858 240.514C73.9455 240.246 58.4718 249.527 46.3313 257.203C48.4804 260.282 50.9111 263.178 53.4224 265.859C65.9057 256.278 81.4327 240.83 77.3858 240.514Z" fill="#E0EAFF"/>
<path d="M89.5911 247.748C88.9906 246.955 74.2639 265.087 64.9282 276.738C66.848 278.408 68.5803 279.886 69.9773 281.143C71.2135 282.255 72.4479 283.253 73.6829 284.18C81.4978 271.538 90.1948 248.543 89.5911 247.748Z" fill="#E0EAFF"/>
<path d="M102.249 249.141C97.5194 246.586 88.6299 272.192 81.1825 289.055C84.456 290.938 87.7564 292.652 91.1166 294.644C97.6519 278.099 105.673 250.991 102.249 249.141Z" fill="#E0EAFF"/>
<path d="M98.9493 299.951C100.191 300.923 101.443 301.971 102.708 303.134C113.021 289.189 125.527 260.582 123.1 261.42C121.121 262.103 106.146 285.893 98.9493 299.951Z" fill="#E0EAFF"/>
<path d="M140.101 306.31C140.868 306.545 141.623 306.834 142.368 307.174C147.89 295.93 158.316 272.914 151.999 271.261C145.729 269.62 141.721 293.953 140.101 306.31Z" fill="#E0EAFF"/>
<path d="M129.128 305.502C129.589 305.464 130.048 305.432 130.507 305.406C133.505 296.873 141.016 273.94 135.946 271.832C130.584 269.603 128.935 296.07 129.128 305.502Z" fill="#E0EAFF"/>
<path d="M152.927 319.042C154.159 322.036 155.078 325.272 156.411 328.8C170.158 315.997 191.3 295.155 187.821 291.118C184.271 286.996 164.547 306.719 152.927 319.042Z" fill="#E0EAFF"/>
<path d="M164.311 342.855C166.055 345.056 168.145 347.348 170.671 349.737C180.507 334.794 198.814 306.203 196.939 303.136C195.126 300.17 175.511 327.052 164.311 342.855Z" fill="#E0EAFF"/>
<path d="M189.137 363.602C193.688 366.439 198.889 369.389 204.853 372.463C209.273 357.384 217.337 327.027 211.936 322.908C206.251 318.572 194.58 345.713 189.137 363.602Z" fill="#E0EAFF"/>
<path d="M240.909 388.174C246.828 389.806 252.297 390.304 257.058 389.956C250.277 372.104 239.697 347.245 233.275 347.03C225.737 346.778 235.567 374.433 240.909 388.174Z" fill="#E0EAFF"/>
<path d="M232.481 310.257C235.721 320.409 255.133 325.942 266.118 328.299C263.931 323.895 261.277 319.395 258.092 314.889C243.989 307.916 229.985 302.436 232.481 310.257Z" fill="#E0EAFF"/>
<path d="M225.39 282.747C223.878 281.555 222.391 280.403 220.943 279.309C201.886 279.565 198.625 278.06 201.204 282.191C203.107 285.239 214.417 282.799 225.39 282.747Z" fill="#E0EAFF"/>
<path d="M186.557 258.255C176.324 260.033 167.181 262.096 171.951 263.18C179.203 264.83 186.889 263.516 193.271 261.5C190.81 260.224 188.578 259.158 186.557 258.255Z" fill="#E0EAFF"/>
<path d="M166.747 247.46C155.635 249.319 144.654 251.619 149.787 252.786C156.908 254.406 164.442 253.167 170.754 251.214C169.662 250.219 168.317 248.937 166.747 247.46Z" fill="#E0EAFF"/>
<path d="M141.689 228.59C138.347 232.027 135.377 236.191 137.955 238.283C140.798 240.59 144.339 235.799 146.786 231.448C145.124 230.42 143.422 229.457 141.689 228.59Z" fill="#E0EAFF"/>
<path d="M124.644 223.844C121.599 223.321 118.098 222.499 114.275 221.513C113.159 226.648 112.939 233.034 116.863 233.785C120.61 234.502 123.161 228.762 124.644 223.844Z" fill="#E0EAFF"/>
<path d="M73.5109 212.19C70.6192 211.857 67.7992 211.658 65.0996 211.653C68.8117 217.601 72.9272 222.883 74.5688 223.109C76.5054 223.375 75.8479 218.216 73.5109 212.19Z" fill="#E0EAFF"/>
<path d="M101.565 229.356C103.035 227.679 98.1998 221.485 93.2753 215.977C91.5428 215.551 89.8042 215.135 88.0615 214.744C93.4578 225.229 99.3108 231.928 101.565 229.356Z" fill="#E0EAFF"/>
<path d="M302.554 421.043C302.473 421.105 302.385 421.162 302.292 421.211C301.342 421.717 300.165 421.358 299.659 420.409C251.095 329.231 187.382 283.515 142.484 261.222C93.9101 237.101 56.4347 234.471 56.0617 234.447C54.9881 234.378 54.1746 233.452 54.2424 232.38C54.3091 231.307 55.2366 230.494 56.3091 230.561C56.6892 230.586 94.9471 233.27 144.216 257.734C189.622 280.282 254.047 326.49 303.095 418.579C303.551 419.434 303.302 420.476 302.554 421.043Z" fill="url(#paint1_linear_4_2298)"/>
<path d="M302.765 455.16C302.604 456.15 301.718 456.873 300.697 456.81C216.075 451.505 173.721 481.547 153.09 507.683C132.364 533.94 127.03 565.675 132.47 583.452C132.791 584.497 132.202 585.594 131.163 585.912C130.122 586.231 129.021 585.645 128.702 584.606C123.137 566.423 127.428 533.836 149.998 505.243C171.211 478.366 214.619 447.464 300.944 452.877C302.031 452.944 302.855 453.88 302.787 454.967C302.783 455.033 302.775 455.097 302.765 455.16Z" fill="#C7D9F8"/>
<path d="M144.315 649.057C144.315 649.057 120.367 585.3 128.434 578.621C136.754 571.732 144.315 649.057 144.315 649.057Z" fill="#C7D9F8"/>
<path d="M110.862 641.981C110.862 641.981 125.603 572.175 128.201 574.259C130.799 576.344 121.953 612.504 110.862 641.981Z" fill="#C7D9F8"/>
<path d="M91.7654 622.256C91.7654 622.256 105.797 609.557 116.182 590.611C126.566 571.666 130.036 562.913 130.036 562.913C130.036 562.913 116.272 575.656 109.363 587.512C102.454 599.369 91.7654 622.256 91.7654 622.256Z" fill="#C7D9F8"/>
<path d="M77.5228 601.307C77.5228 601.307 100.964 583.908 109.405 574.919C117.846 565.929 131.662 552.862 131.662 552.862C131.662 552.862 114.336 563.309 105.645 570.58C96.9533 577.852 77.5228 601.307 77.5228 601.307Z" fill="#C7D9F8"/>
<path d="M67.4817 579.071C67.4817 579.071 91.7911 570.696 103.582 563.622C115.372 556.547 130.47 544.02 130.47 544.02C130.47 544.02 109.717 550.975 99.7627 556.683C89.8085 562.391 67.4817 579.071 67.4817 579.071Z" fill="#C7D9F8"/>
<path d="M64.9508 557.703C64.9508 557.703 98.1852 552.103 109.366 547.591C120.546 543.079 134.811 533.412 134.811 533.412C134.811 533.412 119.964 534.336 106.71 540.176C93.4566 546.016 64.9508 557.703 64.9508 557.703Z" fill="#C7D9F8"/>
<path d="M68.2033 537.604C68.2033 537.604 92.4494 538.2 111.673 533.326C130.896 528.452 140.969 523.762 140.969 523.762C140.969 523.762 117.867 524.682 104.927 528.576C91.988 532.47 68.2033 537.604 68.2033 537.604Z" fill="#C7D9F8"/>
<path d="M75.1887 519.105C75.1887 519.105 92.213 522.859 118.54 518.469C144.866 514.08 147.879 511.906 147.879 511.906C147.879 511.906 120.385 509.12 112.242 511.13C104.099 513.139 75.1887 519.105 75.1887 519.105Z" fill="#C7D9F8"/>
<path d="M82.3926 501.31C82.3926 501.31 106.612 507.89 121.882 506.036C137.152 504.182 157.013 502.738 157.013 502.738C157.013 502.738 133.777 498.313 120.28 498.458C106.783 498.602 82.3926 501.31 82.3926 501.31Z" fill="#C7D9F8"/>
<path d="M90.1836 481.945C90.1836 481.945 107.132 492.338 130.244 493.418C153.357 494.496 163.661 496.61 163.661 496.61C163.661 496.61 139.618 488.946 129.997 486.724C120.377 484.502 90.1836 481.945 90.1836 481.945Z" fill="#C7D9F8"/>
<path d="M102.646 468.658C102.646 468.658 121.644 478.717 136.724 482.156C151.803 485.594 170.44 487.612 170.44 487.612C170.44 487.612 155.174 479.154 140.252 474.743C125.33 470.332 102.646 468.658 102.646 468.658Z" fill="#C7D9F8"/>
<path d="M114.49 455.271C114.49 455.271 125.637 466.39 149.154 473.189C172.671 479.989 182.941 482.317 182.941 482.317C182.941 482.317 162.479 471.021 150.256 466.381C138.033 461.742 114.49 455.271 114.49 455.271Z" fill="#C7D9F8"/>
<path d="M129.409 442.05C129.409 442.05 139.94 454.067 154.924 460.151C169.908 466.236 194.25 476.163 194.25 476.163C194.25 476.163 174.475 461.651 162.38 455.703C150.285 449.754 129.409 442.05 129.409 442.05Z" fill="#C7D9F8"/>
<path d="M144.488 434.176C144.488 434.176 148.95 441.551 170.603 453.705C192.257 465.859 206.206 470.112 206.206 470.112C206.206 470.112 187.409 456.757 175.977 448.254C164.544 439.75 144.488 434.176 144.488 434.176Z" fill="#C7D9F8"/>
<path d="M162.096 424.051C162.096 424.051 164.069 430.359 182.919 443.389C201.769 456.42 220.663 467.129 220.663 467.129C220.663 467.129 204.02 452.792 189.551 441.469C175.082 430.146 162.096 424.051 162.096 424.051Z" fill="#C7D9F8"/>
<path d="M183.892 420.925C183.892 420.925 183.177 429.458 201.755 442.113C220.333 454.766 232.313 465.022 232.313 465.022C232.313 465.022 214.608 442.862 205.994 436.477C197.379 430.093 183.892 420.925 183.892 420.925Z" fill="#C7D9F8"/>
<path d="M200.712 415.662C200.712 415.662 207.534 431.071 218.604 442.843C229.673 454.615 242.617 463.03 242.617 463.03C242.617 463.03 230.913 442.839 222.556 433.835C214.199 424.83 200.712 415.662 200.712 415.662Z" fill="#C7D9F8"/>
<path d="M254.707 462.325C254.707 462.325 245.611 456.861 233.173 441.209C220.735 425.556 220.908 416.269 220.908 416.269C220.908 416.269 229.373 425.623 240.4 439.717C251.427 453.81 254.707 462.325 254.707 462.325Z" fill="#C7D9F8"/>
<path d="M269.233 463.012C269.233 463.012 252.328 450.296 248.653 438.058C244.978 425.819 241.27 417.9 241.27 417.9C241.27 417.9 255.547 434.515 256.758 439.369C257.969 444.223 269.233 463.012 269.233 463.012Z" fill="#C7D9F8"/>
<path d="M131.565 574.775C131.565 574.775 151.016 593.254 156.994 601.541C162.973 609.827 177.336 633.11 177.336 633.11C177.336 633.11 158.562 612.412 150.877 603.364C143.193 594.316 131.565 574.775 131.565 574.775Z" fill="#C7D9F8"/>
<path d="M130.036 562.913C130.036 562.913 151.628 585.369 156.457 590.475C161.285 595.581 176.089 608.955 181.061 610.092C186.033 611.229 163.337 587.015 159.33 582.998C155.323 578.981 130.036 562.913 130.036 562.913Z" fill="#C7D9F8"/>
<path d="M131.399 554.484C131.399 554.484 138.941 563.023 156.433 574.17C173.925 585.317 190.329 594.958 190.329 594.958C190.329 594.958 166.459 571.135 158.938 567.59C151.418 564.045 131.399 554.484 131.399 554.484Z" fill="#C7D9F8"/>
<path d="M134.761 540.721C134.761 540.721 141.15 550.738 159.464 564.346C177.778 577.955 193.634 584.819 193.634 584.819C193.634 584.819 165.917 558.737 158.692 555.073C151.467 551.409 134.761 540.721 134.761 540.721Z" fill="#C7D9F8"/>
<path d="M140.498 526.68C144.416 533.302 154.575 546.59 160.211 550.828C165.846 555.066 193.267 576.803 193.267 576.803C193.267 576.803 174.445 555.461 163.917 545.44C153.389 535.419 140.498 526.68 140.498 526.68Z" fill="#C7D9F8"/>
<path d="M147.303 515.472C147.303 515.472 156.227 530.223 171.415 545.322C186.603 560.422 194.738 567.713 194.738 567.713C194.738 567.713 173.837 540.724 166.016 532.473C158.196 524.221 147.303 515.472 147.303 515.472Z" fill="#C7D9F8"/>
<path d="M157.014 502.739C157.014 502.739 160.971 517.351 172.593 531.873C184.215 546.395 198.713 563.712 198.713 563.712C198.713 563.712 180.125 526.439 174.533 519.879C168.942 513.319 157.014 502.739 157.014 502.739Z" fill="#C7D9F8"/>
<path d="M169.864 491.178C169.864 491.178 170.253 505.213 179.235 520.639C188.216 536.065 202.544 557.513 202.544 557.513C202.544 557.513 188.808 524.184 184.503 515.836C180.198 507.488 169.864 491.178 169.864 491.178Z" fill="#C7D9F8"/>
<path d="M180.182 484.975C180.182 484.975 179.355 500.366 187.64 517.009C195.925 533.653 203.461 551.84 203.461 551.84C203.461 551.84 197.075 514.211 194.734 510.173C192.394 506.135 180.182 484.975 180.182 484.975Z" fill="#C7D9F8"/>
<path d="M193.639 478.391C193.639 478.391 194.404 499.807 198.018 509.374C201.632 518.941 211.261 545.782 211.261 545.782C211.261 545.782 205.879 513.766 203.463 505.827C201.047 497.888 193.639 478.391 193.639 478.391Z" fill="#C7D9F8"/>
<path d="M217.502 542.169C217.502 542.169 206.715 512.205 205.877 498.882C205.038 485.56 205.734 473.03 205.734 473.03C205.734 473.03 210.807 486.918 212.846 500.009C214.886 513.101 217.502 542.169 217.502 542.169Z" fill="#C7D9F8"/>
<path d="M222.018 536.878C222.018 536.878 216.11 505.536 216.081 495.441C216.052 485.345 217.759 469.652 217.759 469.652C217.759 469.652 224.423 497.345 222.018 536.878Z" fill="#C7D9F8"/>
<path d="M226.781 534.172C226.781 534.172 225.58 505.83 226.95 483.781C228.321 461.733 232.052 466.643 232.052 466.643C232.052 466.643 233.566 502.519 226.781 534.172Z" fill="#C7D9F8"/>
<path d="M232.492 525.599C232.492 525.599 232.684 506.889 233.588 493.618C234.492 480.346 243.598 465.185 243.598 465.185C243.598 465.185 242.476 486.517 240.805 494.785C239.134 503.053 232.492 525.599 232.492 525.599Z" fill="#C7D9F8"/>
<path d="M240.406 521.917C240.406 521.917 240.739 507.527 245.43 490.875C250.121 474.224 258.597 462.954 258.597 462.954C258.597 462.954 251.597 489.766 249.461 494.743C247.325 499.721 240.406 521.917 240.406 521.917Z" fill="#C7D9F8"/>
<path d="M252.621 512.222C252.621 512.222 252.168 496.513 254.872 485.972C257.576 475.431 267.61 464.413 267.61 464.413C267.61 464.413 261.892 482.827 259.678 488.246C256.003 497.244 252.621 512.222 252.621 512.222Z" fill="#C7D9F8"/>
<path d="M623.35 36.3235C616.674 36.3257 611.264 42.0166 611.264 42.0166C611.264 42.0166 616.679 47.7025 623.355 47.7004C630.031 47.6972 635.441 42.0073 635.441 42.0073C635.441 42.0073 630.027 36.3204 623.35 36.3235Z" fill="#A7C1FF"/>
<path d="M613.106 49.243C606.43 49.2461 601.02 54.9361 601.02 54.9361C601.02 54.9361 606.434 60.6229 613.11 60.6198C619.786 60.6166 625.196 54.9267 625.196 54.9267C625.196 54.9267 619.783 49.2398 613.106 49.243Z" fill="#A7C1FF"/>
<path d="M606.679 62.7351C600.248 60.9425 593.507 64.9692 593.507 64.9692C593.507 64.9692 597.194 71.9015 603.624 73.6941C610.055 75.4868 616.797 71.4601 616.797 71.4601C616.797 71.4601 613.11 64.5278 606.679 62.7351Z" fill="#A7C1FF"/>
<path d="M596.431 76.36C591.266 74.9211 585.854 78.1541 585.854 78.1541C585.854 78.1541 588.813 83.722 593.978 85.1609C599.142 86.5998 604.554 83.3668 604.554 83.3668C604.554 83.3668 601.594 77.7989 596.431 76.36Z" fill="#A7C1FF"/>
<path d="M588.394 90.0285C583.23 88.5896 577.817 91.8226 577.817 91.8226C577.817 91.8226 580.778 97.3905 585.942 98.8294C591.106 100.268 596.518 97.0353 596.518 97.0353C596.518 97.0353 593.557 91.4673 588.394 90.0285Z" fill="#A7C1FF"/>
<path d="M607.893 23.8109C607.664 30.483 613.164 36.0882 613.164 36.0882C613.164 36.0882 619.035 30.8736 619.264 24.2015C619.493 17.5293 613.993 11.9241 613.993 11.9241C613.993 11.9241 608.122 17.1387 607.893 23.8109Z" fill="#A7C1FF"/>
<path d="M596.68 36.2818C598.232 42.7754 605.025 46.7158 605.025 46.7158C605.025 46.7158 609.298 40.1298 607.746 33.6362C606.193 27.1426 599.401 23.2022 599.401 23.2022C599.401 23.2022 595.128 29.7882 596.68 36.2818Z" fill="#A7C1FF"/>
<path d="M585.856 49.9337C587.408 56.4273 594.2 60.3677 594.2 60.3677C594.2 60.3677 598.474 53.7817 596.922 47.288C595.369 40.7944 588.577 36.854 588.577 36.854C588.577 36.854 584.303 43.4401 585.856 49.9337Z" fill="#A7C1FF"/>
<path d="M575.811 65.3881C579.479 70.9666 587.206 72.3636 587.206 72.3636C587.206 72.3636 588.986 64.7153 585.318 59.1368C581.651 53.5582 573.923 52.1612 573.923 52.1612C573.923 52.1612 572.143 59.8095 575.811 65.3881Z" fill="#A7C1FF"/>
<path d="M567.899 80.359C572.51 85.1869 580.362 85.1717 580.362 85.1717C580.362 85.1717 580.737 77.3283 576.126 72.5005C571.516 67.6727 563.664 67.6879 563.664 67.6879C563.664 67.6879 563.288 75.5312 567.899 80.359Z" fill="#A7C1FF"/>
<path d="M572.06 110.84C572.268 110.992 572.541 111.057 572.844 111.004C573.53 110.883 574.111 110.199 574.143 109.475C574.152 109.287 575.038 94.5801 592.009 69.2189C609.203 43.5241 624.003 29.6808 624.151 29.5434C624.721 29.0143 624.871 28.1725 624.487 27.6621C624.106 27.1529 623.328 27.1665 622.758 27.6946C622.608 27.8338 607.527 41.9254 590.085 67.9937C572.492 94.2824 571.68 109.285 571.654 109.911C571.637 110.315 571.796 110.648 572.06 110.84Z" fill="#A7C1FF"/>
<path d="M627.157 17.054C622.448 21.7877 622.665 29.6361 622.665 29.6361C622.665 29.6361 630.515 29.811 635.224 25.0773C639.932 20.3437 639.716 12.4952 639.716 12.4952C639.716 12.4952 631.866 12.3204 627.157 17.054Z" fill="#A7C1FF"/>
<path d="M318.91 471.895L315.92 500.555C315.645 503.189 317.835 505.423 320.475 505.2L351.297 502.593C353.316 502.423 354.929 500.841 355.139 498.824L356.928 481.683C357.138 479.667 355.887 477.787 353.946 477.203L324.326 468.29C321.789 467.527 319.185 469.261 318.91 471.895Z" fill="#FFAC31"/>
<path d="M211.427 376.176L240.087 379.167C242.721 379.441 244.955 377.25 244.732 374.612L242.125 343.79C241.955 341.77 240.373 340.158 238.357 339.947L221.216 338.159C219.2 337.948 217.319 339.2 216.735 341.141L207.822 370.761C207.059 373.296 208.793 375.901 211.427 376.176Z" fill="#FFAC31"/>
<path d="M263.016 386.847L286.342 403.768C288.486 405.323 291.515 404.543 292.641 402.146L305.794 374.149C306.656 372.314 306.092 370.127 304.452 368.937L290.502 358.818C288.861 357.628 286.607 357.772 285.131 359.161L262.601 380.356C260.672 382.171 260.872 385.292 263.016 386.847Z" fill="#FFAC31"/>
<path d="M302.357 421.882L314.098 448.198C315.177 450.616 318.19 451.456 320.364 449.944L345.754 432.274C347.417 431.116 348.023 428.941 347.198 427.09L340.176 411.351C339.35 409.501 337.327 408.497 335.354 408.962L305.244 416.053C302.666 416.66 301.278 419.463 302.357 421.882Z" fill="#FFAC31"/>
<path d="M308.24 523.484L291.319 546.81C289.764 548.953 290.544 551.983 292.941 553.109L320.938 566.262C322.773 567.124 324.96 566.56 326.15 564.92L336.269 550.97C337.459 549.329 337.315 547.075 335.926 545.599L314.731 523.069C312.916 521.14 309.795 521.339 308.24 523.484Z" fill="#FFAC31"/>
<path d="M273.205 562.824L246.888 574.566C244.469 575.645 243.63 578.658 245.142 580.831L262.812 606.221C263.97 607.884 266.146 608.49 267.996 607.665L283.735 600.643C285.586 599.818 286.589 597.794 286.124 595.821L279.033 565.712C278.427 563.134 275.624 561.745 273.205 562.824Z" fill="#FFAC31"/>
<path d="M223.192 579.378L194.531 576.387C191.898 576.113 189.663 578.304 189.887 580.942L192.493 611.764C192.664 613.784 194.246 615.396 196.262 615.607L213.403 617.395C215.419 617.605 217.3 616.354 217.883 614.413L226.796 584.793C227.559 582.258 225.825 579.653 223.192 579.378Z" fill="#FFAC31"/>
<path d="M171.604 568.708L148.278 551.787C146.134 550.232 143.104 551.012 141.978 553.409L128.825 581.407C127.963 583.241 128.527 585.428 130.167 586.618L144.118 596.737C145.758 597.927 148.012 597.783 149.488 596.395L172.018 575.199C173.947 573.385 173.748 570.263 171.604 568.708Z" fill="#FFAC31"/>
<path d="M132.262 533.673L120.521 507.357C119.442 504.938 116.429 504.099 114.255 505.611L88.8653 523.281C87.2022 524.438 86.5962 526.614 87.4216 528.465L94.4433 544.204C95.2687 546.054 97.2925 547.058 99.2654 546.593L129.375 539.502C131.953 538.895 133.341 536.091 132.262 533.673Z" fill="#FFAC31"/>
<path d="M115.708 483.659L118.699 454.999C118.973 452.365 116.784 450.131 114.144 450.354L83.3222 452.961C81.3026 453.131 79.6897 454.713 79.4794 456.729L77.691 473.87C77.4807 475.886 78.7322 477.768 80.6731 478.351L110.293 487.264C112.83 488.027 115.434 486.293 115.708 483.659Z" fill="#FFAC31"/>
<path d="M126.379 432.071L143.3 408.745C144.855 406.601 144.075 403.572 141.678 402.446L113.681 389.293C111.846 388.431 109.659 388.995 108.469 390.635L98.3502 404.585C97.1606 406.226 97.3044 408.48 98.6928 409.956L119.888 432.486C121.703 434.415 124.824 434.215 126.379 432.071Z" fill="#FFAC31"/>
<path d="M161.414 392.731L187.73 380.989C190.149 379.91 190.989 376.897 189.476 374.723L171.806 349.334C170.649 347.671 168.473 347.065 166.622 347.89L150.884 354.912C149.033 355.737 148.03 357.761 148.494 359.734L155.585 389.843C156.192 392.421 158.996 393.809 161.414 392.731Z" fill="#FFAC31"/>
<path d="M121.205 425.691C149.925 372.698 216.402 352.953 269.395 381.673C322.388 410.393 342.133 476.87 313.413 529.863C284.693 582.856 218.216 602.601 165.223 573.881C112.23 545.16 92.4851 478.684 121.205 425.691ZM148.539 440.505C127.986 478.426 142.116 525.996 180.037 546.548C217.958 567.1 265.528 552.969 286.08 515.048C306.632 477.127 292.502 429.557 254.581 409.005C216.66 388.453 169.091 402.584 148.539 440.505Z" fill="#FFAC31"/>
<path d="M136.817 469.379C132.179 513.833 164.456 553.631 208.911 558.269C253.364 562.907 293.163 530.63 297.801 486.175C302.439 441.721 270.161 401.923 225.707 397.285C181.252 392.647 141.455 424.925 136.817 469.379ZM160.393 471.839C163.672 440.404 191.814 417.581 223.247 420.861C254.681 424.14 277.505 452.281 274.225 483.715C270.945 515.15 242.804 537.973 211.371 534.693C179.937 531.413 157.113 503.273 160.393 471.839Z" fill="#FA8B17"/>
<path d="M326.853 572.224L320.119 585.181C319.5 586.372 320.118 587.833 321.404 588.218L336.419 592.714C337.403 593.008 338.458 592.562 338.931 591.651L342.959 583.901C343.432 582.99 343.191 581.871 342.385 581.235L330.076 571.531C329.022 570.7 327.472 571.034 326.853 572.224Z" fill="#1A317A"/>
<path d="M293.958 507.129L306.914 513.862C308.105 514.481 309.566 513.863 309.951 512.578L314.447 497.561C314.742 496.577 314.296 495.524 313.384 495.05L305.634 491.023C304.723 490.549 303.604 490.789 302.969 491.596L293.264 503.906C292.433 504.959 292.767 506.51 293.958 507.129Z" fill="#1A317A"/>
<path d="M316.298 521.743L324.153 534.054C324.874 535.186 326.449 535.381 327.424 534.46L338.826 523.704C339.573 522.999 339.714 521.863 339.162 520.997L334.464 513.634C333.913 512.768 332.822 512.418 331.868 512.798L317.309 518.606C316.062 519.103 315.576 520.612 316.298 521.743Z" fill="#1A317A"/>
<path d="M328.338 545.569L328.985 560.158C329.045 561.499 330.31 562.455 331.616 562.145L346.868 558.53C347.867 558.293 348.559 557.38 348.513 556.355L348.126 547.629C348.08 546.603 347.312 545.754 346.295 545.607L330.783 543.357C329.455 543.164 328.279 544.228 328.338 545.569Z" fill="#1A317A"/>
<path d="M312.239 594.565L299.928 602.42C298.796 603.141 298.601 604.716 299.522 605.691L310.278 617.093C310.983 617.84 312.119 617.981 312.985 617.429L320.348 612.731C321.214 612.18 321.565 611.089 321.184 610.135L315.376 595.576C314.879 594.329 313.37 593.843 312.239 594.565Z" fill="#1A317A"/>
<path d="M288.412 606.605L273.823 607.252C272.483 607.311 271.527 608.576 271.837 609.882L275.451 625.134C275.688 626.134 276.601 626.825 277.627 626.779L286.351 626.392C287.377 626.346 288.227 625.578 288.374 624.561L290.624 609.049C290.817 607.721 289.753 606.545 288.412 606.605Z" fill="#1A317A"/>
<path d="M261.757 605.12L248.801 598.386C247.61 597.767 246.149 598.385 245.764 599.67L241.268 614.687C240.973 615.671 241.419 616.724 242.331 617.198L250.08 621.226C250.992 621.699 252.111 621.459 252.746 620.652L262.451 608.343C263.282 607.289 262.948 605.738 261.757 605.12Z" fill="#1A317A"/>
<path d="M239.416 590.506L231.562 578.195C230.84 577.063 229.265 576.868 228.29 577.789L216.888 588.545C216.141 589.25 216.001 590.387 216.553 591.253L221.25 598.615C221.802 599.481 222.892 599.831 223.846 599.451L238.406 593.643C239.652 593.146 240.138 591.637 239.416 590.506Z" fill="#1A317A"/>
<path d="M227.377 566.679L226.73 552.089C226.67 550.749 225.405 549.794 224.099 550.104L208.847 553.717C207.848 553.954 207.156 554.867 207.203 555.893L207.59 564.618C207.636 565.644 208.404 566.493 209.42 566.641L224.933 568.891C226.26 569.084 227.437 568.019 227.377 566.679Z" fill="#1A317A"/>
<path d="M228.863 540.024L235.597 527.067C236.216 525.876 235.598 524.416 234.312 524.03L219.296 519.534C218.312 519.239 217.259 519.686 216.785 520.597L212.757 528.347C212.284 529.258 212.524 530.377 213.331 531.013L225.64 540.718C226.694 541.548 228.244 541.214 228.863 540.024Z" fill="#1A317A"/>
<path d="M243.476 517.683L255.788 509.829C256.919 509.107 257.113 507.534 256.193 506.557L245.437 495.155C244.732 494.408 243.596 494.267 242.73 494.819L235.367 499.517C234.501 500.069 234.151 501.159 234.532 502.113L240.339 516.672C240.836 517.919 242.345 518.405 243.476 517.683Z" fill="#1A317A"/>
<path d="M267.302 505.644L281.891 504.996C283.231 504.936 284.187 503.672 283.878 502.366L280.264 487.114C280.027 486.114 279.114 485.423 278.088 485.469L269.362 485.856C268.337 485.902 267.488 486.67 267.34 487.687L265.09 503.199C264.898 504.527 265.962 505.703 267.302 505.644Z" fill="#1A317A"/>
<path d="M242.223 513.715C265.608 494.066 300.618 497.104 320.267 520.489C339.917 543.874 336.878 578.885 313.493 598.534C290.108 618.183 255.098 615.145 235.448 591.76C215.799 568.375 218.838 533.364 242.223 513.715ZM252.357 525.777C235.624 539.837 233.449 564.892 247.51 581.625C261.571 598.359 286.625 600.533 303.359 586.472C320.092 572.412 322.267 547.358 308.206 530.624C294.145 513.891 269.091 511.716 252.357 525.777Z" fill="#1A317A"/>
<path d="M241.468 537.213C231.023 557.311 238.848 582.07 258.946 592.515C279.044 602.96 303.803 595.135 314.248 575.037C324.693 554.939 316.868 530.18 296.77 519.735C276.672 509.29 251.913 517.115 241.468 537.213ZM252.126 542.752C259.512 528.541 277.019 523.008 291.231 530.393C305.442 537.779 310.975 555.286 303.59 569.498C296.204 583.709 278.697 589.242 264.485 581.856C250.274 574.471 244.741 556.964 252.126 542.752Z" fill="#1A317A"/>
<path d="M616.181 640.055H313.489C299.965 640.055 287.807 625.676 286.334 607.94L241.415 67.2542C239.942 49.5182 249.711 35.1392 263.235 35.1392H565.927C579.451 35.1392 591.609 49.5182 593.082 67.2542L638.001 607.94C639.474 625.676 629.704 640.055 616.181 640.055Z" fill="#628CD2"/>
<path d="M637.939 625.567H335.247C321.723 625.567 309.565 611.188 308.092 593.452L263.173 52.7659C261.7 35.0299 271.469 20.6509 284.993 20.6509H587.685C601.209 20.6509 613.367 35.0299 614.84 52.7659L659.759 593.452C661.232 611.188 651.463 625.567 637.939 625.567Z" fill="white"/>
<path d="M637.939 628.033H335.247C320.492 628.033 307.206 612.612 305.632 593.656L260.713 52.9691C259.815 42.1571 262.805 32.1481 268.917 25.5081C273.328 20.7161 278.886 18.1831 284.992 18.1831H587.684C602.439 18.1831 615.724 33.6051 617.298 52.5611L662.217 593.247C663.115 604.059 660.125 614.067 654.013 620.708C649.602 625.5 644.045 628.033 637.939 628.033ZM284.992 23.1181C280.303 23.1181 276 25.1001 272.548 28.8501C267.444 34.3961 264.858 43.2601 265.631 52.5611L310.55 593.247C311.917 609.707 322.996 623.098 335.247 623.098H637.939C642.628 623.098 646.931 621.116 650.383 617.366C655.487 611.82 658.072 602.957 657.3 593.656L612.381 52.9691C611.013 36.5091 599.935 23.1181 587.684 23.1181H284.992Z" fill="#2C49A2"/>
<path d="M632.918 565.927H330.357L288.942 67.4111H591.503L632.918 565.927Z" fill="#E0EAFF"/>
<path d="M442.724 49.07C442.966 51.985 441.361 54.348 439.138 54.348C436.915 54.348 434.918 51.985 434.676 49.07C434.434 46.155 436.038 43.792 438.261 43.792C440.484 43.792 442.482 46.155 442.724 49.07Z" fill="#1A317A"/>
<path d="M497.008 609.327H473.481C469.224 609.327 465.362 604.759 464.898 599.177C464.434 593.595 467.537 589.027 471.794 589.027H495.321C499.578 589.027 503.44 593.595 503.904 599.177C504.368 604.759 501.265 609.327 497.008 609.327Z" fill="#1A317A"/>
<path d="M597.169 414.873H534.217C528.637 414.873 523.696 410.312 523.202 404.707L518.3 349.181C518.05 346.357 518.926 343.693 520.768 341.682C522.588 339.694 525.121 338.599 527.901 338.599H590.853C596.433 338.599 601.374 343.159 601.868 348.764L606.77 404.29C607.02 407.114 606.144 409.778 604.302 411.79C602.482 413.778 599.949 414.873 597.169 414.873ZM527.901 343.333C526.465 343.333 525.173 343.882 524.26 344.879C523.326 345.899 522.885 347.278 523.016 348.764L527.918 404.29C528.203 407.515 531.028 410.138 534.217 410.138H597.169C598.604 410.138 599.897 409.59 600.81 408.593C601.744 407.573 602.186 406.193 602.055 404.707L597.152 349.181C596.867 345.957 594.042 343.333 590.853 343.333H527.901Z" fill="#A7C1FF"/>
<path d="M564.697 405.945C548.237 405.945 533.657 392.461 532.193 375.886C530.73 359.311 542.929 345.827 559.388 345.827C575.846 345.827 590.427 359.311 591.891 375.886C593.355 392.461 581.155 405.945 564.697 405.945ZM559.62 348.445C544.595 348.445 533.457 360.756 534.793 375.886C536.129 391.017 549.44 403.327 564.465 403.327C579.489 403.327 590.627 391.017 589.291 375.886C587.955 360.756 574.644 348.445 559.62 348.445Z" fill="#2C49A2"/>
<path d="M564.661 405.548C556.375 405.548 548.735 392.519 547.266 375.886C545.797 359.253 551.138 346.224 559.424 346.224C567.709 346.224 575.349 359.253 576.818 375.886C578.287 392.519 572.946 405.548 564.661 405.548ZM559.585 348.048C552.558 348.048 547.746 360.797 549.078 375.886C550.41 390.975 557.473 403.724 564.5 403.724C571.527 403.724 576.338 390.975 575.006 375.886C573.674 360.797 566.612 348.048 559.585 348.048Z" fill="#2C49A2"/>
<path d="M561.154 365.805C551.755 365.805 542.93 363.659 536.944 359.914L535.729 359.154L536.447 358.042C541.383 350.393 549.961 345.827 559.39 345.827C568.819 345.827 578.201 350.393 584.488 358.042L585.403 359.154L584.322 359.914C578.997 363.659 570.552 365.805 561.154 365.805ZM539.452 358.467C544.917 361.438 552.802 363.186 560.922 363.186C569.041 363.186 576.618 361.438 581.558 358.467C575.848 352.167 567.754 348.446 559.621 348.446C551.488 348.446 544.049 352.167 539.452 358.467Z" fill="#2C49A2"/>
<path d="M564.697 405.946C555.38 405.946 546.39 401.682 540.031 394.247L539.055 393.106L540.199 392.337C545.539 388.754 553.848 386.7 562.998 386.7C572.147 386.7 580.819 388.754 586.792 392.337L588.071 393.106L587.296 394.247C582.25 401.682 574.013 405.946 564.697 405.946ZM542.987 393.804C548.712 399.875 556.458 403.327 564.466 403.327C572.474 403.327 579.609 399.875 584.262 393.804C578.784 390.943 571.226 389.319 563.229 389.319C555.231 389.319 547.959 390.943 542.987 393.804Z" fill="#2C49A2"/>
<path d="M564.697 405.945C563.979 405.945 563.345 405.359 563.281 404.636L558.204 347.136C558.14 346.413 558.671 345.827 559.389 345.827C560.107 345.827 560.741 346.413 560.805 347.136L565.882 404.636C565.946 405.359 565.415 405.945 564.697 405.945Z" fill="#2C49A2"/>
<path d="M590.706 377.195H533.609C532.891 377.195 532.257 376.609 532.193 375.886C532.129 375.163 532.66 374.577 533.378 374.577H590.475C591.193 374.577 591.827 375.163 591.891 375.886C591.955 376.609 591.424 377.195 590.706 377.195Z" fill="#2C49A2"/>
<path d="M403.915 412.506H340.963C336.572 412.506 332.696 408.921 332.306 404.499L327.403 348.973C327.013 344.551 330.256 340.966 334.647 340.966H397.599C401.99 340.966 405.865 344.551 406.256 348.973L411.159 404.499C411.549 408.921 408.306 412.506 403.915 412.506Z" fill="#A7C1FF"/>
<path d="M391.564 367.055C390.997 365.789 389.553 365.097 388.338 365.508L374.204 370.292C372.709 370.798 370.969 369.637 370.768 368L368.888 352.693C368.725 351.362 367.513 350.283 366.182 350.283C364.851 350.283 363.905 351.362 364.068 352.693L365.969 368.172C366.17 369.809 364.715 370.97 363.096 370.464L347.957 365.733C346.641 365.322 345.367 366.015 345.111 367.281C344.855 368.547 345.715 369.906 347.031 370.317L362.34 375.101C363.959 375.607 364.8 377.485 364 378.809L356.523 391.193C355.873 392.27 356.296 393.777 357.469 394.559H357.47C358.643 395.341 360.12 395.103 360.77 394.026L368.331 381.503C369.131 380.179 371.105 380.179 372.23 381.503L382.748 393.886C383.663 394.963 385.198 395.201 386.179 394.419C387.16 393.637 387.214 392.13 386.299 391.053L375.663 378.531C374.538 377.207 374.918 375.328 376.413 374.822L390.39 370.092C391.605 369.681 392.131 368.321 391.564 367.055Z" fill="#628CD2"/>
<path d="M368.975 351.131H363.596C363.102 351.131 362.674 350.681 362.707 350.195L363.092 344.524C363.117 344.152 363.409 343.883 363.787 343.883H367.004C367.382 343.883 367.741 344.152 367.857 344.524L369.634 350.195C369.786 350.681 369.469 351.131 368.975 351.131Z" fill="#628CD2"/>
<path d="M359.906 351.932L355.19 353.99C354.757 354.179 354.207 353.906 354.047 353.422L352.181 347.769C352.059 347.399 352.21 347.026 352.542 346.881L355.363 345.65C355.695 345.505 356.112 345.629 356.359 345.945L360.121 350.771C360.443 351.184 360.339 351.743 359.906 351.932Z" fill="#628CD2"/>
<path d="M352.263 356.179L348.926 359.983C348.619 360.333 348.032 360.278 347.704 359.869L343.872 355.094C343.621 354.781 343.608 354.362 343.843 354.094L345.838 351.819C346.073 351.552 346.488 351.512 346.827 351.725L352 354.971C352.443 355.249 352.57 355.829 352.263 356.179Z" fill="#628CD2"/>
<path d="M347.211 363.228L345.763 368.197C345.63 368.654 345.094 368.825 344.647 368.554L339.432 365.385C339.09 365.177 338.916 364.775 339.018 364.425L339.884 361.453C339.986 361.103 340.334 360.906 340.714 360.983L346.512 362.155C347.008 362.255 347.344 362.771 347.211 363.228Z" fill="#628CD2"/>
<path d="M345.52 372.004L346.18 377.382C346.241 377.876 345.837 378.248 345.34 378.156L339.536 377.075C339.156 377.004 338.846 376.679 338.8 376.301L338.406 373.085C338.36 372.707 338.588 372.382 338.951 372.311L344.489 371.23C344.963 371.137 345.459 371.51 345.52 372.004Z" fill="#628CD2"/>
<path d="M347.446 381.172L350.114 386.141C350.359 386.598 350.15 387.114 349.678 387.214L344.169 388.386C343.808 388.463 343.411 388.265 343.223 387.916L341.627 384.944C341.439 384.594 341.514 384.192 341.805 383.984L346.242 380.815C346.622 380.544 347.201 380.715 347.446 381.172Z" fill="#628CD2"/>
<path d="M352.697 389.336L356.968 393.14C357.36 393.49 357.377 394.07 357.002 394.348L352.626 397.594C352.339 397.807 351.914 397.768 351.614 397.5L349.06 395.225C348.76 394.957 348.669 394.538 348.843 394.225L351.503 389.45C351.731 389.041 352.305 388.986 352.697 389.336Z" fill="#628CD2"/>
<path d="M360.472 395.253L365.694 397.311C366.174 397.5 366.414 398.059 366.193 398.472L363.617 403.298C363.448 403.614 363.06 403.738 362.693 403.593L359.57 402.362C359.203 402.217 358.96 401.844 358.991 401.474L359.469 395.821C359.51 395.337 359.992 395.064 360.472 395.253Z" fill="#628CD2"/>
<path d="M369.588 398.022H374.967C375.461 398.022 375.888 398.472 375.855 398.958L375.471 404.629C375.446 405.001 375.154 405.27 374.776 405.27H371.559C371.181 405.27 370.822 405.001 370.706 404.629L368.929 398.958C368.777 398.472 369.094 398.022 369.588 398.022Z" fill="#628CD2"/>
<path d="M378.658 397.221L383.374 395.163C383.807 394.974 384.357 395.247 384.517 395.731L386.383 401.384C386.505 401.754 386.354 402.127 386.022 402.272L383.201 403.503C382.869 403.648 382.451 403.524 382.205 403.208L378.443 398.382C378.121 397.969 378.225 397.41 378.658 397.221Z" fill="#628CD2"/>
<path d="M386.3 392.975L389.637 389.171C389.944 388.821 390.531 388.877 390.859 389.286L394.692 394.06C394.943 394.373 394.955 394.792 394.72 395.06L392.725 397.335C392.49 397.603 392.075 397.642 391.736 397.429L386.563 394.183C386.12 393.905 385.993 393.325 386.3 392.975Z" fill="#628CD2"/>
<path d="M391.352 385.925L392.8 380.956C392.933 380.499 393.469 380.328 393.916 380.599L399.131 383.768C399.473 383.976 399.647 384.379 399.545 384.728L398.679 387.7C398.577 388.049 398.228 388.247 397.848 388.17L392.051 386.998C391.555 386.898 391.219 386.382 391.352 385.925Z" fill="#628CD2"/>
<path d="M393.043 377.149L392.383 371.771C392.322 371.277 392.726 370.905 393.223 370.997L399.027 372.078C399.407 372.149 399.716 372.474 399.762 372.852L400.157 376.068C400.203 376.446 399.975 376.771 399.612 376.842L394.073 377.923C393.599 378.015 393.104 377.643 393.043 377.149Z" fill="#628CD2"/>
<path d="M391.117 367.981L388.449 363.012C388.204 362.555 388.413 362.039 388.885 361.939L394.394 360.767C394.755 360.69 395.152 360.887 395.34 361.237L396.936 364.209C397.124 364.558 397.049 364.961 396.758 365.169L392.321 368.338C391.941 368.609 391.362 368.438 391.117 367.981Z" fill="#628CD2"/>
<path d="M385.867 359.817L381.596 356.013C381.204 355.663 381.187 355.083 381.562 354.805L385.938 351.559C386.225 351.346 386.65 351.385 386.95 351.653L389.504 353.928C389.804 354.195 389.895 354.615 389.721 354.928L387.061 359.702C386.833 360.111 386.259 360.167 385.867 359.817Z" fill="#628CD2"/>
<path d="M378.091 353.9L372.869 351.842C372.389 351.653 372.149 351.094 372.37 350.681L374.946 345.855C375.115 345.539 375.503 345.415 375.87 345.56L378.993 346.791C379.36 346.936 379.603 347.309 379.572 347.679L379.094 353.332C379.053 353.816 378.571 354.089 378.091 353.9Z" fill="#628CD2"/>
<path d="M382.534 399.49C370.091 404.92 354.242 398.672 347.202 385.563C340.162 372.454 344.557 357.37 357 351.94C369.443 346.51 385.292 352.758 392.332 365.867C399.372 378.976 394.977 394.06 382.534 399.49ZM360.631 358.702C351.727 362.588 348.581 373.381 353.619 382.762C358.657 392.143 369.999 396.614 378.903 392.728C387.807 388.842 390.953 378.049 385.915 368.668C380.877 359.287 369.535 354.816 360.631 358.702Z" fill="#628CD2"/>
<path d="M500.542 412.506H437.59C433.199 412.506 429.323 408.921 428.933 404.499L424.03 348.973C423.64 344.551 426.883 340.966 431.274 340.966H494.226C498.617 340.966 502.493 344.551 502.883 348.973L507.786 404.499C508.176 408.921 504.933 412.506 500.542 412.506Z" fill="#A7C1FF"/>
<path d="M475.403 398.893H481.153C482.342 398.893 483.187 397.929 483.041 396.74L477.492 351.552C477.346 350.363 476.264 349.399 475.075 349.399H469.325C468.136 349.399 467.291 350.363 467.437 351.552L472.986 396.74C473.132 397.929 474.214 398.893 475.403 398.893Z" fill="#F98A17"/>
<path d="M467.081 397.02L478.482 412.691C479.355 413.892 480.882 413.892 481.461 412.691L489.014 397.02C489.692 395.613 488.59 393.673 487.113 393.673H468.16C466.683 393.673 466.058 395.613 467.081 397.02Z" fill="#F98A17"/>
<path d="M477.227 397.82H482.977C484.166 397.82 485.011 396.856 484.865 395.667L479.316 350.479C479.17 349.29 478.088 348.326 476.899 348.326H471.149C469.96 348.326 469.115 349.29 469.261 350.479L474.81 395.667C474.956 396.856 476.038 397.82 477.227 397.82Z" fill="#FFAB31"/>
<path d="M468.904 395.947L480.305 411.618C481.178 412.818 482.705 412.818 483.284 411.618L490.837 395.947C491.515 394.54 490.413 392.6 488.936 392.6H469.983C468.506 392.6 467.88 394.54 468.904 395.947Z" fill="#FFAB31"/>
<path d="M441.612 338.036H447.362C448.551 338.036 449.632 339 449.778 340.189L455.327 385.377C455.473 386.566 454.628 387.53 453.439 387.53H447.689C446.5 387.53 445.418 386.566 445.272 385.377L439.723 340.189C439.577 339 440.423 338.036 441.612 338.036Z" fill="#628BD1"/>
<path d="M433.752 339.909L441.304 324.238C441.883 323.038 443.41 323.038 444.283 324.238L455.684 339.909C456.708 341.316 456.082 343.256 454.605 343.256H435.652C434.175 343.256 433.074 341.316 433.752 339.909Z" fill="#628BD1"/>
<path d="M444.114 338.674H449.864C451.053 338.674 452.135 339.638 452.281 340.827L457.83 386.015C457.976 387.204 457.13 388.168 455.941 388.168H450.191C449.002 388.168 447.921 387.204 447.775 386.015L442.226 340.827C442.08 339.638 442.925 338.674 444.114 338.674Z" fill="#2C49A1"/>
<path d="M436.255 340.547L443.807 324.876C444.386 323.675 445.913 323.675 446.786 324.876L458.187 340.547C459.211 341.954 458.585 343.894 457.108 343.894H438.155C436.678 343.894 435.577 341.954 436.255 340.547Z" fill="#2C49A1"/>
<path d="M600.674 559.47H353.254C346.593 559.47 340.53 554.07 339.712 547.409L339.226 543.453C338.408 536.792 343.145 531.392 349.806 531.392H597.226C603.887 531.392 609.95 536.792 610.768 543.453L611.254 547.409C612.072 554.07 607.335 559.47 600.674 559.47Z" fill="#628CD2"/>
<path d="M581.029 553.425H353.088C349.665 553.425 346.548 550.649 346.128 547.226L345.607 542.98C345.187 539.557 347.622 536.781 351.045 536.781H578.986C582.409 536.781 585.526 539.557 585.946 542.98L586.467 547.226C586.887 550.649 584.452 553.425 581.029 553.425Z" fill="#E4EEFF"/>
<path d="M597.487 523.201H352.846C343.212 523.201 334.678 515.318 333.823 505.63L329.84 460.517C329.415 455.699 330.902 451.166 334.027 447.752C337.111 444.384 341.413 442.529 346.141 442.529H590.782C600.416 442.529 608.95 450.412 609.805 460.1L613.788 505.214C614.214 510.032 612.727 514.564 609.602 517.978C606.518 521.346 602.215 523.201 597.487 523.201ZM346.141 447.264C342.757 447.264 339.695 448.573 337.519 450.949C335.302 453.371 334.249 456.621 334.556 460.1L338.54 505.214C339.185 512.522 345.602 518.466 352.846 518.466H597.487C600.871 518.466 603.934 517.157 606.11 514.781C608.327 512.36 609.379 509.109 609.072 505.63L605.09 460.517C604.444 453.21 598.026 447.264 590.782 447.264H346.141Z" fill="#A7C1FF"/>
<g opacity="0.1">
<path d="M616.918 537.861C622.064 551.132 616.034 564.578 603.451 567.892C590.868 571.206 576.495 563.134 571.35 549.863C566.204 536.592 572.234 523.146 584.817 519.832C597.4 516.518 611.772 524.59 616.918 537.861Z" fill="#E0EAFF"/>
</g>
<path d="M675.966 594.122C674.869 594.411 673.6 594.258 672.421 593.596L623.746 565.009C621.387 563.685 620.032 562.406 621.022 560.2C622.012 557.994 624.137 558.59 626.496 559.914L676.005 585.606C678.364 586.93 679.474 589.794 678.484 592C677.989 593.103 677.063 593.833 675.966 594.122Z" fill="#2C49A2"/>
<path d="M678.154 587.753C678.284 588.59 678.199 589.439 677.854 590.209C677.359 591.312 676.433 592.043 675.336 592.332C674.239 592.621 672.97 592.468 671.791 591.806L623.116 563.219C622.079 562.637 621.237 562.063 620.702 561.416C620.616 562.917 621.858 563.949 623.746 565.009L672.421 593.597C673.6 594.259 674.868 594.411 675.965 594.122C677.062 593.833 677.988 593.103 678.483 592C679.083 590.662 678.908 589.084 678.154 587.753Z" fill="#1A317A"/>
<path d="M625.782 556.901C624.534 553.682 621.583 551.425 618.476 550.993C617.76 555.622 615.666 559.776 612.438 562.891C614.564 565.787 618.215 567.34 621.487 566.478C625.5 565.421 627.423 561.133 625.782 556.901Z" fill="#2C49A2"/>
<path d="M603.767 568.708C590.645 572.164 575.603 563.716 570.237 549.876C564.871 536.036 571.181 521.964 584.303 518.508C597.425 515.052 612.467 523.5 617.833 537.34C623.199 551.18 616.889 565.252 603.767 568.708ZM585.133 520.648C573.129 523.81 567.357 536.682 572.266 549.342C577.175 562.002 590.933 569.73 602.937 566.568C614.941 563.406 620.713 550.534 615.804 537.874C610.895 525.214 597.137 517.486 585.133 520.648Z" fill="#1A317A"/>
<g opacity="0.53">
<path d="M608.388 532.464C607.855 532.604 607.222 532.417 606.775 531.935C601.479 526.225 593.714 523.679 586.995 525.449C584.21 526.183 581.816 527.561 579.88 529.547C579.337 530.104 578.379 530.043 577.741 529.41C577.103 528.777 577.027 527.812 577.57 527.255C579.792 524.976 582.653 523.327 585.846 522.486C593.661 520.428 602.691 523.388 608.851 530.029C609.462 530.688 609.492 531.649 608.919 532.175C608.765 532.316 608.583 532.413 608.388 532.464Z" fill="#1A317A"/>
</g>
<path d="M665.033 504.663H437.382C429.517 504.663 422.573 498.242 421.874 490.321L418.168 448.341C417.469 440.42 423.278 433.999 431.143 433.999H658.794C666.659 433.999 673.603 440.42 674.302 448.341L678.008 490.321C678.707 498.242 672.898 504.663 665.033 504.663Z" fill="#2C49A2"/>
<path d="M669.024 498.148H441.373C433.508 498.148 426.564 491.727 425.865 483.806L422.159 441.826C421.46 433.905 427.269 427.484 435.134 427.484H662.785C670.65 427.484 677.594 433.905 678.293 441.826L681.999 483.806C682.698 491.727 676.889 498.148 669.024 498.148Z" fill="url(#paint2_linear_4_2298)"/>
<path d="M488.105 482.281L487.846 480.17C486.367 482.813 484.251 484.896 481.499 486.42C478.747 487.944 475.739 488.706 472.474 488.706C469.146 488.706 466.071 487.976 463.248 486.514C460.425 485.052 458.26 482.999 456.754 480.356C455.248 477.713 454.208 474.059 453.635 469.394L450.619 444.825C450.177 441.223 452.987 438.046 456.616 438.046H457.549C460.601 438.046 463.174 440.323 463.546 443.352L465.69 460.81C466.545 467.776 467.31 472.045 467.985 473.615C468.66 475.185 469.691 476.43 471.079 477.347C472.467 478.264 474.14 478.723 476.099 478.723C478.338 478.723 480.269 478.109 481.891 476.881C483.513 475.653 484.538 474.128 484.968 472.309C485.398 470.49 485.178 466.035 484.307 458.944L482.573 444.825C482.131 441.223 484.941 438.046 488.57 438.046H489.503C492.555 438.046 495.128 440.323 495.5 443.352L500.099 480.808C500.541 484.41 497.731 487.587 494.102 487.587C491.05 487.587 488.477 485.31 488.105 482.281Z" fill="#2C49A1"/>
<path d="M516.921 472.089C519.161 471.741 521.353 472.771 522.63 474.644C523.34 475.685 524.19 476.556 525.18 477.254C527.053 478.576 529.528 479.236 532.607 479.236C535.997 479.236 538.471 478.614 540.029 477.37C541.073 476.499 541.505 475.334 541.325 473.872C541.203 472.877 540.791 472.052 540.089 471.399C539.359 470.777 537.827 470.202 535.492 469.673C524.632 467.341 517.668 465.21 514.601 463.282C510.354 460.608 507.939 456.891 507.355 452.133C506.828 447.841 508.08 444.234 511.111 441.311C514.142 438.388 519.218 436.926 526.34 436.926C533.119 436.926 538.292 438.03 541.86 440.238C542.648 440.726 543.393 441.265 544.093 441.856C547.69 444.89 546.197 450.73 541.573 451.605C539.553 451.987 537.528 451.189 536.206 449.614C535.641 448.941 534.986 448.366 534.24 447.888C532.637 446.862 530.467 446.349 527.73 446.349C524.278 446.349 521.864 446.831 520.49 447.795C519.579 448.479 519.19 449.365 519.324 450.454C519.439 451.387 519.971 452.18 520.922 452.833C522.211 453.704 526.444 454.932 533.62 456.518C540.796 458.104 545.91 460.049 548.96 462.35C551.983 464.682 553.75 467.932 554.262 472.099C554.819 476.639 553.402 480.543 550.009 483.808C546.616 487.073 541.203 488.706 533.77 488.706C527.022 488.706 521.512 487.338 517.242 484.601C516.015 483.815 514.892 482.948 513.87 482C510.345 478.731 512.171 472.827 516.921 472.089Z" fill="#2C49A1"/>
<path d="M599.235 472.616L599.814 472.711C604.508 473.483 606.651 479.139 603.516 482.717C602.793 483.542 601.992 484.287 601.112 484.951C597.796 487.454 593.417 488.706 587.975 488.706C579.361 488.706 572.64 485.892 567.813 480.263C563.994 475.754 561.662 470.062 560.818 463.189C559.81 454.979 561.166 448.549 564.887 443.9C568.608 439.251 573.749 436.926 580.311 436.926C587.681 436.926 593.796 439.36 598.654 444.227C598.703 444.276 598.751 444.324 598.799 444.373C606.885 452.625 600.759 466.595 589.205 466.595H574.671C575.242 470.482 576.67 473.507 578.957 475.668C581.244 477.829 583.895 478.91 586.912 478.91C588.965 478.91 590.622 478.35 591.884 477.23C592.357 476.81 592.771 476.294 593.124 475.682C594.384 473.5 596.749 472.207 599.235 472.616ZM585.97 458.571C590.449 458.571 592.816 453.066 589.573 449.977C589.552 449.957 589.531 449.938 589.51 449.918C587.401 447.943 585.01 446.955 582.336 446.955C579.475 446.955 577.239 447.997 575.629 450.081C574.019 452.165 573.449 454.995 573.919 458.571H585.97Z" fill="#2C49A1"/>
<path d="M627.437 487.586H624.817C622.188 487.586 619.971 485.625 619.651 483.015L614.663 442.392C614.379 440.082 616.182 438.045 618.509 438.045H622.877C624.834 438.045 626.484 439.505 626.722 441.448L627.169 445.089C628.844 441.761 630.449 439.569 631.983 438.512C633.517 437.455 635.341 436.926 637.456 436.926C639.437 436.926 641.414 437.289 643.388 438.014C645.144 438.659 646.123 440.543 645.7 442.365L644.765 446.393C644.277 448.492 642.113 449.759 640.054 449.126C639.09 448.83 638.176 448.681 637.313 448.681C635.478 448.681 633.986 449.186 632.835 450.197C631.684 451.208 630.905 453.036 630.499 455.679C630.093 458.322 630.407 463.857 631.442 472.285L632.603 481.747C632.984 484.85 630.563 487.586 627.437 487.586Z" fill="#2C49A1"/>
<path d="M414.246 197.713H324.622C317.48 197.713 311.174 191.883 310.539 184.69L304.548 116.826C303.913 109.633 309.188 103.803 316.33 103.803H405.954C413.096 103.803 419.401 109.633 420.036 116.826L426.028 184.69C426.663 191.883 421.388 197.713 414.246 197.713Z" fill="#A7C1FF"/>
<path d="M348.677 122.298C349.19 128.103 344.932 132.81 339.167 132.81C333.402 132.81 328.314 128.103 327.801 122.298C327.288 116.492 331.546 111.786 337.311 111.786C343.076 111.786 348.164 116.492 348.677 122.298Z" fill="#E0EAFF"/>
<path d="M426.029 184.689L423.416 155.096L402.295 132.556C399.346 129.409 394.364 129.056 391.461 131.789L363.989 157.648C361.382 160.102 357.028 160.104 353.986 157.652L335.543 142.79C332.714 140.51 328.71 140.331 326.044 142.366L308.017 156.122L310.54 184.689C311.175 191.882 317.479 197.713 324.622 197.713H414.246C421.389 197.713 426.664 191.882 426.029 184.689Z" fill="#628CD2"/>
<path d="M392.149 308.33H329.197C323.618 308.33 318.677 303.769 318.182 298.164L313.279 242.638C313.03 239.813 313.906 237.15 315.748 235.139C317.568 233.151 320.101 232.056 322.881 232.056H385.833C391.412 232.056 396.353 236.617 396.848 242.222L401.751 297.748C402 300.573 401.124 303.236 399.282 305.247C397.462 307.235 394.929 308.33 392.149 308.33ZM322.881 236.791C321.445 236.791 320.153 237.339 319.24 238.336C318.306 239.356 317.864 240.736 317.996 242.222L322.898 297.748C323.182 300.972 326.008 303.596 329.197 303.596H392.149C393.585 303.596 394.877 303.047 395.79 302.05C396.724 301.03 397.166 299.65 397.035 298.164L392.132 242.638C391.848 239.414 389.022 236.791 385.833 236.791H322.881Z" fill="#A7C1FF"/>
<path d="M579.38 305.963H429.076C421.101 305.963 414.061 299.452 413.352 291.421L409.222 244.645C408.513 236.614 414.403 230.103 422.378 230.103H572.682C580.657 230.103 587.697 236.614 588.406 244.645L592.536 291.421C593.245 299.452 587.355 305.963 579.38 305.963Z" fill="#8DA4FC"/>
<path d="M545.437 271.221H490.583C488.655 271.221 486.953 269.648 486.782 267.706L486.679 266.54C486.508 264.598 487.931 263.025 489.859 263.025H544.713C546.641 263.025 548.343 264.598 548.514 266.54L548.617 267.706C548.788 269.648 547.365 271.221 545.437 271.221Z" fill="#E4EEFF"/>
<path d="M515.019 255.628H489.207C487.279 255.628 485.576 254.054 485.405 252.112L485.342 251.404C485.171 249.462 486.595 247.888 488.523 247.888H514.335C516.263 247.888 517.966 249.462 518.137 251.404L518.2 252.112C518.372 254.054 516.947 255.628 515.019 255.628Z" fill="#E4EEFF"/>
<path d="M576.23 286.585H491.94C490.012 286.585 488.309 285.012 488.138 283.07L488.036 281.904C487.865 279.962 489.288 278.389 491.216 278.389H575.506C577.434 278.389 579.136 279.962 579.307 281.904L579.41 283.07C579.581 285.012 578.158 286.585 576.23 286.585Z" fill="#E4EEFF"/>
<path d="M470.397 267.237C471.546 280.249 462.002 290.798 449.081 290.798C436.16 290.798 424.754 280.249 423.605 267.237C422.456 254.224 432 243.676 444.921 243.676C457.842 243.676 469.248 254.224 470.397 267.237Z" fill="#E4EEFF"/>
<path d="M455.606 268.892L445.921 279.597C444.495 281.173 441.721 280.057 441.524 277.828L439.633 256.418C439.436 254.189 442.014 253.073 443.718 254.649L455.294 265.354C456.351 266.331 456.49 267.915 455.606 268.892Z" fill="#8DA4FC"/>
<path d="M573.57 200.08H448.239C440.104 200.08 432.899 193.426 432.177 185.247L426.123 116.683C425.763 112.602 427.024 108.761 429.675 105.866C432.291 103.008 435.94 101.434 439.947 101.434H565.279C573.413 101.434 580.619 108.088 581.341 116.266L587.394 184.831C587.755 188.912 586.493 192.753 583.843 195.648C581.226 198.506 577.578 200.08 573.57 200.08ZM439.947 106.169C437.284 106.169 434.876 107.197 433.167 109.063C431.425 110.967 430.598 113.525 430.84 116.267L436.894 184.831C437.406 190.629 442.495 195.345 448.239 195.345H573.57C576.234 195.345 578.641 194.317 580.351 192.451C582.094 190.547 582.921 187.989 582.679 185.247L576.625 116.683C576.112 110.886 571.023 106.169 565.279 106.169H439.947Z" fill="#A7C1FF"/>
<path d="M588.875 174.611H482.472C473.397 174.611 465.386 167.202 464.579 158.063L459.632 102.033C458.825 92.8939 465.528 85.4849 474.603 85.4849H581.006C590.081 85.4849 598.092 92.8939 598.899 102.033L603.846 158.063C604.653 167.202 597.95 174.611 588.875 174.611Z" fill="#1A317A"/>
<path d="M594.115 167.991H487.712C478.637 167.991 470.626 160.582 469.819 151.443L464.872 95.4127C464.065 86.2737 470.768 78.8647 479.843 78.8647H586.246C595.321 78.8647 603.332 86.2737 604.139 95.4127L609.086 151.443C609.893 160.582 603.19 167.991 594.115 167.991Z" fill="url(#paint3_linear_4_2298)"/>
<path d="M517.378 142.144L487.734 129.646C485.896 128.871 484.596 127.114 484.425 125.171L484.172 122.304C484 120.358 484.992 118.598 486.697 117.825L514.14 105.385C517.216 103.99 520.997 106.352 521.307 109.863L521.318 109.993C521.497 112.016 520.418 113.83 518.605 114.552L495.853 123.619L520.294 133.048C522.206 133.786 523.577 135.584 523.754 137.585L523.762 137.669C524.072 141.184 520.702 143.546 517.378 142.144Z" fill="#2C49A2"/>
<path d="M529.317 147.709L536.845 97.3487C537.105 95.6127 538.538 94.3877 540.311 94.3877H540.443C542.925 94.3877 544.958 96.7267 544.589 99.1557L536.93 149.516C536.666 151.248 535.234 152.468 533.465 152.468C530.987 152.468 528.954 150.136 529.317 147.709Z" fill="#2C49A2"/>
<path d="M552.677 137.703L552.67 137.633C552.493 135.627 553.553 133.826 555.342 133.092L578.15 123.734L553.716 114.485C551.789 113.755 550.403 111.95 550.225 109.937C549.915 106.427 553.277 104.065 556.599 105.458L586.277 117.903C588.119 118.676 589.423 120.435 589.595 122.382L589.842 125.172C590.013 127.114 589.025 128.872 587.325 129.647L559.852 142.177C556.775 143.58 552.987 141.219 552.677 137.703Z" fill="#2C49A2"/>
</g>
<mask id="mask1_4_2298" style="mask-type:luminance" maskUnits="userSpaceOnUse" x="530" y="188" width="366" height="565">
<path d="M530 188H896V753H530V188Z" fill="white"/>
</mask>
<g mask="url(#mask1_4_2298)">
<path d="M748.091 200.665C748.091 200.665 749.169 186.165 766.22 191.531C779.163 195.604 787.426 213.116 787.189 223.621C786.952 234.126 779.742 246.768 785.1 255.152C790.459 263.536 807.456 264.77 800.148 292.979C792.84 321.189 764.177 298.917 764.177 298.917L738.286 275.008L750.943 231.35L748.091 200.665Z" fill="url(#paint4_linear_4_2298)"/>
<path d="M755.374 207.54C755.374 207.54 763.556 192.812 749.53 192.945C729.005 193.138 729.619 218.007 730.171 221.447C731.153 227.562 723.681 252.451 719.648 256.669C714.341 262.221 708.283 270.011 707.612 277.779L732.736 255.716L755.374 207.54Z" fill="url(#paint5_linear_4_2298)"/>
<path d="M748.998 258.295C748.998 258.295 739.36 244.662 732.621 244.913C725.882 245.165 731.686 246.603 720.649 253.617C709.613 260.631 707.069 271.239 708.242 275.544C709.415 279.849 714.396 291.854 714.396 291.854L748.998 258.295Z" fill="url(#paint6_linear_4_2298)"/>
<path d="M596.392 243.149C596.392 243.149 592.388 231.944 592.034 230.122C591.846 229.154 593.057 225.572 594.233 222.428C595.513 219.01 595.356 215.219 593.82 211.909L590.854 205.518C590.25 204.215 588.341 204.188 587.789 205.515C587.765 205.572 587.744 205.629 587.726 205.686C587.418 206.701 588.294 214.273 588.487 215.898C588.51 216.096 588.459 216.295 588.342 216.456L588.11 216.776C587.756 217.264 587.006 217.194 586.75 216.647L578.163 198.285C577.373 196.594 574.981 196.557 574.138 198.223L571.774 202.895C569.331 207.722 568.816 213.296 570.332 218.488C570.332 218.488 575.387 232.861 579.44 239.846C579.44 239.846 582.59 248.48 582.954 248.34L596.392 243.149Z" fill="#FAC4B6"/>
<path d="M578.713 243.06C582.469 249.189 616.269 304.991 636.245 313.005C644.694 316.395 688.667 316.672 708.777 306.41C731.011 295.064 721.741 276.084 721.741 276.084C721.741 276.084 694.535 280.125 682.712 282.185C671.678 284.108 646.576 289.278 643.092 290.413C642.834 290.497 642.558 290.405 642.399 290.186C640.333 287.323 626.561 269.061 613.524 257.221C605.252 249.708 592.166 233.365 592.166 233.365L578.713 243.06Z" fill="#FA8B17"/>
<g opacity="0.5">
<path d="M578.713 243.06L582.455 240.363C585.975 246.155 596 262.477 602.405 271.16C610.281 281.836 634.552 305.765 640.976 308.572C647.4 311.38 657.515 307.729 684.148 301.938C710.782 296.147 721.331 284.595 723.419 283.631L719.772 297.455C717.498 300.632 714.022 303.734 708.777 306.41C688.666 316.672 644.672 316.452 636.245 313.005C616.138 304.778 578.713 243.06 578.713 243.06Z" fill="#FF5F18"/>
</g>
<g opacity="0.782197">
<path d="M764.421 675.562C841.787 675.562 904.601 692.903 904.601 714.262C904.601 735.621 841.787 752.962 764.421 752.962C687.056 752.962 624.241 735.621 624.241 714.262C624.241 692.903 687.056 675.562 764.421 675.562Z" fill="url(#paint7_radial_4_2298)"/>
</g>
<path d="M709.752 410.95C695.09 504.584 690.447 527.499 692.092 543.319C692.758 549.727 704.947 564.607 807.052 666.276C809.424 668.638 819.547 654.988 819.547 654.988C819.547 654.988 786.136 602.214 772.94 583.85C768.251 577.326 761.063 569.088 754.015 561.443C740.817 547.127 735.905 527.02 741.063 508.244C749.472 477.633 759.902 432.983 753.847 418.348C750.144 409.398 709.752 410.95 709.752 410.95Z" fill="#2C49A2"/>
<path d="M772.94 583.85C785.154 600.847 814.681 647.315 819.01 654.139C819.15 654.36 819.226 654.613 819.233 654.875C819.242 655.208 819.138 655.533 818.935 655.797L815.539 660.213C815.528 660.227 815.507 660.227 815.498 660.212C804.872 643.687 775.995 599.493 761.543 584.374C755.861 578.429 749.944 571.661 744.514 565.189C729.974 547.86 721.936 526.011 721.798 503.391C721.644 478.099 723.739 446.359 734.15 433.684C739.029 427.744 746.816 428.028 755.633 431.661C755.643 431.665 755.648 431.674 755.648 431.684C755.465 451.72 747.647 484.282 741.064 508.244C735.906 527.02 740.818 547.127 754.016 561.443C761.064 569.088 768.252 577.326 772.94 583.85Z" fill="url(#paint8_linear_4_2298)"/>
<path d="M785.989 415.898C785.989 415.898 797.399 437.388 795.918 456.415C794.437 475.442 767.657 553.434 766.425 559.998C765.193 566.562 772.374 585.817 768.158 609.857C763.942 633.897 746.159 698.092 746.159 698.092L728.959 696.448C728.959 696.448 723.334 601.546 731.331 554.302C732.94 544.795 725.322 455.276 741.226 439.87C757.13 424.464 764.263 401.103 785.989 415.898Z" fill="#2C49A2"/>
<path d="M728.959 696.448C728.959 696.448 723.333 601.546 731.33 554.302C732.939 544.795 725.321 455.276 741.225 439.87C751.846 429.582 758.557 415.748 768.314 412.098C770.58 412.85 773.02 414.086 775.68 415.898C775.68 415.898 787.09 437.388 785.609 456.415C784.128 475.442 757.348 553.433 756.116 559.997C754.884 566.561 762.065 585.817 757.849 609.857C753.935 632.175 738.331 689.089 736.115 697.132L728.959 696.448Z" fill="#628CD2"/>
<path d="M746.717 696.069L744.979 706.922L728.489 710.038L727.037 703.054L729.849 692.562L746.717 696.069Z" fill="#FAC4B6"/>
<path d="M823.835 659.745L819.011 654.14L807.053 666.277L812.96 675.28L823.835 659.745Z" fill="#FAC4B6"/>
<path d="M747.061 702.848C747.061 702.848 741.08 705.293 736.086 704.412C731.092 703.531 727.407 701.106 727.407 701.106C727.407 701.106 722.784 707.975 713.693 711.877C705.018 715.6 691.872 716.358 691.175 716.645C689.748 717.232 690.224 723.103 690.224 723.103C690.224 723.103 740.164 727.506 747.061 726.038C753.958 724.57 747.061 702.848 747.061 702.848Z" fill="url(#paint9_linear_4_2298)"/>
<path d="M821.493 657.162C821.493 657.162 819.782 662.574 816.38 665.451C812.978 668.328 809.268 669.452 809.268 669.452C809.268 669.452 811.307 676.435 808.831 684.766C806.468 692.716 799.59 702.018 799.392 702.65C798.986 703.943 803.218 706.922 803.218 706.922C803.218 706.922 834.264 675.679 837.15 670.198C840.036 664.717 821.493 657.162 821.493 657.162Z" fill="url(#paint10_linear_4_2298)"/>
<path d="M764.887 243.629C764.887 243.629 761.456 272.516 763.797 277.109C766.138 281.703 750.107 310.02 745.861 312.65C741.614 315.279 705.165 307.488 729.055 276.665C733.224 271.286 736.318 264.174 738.83 253.051C741.342 241.928 764.887 243.629 764.887 243.629Z" fill="#FAC4B6"/>
<path d="M735.532 264.886C736.736 261.75 737.841 258.173 738.79 253.971C741.302 242.848 764.847 244.549 764.847 244.549C764.847 244.549 763.822 252.713 763.451 260.381C755.74 265.173 746.194 267.43 738.771 266.276C737.551 266.086 736.48 265.6 735.532 264.886Z" fill="#F5B3A6"/>
<path d="M781.418 279.792C776.091 277.151 769.365 275.364 763.482 276.219C763.482 276.219 747.928 307.165 727.509 303.811C725.434 295.345 726.006 286.445 729.147 278.313L730.633 274.465L730.602 274.464C727.213 274.295 723.829 274.884 720.698 276.189L719.778 276.572C719.778 276.572 707.38 299.985 706.522 316.886C705.664 333.786 708.604 343.572 709.089 354.019C710.381 381.807 698.9 425.731 698.9 425.731C698.9 425.731 704.978 433.888 737.944 438.978C757.035 441.926 791.155 430.934 791.155 430.934C791.155 430.934 783.201 406.419 778.404 394.03C774.72 384.514 778.913 376.855 777.287 359.668C776.399 350.279 781.671 337.638 782.356 329.496C782.504 327.733 771.713 302.566 781.418 279.792Z" fill="url(#paint11_linear_4_2298)"/>
<path d="M728.217 208.086C724.674 224.981 723.671 250.04 735.017 252.144C749.709 254.869 772.666 245.169 776.208 228.274C779.751 211.379 772.514 193.669 761.221 191.301C749.926 188.932 731.76 191.191 728.217 208.086Z" fill="#FAC4B6"/>
<path d="M741.011 189.499C741.011 189.499 748.935 187.163 750.124 191.367C751.312 195.571 744.514 202.083 740.323 203.401C727.727 207.363 726.555 221.195 726.555 221.195C726.555 221.195 724.936 195.124 741.011 189.499Z" fill="url(#paint12_linear_4_2298)"/>
<path d="M753.486 189.316C746.295 188.598 741.894 200.677 759.115 207.756C766.422 210.76 770.762 215.087 767.526 221.224C767.097 222.038 761.87 228.145 761.534 228.988C754.655 246.261 775.351 249.437 775.351 249.437C775.351 249.437 801.792 194.136 753.486 189.316Z" fill="url(#paint13_linear_4_2298)"/>
<path d="M628.514 376.053L786.427 449.812C794.737 453.694 804.62 450.103 808.501 441.793L820.638 415.809C824.52 407.499 820.93 397.616 812.62 393.734L654.707 319.975C646.396 316.094 636.514 319.684 632.633 327.994L620.495 353.978C616.614 362.288 620.204 372.172 628.514 376.053Z" fill="#2C49A2"/>
<path d="M739.248 391.165L798.826 418.993C800.706 419.872 802.942 419.059 803.821 417.178L804.009 416.777C804.887 414.897 804.074 412.66 802.194 411.781L742.616 383.953C740.735 383.075 738.499 383.888 737.621 385.768L737.433 386.169C736.554 388.05 737.367 390.287 739.248 391.165Z" fill="#E4EEFF"/>
<path d="M701.331 389.922L792.512 432.51C794.393 433.389 796.628 432.577 797.507 430.696L797.694 430.294C798.573 428.413 797.761 426.178 795.88 425.299L704.699 382.71C702.818 381.831 700.582 382.643 699.704 384.524L699.516 384.926C698.637 386.806 699.45 389.043 701.331 389.922Z" fill="#E4EEFF"/>
<path d="M679.736 388.878L634.973 366.553C633.628 365.883 633.082 364.248 633.753 362.904L649.303 331.722C649.974 330.378 651.608 329.831 652.953 330.501L697.717 352.827C699.062 353.498 699.607 355.131 698.937 356.476L683.386 387.657C682.716 389.002 681.081 389.549 679.736 388.878Z" fill="url(#paint14_linear_4_2298)"/>
<path d="M679.521 389.563L634.758 367.239C633.924 366.823 633.296 366.099 632.99 365.201C632.679 364.291 632.739 363.327 633.159 362.484L648.709 331.303C649.541 329.637 651.499 328.984 653.169 329.817L697.933 352.142C698.767 352.558 699.394 353.28 699.7 354.178C700.011 355.088 699.951 356.053 699.531 356.896L683.98 388.078C683.148 389.744 681.191 390.396 679.521 389.563ZM652.737 331.187C651.711 330.675 650.412 331.114 649.898 332.143L634.346 363.324C634.112 363.793 634.072 364.315 634.236 364.794C634.396 365.259 634.735 365.641 635.19 365.868L679.953 388.194C680.979 388.706 682.279 388.266 682.792 387.237L698.344 356.056C698.579 355.586 698.618 355.064 698.454 354.587C698.296 354.121 697.956 353.74 697.501 353.512L652.737 331.187Z" fill="#EE9507"/>
<path d="M680.309 389.725L680.138 389.639L665.635 359.282L698.454 352.634L698.595 352.704C699.177 352.994 699.614 353.501 699.83 354.131C700.051 354.779 700.007 355.468 699.707 356.072L683.456 388.657C682.865 389.841 681.483 390.31 680.309 389.725ZM667.055 360.099L680.777 388.824C681.467 389.064 682.277 388.741 682.616 388.062L698.867 355.478C699.037 355.138 699.066 354.762 698.949 354.42C698.853 354.141 698.667 353.905 698.417 353.745L667.055 360.099Z" fill="#EE9507"/>
<path d="M634.236 366.747L634.095 366.677C633.513 366.386 633.075 365.879 632.859 365.249C632.638 364.601 632.682 363.912 632.982 363.309L649.234 330.724C649.825 329.539 651.207 329.07 652.381 329.656L652.552 329.741L667.055 360.099L634.236 366.747ZM651.913 330.556C651.223 330.316 650.413 330.639 650.074 331.319L633.823 363.903C633.653 364.242 633.624 364.618 633.741 364.961C633.837 365.24 634.023 365.475 634.273 365.635L665.636 359.282L651.913 330.556Z" fill="#EE9507"/>
<path d="M662.532 358.7L651.258 332.335C650.608 331.086 651.938 329.713 653.193 330.339L698.054 352.711C699.308 353.337 699.012 355.227 697.623 355.458L669.854 362.352C666.872 362.851 663.928 361.381 662.532 358.7Z" fill="#FFAB31"/>
<path d="M665.368 362.449C663.932 361.732 662.714 360.563 661.926 359.05L661.894 358.984L650.633 332.649C650.223 331.829 650.3 330.894 650.841 330.197C651.469 329.387 652.506 329.151 653.424 329.608L698.285 351.982C699.106 352.391 699.596 353.227 699.563 354.163C699.525 355.235 698.828 356.07 697.825 356.25L670.031 363.148C668.402 363.42 666.781 363.153 665.368 362.449ZM663.157 358.38C664.391 360.719 666.997 361.994 669.656 361.559L697.448 354.662C697.904 354.585 698.123 354.23 698.134 353.932C698.141 353.71 698.04 353.55 697.824 353.442L652.962 331.068C652.565 330.87 652.164 331.063 651.96 331.325C651.863 331.452 651.721 331.704 651.866 331.983L651.898 332.049L663.157 358.38Z" fill="#EE9507"/>
<path d="M682.061 401.6C681.298 401.642 680.92 402.54 681.423 403.116C683.993 406.062 689.925 412.643 692.548 413.754C695.947 415.192 718.651 413.522 722.249 411.069C725.847 408.615 721.337 396.992 721.337 396.992L711.754 392.972C710.983 392.597 710.018 393.066 709.932 393.919C709.81 395.132 709.991 396.146 707.026 397.542C702.206 399.811 687.14 401.319 682.061 401.6Z" fill="#FAC4B6"/>
<path d="M693.716 411.394C701.249 411.632 720.021 408.244 723.231 407.58C723.366 407.552 723.496 407.538 723.627 407.521C723.583 409.092 723.21 410.412 722.248 411.069C718.651 413.522 695.946 415.191 692.548 413.752C691.564 413.336 690.117 412.152 688.556 410.678C689.93 411.046 691.623 411.329 693.716 411.394Z" fill="#F5B3A6"/>
<path d="M789.034 368.884C789.034 368.884 777.78 339.746 769.516 317.805C765.756 307.82 761.658 279.766 772.574 276.633C780.835 274.262 787.51 289.736 796.557 305.881C801.744 315.137 821.189 371 814.16 382.394C810.411 388.473 793.228 396.017 777.404 399.761C753.988 405.303 723.142 410.328 723.142 410.328C723.142 410.328 724.599 400.536 716.928 395.413L789.034 368.884Z" fill="#FFAC31"/>
<g opacity="0.5">
<path d="M723.229 407.581L723.233 407.58C728.655 406.891 752.918 398.849 772.917 395.282C805.119 389.538 810.473 375.313 808.673 367.847C791.386 296.178 774.908 291.456 772.58 282.055C771.923 279.4 772.192 277.672 772.916 276.557C780.761 274.765 787.213 289.007 795.711 304.362C795.713 304.364 795.714 304.367 795.716 304.37C795.994 304.872 796.274 305.377 796.557 305.881C798.177 308.774 801.191 316.218 804.353 325.434C804.986 327.277 805.624 329.191 806.259 331.154C808.163 337.042 810.03 343.368 811.594 349.531C812.116 351.585 812.603 353.622 813.047 355.618C813.491 357.614 813.891 359.569 814.237 361.463C814.929 365.249 815.407 368.786 815.59 371.895C815.636 372.672 815.663 373.422 815.671 374.143C815.687 375.585 815.624 376.908 815.473 378.091C815.246 379.866 814.819 381.325 814.16 382.393C814.043 382.583 813.913 382.775 813.77 382.968C813.627 383.161 813.471 383.354 813.304 383.549C812.968 383.939 812.583 384.333 812.153 384.731C811.508 385.327 810.762 385.931 809.926 386.538C809.368 386.942 808.771 387.347 808.138 387.753C807.821 387.955 807.495 388.158 807.16 388.361C806.491 388.766 805.789 389.17 805.055 389.573C797.715 393.596 787.294 397.422 777.404 399.762C753.988 405.302 723.141 410.328 723.141 410.328C723.141 410.328 723.298 409.225 723.229 407.581Z" fill="#FA8B17"/>
</g>
</g>
<defs>
<linearGradient id="paint0_linear_4_2298" x1="1101.1" y1="32.1445" x2="1094.47" y2="-15.8531" gradientUnits="userSpaceOnUse">
<stop stop-color="#628CD2"/>
<stop offset="0.5" stop-color="#85A7E9" stop-opacity="0.75"/>
<stop offset="1" stop-color="#A7C1FF" stop-opacity="0.5"/>
</linearGradient>
<linearGradient id="paint1_linear_4_2298" x1="290.127" y1="434.271" x2="108.222" y2="194.401" gradientUnits="userSpaceOnUse">
<stop stop-color="#628CD2"/>
<stop offset="0.5" stop-color="#85A7E9" stop-opacity="0.75"/>
<stop offset="1" stop-color="#A7C1FF" stop-opacity="0.5"/>
</linearGradient>
<linearGradient id="paint2_linear_4_2298" x1="506.065" y1="494.724" x2="506.065" y2="424.06" gradientUnits="userSpaceOnUse">
<stop stop-color="#FF5F18"/>
<stop offset="0.53" stop-color="#FF8524"/>
<stop offset="1" stop-color="#FFAB31"/>
</linearGradient>
<linearGradient id="paint3_linear_4_2298" x1="583" y1="155.697" x2="583" y2="66.5697" gradientUnits="userSpaceOnUse">
<stop stop-color="#FF5F18"/>
<stop offset="0.53" stop-color="#FF8524"/>
<stop offset="1" stop-color="#FFAB31"/>
</linearGradient>
<linearGradient id="paint4_linear_4_2298" x1="775.895" y1="203.358" x2="757.38" y2="297.64" gradientUnits="userSpaceOnUse">
<stop stop-color="#2C49A2"/>
<stop offset="0.5" stop-color="#162451"/>
<stop offset="1"/>
</linearGradient>
<linearGradient id="paint5_linear_4_2298" x1="735.084" y1="190.217" x2="716.569" y2="284.499" gradientUnits="userSpaceOnUse">
<stop stop-color="#2C49A2"/>
<stop offset="0.5" stop-color="#162451"/>
<stop offset="1"/>
</linearGradient>
<linearGradient id="paint6_linear_4_2298" x1="725.708" y1="215.874" x2="707.193" y2="310.156" gradientUnits="userSpaceOnUse">
<stop stop-color="#2C49A2"/>
<stop offset="0.5" stop-color="#162451"/>
<stop offset="1"/>
</linearGradient>
<radialGradient id="paint7_radial_4_2298" cx="0" cy="0" r="1" gradientUnits="userSpaceOnUse" gradientTransform="translate(764.421 714.262) scale(127.719 35.2597)">
<stop stop-color="#C7D9F8"/>
<stop offset="0.59" stop-color="#E3ECFB" stop-opacity="0.5"/>
<stop offset="1" stop-color="white" stop-opacity="0"/>
</radialGradient>
<linearGradient id="paint8_linear_4_2298" x1="1850.02" y1="587" x2="1689.96" y2="679.412" gradientUnits="userSpaceOnUse">
<stop stop-opacity="0.6"/>
<stop offset="0.21" stop-color="#15224A" stop-opacity="0.8"/>
<stop offset="1" stop-color="#2B4594"/>
</linearGradient>
<linearGradient id="paint9_linear_4_2298" x1="736.637" y1="696.972" x2="733.137" y2="736.722" gradientUnits="userSpaceOnUse">
<stop/>
<stop offset="0.44" stop-color="#15224A"/>
<stop offset="1" stop-color="#2B4594"/>
</linearGradient>
<linearGradient id="paint10_linear_4_2298" x1="817.41" y1="663.292" x2="829.66" y2="689.542" gradientUnits="userSpaceOnUse">
<stop/>
<stop offset="0.44" stop-color="#15224A"/>
<stop offset="1" stop-color="#2B4594"/>
</linearGradient>
<linearGradient id="paint11_linear_4_2298" x1="782.291" y1="353.391" x2="704.992" y2="347.055" gradientUnits="userSpaceOnUse">
<stop stop-color="#FF5F18"/>
<stop offset="0.53" stop-color="#FF8624"/>
<stop offset="1" stop-color="#FFAC31"/>
</linearGradient>
<linearGradient id="paint12_linear_4_2298" x1="748.988" y1="191.527" x2="729.073" y2="208.433" gradientUnits="userSpaceOnUse">
<stop stop-color="#2C49A2"/>
<stop offset="0.44" stop-color="#283D80"/>
<stop offset="1" stop-color="#24325D"/>
</linearGradient>
<linearGradient id="paint13_linear_4_2298" x1="780.152" y1="199.381" x2="761.791" y2="242.926" gradientUnits="userSpaceOnUse">
<stop stop-color="#2C49A2"/>
<stop offset="0.44" stop-color="#283D80"/>
<stop offset="1" stop-color="#24325D"/>
</linearGradient>
<linearGradient id="paint14_linear_4_2298" x1="663.692" y1="379.661" x2="681.672" y2="343.608" gradientUnits="userSpaceOnUse">
<stop stop-color="#FF5F18"/>
<stop offset="0.38" stop-color="#FF8624"/>
<stop offset="1" stop-color="#FFAC31"/>
</linearGradient>
</defs>
</svg>
