<svg width="213" height="212" viewBox="0 0 213 212" fill="none" xmlns="http://www.w3.org/2000/svg">
<path d="M145.219 209.57L5.25886 197.325C3.54362 197.175 2.27306 195.664 2.42339 193.946L16.4843 33.2285L50.2761 4.87383L162.27 14.6721C163.986 14.8221 165.256 16.3391 165.106 18.0512L148.598 206.734C148.448 208.453 146.934 209.72 145.219 209.57Z" fill="white"/>
<path d="M145.219 209.572L17.4398 198.392C15.7246 198.242 14.454 196.731 14.6044 195.013L29.7527 21.8666C37.673 15.2265 42.1101 11.5004 50.0278 4.85379L162.271 14.6738C163.989 14.8241 165.256 16.3408 165.106 18.053L148.598 206.736C148.448 208.454 146.938 209.722 145.219 209.572Z" fill="#E0E6EA"/>
<path d="M16.3628 34.5896C15.8563 34.5453 15.3698 34.3086 15.0184 33.8864C14.3124 33.045 14.422 31.7928 15.2634 31.0867L48.3799 3.29292C48.7817 2.95861 49.3036 2.79135 49.8288 2.83729L162.507 12.6953C165.275 12.9375 167.331 15.3906 167.088 18.1654L165.49 36.4334C165.394 37.5272 164.431 38.3384 163.34 38.2429C162.246 38.1473 161.435 37.1808 161.531 36.087L163.129 17.8191C163.181 17.2318 162.744 16.7114 162.16 16.6603L50.2991 6.87374L17.8119 34.1308C17.3926 34.4855 16.8693 34.6339 16.3628 34.5896Z" fill="#401048"/>
<path d="M5.44272 159.453C4.34894 159.357 3.54083 158.394 3.63652 157.3L13.4948 44.6192C13.5908 43.5223 14.5539 42.7142 15.6476 42.8099C16.7414 42.9056 17.5495 43.8687 17.4536 44.9655L7.59526 157.647C7.49956 158.74 6.5365 159.548 5.44272 159.453Z" fill="#401048"/>
<path d="M145.106 211.56L5.02141 199.304C2.25278 199.062 0.197333 196.609 0.43983 193.837L2.57063 169.482C2.6666 168.385 3.63278 167.577 4.72345 167.673C5.81723 167.768 6.62533 168.731 6.52937 169.828L4.39856 194.183C4.34718 194.771 4.78074 195.291 5.36802 195.342L145.453 207.598C146.04 207.649 146.56 207.213 146.612 206.625L160.466 48.2668C160.562 47.173 161.525 46.3649 162.619 46.4606C163.712 46.5563 164.524 47.5196 164.428 48.6134L150.573 206.972C150.331 209.744 147.878 211.802 145.106 211.56Z" fill="#401048"/>
<path d="M16.54 32.61L49.656 4.82239L46.9918 35.2742L16.54 32.61Z" fill="#9E6A99"/>
<path d="M46.8197 37.253L16.3679 34.5888C15.5693 34.5189 14.8874 33.974 14.6473 33.2109C14.4044 32.4444 14.6501 31.6049 15.2651 31.0888L48.3816 3.29498C48.9966 2.77892 49.8692 2.68305 50.5756 3.05483C51.2882 3.42716 51.7065 4.1933 51.6364 4.99499L48.9722 35.4468C48.8768 36.5375 47.9134 37.3487 46.8197 37.253ZM21.4935 31.0451L45.1869 33.118L47.2598 9.42461L21.4935 31.0451Z" fill="#401048"/>
<path d="M111.056 42.8753L74.2413 39.6544C73.1426 39.5583 72.3279 38.5946 72.4236 37.5009C72.5193 36.4071 73.4889 35.5995 74.5876 35.6957L111.402 38.9165C112.504 39.0129 113.319 39.9766 113.223 41.0703C113.127 42.1641 112.158 42.9717 111.056 42.8753Z" fill="#401048"/>
<path d="M89.6893 56.3532L39.4587 51.9586C38.3311 51.8599 37.4956 50.8944 37.5916 49.7975C37.687 48.7069 38.6775 47.9012 39.8051 47.9998L90.0357 52.3944C91.1633 52.4931 91.9988 53.4585 91.9034 54.5492C91.8074 55.6461 90.8169 56.4518 89.6893 56.3532Z" fill="#401048"/>
<path d="M128.329 59.7332L102.616 57.4836C101.462 57.3826 100.601 56.4149 100.697 55.3181C100.792 54.2274 101.808 53.4239 102.962 53.5249L128.675 55.7745C129.83 55.8755 130.687 56.8429 130.592 57.9335C130.496 59.0304 129.484 59.8342 128.329 59.7332Z" fill="#401048"/>
<path d="M67.8048 69.7797L38.2213 67.1915C37.0443 67.0885 36.1627 66.119 36.2587 65.0222C36.3541 63.9315 37.3906 63.1298 38.5677 63.2328L68.1511 65.821C69.3315 65.9243 70.2097 66.8935 70.1143 67.9841C70.0183 69.081 68.9851 69.883 67.8048 69.7797Z" fill="#401048"/>
<path d="M128.089 75.0559L77.8507 70.6606C76.6477 70.5554 75.7546 69.5849 75.8506 68.488C75.946 67.3973 76.9941 66.5966 78.1971 66.7019L128.435 71.0971C129.638 71.2024 130.531 72.1729 130.436 73.2636C130.34 74.3604 129.292 75.1611 128.089 75.0559Z" fill="#401048"/>
<path d="M94.7678 87.485L36.9601 82.4275C35.7389 82.3206 34.8273 81.3516 34.9233 80.2548C35.019 79.161 36.0852 78.3619 37.3065 78.4687L95.1142 83.5263C96.3354 83.6331 97.2467 84.6052 97.151 85.699C97.0551 86.7959 95.9891 87.5918 94.7678 87.485Z" fill="#401048"/>
<path d="M127.754 90.3714L103.699 88.2669C102.464 88.1588 101.538 87.1886 101.634 86.0917C101.73 84.9979 102.811 84.2001 104.045 84.3081L128.101 86.4127C129.335 86.5207 130.258 87.4938 130.162 88.5876C130.066 89.6844 128.989 90.4794 127.754 90.3714Z" fill="#401048"/>
<path d="M77.2418 101.294L35.6727 97.6576C34.4287 97.5488 33.4986 96.5782 33.5946 95.4813C33.6903 94.3875 34.775 93.5901 36.019 93.6989L77.5881 97.3357C78.8321 97.4446 79.7619 98.4183 79.6662 99.5121C79.5702 100.609 78.4858 101.403 77.2418 101.294Z" fill="#401048"/>
<path d="M115.707 104.661L84.4171 101.923C83.1679 101.814 82.2302 100.843 82.3262 99.746C82.4218 98.6522 83.5143 97.8554 84.7635 97.9647L116.053 100.702C117.303 100.811 118.236 101.786 118.141 102.879C118.045 103.976 116.956 104.77 115.707 104.661Z" fill="#401048"/>
<path d="M58.731 115.022L34.3548 112.889C33.1076 112.78 32.1652 111.806 32.2609 110.712C32.3566 109.618 33.4539 108.822 34.7011 108.931L59.0774 111.063C60.3282 111.173 61.267 112.147 61.1713 113.241C61.0756 114.335 59.9818 115.132 58.731 115.022Z" fill="#401048"/>
<path d="M116.553 120.08L67.8495 115.819C66.6034 115.71 65.6691 114.736 65.7648 113.642C65.8605 112.549 66.9498 111.752 68.1959 111.861L116.9 116.122C118.149 116.231 119.084 117.205 118.988 118.299C118.892 119.393 117.803 120.19 116.553 120.08Z" fill="#401048"/>
<path d="M88.5081 132.971L33.01 128.116C31.7676 128.007 30.8363 127.033 30.9323 125.936C31.0277 124.846 32.114 124.048 33.3564 124.157L88.8544 129.012C90.1004 129.121 91.0317 130.095 90.9363 131.186C90.8403 132.283 89.754 133.08 88.5081 132.971Z" fill="#401048"/>
<path d="M54.7422 157.636L30.6023 155.524C29.3629 155.416 28.4334 154.442 28.5294 153.345C28.6248 152.255 29.7093 151.457 30.9487 151.566L55.0886 153.678C56.328 153.786 57.2575 154.76 57.1621 155.85C57.0661 156.947 55.9816 157.745 54.7422 157.636Z" fill="#401048"/>
<path d="M42.9319 171.951L29.2522 170.754C28.0226 170.647 27.1009 169.674 27.1969 168.577C27.2923 167.486 28.3689 166.688 29.5985 166.796L43.2783 167.992C44.5079 168.1 45.4295 169.073 45.3341 170.164C45.2381 171.261 44.1616 172.059 42.9319 171.951Z" fill="#401048"/>
<path d="M77.6767 149.113C66.0239 151.068 58.1581 162.1 60.113 173.756C62.0678 185.411 73.1034 193.28 84.7562 191.326C96.412 189.371 104.274 178.333 102.319 166.677C100.364 155.021 89.3326 147.159 77.6767 149.113Z" fill="#E1FF85"/>
<path d="M58.1539 174.086C56.0211 161.369 64.6314 149.289 77.3455 147.156C90.0626 145.024 102.146 153.633 104.279 166.351C106.412 179.068 97.7984 191.149 85.0812 193.282C72.3671 195.414 60.2867 186.803 58.1539 174.086ZM100.36 167.008C98.5892 156.45 88.5604 149.305 78.0028 151.076C67.4513 152.845 60.3024 162.871 62.073 173.429C63.8437 183.987 73.873 191.135 84.4244 189.365C94.9821 187.595 102.13 177.566 100.36 167.008Z" fill="#401048"/>
<path d="M66.6013 172.626C66.364 171.211 67.3159 169.871 68.7341 169.634C70.1491 169.396 71.489 170.351 71.7315 171.797C71.9642 173.184 70.9779 174.526 69.5628 174.764C68.1478 175.001 66.8392 174.044 66.6013 172.626ZM71.9753 178.607C72.81 177.474 74.4374 177.201 75.5981 178.031C76.7584 178.858 77.0313 180.485 76.1741 181.654C75.3471 182.814 73.7167 183.087 72.5565 182.26C71.9904 181.827 71.6442 181.234 71.5333 180.572C71.4218 179.908 71.5503 179.203 71.9753 178.607ZM69.1546 161.599C69.9811 160.436 71.6084 160.163 72.7753 160.992C73.9663 161.814 74.2393 163.441 73.3815 164.607C72.5489 165.771 70.9216 166.044 69.7608 165.214C69.1697 164.82 68.8152 164.196 68.7043 163.534C68.5928 162.87 68.7244 162.165 69.1546 161.599ZM80.5985 182.708C80.3915 181.285 81.3439 179.948 82.762 179.711C84.1771 179.473 85.5221 180.459 85.7287 181.879C85.9665 183.297 85.0141 184.634 83.5908 184.841C82.1727 185.079 80.8364 184.126 80.5985 182.708ZM78.7449 155.588L78.8433 155.572L78.9295 155.557C80.3522 155.347 81.689 156.303 81.8956 157.723C82.1334 159.141 81.1508 160.486 79.7275 160.693L79.7029 160.697L79.6044 160.713C78.2201 160.945 76.8802 159.99 76.6429 158.575C76.4051 157.157 77.3606 155.82 78.7449 155.588ZM89.0286 175.87C89.8555 174.71 91.489 174.436 92.6544 175.294C93.8178 176.12 94.0599 177.753 93.2335 178.916C92.3757 180.081 90.7715 180.322 89.6076 179.492C89.0108 179.064 88.662 178.474 88.5506 177.81C88.4396 177.149 88.5958 176.439 89.0286 175.87ZM86.3257 158.811C87.1527 157.651 88.78 157.378 89.9485 158.235C91.1119 159.062 91.354 160.694 90.5276 161.857C89.6667 163.023 88.0589 163.261 86.8986 162.434C86.3018 162.006 85.9561 161.416 85.8446 160.752C85.7332 160.087 85.893 159.38 86.3257 158.811ZM92.8801 165.739C94.2982 165.501 95.6428 166.484 95.8754 167.871C96.0794 169.295 95.127 170.631 93.7119 170.869C92.2886 171.076 90.9523 170.123 90.7453 168.7L90.7114 168.706C90.5049 167.285 91.4599 165.946 92.8801 165.739Z" fill="#B8D55F"/>
<path d="M188.691 56.1897L164.608 51.9432C152.969 49.8909 141.872 57.6611 139.82 69.3001L136.635 87.3654L151.686 90.0195L154.34 74.9676C155.22 69.979 159.976 66.6463 164.965 67.5259L183.027 70.7107C188.015 71.5904 191.345 76.3487 190.465 81.3374L180.099 140.233L195.151 142.887L206.048 80.978C208.1 69.3389 200.33 58.242 188.691 56.1897Z" fill="#79C3FB"/>
<path d="M178.871 54.4586L164.606 51.9432C152.967 49.8909 141.87 57.6611 139.818 69.3001L136.632 87.3654L151.687 90.02L154.341 74.9682C155.221 69.9796 159.977 66.6468 164.965 67.5264L183.025 70.7107C188.013 71.5904 191.348 76.3498 190.469 81.3384L180.118 140.237L185.346 141.159L196.228 79.2469C198.281 67.6078 190.511 56.5109 178.871 54.4586Z" fill="white"/>
<path d="M181.882 54.9888L170.63 53.0047C158.991 50.9524 147.894 58.7226 145.841 70.3617L142.656 88.427L151.687 90.0194L154.341 74.9675C155.221 69.9789 159.974 66.6456 164.962 67.5252L183.027 70.7106C188.016 71.5903 191.348 76.3492 190.469 81.3378L180.044 140.223L188.283 141.676L199.236 79.7765C201.288 68.1374 193.521 57.0411 181.882 54.9888Z" fill="#9FE0FC"/>
<path d="M194.838 144.688L179.786 142.034C178.705 141.843 177.984 140.813 178.175 139.729L188.509 80.9922C189.197 77.091 186.587 73.3588 182.686 72.671L164.62 69.4856C160.719 68.7977 156.986 71.4113 156.299 75.3125L153.644 90.3644C153.453 91.4487 152.423 92.1698 151.342 91.9792L136.287 89.3246C135.206 89.1339 134.488 88.1046 134.679 87.0203L137.864 68.9581C140.103 56.2592 152.252 47.7497 164.951 49.9889L189.04 54.2364C201.736 56.475 210.245 68.6271 208.006 81.3259L206.412 90.3663C206.221 91.4475 205.194 92.1692 204.113 91.9785C203.032 91.7879 202.311 90.758 202.501 89.6767L204.095 80.6364C205.954 70.097 198.889 60.0083 188.35 58.1499L164.261 53.9023C153.722 52.044 143.636 59.1087 141.777 69.6481L138.937 85.7567L150.072 87.7201L152.382 74.6219C153.451 68.5613 159.253 64.5009 165.311 65.569L183.376 68.7544C189.434 69.8225 193.492 75.6216 192.423 81.6822L182.43 138.462L193.572 140.426L200.378 101.718C200.569 100.634 201.599 99.9128 202.68 100.103C203.762 100.294 204.48 101.323 204.288 102.408L197.14 143.073C196.949 144.157 195.919 144.879 194.838 144.688Z" fill="#401048"/>
<path d="M199.68 117.108L133.446 105.429C128.458 104.55 123.702 107.879 122.823 112.868L111.675 176.092L135.398 164.755L189.594 174.311C194.583 175.191 199.338 171.861 200.218 166.873L207.119 127.732C207.999 122.743 204.669 117.988 199.68 117.108Z" fill="#8A4296"/>
<path d="M184.628 114.454L133.446 105.429C128.457 104.55 123.702 107.879 122.822 112.868L111.674 176.092L135.401 164.756L174.542 171.657C179.53 172.537 184.286 169.207 185.165 164.219L192.067 125.078C192.947 120.089 189.617 115.334 184.628 114.454Z" fill="white"/>
<path d="M187.639 114.985L142.48 107.022C137.495 106.143 132.737 109.472 131.857 114.461L121.846 171.234L135.401 164.756L177.553 172.188C182.541 173.068 187.294 169.734 188.174 164.746L195.075 125.608C195.954 120.619 192.628 115.864 187.639 114.985Z" fill="#9E6A99"/>
<path d="M111.33 178.05C111.023 177.996 110.728 177.871 110.474 177.678C109.879 177.227 109.592 176.48 109.721 175.749L120.869 112.528C121.938 106.467 127.731 102.405 133.792 103.474L200.026 115.153C206.084 116.221 210.142 122.02 209.073 128.081L202.172 167.216C201.104 173.276 195.308 177.335 189.25 176.267L135.681 166.821L112.531 177.885C112.15 178.068 111.729 178.121 111.33 178.05ZM133.101 107.391C129.2 106.703 125.471 109.314 124.782 113.218L114.305 172.636L134.544 162.959C134.917 162.784 135.336 162.725 135.741 162.796L189.94 172.353C193.841 173.041 197.571 170.424 198.259 166.526L205.159 127.391C205.848 123.486 203.237 119.757 199.335 119.069L133.101 107.391Z" fill="#401048"/>
<path d="M153.551 132.257C152.672 137.245 156.001 142.001 160.99 142.88C165.979 143.76 170.734 140.43 171.614 135.442C172.493 130.453 169.163 125.698 164.175 124.818C159.186 123.938 154.431 127.268 153.551 132.257Z" fill="white"/>
<path d="M167.897 156.518L149.835 153.333L159.041 136.326L165.062 137.388L167.897 156.518Z" fill="white"/>
</svg>
