<svg width="907" height="556" viewBox="0 0 907 556" fill="none" xmlns="http://www.w3.org/2000/svg">
<path d="M786.019 375.302V55.8601C786.019 50.0721 785.211 44.4951 783.723 39.2581H100.571C99.0834 44.4951 98.2754 50.0721 98.2754 55.8601V375.302C98.2754 388.069 102.191 399.808 108.741 409.128H775.554C782.103 399.808 786.019 388.069 786.019 375.302Z" fill="white"/>
<path d="M786.019 375.302V55.8601C786.019 50.0721 785.211 44.4951 783.723 39.2581H100.571C99.0834 44.4951 98.2754 50.0721 98.2754 55.8601V375.302C98.2754 388.069 102.191 399.808 108.741 409.128H775.554C782.103 399.808 786.019 388.069 786.019 375.302Z" stroke="#4545BE" stroke-width="2" stroke-linecap="round" stroke-linejoin="round"/>
<path d="M786.023 55.862V375.302C786.023 388.069 782.101 399.805 775.552 409.126H721.195V39.26H783.725C785.211 44.495 786.023 50.073 786.023 55.862Z" fill="#2D2DFF"/>
<path d="M786.023 55.862V375.302C786.023 388.069 782.101 399.805 775.552 409.126H721.195V39.26H783.725C785.211 44.495 786.023 50.073 786.023 55.862Z" stroke="black" stroke-width="2" stroke-linecap="round" stroke-linejoin="round"/>
<path d="M108.74 409.128C117.734 421.929 131.703 430.162 147.403 430.162H736.891C752.592 430.162 766.56 421.929 775.554 409.128H108.74Z" fill="#02021B"/>
<path d="M108.74 409.128C117.734 421.929 131.703 430.162 147.403 430.162H736.891C752.592 430.162 766.56 421.929 775.554 409.128H108.74Z" stroke="#4545BE" stroke-linecap="round" stroke-linejoin="round"/>
<path d="M736.892 1H147.404C125.454 1 106.871 17.077 100.571 39.258H783.723C777.423 17.077 758.842 1 736.892 1Z" fill="#02021B"/>
<path d="M736.892 1H147.404C125.454 1 106.871 17.077 100.571 39.258H783.723C777.423 17.077 758.842 1 736.892 1Z" stroke="#4545BE" stroke-linecap="round" stroke-linejoin="round"/>
<path d="M270.198 378.07H182.729C170.3 378.07 160.225 367.996 160.225 355.567V227.804C160.225 215.375 170.3 205.3 182.729 205.3H270.198C282.627 205.3 292.702 215.375 292.702 227.804V355.567C292.702 367.996 282.627 378.07 270.198 378.07Z" fill="white"/>
<path d="M270.198 378.07H182.729C170.3 378.07 160.225 367.996 160.225 355.567V227.804C160.225 215.375 170.3 205.3 182.729 205.3H270.198C282.627 205.3 292.702 215.375 292.702 227.804V355.567C292.702 367.996 282.627 378.07 270.198 378.07Z" stroke="#4545BE" stroke-width="2" stroke-linecap="round" stroke-linejoin="round"/>
<path d="M177.402 23.259C177.402 17.281 172.556 12.436 166.578 12.436C160.6 12.436 155.754 17.281 155.754 23.259C155.754 29.237 160.6 34.082 166.578 34.082C172.556 34.082 177.402 29.237 177.402 23.259Z" fill="white"/>
<path d="M177.402 23.259C177.402 17.281 172.556 12.436 166.578 12.436C160.6 12.436 155.754 17.281 155.754 23.259C155.754 29.237 160.6 34.082 166.578 34.082C172.556 34.082 177.402 29.237 177.402 23.259Z" stroke="#4545BE" stroke-width="2" stroke-linecap="round" stroke-linejoin="round"/>
<path d="M240.464 23.259C240.464 17.281 235.618 12.436 229.64 12.436C223.662 12.436 218.816 17.281 218.816 23.259C218.816 29.237 223.662 34.082 229.64 34.082C235.618 34.082 240.464 29.237 240.464 23.259Z" fill="white"/>
<path d="M240.464 23.259C240.464 17.281 235.618 12.436 229.64 12.436C223.662 12.436 218.816 17.281 218.816 23.259C218.816 29.237 223.662 34.082 229.64 34.082C235.618 34.082 240.464 29.237 240.464 23.259Z" stroke="#4545BE" stroke-width="2" stroke-linecap="round" stroke-linejoin="round"/>
<path d="M303.527 23.259C303.527 17.281 298.681 12.436 292.703 12.436C286.725 12.436 281.879 17.281 281.879 23.259C281.879 29.237 286.725 34.082 292.703 34.082C298.681 34.082 303.527 29.237 303.527 23.259Z" fill="white"/>
<path d="M303.527 23.259C303.527 17.281 298.681 12.436 292.703 12.436C286.725 12.436 281.879 17.281 281.879 23.259C281.879 29.237 286.725 34.082 292.703 34.082C298.681 34.082 303.527 29.237 303.527 23.259Z" stroke="#4545BE" stroke-width="2" stroke-linecap="round" stroke-linejoin="round"/>
<path d="M117.814 293.496C117.814 304.249 109.097 312.966 98.344 312.966C87.591 312.966 78.874 304.249 78.874 293.496C78.874 282.743 87.591 274.026 98.344 274.026C109.097 274.026 117.814 282.743 117.814 293.496Z" fill="white"/>
<path d="M117.814 293.496C117.814 304.249 109.097 312.966 98.344 312.966C87.591 312.966 78.874 304.249 78.874 293.496C78.874 282.743 87.591 274.026 98.344 274.026C109.097 274.026 117.814 282.743 117.814 293.496Z" stroke="#4545BE" stroke-width="2" stroke-linecap="round" stroke-linejoin="round"/>
<path d="M892.735 308.927V309.147C892.735 310.806 891.386 312.154 889.727 312.154H854.335C852.668 312.154 851.319 310.806 851.319 309.147V308.927C851.319 307.26 852.668 305.912 854.335 305.912H889.727C891.386 305.912 892.735 307.26 892.735 308.927Z" fill="white"/>
<path d="M892.735 308.927V309.147C892.735 310.806 891.386 312.154 889.727 312.154H854.335C852.668 312.154 851.319 310.806 851.319 309.147V308.927C851.319 307.26 852.668 305.912 854.335 305.912H889.727C891.386 305.912 892.735 307.26 892.735 308.927Z" stroke="#4545BE" stroke-width="2" stroke-linecap="round" stroke-linejoin="round"/>
<path d="M905.837 251.653C905.837 257.953 904.115 263.848 901.121 268.892C900.497 269.943 886.565 305.912 886.565 305.912H857.271C857.271 305.912 843.833 270.352 843.308 269.509C840.082 264.33 838.218 258.213 838.218 251.653C838.218 232.981 853.354 217.846 872.027 217.846C890.701 217.846 905.837 232.981 905.837 251.653Z" fill="white"/>
<path d="M905.837 251.653C905.837 257.953 904.115 263.848 901.121 268.892C900.497 269.943 886.565 305.912 886.565 305.912H857.271C857.271 305.912 843.833 270.352 843.308 269.509C840.082 264.33 838.218 258.213 838.218 251.653C838.218 232.981 853.354 217.846 872.027 217.846C890.701 217.846 905.837 232.981 905.837 251.653Z" stroke="#4545BE" stroke-width="2" stroke-linecap="round" stroke-linejoin="round"/>
<path d="M886.452 312.153L883.474 331.205C883.474 334.553 881.149 337.265 878.278 337.265H865.77C862.907 337.265 860.582 334.553 860.582 331.205L857.604 312.153H886.452Z" fill="white"/>
<path d="M886.452 312.153L883.474 331.205C883.474 334.553 881.149 337.265 878.278 337.265H865.77C862.907 337.265 860.582 334.553 860.582 331.205L857.604 312.153H886.452Z" stroke="#4545BE" stroke-width="2" stroke-linecap="round" stroke-linejoin="round"/>
<path d="M858.642 318.43H885.412" stroke="#4545BE" stroke-width="2" stroke-linecap="round" stroke-linejoin="round"/>
<path d="M860.003 326.041H884.052" stroke="#4545BE" stroke-width="2" stroke-linecap="round" stroke-linejoin="round"/>
<path d="M865.833 305.911C865.833 305.911 848.911 256.066 851.611 252.286C854.312 248.506 858.179 259.08 862.663 258.395C867.146 257.71 865.293 249.31 870.333 249.226C875.373 249.142 872.245 257.804 877.354 258.767C882.462 259.73 882.506 250.293 888.205 250.216C893.905 250.138 881.396 296.011 878.516 305.911" stroke="#4545BE" stroke-width="2" stroke-linecap="round" stroke-linejoin="round"/>
<path d="M862.884 305.912L863.19 297.936H880.495L881.396 305.912H862.884Z" fill="#02021B"/>
<path d="M862.884 305.912L863.19 297.936H880.495L881.396 305.912H862.884Z" stroke="#4545BE" stroke-linecap="round" stroke-linejoin="round"/>
<path d="M132.615 156.744L144.223 159.254" stroke="#4545BE" stroke-width="2" stroke-linecap="round" stroke-linejoin="round"/>
<path d="M147.675 173.057L144.224 159.255C113.791 194.391 142.655 228.585 142.655 228.585" stroke="#4545BE" stroke-width="2" stroke-linecap="round" stroke-linejoin="round"/>
<path d="M150.813 230.781C150.813 227.143 147.863 224.193 144.224 224.193C140.585 224.193 137.635 227.143 137.635 230.781C137.635 234.42 140.585 237.369 144.224 237.369C147.863 237.369 150.813 234.42 150.813 230.781Z" fill="#02021B"/>
<path d="M150.813 230.781C150.813 227.143 147.863 224.193 144.224 224.193C140.585 224.193 137.635 227.143 137.635 230.781C137.635 234.42 140.585 237.369 144.224 237.369C147.863 237.369 150.813 234.42 150.813 230.781Z" stroke="#4545BE" stroke-linecap="round" stroke-linejoin="round"/>
<path d="M327.449 57.5059V67.9629C291.996 44.4339 265.955 67.9629 265.955 67.9629" stroke="#4545BE" stroke-width="2" stroke-linecap="round" stroke-linejoin="round"/>
<path d="M318.822 71.5789L327.45 67.9629" stroke="#4545BE" stroke-width="2" stroke-linecap="round" stroke-linejoin="round"/>
<path d="M272.467 65.0649C272.467 62.4659 270.359 60.3589 267.76 60.3589C265.161 60.3589 263.054 62.4659 263.054 65.0649C263.054 67.6639 265.161 69.7709 267.76 69.7709C270.359 69.7709 272.467 67.6639 272.467 65.0649Z" fill="#02021B"/>
<path d="M272.467 65.0649C272.467 62.4659 270.359 60.3589 267.76 60.3589C265.161 60.3589 263.054 62.4659 263.054 65.0649C263.054 67.6639 265.161 69.7709 267.76 69.7709C270.359 69.7709 272.467 67.6639 272.467 65.0649Z" stroke="#4545BE" stroke-linecap="round" stroke-linejoin="round"/>
<path d="M128.302 128.71C128.302 163.86 99.803 192.355 64.651 192.355C29.497 192.355 1 163.86 1 128.71C1 93.5599 29.497 65.0649 64.651 65.0649C99.803 65.0649 128.302 93.5599 128.302 128.71Z" fill="white"/>
<path d="M128.302 128.71C128.302 163.86 99.803 192.355 64.651 192.355C29.497 192.355 1 163.86 1 128.71C1 93.5599 29.497 65.0649 64.651 65.0649C99.803 65.0649 128.302 93.5599 128.302 128.71Z" stroke="#4545BE" stroke-width="2" stroke-linecap="round" stroke-linejoin="round"/>
<path d="M758.53 231.902H703.939V202.902H758.53V231.902Z" fill="white"/>
<path d="M758.53 231.902H703.939V202.902H758.53V231.902Z" stroke="#4545BE" stroke-width="2" stroke-linecap="round" stroke-linejoin="round"/>
<path d="M75.5533 119.212C77.5633 116.773 78.7693 113.648 78.7693 110.241C78.7693 102.444 72.4493 96.123 64.6523 96.123C56.8553 96.123 50.5323 102.444 50.5323 110.241C50.5323 113.648 51.7413 116.773 53.7513 119.212C43.3033 123.504 35.9443 133.775 35.9443 145.769V161.297H93.3593V145.769C93.3593 133.775 86.0003 123.504 75.5533 119.212Z" fill="#02021B"/>
<path d="M75.5533 119.212C77.5633 116.773 78.7693 113.648 78.7693 110.241C78.7693 102.444 72.4493 96.123 64.6523 96.123C56.8553 96.123 50.5323 102.444 50.5323 110.241C50.5323 113.648 51.7413 116.773 53.7513 119.212C43.3033 123.504 35.9443 133.775 35.9443 145.769V161.297H93.3593V145.769C93.3593 133.775 86.0003 123.504 75.5533 119.212Z" stroke="#4545BE" stroke-linecap="round" stroke-linejoin="round"/>
<path d="M758.53 161.631H703.939V132.631H758.53V161.631Z" fill="white"/>
<path d="M758.53 161.631H703.939V132.631H758.53V161.631Z" stroke="#4545BE" stroke-width="2" stroke-linecap="round" stroke-linejoin="round"/>
<path d="M758.53 302.175H703.939V273.175H758.53V302.175Z" fill="white"/>
<path d="M758.53 302.175H703.939V273.175H758.53V302.175Z" stroke="#4545BE" stroke-width="2" stroke-linecap="round" stroke-linejoin="round"/>
<path d="M730.877 369.599H337.197C326.251 369.599 317.377 360.727 317.377 349.782V91.3961C317.377 80.4511 326.251 71.5791 337.197 71.5791H730.877C741.822 71.5791 750.695 80.4511 750.695 91.3961V349.782C750.695 360.727 741.822 369.599 730.877 369.599Z" stroke="#4545BE" stroke-width="2" stroke-linecap="round" stroke-linejoin="round" stroke-dasharray="8.03 8.03"/>
<path d="M274.506 191.762H174.375C166.56 191.762 160.225 185.427 160.225 177.612V99.696C160.225 89.646 168.372 81.498 178.422 81.498H274.506C284.556 81.498 292.703 89.646 292.703 99.696V173.566C292.703 183.616 284.556 191.762 274.506 191.762Z" stroke="#4545BE" stroke-width="2" stroke-linecap="round" stroke-linejoin="round" stroke-dasharray="8 8"/>
<path d="M709.901 87.727C709.901 106.699 694.52 122.079 675.547 122.079C656.573 122.079 641.191 106.699 641.191 87.727C641.191 68.755 656.573 53.375 675.547 53.375C694.52 53.375 709.901 68.755 709.901 87.727Z" fill="white"/>
<path d="M709.901 87.727C709.901 106.699 694.52 122.079 675.547 122.079C656.573 122.079 641.191 106.699 641.191 87.727C641.191 68.755 656.573 53.375 675.547 53.375C694.52 53.375 709.901 68.755 709.901 87.727Z" stroke="#4545BE" stroke-width="2" stroke-linecap="round" stroke-linejoin="round"/>
<path d="M694.574 94.7835C693.286 90.5238 692.276 70.7169 678.785 68.6328C679.073 68.0739 679.204 67.4263 679.123 66.7543C678.906 64.9764 677.289 63.7103 675.511 63.9265C673.732 64.1427 672.466 65.7593 672.682 67.5373C672.764 68.2093 673.046 68.8066 673.46 69.2801C660.861 74.5349 664.628 94.0077 664.398 98.4519C658.659 99.9685 661.058 104.574 661.058 104.574L680.17 102.25L699.283 99.9268C699.283 99.9268 700.508 94.8811 694.574 94.7835Z" fill="#02021B"/>
<path d="M694.574 94.7835C693.286 90.5238 692.276 70.7169 678.785 68.6328C679.073 68.0739 679.204 67.4263 679.123 66.7543C678.906 64.9764 677.289 63.7103 675.511 63.9265C673.732 64.1427 672.466 65.7593 672.682 67.5373C672.764 68.2093 673.046 68.8066 673.46 69.2801C660.861 74.5349 664.628 94.0077 664.398 98.4519C658.659 99.9685 661.058 104.574 661.058 104.574L680.17 102.25L699.283 99.9268C699.283 99.9268 700.508 94.8811 694.574 94.7835Z" stroke="#4545BE" stroke-linecap="round" stroke-linejoin="round"/>
<path d="M337.342 157.138C337.342 157.138 360.749 110.157 377.093 118.639C393.437 127.122 396.627 147.187 393.214 154.792C389.803 162.398 377.965 164.956 377.965 164.956C377.965 164.956 371.492 163.203 370.934 158.127C359.201 171.704 350.516 174.189 350.516 174.189L337.342 157.138Z" fill="white"/>
<path d="M337.342 157.138C337.342 157.138 360.749 110.157 377.093 118.639C393.437 127.122 396.627 147.187 393.214 154.792C389.803 162.398 377.965 164.956 377.965 164.956C377.965 164.956 371.492 163.203 370.934 158.127C359.201 171.704 350.516 174.189 350.516 174.189L337.342 157.138Z" stroke="#4545BE" stroke-width="2" stroke-linecap="round" stroke-linejoin="round"/>
<path d="M405.943 363.068C405.943 363.068 306.649 349.94 281.483 279.86C261.947 225.453 325.326 163.237 340.383 143.252C360.809 157.041 364.529 170.306 364.529 170.306C364.529 170.306 323.051 226.094 332.787 249.16C343.086 281.156 404.804 277.03 420.583 275.736" fill="#2D2DFF"/>
<path d="M405.943 363.068C405.943 363.068 306.649 349.94 281.483 279.86C261.947 225.453 325.326 163.237 340.383 143.252C360.809 157.041 364.529 170.306 364.529 170.306C364.529 170.306 323.051 226.094 332.787 249.16C343.086 281.156 404.804 277.03 420.583 275.736" stroke="black" stroke-width="2" stroke-linecap="round" stroke-linejoin="round"/>
<path d="M404.416 362.204C420.723 436.453 392.546 491.935 392.546 491.935C392.546 491.935 519.849 506.969 543.34 493.907C566.778 441.639 589.894 279.975 538.929 273.479C487.962 266.983 421.852 275.803 421.852 275.803C421.852 275.803 420.07 275.86 417.432 276.604" fill="#2D2DFF"/>
<path d="M404.416 362.204C420.723 436.453 392.546 491.935 392.546 491.935C392.546 491.935 519.849 506.969 543.34 493.907C566.778 441.639 589.894 279.975 538.929 273.479C487.962 266.983 421.852 275.803 421.852 275.803C421.852 275.803 420.07 275.86 417.432 276.604" stroke="black" stroke-width="2" stroke-linecap="round" stroke-linejoin="round"/>
<path d="M458.568 264.686C461.94 274.975 455.308 276.278 449.175 287.636C449.969 300.226 488.517 328.272 508.68 289.077C505.718 255.997 501.956 264.665 501.956 264.665C513.873 239.24 518.428 181.742 496.306 175.905C474.185 170.068 457.253 188.738 457.253 188.738C457.253 188.738 432.377 253.012 449.892 261.576C467.407 270.14 487.777 264.143 487.777 264.143" fill="white"/>
<path d="M458.568 264.686C461.94 274.975 455.308 276.278 449.175 287.636C449.969 300.226 488.517 328.272 508.68 289.077C505.718 255.997 501.956 264.665 501.956 264.665C513.873 239.24 518.428 181.742 496.306 175.905C474.185 170.068 457.253 188.738 457.253 188.738C457.253 188.738 432.377 253.012 449.892 261.576C467.407 270.14 487.777 264.143 487.777 264.143" stroke="#4545BE" stroke-width="2" stroke-linecap="round" stroke-linejoin="round"/>
<path d="M448.607 173.721C448.607 173.721 432.674 189.341 467.701 203.167C493.861 210.951 487.377 220.317 489.436 230.561L492.022 234.17C492.022 234.17 492.311 223.779 498.652 227.152C504.994 230.524 508.231 244.466 500.189 251.573C501.957 264.664 508.356 261.432 508.356 261.432C508.356 261.432 520.793 241.789 521.845 228.521C522.896 215.252 525.584 198.622 515.722 191.186C520.822 174.834 483.267 160.224 451.497 173.539" fill="#02021B"/>
<path d="M448.607 173.721C448.607 173.721 432.674 189.341 467.701 203.167C493.861 210.951 487.377 220.317 489.436 230.561L492.022 234.17C492.022 234.17 492.311 223.779 498.652 227.152C504.994 230.524 508.231 244.466 500.189 251.573C501.957 264.664 508.356 261.432 508.356 261.432C508.356 261.432 520.793 241.789 521.845 228.521C522.896 215.252 525.584 198.622 515.722 191.186C520.822 174.834 483.267 160.224 451.497 173.539" stroke="#4545BE" stroke-linecap="round" stroke-linejoin="round"/>
<path d="M458.965 270.988L458.568 264.686C470.073 266.31 480.866 266.575 489.583 262.867C488.943 267.635 478.737 270.341 458.965 270.988Z" fill="#02021B"/>
<path d="M458.965 270.988L458.568 264.686C470.073 266.31 480.866 266.575 489.583 262.867C488.943 267.635 478.737 270.341 458.965 270.988Z" stroke="#4545BE" stroke-linecap="round" stroke-linejoin="round"/>
<path d="M539.891 495.057C617.188 453.931 663.075 459.298 663.075 459.298C663.075 459.298 680.017 464.891 681.428 485.361C682.84 505.83 516.951 590.535 516.951 590.535C516.951 590.535 432.239 585.592 411.061 575.004C389.884 564.416 324.233 505.124 324.233 505.124C324.233 505.124 358.824 501.581 366.589 499.824C374.354 498.066 446.912 475.479 446.912 475.479" fill="white"/>
<path d="M539.891 495.057C617.188 453.931 663.075 459.298 663.075 459.298C663.075 459.298 680.017 464.891 681.428 485.361C682.84 505.83 516.951 590.535 516.951 590.535C516.951 590.535 432.239 585.592 411.061 575.004C389.884 564.416 324.233 505.124 324.233 505.124C324.233 505.124 358.824 501.581 366.589 499.824C374.354 498.066 446.912 475.479 446.912 475.479" stroke="#4545BE" stroke-width="2" stroke-linecap="round" stroke-linejoin="round"/>
<path d="M657.783 459.07C693.274 456.969 732.805 499.165 689.509 531.633C646.213 564.103 531.54 610.113 531.54 610.113C531.54 610.113 457.184 612.886 447.301 589.828C441.833 577.07 500.049 540.337 560.247 506.537" fill="white"/>
<path d="M657.783 459.07C693.274 456.969 732.805 499.165 689.509 531.633C646.213 564.103 531.54 610.113 531.54 610.113C531.54 610.113 457.184 612.886 447.301 589.828C441.833 577.07 500.049 540.337 560.247 506.537" stroke="#4545BE" stroke-width="2" stroke-linecap="round" stroke-linejoin="round"/>
<path d="M349.882 507.477C349.882 507.477 467.065 571.946 470.829 587.475C474.594 603.003 450.122 626.533 450.122 626.533C450.122 626.533 229.978 564.295 221.405 511.712C214.345 468.42 243.05 461.798 268.264 460.397C293.479 458.995 392.708 487.713 392.708 487.713L495.301 495.057L543.397 493.263" fill="white"/>
<path d="M349.882 507.477C349.882 507.477 467.065 571.946 470.829 587.475C474.594 603.003 450.122 626.533 450.122 626.533C450.122 626.533 229.978 564.295 221.405 511.712C214.345 468.42 243.05 461.798 268.264 460.397C293.479 458.995 392.708 487.713 392.708 487.713L495.301 495.057L543.397 493.263" stroke="#4545BE" stroke-width="2" stroke-linecap="round" stroke-linejoin="round"/>
<path d="M380.613 454.139L425.451 521.432L547.08 524.802L516.336 458.995L380.613 454.139Z" fill="#02021B"/>
<path d="M380.613 454.139L425.451 521.432L547.08 524.802L516.336 458.995L380.613 454.139Z" stroke="#4545BE" stroke-linecap="round" stroke-linejoin="round"/>
<path d="M374.021 454.139L418.859 521.432L540.489 524.802L509.743 458.995L374.021 454.139Z" fill="white"/>
<path d="M374.021 454.139L418.859 521.432L540.489 524.802L509.743 458.995L374.021 454.139Z" stroke="#4545BE" stroke-width="2" stroke-linecap="round" stroke-linejoin="round"/>
<path d="M457.255 480.812L455.308 501.518L472.406 499.217L457.255 480.812Z" fill="#2D2DFF"/>
<path d="M457.255 480.812L455.308 501.518L472.406 499.217L457.255 480.812Z" stroke="black" stroke-width="2" stroke-linecap="round" stroke-linejoin="round"/>
<path d="M569.667 492.166C569.667 492.166 543.277 500.207 541.965 510.401C526.427 514.657 526.684 516.355 526.684 516.355C526.684 516.355 533.818 543.046 554.554 535.385C575.289 527.725 587.622 502.297 587.622 502.297L569.667 492.166Z" fill="white"/>
<path d="M569.667 492.166C569.667 492.166 543.277 500.207 541.965 510.401C526.427 514.657 526.684 516.355 526.684 516.355C526.684 516.355 533.818 543.046 554.554 535.385C575.289 527.725 587.622 502.297 587.622 502.297L569.667 492.166Z" stroke="#4545BE" stroke-width="2" stroke-linecap="round" stroke-linejoin="round"/>
<path d="M537.033 272.894C537.033 272.894 645.473 285.553 647.391 381.402C649.11 467.399 588.572 506.984 588.572 506.984C575.814 508.364 566.143 510.1 564.394 490.347C564.394 490.347 601.666 411.004 599.615 397.459C597.564 383.913 573.466 343.855 552.573 337.431" fill="#2D2DFF"/>
<path d="M537.033 272.894C537.033 272.894 645.473 285.553 647.391 381.402C649.11 467.399 588.572 506.984 588.572 506.984C575.814 508.364 566.143 510.1 564.394 490.347C564.394 490.347 601.666 411.004 599.615 397.459C597.564 383.913 573.466 343.855 552.573 337.431" stroke="black" stroke-width="2" stroke-linecap="round" stroke-linejoin="round"/>
</svg>
